<?xml version="1.0" encoding="utf-8"?>
<!DOCTYPE svg PUBLIC "-//W3C//DTD SVG 1.1//EN" "http://www.w3.org/Graphics/SVG/1.1/DTD/svg11.dtd">
<svg xmlns="http://www.w3.org/2000/svg" xmlns:xlink="http://www.w3.org/1999/xlink" version="1.1" baseProfile="full" width="281.344" height="230.248" viewBox="0 0 281.34 230.25" enable-background="new 0 0 281.34 230.25" xml:space="preserve">
	<path fill="#FFFFFF" fill-opacity="1" fill-rule="evenodd" stroke-width="0.2" stroke-linejoin="round" d="M 100.139,80.6586L 80.5091,156.9L 60.9509,156.9L 50.0693,114.672L 39.4545,156.9L 19.0605,156.9L 6.10352e-005,80.6586L 22.2965,80.6586L 32.2712,122.14L 42.9572,80.6586L 60.3286,80.6586L 71.5657,123.402L 82.3049,80.6586L 100.139,80.6586 Z M 165.001,138.694L 165.001,156.901L 108.104,156.901L 108.104,80.6587L 165.001,80.6587L 165.001,97.7278L 130.863,97.7278L 130.863,109.107L 158.173,109.107L 158.173,126.176L 130.863,126.176L 130.863,138.694L 165.001,138.694 Z M 174.104,156.901L 174.104,80.6587L 211.852,80.6587C 219.699,80.6587 225.421,82.7034 229.019,86.7929C 232.616,90.8824 234.415,95.5467 234.415,100.786C 234.415,104.615 233.363,108.076 231.259,111.17C 229.155,114.263 226.017,116.391 221.844,117.553C 231.742,119.923 236.691,125.809 236.691,135.209C 236.691,140.827 234.984,145.847 231.57,150.268C 228.156,154.69 220.867,156.901 209.701,156.901L 174.104,156.901 Z M 195.725,110.245L 205.86,110.245C 208.397,110.245 210.187,109.513 211.23,108.049C 212.273,106.585 212.794,105.024 212.794,103.364C 212.794,98.8479 210.358,96.5898 205.487,96.5898L 195.725,96.5898L 195.725,110.245 Z M 195.725,139.831L 206.304,139.831C 208.936,139.831 210.865,139.144 212.092,137.769C 213.319,136.394 213.932,134.841 213.932,133.111C 213.932,131.392 213.337,129.806 212.145,128.354C 210.954,126.902 208.764,126.176 205.575,126.176L 195.725,126.176L 195.725,139.831 Z M 58.257,61.1485C 57.8256,59.575 57.5697,57.9233 57.4893,56.1934C 57.409,54.4635 57.3688,52.8117 57.3688,51.2384L 57.3688,35.1613C 57.3688,33.4863 57.2186,31.8896 56.9183,30.3712C 56.618,28.8528 56.1168,27.5395 55.4147,26.4313C 54.7125,25.3231 53.8073,24.4433 52.6992,23.7919C 51.591,23.1405 50.1952,22.8148 48.5118,22.8148C 46.2362,22.8148 43.9902,23.3563 41.7739,24.4391C 39.5576,25.5219 37.502,26.7696 35.6071,28.1823C 36.1992,30.2887 36.4953,32.4797 36.4953,34.7552L 36.4953,51.2384C 36.4953,52.8117 36.5355,54.4635 36.6158,56.1934C 36.6962,57.9233 36.9521,59.575 37.3835,61.1485L 32.676,61.1485C 32.2445,59.575 31.9886,57.9233 31.9083,56.1934C 31.8279,54.4635 31.7877,52.8117 31.7877,51.2384L 31.7877,35.1613C 31.7877,33.4863 31.6375,31.9044 31.3372,30.4156C 31.0369,28.9268 30.5484,27.6135 29.8716,26.4756C 29.1949,25.3379 28.2898,24.4433 27.1562,23.7919C 26.0226,23.1405 24.6438,22.8148 23.0196,22.8148C 20.854,22.8148 18.7011,23.3436 16.5609,24.401C 14.4206,25.4585 12.3481,26.7189 10.3432,28.1823L 10.3432,61.1485L 5.63559,61.1485L 5.63559,19.5664L 9.77222,19.1604L 10.2671,24.3629C 12.162,22.8487 14.2599,21.5079 16.5609,20.3405C 18.8618,19.1731 21.3362,18.5894 23.9839,18.5894C 26.5302,18.5894 28.6704,19.1731 30.4046,20.3405C 32.1388,21.5079 33.4923,23.0898 34.4651,25.0862C 36.5798,23.1913 38.8809,21.6348 41.3679,20.4167C 43.8549,19.1985 46.4815,18.5894 49.2478,18.5894C 51.4641,18.5894 53.3717,19.0103 54.9705,19.852C 56.5693,20.6936 57.8954,21.8315 58.9485,23.2653C 60.0017,24.6992 60.7864,26.4038 61.3023,28.379C 61.8184,30.3542 62.0764,32.4797 62.0764,34.7552L 62.0764,51.2384C 62.0764,52.8117 62.1166,54.4635 62.197,56.1934C 62.2773,57.9233 62.5332,59.575 62.9647,61.1485L 58.257,61.1485 Z M 97.7325,56.4408C 99.5175,55.5695 101.004,54.3493 102.193,52.78C 103.381,51.2108 104.289,49.3709 104.915,47.2603C 105.541,45.1497 105.854,42.8213 105.854,40.275C 105.854,37.788 105.541,35.4743 104.915,33.3341C 104.289,31.1939 103.381,29.3391 102.193,27.7699C 101.004,26.2008 99.5154,24.9825 97.7263,24.1155C 95.9371,23.2484 93.8793,22.8148 91.553,22.8148C 89.2267,22.8148 87.1711,23.2484 85.3861,24.1155C 83.6013,24.9825 82.1124,26.2008 80.9196,27.7699C 79.7268,29.3391 78.8195,31.1939 78.1978,33.3341C 77.576,35.4743 77.2651,37.788 77.2651,40.275C 77.2651,42.8213 77.576,45.1497 78.1978,47.2603C 78.8195,49.3709 79.7268,51.2108 80.9196,52.78C 82.1124,54.3493 83.6013,55.5674 85.3861,56.4344C 87.1711,57.3015 89.2267,57.7351 91.553,57.7351C 93.8793,57.7351 95.9392,57.3036 97.7325,56.4408 Z M 105.6,55.946C 103.976,57.8408 101.988,59.317 99.6359,60.3744C 97.2842,61.4318 94.5899,61.9605 91.553,61.9605C 88.5245,61.9605 85.8324,61.4318 83.4764,60.3744C 81.1205,59.317 79.1305,57.8282 77.5062,55.9079C 75.8821,53.9876 74.6364,51.7014 73.7693,49.0494C 72.9022,46.3974 72.4687,43.4726 72.4687,40.275C 72.4687,37.0858 72.9022,34.1631 73.7693,31.5068C 74.6364,28.8506 75.8821,26.5623 77.5062,24.6421C 79.1305,22.7218 81.1205,21.233 83.4764,20.1755C 85.8324,19.1181 88.5245,18.5894 91.553,18.5894C 94.5899,18.5894 97.2842,19.1181 99.6359,20.1755C 101.988,21.233 103.976,22.7218 105.6,24.6421C 107.224,26.5623 108.47,28.8506 109.337,31.5068C 110.204,34.1631 110.637,37.0858 110.637,40.275C 110.637,43.4726 110.204,46.3974 109.337,49.0494C 108.47,51.7014 107.224,54.0003 105.6,55.946 Z M 125.991,61.1485L 122.007,61.1485L 122.007,0.406036L 126.714,0L 126.714,24.5279C 128.778,22.7937 131.014,21.3704 133.421,20.2581C 135.827,19.1456 138.384,18.5894 141.091,18.5894C 143.747,18.5894 146.091,19.1583 148.121,20.2961C 150.151,21.4339 151.87,22.965 153.279,24.8895C 154.687,26.8141 155.755,29.0473 156.483,31.5894C 157.21,34.1314 157.574,36.8109 157.574,39.6278C 157.574,42.6563 157.168,45.524 156.356,48.231C 155.544,50.938 154.353,53.3066 152.784,55.3369C 151.215,57.3671 149.294,58.9786 147.023,60.1714C 144.752,61.3641 142.153,61.9605 139.226,61.9605C 136.739,61.9605 134.398,61.527 132.202,60.6599C 130.007,59.7928 128.127,58.7375 126.562,57.494L 125.991,61.1485 Z M 126.714,53.2686C 128.398,54.5121 130.267,55.5674 132.323,56.4344C 134.379,57.3015 136.544,57.7351 138.82,57.7351C 141.146,57.7351 143.176,57.2339 144.91,56.2314C 146.645,55.229 148.093,53.8904 149.256,52.2154C 150.42,50.5404 151.299,48.6053 151.896,46.4102C 152.492,44.2149 152.79,41.9288 152.79,39.5517C 152.79,37.2762 152.52,35.1359 151.978,33.1311C 151.437,31.1262 150.637,29.3518 149.58,27.808C 148.523,26.2642 147.222,25.046 145.678,24.1536C 144.134,23.2611 142.335,22.8148 140.279,22.8148C 137.843,22.8148 135.447,23.3711 133.091,24.4835C 130.735,25.5959 128.609,26.9346 126.714,28.4996L 126.714,53.2686 Z M 173.004,61.1485L 168.296,61.1485L 168.296,19.5664L 173.004,19.1604L 173.004,61.1485 Z M 174.07,4.63147C 174.07,5.71426 173.757,6.56656 173.131,7.18832C 172.505,7.81009 171.68,8.12097 170.657,8.12097C 169.624,8.12097 168.798,7.81009 168.176,7.18832C 167.554,6.56656 167.243,5.71426 167.243,4.63147C 167.243,3.54871 167.554,2.70911 168.176,2.1127C 168.798,1.51633 169.624,1.21814 170.657,1.21814C 171.68,1.21814 172.505,1.51633 173.131,2.1127C 173.757,2.70911 174.07,3.54871 174.07,4.63147 Z M 191.682,61.1485L 186.975,61.1485L 186.975,0.406036L 191.682,0L 191.682,61.1485 Z M 235.789,58.1411C 233.784,59.3846 231.659,60.3321 229.413,60.9835C 227.167,61.6349 224.771,61.9605 222.225,61.9605C 219.086,61.9605 216.284,61.4318 213.818,60.3744C 211.352,59.317 209.28,57.8408 207.601,55.946C 205.921,54.0511 204.636,51.7501 203.743,49.0431C 202.851,46.3362 202.405,43.333 202.405,40.0338C 202.405,37.107 202.758,34.345 203.464,31.7479C 204.17,29.151 205.24,26.8775 206.674,24.9276C 208.108,22.9778 209.921,21.4339 212.112,20.2961C 214.303,19.1583 216.887,18.5894 219.865,18.5894C 222.521,18.5894 224.892,19.0631 226.977,20.0106C 229.062,20.958 230.822,22.2587 232.255,23.9125C 233.689,25.5663 234.772,27.5436 235.504,29.8446C 236.236,32.1455 236.601,34.6495 236.601,37.3565C 236.601,38.1094 236.574,38.8665 236.519,39.6278C 236.464,40.3892 236.382,41.0659 236.272,41.6581L 207.201,41.6581C 207.472,46.6914 208.905,50.6292 211.503,53.4716C 214.1,56.3139 217.729,57.7351 222.39,57.7351C 224.445,57.7351 226.448,57.4369 228.398,56.8405C 230.348,56.2441 232.27,55.4045 234.165,54.3217L 235.789,58.1411 Z M 231.97,37.7626C 231.911,33.1606 230.881,29.5189 228.88,26.8373C 226.88,24.1556 223.904,22.8148 219.953,22.8148C 217.839,22.8148 216.009,23.2083 214.465,23.995C 212.922,24.7817 211.623,25.8518 210.57,27.2053C 209.517,28.5588 208.719,30.1428 208.178,31.9574C 207.637,33.7719 207.281,35.7069 207.112,37.7626L 231.97,37.7626 Z M 8.98569,229.63L 5.40369,229.63L 5.40369,183.653L 8.55121,183.345L 8.92773,187.429C 10.5305,186.109 12.249,185.026 14.0835,184.18C 15.9179,183.333 17.865,182.91 19.9247,182.91C 21.9458,182.91 23.7287,183.343 25.2735,184.209C 26.8183,185.074 28.1249,186.239 29.1934,187.704C 30.2618,189.168 31.0745,190.867 31.6312,192.802C 32.188,194.736 32.4664,196.774 32.4664,198.918C 32.4664,201.222 32.1574,203.404 31.5395,205.464C 30.9216,207.524 30.0157,209.326 28.8217,210.871C 27.6277,212.415 26.1762,213.642 24.4673,214.549C 22.7584,215.457 20.7904,215.91 18.5633,215.91C 16.671,215.91 14.9106,215.602 13.2821,214.984C 11.6537,214.366 10.2215,213.584 8.98569,212.637L 8.98569,229.63 Z M 8.98569,209.297C 10.2665,210.243 11.6987,211.046 13.2821,211.706C 14.8655,212.366 16.5036,212.695 18.1965,212.695C 19.9665,212.695 21.5209,212.314 22.8598,211.551C 24.1986,210.789 25.3105,209.77 26.1955,208.496C 27.0806,207.221 27.7403,205.749 28.1748,204.078C 28.6093,202.408 28.8265,200.669 28.8265,198.86C 28.8265,197.128 28.6205,195.5 28.2086,193.975C 27.7966,192.449 27.1884,191.099 26.3838,189.924C 25.5792,188.75 24.5896,187.823 23.4149,187.144C 22.2402,186.465 20.8708,186.125 19.3068,186.125C 17.453,186.125 15.6299,186.548 13.8372,187.395C 12.0446,188.241 10.4275,189.26 8.98569,190.451L 8.98569,209.297 Z M 44.2068,215.293L 40.6248,215.293L 40.6248,183.653L 43.7723,183.345L 44.2068,188.162C 45.6485,186.515 47.1418,185.227 48.6866,184.3C 50.2314,183.373 51.8276,182.91 53.4755,182.91C 53.9711,182.91 54.5793,182.962 55.3002,183.065C 56.0211,183.167 56.6294,183.303 57.125,183.47L 56.2561,186.927C 55.1876,186.598 54.1384,186.434 53.1086,186.434C 51.4608,186.434 49.9048,186.867 48.4404,187.733C 46.9761,188.598 45.5649,189.813 44.2068,191.377L 44.2068,215.293 Z M 79.8043,211.711C 81.1625,211.048 82.2938,210.119 83.1981,208.925C 84.1024,207.731 84.7928,206.331 85.269,204.725C 85.7454,203.119 85.9835,201.348 85.9835,199.41C 85.9835,197.518 85.7454,195.758 85.269,194.129C 84.7928,192.501 84.1024,191.089 83.1981,189.895C 82.2938,188.701 81.1609,187.774 79.7996,187.115C 78.4382,186.455 76.8725,186.125 75.1025,186.125C 73.3324,186.125 71.7683,186.455 70.4101,187.115C 69.0521,187.774 67.9192,188.701 67.0116,189.895C 66.1041,191.089 65.4138,192.501 64.9406,194.129C 64.4676,195.758 64.231,197.518 64.231,199.41C 64.231,201.348 64.4676,203.119 64.9406,204.725C 65.4138,206.331 66.1041,207.731 67.0116,208.925C 67.9192,210.119 69.0521,211.046 70.4101,211.706C 71.7683,212.366 73.3324,212.695 75.1025,212.695C 76.8725,212.695 78.4398,212.367 79.8043,211.711 Z M 85.7904,211.334C 84.5546,212.776 83.042,213.899 81.2526,214.704C 79.4632,215.508 77.4131,215.91 75.1025,215.91C 72.7982,215.91 70.7497,215.508 68.9571,214.704C 67.1645,213.899 65.6503,212.766 64.4145,211.305C 63.1786,209.844 62.2308,208.105 61.5711,206.087C 60.9113,204.069 60.5815,201.843 60.5815,199.41C 60.5815,196.984 60.9113,194.76 61.5711,192.739C 62.2308,190.718 63.1786,188.977 64.4145,187.515C 65.6503,186.054 67.1645,184.921 68.9571,184.117C 70.7497,183.312 72.7982,182.91 75.1025,182.91C 77.4131,182.91 79.4632,183.312 81.2526,184.117C 83.042,184.921 84.5546,186.054 85.7904,187.515C 87.0262,188.977 87.974,190.718 88.6338,192.739C 89.2935,194.76 89.6234,196.984 89.6234,199.41C 89.6234,201.843 89.2935,204.069 88.6338,206.087C 87.974,208.105 87.0262,209.854 85.7904,211.334 Z M 122.624,213.999C 122.624,219.225 121.563,223.24 119.443,226.043C 117.322,228.846 113.851,230.248 109.03,230.248C 105.033,230.248 101.406,229.26 98.1487,227.284L 99.3845,224.436C 100.994,225.305 102.561,225.964 104.086,226.415C 105.612,226.866 107.198,227.091 108.846,227.091C 110.777,227.091 112.393,226.803 113.693,226.227C 114.993,225.651 116.044,224.807 116.845,223.697C 117.647,222.587 118.213,221.227 118.545,219.618C 118.876,218.009 119.042,216.174 119.042,214.115L 119.042,211.527C 117.555,212.679 115.896,213.656 114.065,214.457C 112.234,215.259 110.307,215.659 108.286,215.659C 106.265,215.659 104.482,215.228 102.937,214.366C 101.393,213.503 100.096,212.34 99.0465,210.875C 97.9974,209.411 97.1944,207.722 96.6376,205.807C 96.0809,203.892 95.8025,201.863 95.8025,199.719C 95.8025,197.454 96.1114,195.302 96.7294,193.265C 97.3473,191.228 98.2533,189.446 99.4472,187.921C 100.641,186.395 102.094,185.179 103.806,184.271C 105.519,183.364 107.485,182.91 109.706,182.91C 111.559,182.91 113.289,183.23 114.895,183.871C 116.501,184.511 117.903,185.285 119.1,186.193L 119.351,183.653L 122.624,183.345L 122.624,213.999 Z M 119.042,189.466C 117.806,188.52 116.404,187.726 114.837,187.086C 113.27,186.445 111.685,186.125 110.082,186.125C 108.267,186.125 106.7,186.497 105.38,187.24C 104.061,187.984 102.958,188.993 102.073,190.267C 101.188,191.542 100.53,193.003 100.099,194.65C 99.6677,196.298 99.452,198.03 99.452,199.845C 99.452,201.531 99.6468,203.137 100.036,204.663C 100.426,206.188 101.013,207.527 101.798,208.679C 102.583,209.831 103.583,210.748 104.796,211.431C 106.009,212.113 107.421,212.454 109.03,212.454C 110.677,212.454 112.377,212.082 114.128,211.339C 115.878,210.595 117.516,209.628 119.042,208.438L 119.042,189.466 Z M 136.894,215.293L 133.312,215.293L 133.312,183.653L 136.459,183.345L 136.894,188.162C 138.336,186.515 139.829,185.227 141.374,184.3C 142.918,183.373 144.515,182.91 146.162,182.91C 146.658,182.91 147.266,182.962 147.987,183.065C 148.708,183.167 149.316,183.303 149.812,183.47L 148.943,186.927C 147.875,186.598 146.825,186.434 145.796,186.434C 144.148,186.434 142.592,186.867 141.127,187.733C 139.663,188.598 138.252,189.813 136.894,191.377L 136.894,215.293 Z M 178.671,213.004C 177.145,213.951 175.528,214.671 173.819,215.167C 172.11,215.663 170.287,215.91 168.349,215.91C 165.961,215.91 163.829,215.508 161.953,214.704C 160.077,213.899 158.5,212.776 157.222,211.334C 155.944,209.892 154.966,208.142 154.287,206.082C 153.608,204.022 153.268,201.737 153.268,199.227C 153.268,197 153.537,194.898 154.075,192.922C 154.612,190.946 155.426,189.216 156.517,187.733C 157.608,186.249 158.987,185.074 160.654,184.209C 162.322,183.343 164.288,182.91 166.554,182.91C 168.575,182.91 170.379,183.271 171.965,183.991C 173.552,184.712 174.891,185.702 175.982,186.96C 177.073,188.219 177.897,189.723 178.453,191.474C 179.01,193.225 179.288,195.13 179.288,197.19C 179.288,197.763 179.267,198.339 179.226,198.918C 179.184,199.497 179.121,200.012 179.037,200.463L 156.918,200.463C 157.124,204.292 158.215,207.289 160.191,209.451C 162.167,211.614 164.928,212.695 168.475,212.695C 170.039,212.695 171.563,212.469 173.047,212.015C 174.53,211.561 175.993,210.922 177.435,210.098L 178.671,213.004 Z M 175.764,197.499C 175.719,193.997 174.936,191.226 173.413,189.186C 171.891,187.145 169.627,186.125 166.621,186.125C 165.012,186.125 163.62,186.424 162.445,187.023C 161.271,187.622 160.283,188.436 159.481,189.466C 158.68,190.496 158.073,191.701 157.661,193.081C 157.25,194.462 156.979,195.935 156.85,197.499L 175.764,197.499 Z M 186.394,210.166C 187.959,210.99 189.626,211.617 191.396,212.049C 193.166,212.48 194.917,212.695 196.648,212.695C 197.594,212.695 198.531,212.613 199.458,212.449C 200.384,212.285 201.22,211.997 201.963,211.585C 202.706,211.173 203.303,210.637 203.754,209.978C 204.205,209.318 204.43,208.496 204.43,207.511C 204.43,206.603 204.214,205.82 203.783,205.16C 203.352,204.5 202.755,203.922 201.992,203.427C 201.229,202.931 200.302,202.468 199.211,202.036C 198.12,201.605 196.896,201.142 195.538,200.646C 194.218,200.15 192.95,199.645 191.734,199.13C 190.517,198.615 189.445,198.009 188.519,197.31C 187.592,196.612 186.861,195.788 186.327,194.839C 185.793,193.889 185.526,192.735 185.526,191.377C 185.526,189.981 185.825,188.746 186.423,187.675C 187.022,186.603 187.836,185.716 188.866,185.015C 189.896,184.313 191.09,183.787 192.448,183.436C 193.806,183.085 195.248,182.91 196.773,182.91C 198.505,182.91 200.265,183.137 202.055,183.591C 203.844,184.044 205.585,184.725 207.278,185.633L 206.042,188.539C 204.478,187.754 202.903,187.155 201.316,186.743C 199.73,186.331 198.193,186.125 196.706,186.125C 195.721,186.125 194.775,186.228 193.867,186.434C 192.96,186.64 192.157,186.949 191.458,187.361C 190.76,187.773 190.205,188.299 189.793,188.94C 189.381,189.58 189.175,190.331 189.175,191.194C 189.175,192.056 189.37,192.787 189.759,193.386C 190.149,193.984 190.715,194.531 191.458,195.027C 192.202,195.523 193.089,195.976 194.118,196.388C 195.148,196.8 196.3,197.231 197.575,197.682C 198.894,198.133 200.182,198.615 201.437,199.13C 202.692,199.645 203.814,200.263 204.802,200.984C 205.79,201.705 206.583,202.571 207.181,203.581C 207.78,204.592 208.079,205.837 208.079,207.318C 208.079,208.843 207.761,210.151 207.124,211.242C 206.486,212.333 205.632,213.22 204.56,213.902C 203.488,214.585 202.241,215.09 200.819,215.418C 199.396,215.746 197.903,215.91 196.339,215.91C 194.318,215.91 192.329,215.663 190.372,215.167C 188.416,214.671 186.678,213.992 185.159,213.13L 186.394,210.166 Z M 214.819,210.166C 216.383,210.99 218.05,211.617 219.82,212.049C 221.59,212.48 223.34,212.695 225.072,212.695C 226.018,212.695 226.955,212.613 227.882,212.449C 228.808,212.285 229.644,211.997 230.387,211.585C 231.13,211.173 231.727,210.637 232.178,209.978C 232.629,209.318 232.854,208.496 232.854,207.511C 232.854,206.603 232.638,205.82 232.207,205.16C 231.776,204.5 231.179,203.922 230.416,203.427C 229.653,202.931 228.726,202.468 227.635,202.036C 226.544,201.605 225.32,201.142 223.962,200.646C 222.642,200.15 221.374,199.645 220.158,199.13C 218.941,198.615 217.869,198.009 216.943,197.31C 216.016,196.612 215.285,195.788 214.751,194.839C 214.217,193.889 213.95,192.735 213.95,191.377C 213.95,189.981 214.249,188.746 214.847,187.675C 215.446,186.603 216.26,185.716 217.29,185.015C 218.32,184.313 219.514,183.787 220.872,183.436C 222.23,183.085 223.672,182.91 225.197,182.91C 226.929,182.91 228.689,183.137 230.479,183.591C 232.268,184.044 234.009,184.725 235.702,185.633L 234.466,188.539C 232.902,187.754 231.327,187.155 229.74,186.743C 228.154,186.331 226.617,186.125 225.13,186.125C 224.145,186.125 223.199,186.228 222.291,186.434C 221.384,186.64 220.581,186.949 219.882,187.361C 219.184,187.773 218.629,188.299 218.217,188.94C 217.805,189.58 217.599,190.331 217.599,191.194C 217.599,192.056 217.794,192.787 218.183,193.386C 218.573,193.984 219.139,194.531 219.882,195.027C 220.626,195.523 221.512,195.976 222.542,196.388C 223.572,196.8 224.724,197.231 225.999,197.682C 227.318,198.133 228.606,198.615 229.861,199.13C 231.116,199.645 232.238,200.263 233.226,200.984C 234.214,201.705 235.007,202.571 235.605,203.581C 236.204,204.592 236.503,205.837 236.503,207.318C 236.503,208.843 236.185,210.151 235.548,211.242C 234.91,212.333 234.056,213.22 232.984,213.902C 231.912,214.585 230.665,215.09 229.243,215.418C 227.82,215.746 226.327,215.91 224.763,215.91C 222.742,215.91 220.753,215.663 218.796,215.167C 216.84,214.671 215.102,213.992 213.583,213.13L 214.819,210.166 Z "/>
	<g>
		<path fill="#FFFFFF" fill-opacity="1" stroke-width="0.2" stroke-linejoin="round" d="M 259.761,18.1733L 259.761,16.252L 266.094,13.7843L 266.094,4.52698L 259.761,2.09061L 259.761,0.25882L 280.027,8.33829L 280.027,10.0581L 259.761,18.1733 Z M 267.617,13.1842L 278.021,9.14444L 267.617,5.13159L 267.617,13.1842 Z "/>
		<path fill="#FFFFFF" fill-opacity="1" stroke-width="0.2" stroke-linejoin="round" d="M 259.761,39.4961C 260.317,39.3438 260.9,39.2534 261.51,39.2251C 262.121,39.1967 262.704,39.1825 263.259,39.1825L 268.934,39.1825C 269.525,39.1825 270.088,39.1295 270.624,39.0236C 271.16,38.9176 271.624,38.7407 272.015,38.4928C 272.406,38.245 272.717,37.9255 272.946,37.5344C 273.176,37.1433 273.291,36.6506 273.291,36.0565C 273.291,35.2533 273.1,34.4606 272.718,33.6783C 272.336,32.8961 271.895,32.1705 271.397,31.5017C 270.653,31.7107 269.88,31.8152 269.077,31.8152L 263.259,31.8152C 262.704,31.8152 262.121,31.8294 261.51,31.8578C 260.9,31.8861 260.317,31.9764 259.761,32.1287L 259.761,30.4672C 260.317,30.3148 260.9,30.2246 261.51,30.1962C 262.121,30.1678 262.704,30.1537 263.259,30.1537L 268.934,30.1537C 269.525,30.1537 270.083,30.1007 270.609,29.9947C 271.134,29.8887 271.598,29.7162 271.999,29.4774C 272.401,29.2385 272.717,28.919 272.946,28.519C 273.176,28.1189 273.291,27.6322 273.291,27.0589C 273.291,26.2946 273.105,25.5347 272.731,24.7793C 272.358,24.0239 271.913,23.2924 271.397,22.5847L 259.761,22.5847L 259.761,20.9232L 274.438,20.9232L 274.581,22.3832L 272.745,22.5579C 273.279,23.2267 273.753,23.9672 274.165,24.7793C 274.577,25.5914 274.783,26.4648 274.783,27.3993C 274.783,28.298 274.577,29.0534 274.165,29.6655C 273.753,30.2776 273.194,30.7553 272.49,31.0986C 273.158,31.8451 273.708,32.6572 274.138,33.535C 274.568,34.4128 274.783,35.3399 274.783,36.3163C 274.783,37.0985 274.634,37.7718 274.337,38.3361C 274.04,38.9004 273.638,39.3684 273.132,39.7401C 272.626,40.1118 272.025,40.3888 271.327,40.5709C 270.63,40.7531 269.88,40.8441 269.077,40.8441L 263.259,40.8441C 262.704,40.8441 262.121,40.8583 261.51,40.8867C 260.9,40.915 260.317,41.0054 259.761,41.1576L 259.761,39.4961 Z "/>
		<path fill="#FFFFFF" fill-opacity="1" stroke-width="0.2" stroke-linejoin="round" d="M 262.14,44.9734C 261.757,45.699 261.466,46.4723 261.266,47.2934C 261.066,48.1145 260.966,48.9265 260.966,49.7297C 260.966,50.1687 261.004,50.6031 261.08,51.033C 261.157,51.463 261.29,51.8504 261.481,52.1952C 261.672,52.5401 261.921,52.817 262.227,53.026C 262.533,53.235 262.914,53.3395 263.371,53.3395C 263.792,53.3395 264.156,53.2395 264.462,53.0394C 264.768,52.8394 265.036,52.5625 265.266,52.2086C 265.496,51.8549 265.71,51.4249 265.911,50.9188C 266.111,50.4127 266.326,49.8447 266.555,49.2147C 266.785,48.6026 267.02,48.0144 267.259,47.4501C 267.497,46.8858 267.779,46.3887 268.103,45.9587C 268.427,45.5288 268.809,45.1899 269.249,44.9421C 269.69,44.6942 270.225,44.5703 270.855,44.5703C 271.503,44.5703 272.075,44.7092 272.573,44.9868C 273.07,45.2646 273.481,45.6422 273.806,46.12C 274.132,46.5977 274.376,47.1515 274.539,47.7815C 274.701,48.4115 274.783,49.0803 274.783,49.788C 274.783,50.5911 274.677,51.4077 274.467,52.2378C 274.257,53.0678 273.941,53.8755 273.52,54.6607L 272.172,54.0874C 272.536,53.3619 272.814,52.6311 273.005,51.8951C 273.196,51.1592 273.291,50.4463 273.291,49.7566C 273.291,49.2998 273.244,48.8609 273.148,48.4399C 273.052,48.0189 272.909,47.6465 272.718,47.3225C 272.527,46.9985 272.283,46.741 271.986,46.5499C 271.689,46.3589 271.34,46.2633 270.94,46.2633C 270.54,46.2633 270.201,46.3536 269.923,46.5342C 269.646,46.7149 269.392,46.9776 269.162,47.3225C 268.932,47.6673 268.722,48.0786 268.531,48.5564C 268.339,49.0341 268.139,49.5685 267.93,50.1597C 267.721,50.7718 267.497,51.3689 267.259,51.9511C 267.02,52.5334 266.733,53.0536 266.399,53.5119C 266.064,53.9702 265.663,54.3383 265.194,54.6159C 264.725,54.8936 264.147,55.0324 263.461,55.0324C 262.753,55.0324 262.146,54.8846 261.64,54.589C 261.134,54.2935 260.723,53.8971 260.406,53.4C 260.09,52.9028 259.855,52.3243 259.703,51.6645C 259.551,51.0046 259.475,50.312 259.475,49.5864C 259.475,48.6489 259.59,47.7263 259.82,46.8186C 260.05,45.911 260.365,45.1048 260.765,44.4002L 262.14,44.9734 Z "/>
		<path fill="#FFFFFF" fill-opacity="1" stroke-width="0.2" stroke-linejoin="round" d="M 259.846,66.2962C 259.694,65.9707 259.594,65.6363 259.546,65.2929C 259.499,64.9496 259.475,64.6346 259.475,64.348C 259.475,63.6224 259.58,62.9827 259.79,62.4289C 260.001,61.875 260.35,61.416 260.836,61.0517C 261.323,60.6874 261.963,60.415 262.755,60.2343C 263.548,60.0537 264.518,59.9634 265.664,59.9634L 273.063,59.9634L 273.063,56.7253L 274.496,56.7253L 274.496,59.9634L 278.307,59.9634L 278.451,61.625L 274.496,61.625L 274.496,65.696L 273.063,65.696L 273.063,61.625L 265.234,61.625C 264.586,61.625 264,61.6682 263.474,61.7549C 262.949,61.8414 262.499,61.9892 262.126,62.1982C 261.753,62.4072 261.466,62.6842 261.266,63.029C 261.066,63.3739 260.966,63.8135 260.966,64.348C 260.966,64.9033 261.051,65.4378 261.221,65.9513L 259.846,66.2962 Z "/>
		<path fill="#FFFFFF" fill-opacity="1" stroke-width="0.2" stroke-linejoin="round" d="M 260.823,80.0858C 260.384,79.3782 260.05,78.6281 259.82,77.8354C 259.59,77.0426 259.475,76.1969 259.475,75.2982C 259.475,74.1905 259.661,73.2014 260.035,72.3311C 260.408,71.4608 260.929,70.7293 261.598,70.1366C 262.266,69.5439 263.079,69.0901 264.034,68.7751C 264.989,68.4601 266.049,68.3026 267.214,68.3026C 268.247,68.3026 269.222,68.4272 270.138,68.6765C 271.055,68.9259 271.857,69.3036 272.546,69.8097C 273.234,70.3157 273.779,70.9554 274.18,71.7287C 274.582,72.502 274.783,73.4142 274.783,74.4652C 274.783,75.4027 274.616,76.2395 274.281,76.9754C 273.947,77.7114 273.488,78.3325 272.904,78.8386C 272.32,79.3446 271.622,79.7268 270.81,79.9851C 269.998,80.2433 269.114,80.3725 268.159,80.3725C 267.893,80.3725 267.626,80.3628 267.357,80.3434C 267.088,80.324 266.85,80.2949 266.641,80.256L 266.641,69.9955C 264.864,70.0911 263.474,70.5971 262.471,71.5138C 261.468,72.4304 260.966,73.7113 260.966,75.3564C 260.966,76.082 261.071,76.7888 261.282,77.4771C 261.492,78.1653 261.789,78.8438 262.171,79.5126L 260.823,80.0858 Z M 268.016,78.7378C 269.64,78.7169 270.925,78.3534 271.872,77.6472C 272.818,76.9411 273.291,75.8909 273.291,74.4965C 273.291,73.7501 273.152,73.1044 272.875,72.5595C 272.597,72.0146 272.219,71.5563 271.742,71.1846C 271.264,70.8129 270.705,70.5315 270.064,70.3404C 269.424,70.1493 268.741,70.0239 268.016,69.9642L 268.016,78.7378 Z "/>
		<path fill="#FFFFFF" fill-opacity="1" stroke-width="0.2" stroke-linejoin="round" d="M 259.761,85.9305L 259.761,84.2689L 274.438,84.2689L 274.581,85.7289L 272.346,85.9305C 273.111,86.5993 273.708,87.292 274.138,88.0085C 274.568,88.7251 274.783,89.4656 274.783,90.2299C 274.783,90.4598 274.759,90.742 274.711,91.0764C 274.663,91.4108 274.601,91.693 274.523,91.9229L 272.92,91.5198C 273.072,91.0241 273.148,90.5374 273.148,90.0597C 273.148,89.2954 272.947,88.5736 272.546,87.8943C 272.144,87.2151 271.58,86.5605 270.855,85.9305L 259.761,85.9305 Z "/>
		<path fill="#FFFFFF" fill-opacity="1" stroke-width="0.2" stroke-linejoin="round" d="M 259.761,104.62C 260.03,104.542 260.303,104.489 260.579,104.461C 260.855,104.432 261.147,104.399 261.454,104.36C 260.899,103.691 260.43,102.922 260.048,102.053C 259.666,101.185 259.475,100.272 259.475,99.317C 259.475,98.3795 259.676,97.5525 260.077,96.8359C 260.479,96.1193 261.018,95.5177 261.696,95.031C 262.374,94.5443 263.162,94.1718 264.061,93.9136C 264.96,93.6553 265.915,93.5262 266.927,93.5262C 267.996,93.5262 269.004,93.6695 269.95,93.9561C 270.897,94.2428 271.728,94.663 272.445,95.2169C 273.161,95.7707 273.73,96.4492 274.151,97.2524C 274.572,98.0556 274.783,98.9737 274.783,100.007C 274.783,100.828 274.639,101.606 274.353,102.342C 274.066,103.078 273.712,103.733 273.291,104.306L 281.201,104.306L 281.344,105.968L 263.259,105.968C 262.704,105.968 262.121,105.982 261.51,106.01C 260.9,106.039 260.317,106.129 259.761,106.281L 259.761,104.62 Z M 271.742,104.306C 272.181,103.733 272.549,103.083 272.846,102.356C 273.143,101.629 273.291,100.894 273.291,100.15C 273.291,99.3081 273.114,98.5811 272.761,97.969C 272.407,97.3569 271.939,96.8456 271.357,96.4351C 270.774,96.0245 270.096,95.7192 269.321,95.5192C 268.546,95.3191 267.739,95.2191 266.9,95.2191C 266.097,95.2191 265.337,95.3094 264.621,95.4901C 263.904,95.6707 263.273,95.9431 262.728,96.3074C 262.184,96.6717 261.754,97.1352 261.439,97.698C 261.124,98.2608 260.966,98.9155 260.966,99.6619C 260.966,100.426 261.138,101.215 261.481,102.027C 261.825,102.839 262.274,103.599 262.829,104.306L 271.742,104.306 Z "/>
		<path fill="#FFFFFF" fill-opacity="1" stroke-width="0.2" stroke-linejoin="round" d="M 259.761,119.439C 260.048,119.362 260.363,119.304 260.706,119.267C 261.05,119.23 261.375,119.201 261.683,119.18C 261.435,118.893 261.182,118.554 260.924,118.163C 260.665,117.772 260.435,117.352 260.234,116.902C 260.032,116.453 259.87,115.98 259.746,115.483C 259.622,114.986 259.56,114.489 259.56,113.993C 259.56,113.381 259.661,112.813 259.862,112.287C 260.064,111.762 260.346,111.308 260.709,110.926C 261.071,110.543 261.516,110.243 262.041,110.023C 262.566,109.804 263.164,109.694 263.832,109.694C 264.671,109.694 265.383,109.866 265.967,110.209C 266.55,110.552 267.023,111.006 267.386,111.571C 267.749,112.135 268.012,112.785 268.174,113.521C 268.337,114.257 268.419,115.025 268.419,115.825C 268.419,116.515 268.385,117.117 268.318,117.632C 268.251,118.147 268.169,118.654 268.074,119.153L 269.019,119.153C 270.318,119.153 271.359,118.828 272.143,118.179C 272.926,117.529 273.318,116.516 273.318,115.14C 273.318,114.432 273.208,113.725 272.989,113.017C 272.77,112.31 272.478,111.641 272.113,111.011L 273.435,110.437C 273.835,111.088 274.159,111.83 274.409,112.661C 274.658,113.493 274.783,114.367 274.783,115.283C 274.783,116.239 274.639,117.061 274.353,117.749C 274.066,118.437 273.674,119.005 273.177,119.453C 272.68,119.901 272.092,120.235 271.413,120.456C 270.733,120.677 270.003,120.788 269.22,120.788L 263.259,120.788C 262.704,120.788 262.121,120.802 261.51,120.83C 260.9,120.858 260.317,120.949 259.761,121.101L 259.761,119.439 Z M 266.811,119.153C 266.906,118.654 266.973,118.128 267.012,117.574C 267.051,117.02 267.071,116.524 267.071,116.085C 267.071,114.574 266.788,113.408 266.224,112.587C 265.66,111.766 264.863,111.356 263.832,111.356C 263.047,111.356 262.387,111.599 261.853,112.086C 261.319,112.572 261.051,113.304 261.051,114.28C 261.051,114.701 261.103,115.136 261.208,115.583C 261.313,116.031 261.456,116.466 261.638,116.887C 261.82,117.308 262.031,117.709 262.269,118.091C 262.508,118.474 262.752,118.827 262.999,119.153L 266.811,119.153 Z "/>
		<path fill="#FFFFFF" fill-opacity="1" stroke-width="0.2" stroke-linejoin="round" d="M 259.761,144.117C 260.317,143.964 260.9,143.874 261.51,143.846C 262.121,143.817 262.704,143.803 263.259,143.803L 268.934,143.803C 269.525,143.803 270.088,143.75 270.624,143.644C 271.16,143.538 271.624,143.361 272.015,143.113C 272.406,142.866 272.717,142.546 272.946,142.155C 273.176,141.764 273.291,141.271 273.291,140.677C 273.291,139.874 273.1,139.081 272.718,138.299C 272.336,137.517 271.895,136.791 271.397,136.122C 270.653,136.331 269.88,136.436 269.077,136.436L 263.259,136.436C 262.704,136.436 262.121,136.45 261.51,136.478C 260.9,136.507 260.317,136.597 259.761,136.749L 259.761,135.088C 260.317,134.936 260.9,134.845 261.51,134.817C 262.121,134.788 262.704,134.774 263.259,134.774L 268.934,134.774C 269.525,134.774 270.083,134.721 270.609,134.615C 271.134,134.509 271.598,134.337 271.999,134.098C 272.401,133.859 272.717,133.54 272.946,133.14C 273.176,132.74 273.291,132.253 273.291,131.68C 273.291,130.915 273.105,130.155 272.731,129.4C 272.358,128.645 271.913,127.913 271.397,127.205L 259.761,127.205L 259.761,125.544L 274.438,125.544L 274.581,127.004L 272.745,127.179C 273.279,127.847 273.753,128.588 274.165,129.4C 274.577,130.212 274.783,131.085 274.783,132.02C 274.783,132.919 274.577,133.674 274.165,134.286C 273.753,134.898 273.194,135.376 272.49,135.719C 273.158,136.466 273.708,137.278 274.138,138.156C 274.568,139.033 274.783,139.961 274.783,140.937C 274.783,141.719 274.634,142.392 274.337,142.957C 274.04,143.521 273.638,143.989 273.132,144.361C 272.626,144.733 272.025,145.009 271.327,145.192C 270.63,145.374 269.88,145.465 269.077,145.465L 263.259,145.465C 262.704,145.465 262.121,145.479 261.51,145.507C 260.9,145.536 260.317,145.626 259.761,145.778L 259.761,144.117 Z "/>
		<path fill="#FFFFFF" fill-opacity="1" stroke-width="0.2" stroke-linejoin="round" d="M 259.761,168.565L 259.761,156.988C 259.991,156.949 260.188,156.93 260.35,156.93C 260.513,156.93 260.671,156.93 260.823,156.93C 261.892,156.93 262.832,157.097 263.644,157.432C 264.457,157.766 265.187,158.21 265.837,158.764C 266.486,159.318 267.069,159.949 267.586,160.656C 268.102,161.364 268.608,162.08 269.104,162.806C 269.486,163.379 269.859,163.919 270.223,164.425C 270.588,164.931 270.97,165.375 271.37,165.757C 271.77,166.14 272.2,166.44 272.66,166.66C 273.12,166.879 273.645,166.989 274.236,166.989C 274.81,166.989 275.331,166.879 275.799,166.66C 276.268,166.44 276.674,166.14 277.018,165.757C 277.361,165.375 277.624,164.921 277.806,164.396C 277.988,163.87 278.079,163.302 278.079,162.69C 278.079,161.83 277.912,160.999 277.577,160.197C 277.243,159.396 276.77,158.632 276.158,157.906L 277.389,157.047C 278.136,157.868 278.7,158.77 279.082,159.754C 279.464,160.738 279.655,161.736 279.655,162.748C 279.655,163.569 279.531,164.343 279.281,165.07C 279.032,165.797 278.669,166.433 278.191,166.978C 277.713,167.523 277.14,167.953 276.471,168.268C 275.802,168.583 275.057,168.74 274.236,168.74C 273.454,168.74 272.767,168.607 272.174,168.339C 271.581,168.072 271.041,167.724 270.553,167.294C 270.064,166.864 269.615,166.362 269.205,165.789C 268.794,165.216 268.389,164.632 267.989,164.038C 267.529,163.369 267.074,162.724 266.625,162.103C 266.176,161.482 265.693,160.928 265.178,160.441C 264.663,159.955 264.09,159.554 263.459,159.239C 262.827,158.924 262.111,158.736 261.311,158.677L 261.311,168.565L 259.761,168.565 Z "/>
		<path fill="#FFFFFF" fill-opacity="1" stroke-width="0.2" stroke-linejoin="round" d="M 261.741,181.607C 262.198,182.258 262.818,182.779 263.602,183.17C 264.386,183.561 265.293,183.844 266.325,184.017C 267.356,184.19 268.436,184.277 269.565,184.277C 270.691,184.277 271.77,184.19 272.803,184.017C 273.836,183.844 274.744,183.561 275.526,183.17C 276.308,182.779 276.929,182.263 277.389,181.623C 277.849,180.982 278.079,180.195 278.079,179.26C 278.079,178.323 277.849,177.534 277.389,176.894C 276.929,176.253 276.308,175.737 275.526,175.346C 274.744,174.955 273.836,174.674 272.803,174.502C 271.77,174.33 270.691,174.244 269.565,174.244C 268.436,174.244 267.356,174.33 266.325,174.502C 265.293,174.674 264.386,174.955 263.602,175.346C 262.818,175.737 262.197,176.253 261.739,176.894C 261.28,177.534 261.051,178.323 261.051,179.26C 261.051,180.195 261.281,180.977 261.741,181.607 Z M 262.511,184.447C 261.595,183.912 260.859,183.22 260.306,182.369C 259.752,181.518 259.475,180.482 259.475,179.26C 259.475,178.036 259.752,176.999 260.306,176.148C 260.859,175.297 261.6,174.6 262.527,174.056C 263.454,173.513 264.524,173.117 265.738,172.867C 266.952,172.618 268.228,172.493 269.565,172.493C 270.903,172.493 272.178,172.618 273.392,172.867C 274.606,173.117 275.675,173.513 276.601,174.056C 277.527,174.6 278.267,175.297 278.822,176.148C 279.378,176.999 279.655,178.036 279.655,179.26C 279.655,180.482 279.378,181.518 278.822,182.369C 278.267,183.22 277.527,183.917 276.601,184.462C 275.675,185.007 274.606,185.404 273.392,185.651C 272.178,185.899 270.903,186.023 269.565,186.023C 268.228,186.023 266.952,185.899 265.738,185.651C 264.524,185.404 263.449,185.002 262.511,184.447 Z "/>
		<path fill="#FFFFFF" fill-opacity="1" stroke-width="0.2" stroke-linejoin="round" d="M 259.761,198.178L 259.761,196.458L 277.703,196.458L 275.468,190.636L 276.932,190.121L 279.369,196.315L 279.369,198.178L 259.761,198.178 Z "/>
		<path fill="#FFFFFF" fill-opacity="1" stroke-width="0.2" stroke-linejoin="round" d="M 259.761,209.07C 261.52,209.07 263.216,209.256 264.849,209.628C 266.482,210 268.049,210.477 269.549,211.061C 271.05,211.645 272.488,212.309 273.865,213.054C 275.241,213.799 276.559,214.543 277.819,215.287L 277.819,205.142L 279.369,205.142L 279.369,217.266L 278.191,217.351C 276.758,216.491 275.32,215.665 273.878,214.872C 272.436,214.08 270.955,213.377 269.435,212.765C 267.915,212.153 266.353,211.666 264.748,211.303C 263.144,210.94 261.481,210.759 259.761,210.759L 259.761,209.07 Z "/>
	</g>
</svg>
