<svg width="431" height="608" xmlns="http://www.w3.org/2000/svg">
 <g>
  <title>background</title>
  <rect fill="none" id="canvas_background" height="610" width="433" y="-1" x="-1"/>
 </g>

 <g>
  <title>Layer 1</title>
  <path fill="#ffffff" d="m167.067,142.692l-43.144,0l0,70.426l43.144,0l0,206.882l82.965,0l0,-207.762l57.882,0l6.162,-69.546l-64.044,0c0,0 0,-25.97 0,-39.615c0,-16.398 3.302,-22.89 19.147,-22.89c12.766,0 44.896,0 44.896,0l0,-72.187c0,0 -47.326,0 -57.441,0c-61.734,0 -89.567,27.179 -89.567,79.231c0,45.335 0,55.461 0,55.461z" id="facebook-icon"/>
 </g>
</svg>