<?xml version="1.0" encoding="utf-8"?>
<!DOCTYPE svg PUBLIC "-//W3C//DTD SVG 1.1//EN" "http://www.w3.org/Graphics/SVG/1.1/DTD/svg11.dtd">
<svg xmlns="http://www.w3.org/2000/svg" xmlns:xlink="http://www.w3.org/1999/xlink" version="1.1" baseProfile="full" width="23.6105" height="23.0075" viewBox="0 0 23.61 23.01" enable-background="new 0 0 23.61 23.01" xml:space="preserve">
	<path fill="#FFFFFF" fill-opacity="1" fill-rule="evenodd" stroke-width="0.2" stroke-linejoin="round" d="M 11.8042,6.10352e-005C 5.2854,6.10352e-005 0.00012207,5.28537 0.00012207,11.8056C 0.00012207,17.0214 3.38232,21.4458 8.07336,23.0075C 8.664,23.1155 8.87927,22.751 8.87927,22.4379C 8.87927,22.1582 8.86908,21.4153 8.86328,20.4305C 5.57959,21.1436 4.88684,18.8477 4.88684,18.8477C 4.34979,17.4845 3.57581,17.1214 3.57581,17.1214C 2.50391,16.3887 3.65698,16.4032 3.65698,16.4032C 4.84192,16.4873 5.46509,17.62 5.46509,17.62C 6.51819,19.4238 8.22845,18.9028 8.901,18.6013C 9.00824,17.8381 9.31268,17.3178 9.65033,17.0228C 7.02905,16.725 4.27295,15.7119 4.27295,11.1882C 4.27295,9.89963 4.73315,8.84592 5.48828,8.02048C 5.36658,7.72186 4.96143,6.52173 5.60352,4.89621C 5.60352,4.89621 6.59497,4.5788 8.85028,6.10651C 9.79169,5.84485 10.8019,5.71368 11.8057,5.70935C 12.808,5.71368 13.8182,5.84485 14.761,6.10651C 17.0149,4.5788 18.0042,4.89621 18.0042,4.89621C 18.6484,6.52173 18.2433,7.72186 18.1215,8.02048C 18.8781,8.84592 19.3354,9.89963 19.3354,11.1882C 19.3354,15.7234 16.575,16.7214 13.945,17.0134C 14.369,17.3779 14.7465,18.0984 14.7465,19.1999C 14.7465,20.7776 14.7321,22.0509 14.7321,22.4379C 14.7321,22.7539 14.9443,23.1213 15.5437,23.0061C 20.2312,21.4414 23.6105,17.02 23.6105,11.8056C 23.6105,5.28537 18.3245,6.10352e-005 11.8042,6.10352e-005 Z "/>
</svg>
