<?xml version="1.0" encoding="utf-8"?>
<!DOCTYPE svg PUBLIC "-//W3C//DTD SVG 1.1//EN" "http://www.w3.org/Graphics/SVG/1.1/DTD/svg11.dtd">
<svg xmlns="http://www.w3.org/2000/svg" xmlns:xlink="http://www.w3.org/1999/xlink" version="1.1" baseProfile="full" width="235.404" height="235.404" viewBox="0 0 235.40 235.40" enable-background="new 0 0 235.40 235.40" xml:space="preserve">
	<rect x="2" y="2" fill="none" stroke-width="4" stroke-linejoin="round" stroke="#151213" stroke-opacity="1" width="231.404" height="231.404"/>
	<rect x="34.5007" y="34" fill="none" stroke-width="4" stroke-linejoin="round" stroke="#151213" stroke-opacity="1" width="46.1366" height="46.1365"/>
	<rect x="155.267" y="34" fill="none" stroke-width="4" stroke-linejoin="round" stroke="#151213" stroke-opacity="1" width="46.1364" height="46.1365"/>
	<rect x="33.7662" y="155.068" fill="none" stroke-width="4" stroke-linejoin="round" stroke="#151213" stroke-opacity="1" width="46.1364" height="46.1365"/>
	<rect x="47.1677" y="48.1365" fill="#000000" fill-opacity="1" stroke-width="4" stroke-linejoin="round" width="19.3334" height="19.3334"/>
	<rect x="169.404" y="46.6666" fill="#000000" fill-opacity="1" stroke-width="4" stroke-linejoin="round" width="19.3334" height="19.3334"/>
	<rect x="47.5009" y="167.803" fill="#000000" fill-opacity="1" stroke-width="4" stroke-linejoin="round" width="19.3334" height="19.3334"/>
	<g>
		<path fill="#000000" fill-opacity="1" stroke-linejoin="round" d="M 166.489,202.017C 165.019,200.802 163.691,199.515 162.506,198.155C 161.321,196.795 160.266,195.363 159.341,193.858C 158.666,194.047 157.969,194.199 157.249,194.311C 156.529,194.424 155.786,194.48 155.021,194.48C 152.686,194.48 150.606,194.032 148.781,193.137C 146.956,192.243 145.411,191.019 144.146,189.466C 142.881,187.914 141.921,186.074 141.266,183.946C 140.611,181.819 140.284,179.505 140.284,177.005C 140.284,174.51 140.611,172.206 141.266,170.094C 141.921,167.981 142.881,166.141 144.146,164.574C 145.411,163.006 146.956,161.782 148.781,160.902C 150.606,160.022 152.686,159.583 155.021,159.583C 157.326,159.583 159.39,160.022 161.212,160.902C 163.035,161.782 164.578,163.006 165.844,164.574C 167.109,166.141 168.069,167.981 168.724,170.094C 169.379,172.206 169.706,174.51 169.706,177.005C 169.706,180.59 169.026,183.782 167.666,186.583C 166.306,189.382 164.364,191.47 161.839,192.845C 162.764,194.065 163.739,195.25 164.764,196.4C 165.789,197.55 166.989,198.685 168.364,199.805L 166.489,202.017 Z M 160.061,190.64C 161.531,189.84 162.755,188.767 163.732,187.422C 164.71,186.078 165.446,184.51 165.941,182.72C 166.436,180.93 166.683,179.025 166.683,177.005C 166.683,174.99 166.436,173.086 165.941,171.294C 165.446,169.501 164.71,167.934 163.732,166.591C 162.755,165.249 161.539,164.194 160.084,163.426C 158.629,162.659 156.941,162.275 155.021,162.275C 153.101,162.275 151.405,162.659 149.932,163.426C 148.46,164.194 147.236,165.249 146.261,166.591C 145.286,167.934 144.55,169.501 144.052,171.294C 143.555,173.086 143.306,174.99 143.306,177.005C 143.306,179.025 143.555,180.93 144.052,182.72C 144.55,184.51 145.286,186.078 146.261,187.422C 147.236,188.767 148.46,189.833 149.932,190.618C 151.405,191.402 153.101,191.795 155.021,191.795C 156.941,191.795 158.621,191.41 160.061,190.64 Z "/>
		<path fill="#000000" fill-opacity="1" stroke-linejoin="round" d="M 199.181,194.285C 196.811,191.855 194.666,189.44 192.746,187.04C 190.826,184.64 188.953,182.113 187.129,179.458L 180.169,179.458L 180.169,194L 177.199,194L 177.199,160.063L 188.666,160.063C 190.171,160.063 191.556,160.286 192.821,160.734C 194.086,161.181 195.174,161.821 196.084,162.654C 196.994,163.486 197.705,164.503 198.217,165.703C 198.73,166.902 198.986,168.27 198.986,169.805C 198.986,172.525 198.202,174.685 196.635,176.285C 195.067,177.885 192.971,178.878 190.346,179.262C 192.076,181.662 193.837,183.935 195.63,186.08C 197.422,188.225 199.341,190.338 201.386,192.417L 199.181,194.285 Z M 188.426,176.915C 190.666,176.915 192.482,176.29 193.875,175.04C 195.267,173.79 195.964,172.045 195.964,169.805C 195.964,167.565 195.267,165.821 193.875,164.574C 192.482,163.326 190.666,162.703 188.426,162.703L 180.169,162.703L 180.169,176.915L 188.426,176.915 Z "/>
	</g>
</svg>
