<?xml version="1.0" encoding="utf-8"?>
<!DOCTYPE svg PUBLIC "-//W3C//DTD SVG 1.1//EN" "http://www.w3.org/Graphics/SVG/1.1/DTD/svg11.dtd">
<svg xmlns="http://www.w3.org/2000/svg" xmlns:xlink="http://www.w3.org/1999/xlink" version="1.1" baseProfile="full" width="235.404" height="235.404" viewBox="0 0 235.40 235.40" enable-background="new 0 0 235.40 235.40" xml:space="preserve">
	<g>
		<rect x="2" y="1.99994" fill="none" stroke-width="4" stroke-linejoin="round" stroke="#151213" stroke-opacity="1" width="231.404" height="231.404"/>
		<g>
			<path fill="none" stroke-width="3" stroke-linejoin="round" stroke="#151213" stroke-opacity="1" d="M 106.868,109.368C 116.81,109.368 124.868,117.427 124.868,127.368C 124.868,137.31 116.81,145.368 106.868,145.368C 96.9272,145.368 88.8685,137.31 88.8685,127.368C 88.8685,117.427 96.9272,109.368 106.868,109.368 Z "/>
			<rect x="47.5351" y="95.3685" fill="none" stroke-width="3" stroke-linejoin="round" stroke="#151213" stroke-opacity="1" width="118.667" height="64"/>
			<g>
				<path fill="#151213" fill-opacity="1" stroke-width="3" stroke-linejoin="round" d="M 138.526,136.832C 138.396,136.043 138.313,135.217 138.276,134.354C 138.24,133.492 138.289,132.604 138.423,131.692C 138.565,130.672 138.864,129.735 139.32,128.88C 139.776,128.025 140.357,127.289 141.062,126.672C 141.768,126.055 142.585,125.572 143.515,125.223C 144.444,124.874 145.459,124.7 146.559,124.7C 147.759,124.7 148.852,124.883 149.84,125.249C 150.827,125.615 151.671,126.122 152.372,126.77C 153.074,127.418 153.622,128.187 154.017,129.078C 154.412,129.97 154.623,130.942 154.649,131.997L 151.935,131.997C 151.909,131.483 151.791,130.939 151.582,130.364C 151.373,129.789 151.059,129.262 150.639,128.782C 150.219,128.303 149.692,127.907 149.058,127.595C 148.423,127.283 147.675,127.126 146.812,127.126C 146.034,127.126 145.342,127.229 144.737,127.434C 144.131,127.639 143.609,127.918 143.172,128.271C 142.735,128.623 142.373,129.042 142.086,129.527C 141.798,130.012 141.584,130.53 141.442,131.082C 141.189,132.052 141.065,133.037 141.071,134.038C 141.077,135.038 141.152,135.97 141.298,136.832L 150.981,136.832L 150.981,139.529L 141.585,139.529C 141.704,140.28 141.761,141.097 141.755,141.979C 141.749,142.86 141.696,143.723 141.594,144.566C 141.492,145.409 141.354,146.19 141.18,146.909C 141.006,147.628 140.823,148.204 140.631,148.637L 149.434,148.637C 150.093,148.637 150.716,148.592 151.303,148.502C 151.889,148.412 152.398,148.217 152.83,147.918C 153.261,147.619 153.6,147.194 153.847,146.642C 154.095,146.09 154.205,145.354 154.178,144.434L 156.748,144.434C 156.798,145.653 156.64,146.7 156.274,147.576C 155.908,148.452 155.381,149.168 154.693,149.724C 154.004,150.28 153.172,150.69 152.194,150.954C 151.217,151.219 150.136,151.351 148.951,151.351L 134.864,151.351L 134.864,148.637L 137.756,148.637C 138.093,147.882 138.361,147.106 138.558,146.308C 138.756,145.511 138.893,144.723 138.969,143.945C 139.046,143.167 139.067,142.404 139.032,141.657C 138.998,140.909 138.919,140.2 138.797,139.529L 135.853,139.529L 135.853,136.832L 138.526,136.832 Z "/>
			</g>
			<path fill="none" stroke-width="3" stroke-linejoin="round" stroke="#151213" stroke-opacity="1" d="M 58.2021,94.6371L 58.2021,86.035L 176.869,86.035L 176.869,150.035L 166.243,150.035"/>
			<path fill="none" stroke-width="3" stroke-linejoin="round" stroke="#151213" stroke-opacity="1" d="M 69.2021,84.6371L 69.2021,76.035L 187.868,76.035L 187.868,140.035L 177.243,140.035"/>
		</g>
	</g>
</svg>
