<svg width="235.4" height="235.4" xmlns="http://www.w3.org/2000/svg">

 <g>
  <title>background</title>
  <rect fill="none" id="canvas_background" height="402" width="582" y="-1" x="-1"/>
 </g>
 <g>
  <title>Layer 1</title>
  <rect id="svg_1" height="231.404" width="231.404" stroke="#151213" stroke-linejoin="round" stroke-width="4" fill="none" y="1.99988" x="2"/>
  <path stroke="#000" id="svg_9" d="m46.616499,117.616368l0,0c0,-39.212033 31.787816,-70.99987 70.999931,-70.99987l0,0c18.830617,0 36.889926,7.480347 50.204593,20.795457c13.315201,13.31511 20.795481,31.374312 20.795481,50.204412l0,0c0,39.212514 -31.787592,71.000132 -71.000069,71.000132l0,0c-39.212116,0 -70.999931,-31.787618 -70.999931,-71.000132l-0.000005,0zm114.648845,31.761805l0,0c15.631854,-21.482928 13.30821,-51.14592 -5.4783,-69.932182c-18.78652,-18.786419 -48.449493,-21.110063 -69.931858,-5.478037l75.410159,75.410219zm-87.297402,-63.522963c-15.631963,21.482814 -13.308377,51.145806 5.478029,69.931801c18.786354,18.786533 48.449336,21.110159 69.931701,5.478304l-75.409735,-75.410105l0.000005,0z" fill-opacity="null" stroke-opacity="null" stroke-width="2.5" fill="#fff"/>
 </g>
</svg>