<?xml version="1.0" encoding="utf-8"?>
<!DOCTYPE svg PUBLIC "-//W3C//DTD SVG 1.1//EN" "http://www.w3.org/Graphics/SVG/1.1/DTD/svg11.dtd">
<svg xmlns="http://www.w3.org/2000/svg" xmlns:xlink="http://www.w3.org/1999/xlink" version="1.1" baseProfile="full" width="11.8943" height="11.5905" viewBox="0 0 11.89 11.59" enable-background="new 0 0 11.89 11.59" xml:space="preserve">
	<path fill="#3D3D3D" fill-opacity="1" fill-rule="evenodd" stroke-width="0.2" stroke-linejoin="round" d="M 5.94659,-2.0504e-005C 2.6626,-2.0504e-005 0,2.66258 0,5.94734C 0,8.5749 1.70386,10.8038 4.06702,11.5905C 4.36462,11.6449 4.47302,11.4613 4.47302,11.3036C 4.47302,11.1627 4.4679,10.7884 4.46497,10.2923C 2.81079,10.6515 2.46173,9.49491 2.46173,9.49491C 2.19122,8.80818 1.80133,8.62528 1.80133,8.62528C 1.26135,8.25617 1.84216,8.26347 1.84216,8.26347C 2.43909,8.30583 2.75305,8.87644 2.75305,8.87644C 3.28357,9.78514 4.14526,9.52265 4.48401,9.3708C 4.53809,8.98637 4.69141,8.72419 4.86157,8.57563C 3.54102,8.42558 2.15259,7.9152 2.15259,5.63627C 2.15259,4.98713 2.38434,4.45628 2.76477,4.04048C 2.70343,3.89006 2.49939,3.28547 2.82281,2.46653C 2.82281,2.46653 3.32233,2.30662 4.4585,3.07624C 4.93268,2.94444 5.44165,2.87837 5.94733,2.87617C 6.45221,2.87837 6.96118,2.94444 7.4361,3.07624C 8.57159,2.30662 9.06989,2.46653 9.06989,2.46653C 9.39453,3.28547 9.19043,3.89006 9.12903,4.04048C 9.51025,4.45628 9.7406,4.98713 9.7406,5.63627C 9.7406,7.921 8.34991,8.42375 7.02502,8.57087C 7.23859,8.7545 7.42883,9.11741 7.42883,9.67234C 7.42883,10.4671 7.42151,11.1086 7.42151,11.3036C 7.42151,11.4627 7.52844,11.6479 7.83044,11.5898C 10.1919,10.8016 11.8943,8.57417 11.8943,5.94734C 11.8943,2.66258 9.23126,-2.0504e-005 5.94659,-2.0504e-005 Z "/>
</svg>
