<svg width="235.4" height="235.4" xmlns="http://www.w3.org/2000/svg">

 <g>
  <title>background</title>
  <rect fill="none" id="canvas_background" height="402" width="582" y="-1" x="-1"/>
 </g>
 <g>
  <title>Layer 1</title>
  <rect id="svg_1" height="231.404" width="231.404" stroke="#151213" stroke-linejoin="round" stroke-width="4" fill="none" y="1.99988" x="2"/>
  <path stroke="null" id="svg_37" d="m115.200009,159.797521c-36.670854,0 -65.409694,-39.543117 -66.616313,-41.22783l-2.053075,-2.868987l2.053075,-2.870409c1.206619,-1.684713 29.945459,-41.22783 66.616313,-41.22783c36.669453,0 65.409694,39.543117 66.614912,41.22783l2.054476,2.870409l-2.054476,2.870409c-1.205218,1.683291 -29.945459,41.226408 -66.614912,41.226408zm-56.594787,-44.102504c7.081355,8.724963 30.131847,34.336858 56.594787,34.336858c26.526003,0 49.524643,-25.5991 56.59759,-34.326906c-7.084158,-8.726384 -30.131847,-34.336858 -56.59759,-34.336858c-26.526003,0 -49.524643,25.597678 -56.594787,34.326906z" fill="#222222"/>
  <circle stroke="null" transform="matrix(1.4014160760825816,0,0,1.4216983239850547,-144.46852441121376,-94.69829857607115) " id="svg_38" r="18.997" cy="147.991314" cx="185.290106" fill="#222222"/>
  <line stroke-linecap="null" stroke-linejoin="null" id="svg_40" y2="59.200012" x2="174.700012" y1="177.200012" x1="48.700012" fill="none"/>
  <line stroke="#222222" stroke-linecap="null" stroke-linejoin="round" id="svg_42" y2="189.200013" x2="45.70002" y1="33.20002" x1="190.700015" fill-opacity="null" stroke-width="7" fill="none"/>
 </g>
</svg>