<?xml version="1.0" encoding="utf-8"?>
<!DOCTYPE svg PUBLIC "-//W3C//DTD SVG 1.1//EN" "http://www.w3.org/Graphics/SVG/1.1/DTD/svg11.dtd">
<svg xmlns="http://www.w3.org/2000/svg" xmlns:xlink="http://www.w3.org/1999/xlink" version="1.1" baseProfile="full" width="235.404" height="235.404" viewBox="0 0 235.40 235.40" enable-background="new 0 0 235.40 235.40" xml:space="preserve">
	<path fill="none" stroke-width="3" stroke-linejoin="round" stroke="#000000" stroke-opacity="1" d="M 124.156,77.204L 137.398,90.4452L 124.193,103.649L 124.156,77.204 Z M 124.156,158.2L 137.398,144.959L 124.193,131.755L 124.156,158.2 Z M 110.03,117.702L 81.4454,89.0436L 89.7443,80.7448L 112.501,103.539L 112.501,48.9144L 153.958,90.3345L 126.591,117.702L 153.958,145.069L 112.538,186.49L 112.538,131.865L 89.7443,154.659L 81.4454,146.36L 110.03,117.702 Z M 117.702,197.702C 152.63,197.702 176.715,181.104 176.715,117.702C 176.715,54.2994 152.63,37.7019 117.702,37.7019C 82.7733,37.7019 58.6885,54.2994 58.6885,117.702C 58.6885,181.104 82.7733,197.702 117.702,197.702 Z "/>
	<rect x="2" y="2.00012" fill="none" stroke-width="4" stroke-linejoin="round" stroke="#151213" stroke-opacity="1" width="231.404" height="231.404"/>
</svg>
