<?xml version="1.0" encoding="utf-8"?>
<!DOCTYPE svg PUBLIC "-//W3C//DTD SVG 1.1//EN" "http://www.w3.org/Graphics/SVG/1.1/DTD/svg11.dtd">
<svg xmlns="http://www.w3.org/2000/svg" xmlns:xlink="http://www.w3.org/1999/xlink" version="1.1" baseProfile="full" width="466.894" height="128.513" viewBox="0 0 466.89 128.51" enable-background="new 0 0 466.89 128.51" xml:space="preserve">
	<g>
		<path fill="#231F20" fill-opacity="1" stroke-width="0.2" stroke-linejoin="round" d="M 308.928,32.7054L 308.585,12.8905L 314.838,12.8905L 314.838,37.88L 305.848,37.88L 299.609,17.3746L 299.47,17.3746L 299.819,37.88L 293.616,37.88L 293.616,12.8905L 302.984,12.8905L 308.792,32.7054L 308.928,32.7054 Z "/>
		<path fill="#231F20" fill-opacity="1" stroke-width="0.2" stroke-linejoin="round" d="M 195.319,15.221L 191.864,38.139L 185.041,38.139L 189.719,12.8922L 200.957,12.8922L 205.609,38.139L 198.829,38.139L 195.46,15.221L 195.319,15.221 Z "/>
		<path fill="#231F20" fill-opacity="1" stroke-width="0.2" stroke-linejoin="round" d="M 224.75,32.1956L 227.87,12.8912L 238.163,12.8912L 238.723,38.1381L 232.404,38.1381L 232.241,15.4342L 232.104,15.4404L 227.887,38.1381L 221.486,38.1381L 217.264,15.4342L 217.123,15.4342L 216.963,38.1381L 210.651,38.1381L 211.21,12.8912L 221.506,12.8912L 224.612,32.1956L 224.75,32.1956 Z "/>
		<path fill="#231F20" fill-opacity="1" stroke-width="0.2" stroke-linejoin="round" d="M 174.415,31.0107C 174.663,31.6204 174.581,32.4072 174.465,32.8835C 174.259,33.7074 173.691,34.5669 172.007,34.5669C 170.431,34.5669 169.467,33.6639 169.467,32.2893L 169.463,29.8377L 162.692,29.8377L 162.692,31.7911C 162.692,37.4202 167.124,39.1146 171.864,39.1146C 176.44,39.1146 180.19,37.5631 180.794,33.3521C 181.102,31.1674 180.874,29.7369 180.769,29.2032C 179.698,23.9139 170.119,22.3483 169.404,19.3834C 169.283,18.8668 169.311,18.3531 169.374,18.0645C 169.557,17.253 170.105,16.3687 171.683,16.3687C 173.165,16.3687 174.029,17.281 174.029,18.6541L 174.029,20.212L 180.331,20.212L 180.331,18.4462C 180.331,12.9444 175.391,12.0848 171.816,12.0848C 167.328,12.0848 163.665,13.5727 162.99,17.6937C 162.808,18.8062 162.782,19.8162 163.053,21.0916C 164.145,26.2506 173.115,27.7462 174.415,31.0107 Z "/>
		<path fill="#231F20" fill-opacity="1" stroke-width="0.2" stroke-linejoin="round" d="M 256.504,30.9608C 256.74,31.5659 256.668,32.3416 256.552,32.8165C 256.349,33.6482 255.781,34.4798 254.114,34.4798C 252.547,34.4798 251.603,33.5938 251.603,32.2269L 251.599,29.7987L 244.894,29.7987L 244.889,31.7288C 244.889,37.3082 249.28,38.9777 253.979,38.9777C 258.501,38.9777 262.218,37.4494 262.811,33.2773C 263.118,31.1175 262.892,29.701 262.786,29.1656C 261.728,23.9338 252.242,22.3807 251.542,19.4466C 251.418,18.9409 251.452,18.432 251.509,18.1495C 251.689,17.3427 252.229,16.4661 253.793,16.4661C 255.26,16.4661 256.116,17.3692 256.116,18.7191L 256.116,20.266L 262.355,20.266L 262.355,18.5235C 262.355,13.0776 257.461,12.2288 253.93,12.2288C 249.483,12.2288 245.852,13.6826 245.19,17.7725C 245.005,18.8773 244.977,19.878 245.246,21.1379C 246.332,26.2503 255.213,27.732 256.504,30.9608 Z "/>
		<path fill="#231F20" fill-opacity="1" stroke-width="0.2" stroke-linejoin="round" d="M 277.694,34.3435C 279.447,34.3435 279.992,33.1519 280.118,32.5235C 280.172,32.2504 280.181,31.8842 280.178,31.5584L 280.178,12.887L 286.58,12.887L 286.58,30.9813C 286.584,31.4483 286.536,32.3994 286.51,32.6493C 286.069,37.3566 282.338,38.8787 277.694,38.8787C 273.053,38.8787 269.323,37.3566 268.887,32.6493C 268.867,32.3994 268.816,31.4483 268.827,30.9813L 268.827,12.887L 275.21,12.887L 275.21,31.5584C 275.205,31.8842 275.218,32.2504 275.271,32.5235C 275.398,33.1519 275.942,34.3435 277.694,34.3435 Z "/>
		<path fill="#231F20" fill-opacity="1" stroke-width="0.2" stroke-linejoin="round" d="M 330.368,34.0859C 332.193,34.0859 332.832,32.9347 332.95,32.2613C 332.998,31.9743 333.017,31.6204 333.007,31.2994L 333.007,27.6392L 330.422,27.6392L 330.422,23.9465L 339.356,23.9465L 339.356,30.7205C 339.353,31.1939 339.347,31.5445 339.277,32.387C 338.857,36.9812 334.863,38.6258 330.393,38.6258C 325.918,38.6258 321.929,36.9812 321.515,32.387C 321.442,31.5445 321.43,31.1939 321.427,30.7205L 321.43,20.0987C 321.43,19.644 321.484,18.8512 321.537,18.4462C 322.097,13.7093 325.918,12.2059 330.396,12.2059C 334.869,12.2059 338.796,13.6969 339.262,18.4462C 339.335,19.2329 339.308,20.0987 339.311,20.0987L 339.311,20.9381L 332.95,20.9381L 332.95,19.5199C 332.95,19.5199 332.944,18.921 332.868,18.5704C 332.753,18.015 332.275,16.7318 330.343,16.7318C 328.513,16.7318 327.969,17.9466 327.83,18.5704C 327.757,18.89 327.727,19.3399 327.727,19.7526L 327.727,31.2994C 327.724,31.6204 327.74,31.9743 327.785,32.2613C 327.906,32.9347 328.542,34.0859 330.368,34.0859 Z "/>
		<rect x="155.011" y="56.5161" fill="#231F20" fill-opacity="1" stroke-width="0.2" stroke-linejoin="round" width="11.0145" height="59.1221"/>
		<path fill="#231F20" fill-opacity="1" stroke-width="0.2" stroke-linejoin="round" d="M 173.388,68.2581L 184.243,68.2581L 184.243,74.7312C 185.805,72.753 187.79,71.1673 190.196,69.971C 192.595,68.7747 195.336,68.1759 198.415,68.1759C 204.301,68.1759 208.908,69.9261 212.222,73.4264C 215.545,76.922 217.206,81.797 217.206,88.0514L 217.206,115.638L 206.113,115.638L 206.113,89.2879C 206.113,85.6992 205.217,82.8645 203.437,80.7777C 201.657,78.6954 198.981,77.6544 195.422,77.6544C 192.284,77.6544 189.654,78.7342 187.518,80.8971C 185.389,83.0631 184.323,86.1724 184.323,90.2375L 184.323,115.638L 173.388,115.638L 173.388,68.2581 Z "/>
		<path fill="#231F20" fill-opacity="1" stroke-width="0.2" stroke-linejoin="round" d="M 219.795,68.2581L 227.896,68.2581L 227.896,61.0511L 238.909,53.5183L 238.909,68.2581L 248.546,68.2581L 248.546,78.0593L 238.909,78.0593L 238.909,95.7968C 238.909,97.8495 239.016,99.5097 239.232,100.776C 239.451,102.045 239.899,103.016 240.571,103.693C 241.243,104.368 242.219,104.813 243.485,105.03C 244.757,105.244 246.443,105.353 248.546,105.353L 248.546,115.638L 247.01,115.638C 243.339,115.638 240.274,115.315 237.815,114.667C 235.358,114.017 233.406,112.926 231.943,111.387C 230.487,109.848 229.446,107.821 228.825,105.314C 228.206,102.802 227.896,99.6555 227.896,95.8743L 227.896,78.0593L 219.795,78.0593L 219.795,68.2581 Z "/>
		<path fill="#231F20" fill-opacity="1" stroke-width="0.2" stroke-linejoin="round" d="M 275.28,77.8153C 271.991,77.8153 269.136,78.5445 266.737,79.9967C 264.331,81.4537 262.644,83.3714 261.675,85.7515L 288.566,85.7515C 287.756,83.151 286.188,81.1776 283.868,79.8324C 281.547,78.4886 278.68,77.8153 275.28,77.8153 Z M 275.688,115.721C 271.963,115.721 268.557,115.108 265.479,113.886C 262.407,112.662 259.771,110.985 257.583,108.85C 255.4,106.718 253.701,104.206 252.482,101.315C 251.268,98.4292 250.662,95.3447 250.662,92.0664C 250.662,88.7367 251.295,85.6118 252.565,82.6965C 253.833,79.7827 255.572,77.2583 257.788,75.1263C 260,72.9915 262.606,71.3003 265.605,70.0512C 268.602,68.8022 271.825,68.177 275.28,68.177C 278.793,68.177 282.042,68.7464 285.041,69.8868C 288.04,71.024 290.617,72.6175 292.779,74.6687C 294.934,76.7183 296.622,79.1372 297.841,81.9207C 299.053,84.7057 299.66,87.742 299.66,91.0345L 299.66,94.9057L 261.108,94.9057C 261.865,98.2539 263.507,100.954 266.045,103.003C 268.584,105.056 271.8,106.082 275.688,106.082C 278.767,106.082 281.435,105.326 283.704,103.813C 285.97,102.302 287.671,100.279 288.805,97.7404L 297.795,102.924C 295.744,106.756 292.872,109.849 289.173,112.198C 285.469,114.544 280.981,115.721 275.688,115.721 Z "/>
		<path fill="#231F20" fill-opacity="1" stroke-width="0.2" stroke-linejoin="round" d="M 304.517,68.2581L 315.374,68.2581L 315.374,75.3053C 317.588,70.6087 321.634,68.2581 327.521,68.2581C 329.246,68.2581 330.802,68.4505 332.18,68.826C 333.552,69.2046 334.784,69.6886 335.865,70.2813L 331.732,80.6489C 330.922,80.112 330.019,79.6651 329.016,79.3145C 328.02,78.9622 326.736,78.7885 325.173,78.7885C 321.985,78.7885 319.571,79.6915 317.924,81.5007C 316.275,83.3098 315.453,86.2655 315.453,90.3678L 315.453,115.638L 304.517,115.638L 304.517,68.2581 Z "/>
		<path fill="#231F20" fill-opacity="1" stroke-width="0.2" stroke-linejoin="round" d="M 339.424,68.2581L 350.279,68.2581L 350.279,74.7312C 351.842,72.753 353.825,71.1673 356.231,69.971C 358.63,68.7747 361.373,68.1759 364.451,68.1759C 370.336,68.1759 374.944,69.9261 378.258,73.4264C 381.58,76.922 383.24,81.797 383.24,88.0514L 383.24,115.638L 372.148,115.638L 372.148,89.2879C 372.148,85.6992 371.253,82.8645 369.472,80.7777C 367.694,78.6954 365.017,77.6544 361.458,77.6544C 358.321,77.6544 355.69,78.7342 353.555,80.8971C 351.426,83.0631 350.358,86.1724 350.358,90.2375L 350.358,115.638L 339.424,115.638L 339.424,68.2581 Z "/>
		<path fill="#231F20" fill-opacity="1" stroke-width="0.2" stroke-linejoin="round" d="M 412.637,77.8153C 409.349,77.8153 406.495,78.5445 404.096,79.9967C 401.689,81.4537 400.001,83.3714 399.033,85.7515L 425.925,85.7515C 425.115,83.151 423.546,81.1776 421.225,79.8324C 418.905,78.4886 416.038,77.8153 412.637,77.8153 Z M 413.047,115.721C 409.321,115.721 405.914,115.108 402.837,113.886C 399.765,112.662 397.129,110.985 394.942,108.85C 392.759,106.718 391.058,104.206 389.84,101.315C 388.625,98.4292 388.02,95.3447 388.02,92.0664C 388.02,88.7367 388.653,85.6118 389.924,82.6965C 391.19,79.7827 392.931,77.2583 395.145,75.1263C 397.359,72.9915 399.962,71.3003 402.963,70.0512C 405.961,68.8022 409.183,68.177 412.637,68.177C 416.151,68.177 419.399,68.7464 422.4,69.8868C 425.399,71.024 427.976,72.6175 430.137,74.6687C 432.292,76.7183 433.98,79.1372 435.198,81.9207C 436.412,84.7057 437.018,87.742 437.018,91.0345L 437.018,94.9057L 398.467,94.9057C 399.224,98.2539 400.865,100.954 403.404,103.003C 405.942,105.056 409.159,106.082 413.047,106.082C 416.123,106.082 418.794,105.326 421.062,103.813C 423.329,102.302 425.028,100.279 426.162,97.7404L 435.153,102.924C 433.102,106.756 430.229,109.849 426.531,112.198C 422.826,114.544 418.339,115.721 413.047,115.721 Z "/>
		<path fill="#231F20" fill-opacity="1" stroke-width="0.2" stroke-linejoin="round" d="M 438.145,68.2581L 446.246,68.2581L 446.246,61.0511L 457.259,53.5183L 457.259,68.2581L 466.894,68.2581L 466.894,78.0593L 457.259,78.0593L 457.259,95.7968C 457.259,97.8495 457.365,99.5097 457.582,100.776C 457.799,102.045 458.247,103.016 458.921,103.693C 459.593,104.368 460.567,104.813 461.835,105.03C 463.105,105.244 464.793,105.353 466.894,105.353L 466.894,115.638L 465.36,115.638C 461.689,115.638 458.623,115.315 456.165,114.667C 453.706,114.017 451.754,112.926 450.293,111.387C 448.836,109.848 447.795,107.821 447.174,105.314C 446.555,102.802 446.246,99.6555 446.246,95.8743L 446.246,78.0593L 438.145,78.0593L 438.145,68.2581 Z "/>
	</g>
	<g>
		<path fill="#987FFF" fill-opacity="1" stroke-width="0.2" stroke-linejoin="round" d="M 46.9089,0.747396C 54.6279,0.373617 62.3468,-0.000162601 69.7042,-0.000162601C 77.0616,-0.000162601 84.0574,0.373617 91.0532,0.747396C 113.125,0.747396 132.139,19.7611 132.139,41.8326C 132.512,49.0448 132.886,56.257 132.886,63.6143C 132.886,70.9718 132.512,78.4742 132.139,85.9768C 132.139,108.048 113.125,127.062 91.0532,127.062C 84.1509,127.436 77.2487,127.809 69.8912,127.809C 62.5338,127.809 54.7214,127.436 46.9089,127.062C 24.8375,127.062 5.82402,108.048 5.82402,85.9768C 5.45026,78.1005 5.0764,70.2244 5.0764,62.867C 5.0764,55.5096 5.45026,48.671 5.82402,41.8325C 5.82402,19.7611 24.8375,0.747396 46.9089,0.747396 Z "/>
		<image x="1.01335" y="21.123" width="136" height="149" xlink:href="logoDarkIcon_files/image0.png"/>
		<g>
			<path fill="#FFFFFF" fill-opacity="1" stroke-width="0.2" stroke-linejoin="round" d="M 69.4426,23.3868L 69.2557,26.7502L 71.498,27.5911L 73.9271,28.8056L 76.4497,29.086L 78.8789,29.74L 80.0934,30.1136L 81.7751,31.2348L 81.7751,32.6362L 81.8685,34.4113L 82.4291,35.9996L 84.8583,37.4011L 86.6334,38.5222L 87.5677,38.5222L 87.6611,39.6434L 87.7545,41.4185L 87.0071,42.5396L 86.1662,43.8476L 85.9794,44.5951L 87.0071,45.903L 88.3151,46.8372L 89.2494,47.0243L 90.6508,46.1833L 92.1456,44.3148L 93.5471,43.474L 94.7617,43.7542L 96.5368,44.3148L 98.2185,45.5294L 98.9659,45.9731L 98.9659,47.0476L 98.7324,48.8693L 97.8915,48.9161L 96.7236,48.2154L 94.6215,48.0285L 92.1456,48.7292L 91.3515,49.2431L 89.9501,50.0372L 88.0815,50.4576L 86.3064,50.4576L 84.1108,50.9249L 82.1955,51.9058L 81.2612,53.681L 80,55.7364L 79.2993,56.8575L 79.2759,59.3333L 79.1825,61.2954L 80.3036,62.7901L 81.4248,64.0047L 82.5459,65.7799L 83.2934,66.4339L 83.7838,66.8778L 84.251,67.3448L 85.2553,67.8353L 86.1429,67.7887L 87.0071,67.0412L 88.1283,66.247L 88.6421,65.4996L 89.3195,64.9157L 90.3939,64.9157L 91.0479,65.6632L 91.6318,66.4339L 92.5311,67.0764L 92.9515,67.6837L 93.4187,68.7581L 93.372,70.0194L 93.372,71.1405L 93.5121,72.4486L 93.9792,73.2894L 94.7267,74.504L 94.9135,76.3725L 95.2405,78.4747L 95.2639,79.7594L 95.404,81.9315L 95.404,83.4731L 96.5252,84.7343L 97.9967,85.6453L 99.4682,85.9256L 100.729,86.4862L 101.57,87.6773C 101.57,87.6773 102.832,88.5182 103.182,88.5182C 103.243,88.5182 103.363,88.5267 103.522,88.5402C 108.485,81.5953 111.406,73.0902 111.406,63.903C 111.406,40.6027 92.62,21.6903 69.3681,21.4857L 69.4426,23.3868 Z "/>
			<path fill="#B5A5FE" fill-opacity="1" stroke-width="0.2" stroke-linejoin="round" d="M 30.483,64.4952L 26.9327,64.7755L 26.5779,64.8327C 26.9327,81.3297 36.7051,95.5075 50.7339,102.205L 50.6635,99.8112L 50.8503,98.4097L 51.5044,96.074L 51.5044,93.5515L 51.6912,90.6551L 51.5978,88.3194L 50.5701,86.9181L 50.0095,85.5167L 48.3278,84.2086L 47.0198,82.9007L 45.4315,81.0321L 45.3381,78.9766L 44.7775,76.641L 44.6841,74.2118L 45.5249,72.8104L 45.9921,71.3155L 45.8987,68.9798L 44.5907,68.5127L 43.7498,67.8587L 41.601,66.831L 38.985,64.9625L 37.8638,64.4018L 34.0333,64.6821L 30.483,64.4952 Z "/>
			<path fill="#FFFFFF" fill-opacity="1" stroke-width="0.2" stroke-linejoin="round" d="M 54.4003,102.941L 55.8952,101.352L 58.1374,99.2035L 60.006,98.1758L 61.968,96.027L 64.2102,93.9715L 65.6117,91.7293L 66.9197,89.7673L 67.8539,89.0199L 68.2276,87.4315L 68.8817,85.6563L 69.5357,83.7879L 70.6568,82.1995L 72.4319,81.0785L 72.4319,77.5282L 70.9371,76.4071L 69.5357,76.1268L 67.8539,75.2859L 66.2657,74.8187L 62.9023,74.2581L 61.2205,72.3896L 60.1928,71.4553L 58.6045,69.4932L 56.8294,67.4378L 55.2411,65.8497L 53.1857,64.7285L 50.4763,64.5416L 48.7946,65.6627L 47.58,66.13L 45.618,65.8497L 43.633,64.3317L 41.3907,62.2296L 40.4097,60.8983L 37.9573,60.3377L 36.8361,59.7071L 36.3456,56.9043L 36.9763,55.9232L 38.728,54.3116L 39.8492,53.8912L 41.4608,54.732L 42.8622,55.2225L 44.1936,54.6619L 44.4739,53.5409L 44.9644,51.8591L 46.0154,49.5467L 45.8753,47.5147L 45.8052,46.5336L 48.2577,44.2213L 50.2197,42.1893L 51.2708,41.9791L 51.6211,42.8199L 52.8824,42.8199L 54.2138,41.6988L 54.9612,40.017L 55.6152,38.4288L 55.2415,36.9339L 55.2415,30.7677L 56.7363,29.74L 58.4181,29.1794L 58.9786,28.6187L 59.726,27.8714L 59.6326,26.8436L 57.8575,24.7882L 56.1257,23.4688C 38.9858,28.9157 26.5679,44.9592 26.5679,63.903C 26.5679,64.2137 26.5713,64.5238 26.5779,64.8327L 26.9327,64.7755L 30.483,64.4952L 34.0333,64.6821L 37.8638,64.4018L 38.985,64.9625L 41.601,66.831L 43.7498,67.8587L 44.5907,68.5127L 45.8987,68.9798L 45.9921,71.3155L 45.5249,72.8104L 44.6841,74.2118L 44.7775,76.641L 45.3381,78.9766L 45.4315,81.0321L 47.0198,82.9007L 48.3278,84.2086L 50.0095,85.5167L 50.5701,86.9181L 51.5978,88.3194L 51.6912,90.6551L 51.5044,93.5515L 51.5044,96.074L 50.8503,98.4097L 50.6635,99.8112L 50.7339,102.205C 51.9914,102.805 53.2832,103.346 54.6054,103.822L 54.4003,102.941 Z "/>
			<path fill="#B5A5FE" fill-opacity="1" stroke-width="0.2" stroke-linejoin="round" d="M 69.3681,21.4857C 69.2412,21.4846 69.1141,21.484 68.987,21.484C 64.5034,21.484 60.1823,22.1795 56.1257,23.4688L 57.8575,24.7882L 59.6326,26.8436L 59.726,27.8714L 58.9786,28.6187L 58.4181,29.1794L 56.7363,29.74L 55.2415,30.7677L 55.2415,36.9339L 55.6152,38.4288L 54.9612,40.017L 54.2138,41.6988L 52.8824,42.8199L 51.6211,42.8199L 51.2708,41.9791L 50.2197,42.1893L 48.2577,44.2213L 45.8052,46.5336L 45.8753,47.5147L 46.0154,49.5467L 44.9644,51.8591L 44.4739,53.5409L 44.1936,54.6619L 42.8622,55.2225L 41.4608,54.732L 39.8492,53.8912L 38.728,54.3116L 36.9763,55.9232L 36.3456,56.9043L 36.8361,59.7071L 37.9573,60.3377L 40.4097,60.8983L 41.3907,62.2296L 43.633,64.3317L 45.618,65.8497L 47.58,66.13L 48.7946,65.6627L 50.4763,64.5416L 53.1857,64.7285L 55.2411,65.8497L 56.8294,67.4378L 58.6045,69.4932L 60.1928,71.4553L 61.2205,72.3896L 62.9023,74.2581L 66.2657,74.8187L 67.8539,75.2859L 69.5357,76.1268L 70.9371,76.4071L 72.4319,77.5282L 72.4319,81.0785L 70.6568,82.1995L 69.5357,83.7879L 68.8817,85.6563L 68.2276,87.4315L 67.8539,89.0199L 66.9197,89.7673L 65.6117,91.7293L 64.2102,93.9715L 61.968,96.027L 60.006,98.1758L 58.1374,99.2035L 55.8952,101.352L 54.4003,102.941L 54.6054,103.822C 59.0962,105.44 63.9386,106.322 68.987,106.322C 83.2272,106.322 95.8285,99.3051 103.522,88.5402C 103.363,88.5267 103.243,88.5182 103.182,88.5182C 102.832,88.5182 101.57,87.6773 101.57,87.6773L 100.729,86.4862L 99.4682,85.9256L 97.9967,85.6453L 96.5252,84.7343L 95.404,83.4731L 95.404,81.9315L 95.2639,79.7594L 95.2405,78.4747L 94.9135,76.3725L 94.7267,74.504L 93.9792,73.2894L 93.5121,72.4486L 93.372,71.1405L 93.372,70.0194L 93.4187,68.7581L 92.9515,67.6837L 92.5311,67.0764L 91.6318,66.4339L 91.0479,65.6632L 90.3939,64.9157L 89.3195,64.9157L 88.6421,65.4996L 88.1283,66.247L 87.0071,67.0412L 86.1429,67.7887L 85.2553,67.8353L 84.251,67.3448L 83.7838,66.8778L 83.2934,66.4339L 82.5459,65.7799L 81.4248,64.0047L 80.3036,62.7901L 79.1825,61.2954L 79.2759,59.3333L 79.2993,56.8575L 80,55.7364L 81.2612,53.681L 82.1955,51.9058L 84.1108,50.9249L 86.3064,50.4576L 88.0815,50.4576L 89.9501,50.0372L 91.3515,49.2431L 92.1456,48.7292L 94.6215,48.0285L 96.7236,48.2154L 97.8915,48.9161L 98.7324,48.8693L 98.9659,47.0476L 98.9659,45.9731L 98.2185,45.5294L 96.5368,44.3148L 94.7617,43.7542L 93.5471,43.474L 92.1456,44.3148L 90.6508,46.1833L 89.2494,47.0243L 88.3151,46.8372L 87.0071,45.903L 85.9794,44.5951L 86.1662,43.8476L 87.0071,42.5396L 87.7545,41.4185L 87.6611,39.6434L 87.5677,38.5222L 86.6334,38.5222L 84.8583,37.4011L 82.4291,35.9996L 81.8685,34.4113L 81.7751,32.6362L 81.7751,31.2348L 80.0934,30.1136L 78.8789,29.74L 76.4497,29.086L 73.9271,28.8056L 71.498,27.5911L 69.2557,26.7502L 69.4426,23.3868L 69.3681,21.4857 Z "/>
		</g>
	</g>
</svg>
