<?xml version="1.0" encoding="utf-8"?>
<!DOCTYPE svg PUBLIC "-//W3C//DTD SVG 1.1//EN" "http://www.w3.org/Graphics/SVG/1.1/DTD/svg11.dtd">
<svg xmlns="http://www.w3.org/2000/svg" xmlns:xlink="http://www.w3.org/1999/xlink" version="1.1" baseProfile="full" width="976.974" height="171.844" viewBox="0 0 976.97 171.84" enable-background="new 0 0 976.97 171.84" xml:space="preserve">
	<g>
		<g>
			<path fill="#987FFF" fill-opacity="1" stroke-width="0.2" stroke-linejoin="round" d="M 52.6388,6.01399C 62.3517,5.54375 72.0647,5.07344 81.3226,5.07344C 90.5806,5.07344 99.3837,5.54375 108.187,6.01399C 135.96,6.01399 159.885,29.9394 159.885,57.7124C 160.356,66.7877 160.826,75.8631 160.826,85.121C 160.826,94.379 160.356,103.82 159.885,113.26C 159.885,141.033 135.96,164.958 108.187,164.958C 99.5012,165.429 90.816,165.899 81.558,165.899C 72.2999,165.899 62.4694,165.429 52.6388,164.958C 24.8658,164.958 0.940765,141.033 0.940765,113.26C 0.470459,103.349 3.05176e-005,93.4385 3.05176e-005,84.1805C 3.05176e-005,74.9226 0.470459,66.3175 0.940765,57.7123C 0.940765,29.9393 24.8658,6.01399 52.6388,6.01399 Z "/>
			<filter id="Filter_DropShadow1_" filterUnits="userSpaceOnUse">
				<feGaussianBlur in="SourceAlpha" stdDeviation="19" result="blur"/>
				<feOffset dx="-6.54581e-015" dy="35.6337" in="blur" result="offsetBlurredAlpha"/>
				<feMerge>
					<feMergeNode in="offsetBlurredAlpha"/>
					<feMergeNode in="SourceGraphic"/>
				</feMerge>
			</filter>
			<path fill="#B5A5FE" fill-opacity="1" stroke-width="0.2" stroke-linejoin="round" filter="url(#Filter_DropShadow1_)" d="M 80.8921,32.1117C 110.15,32.3692 133.789,56.167 133.789,85.4862C 133.789,97.0465 130.114,107.749 123.868,116.488C 114.188,130.033 98.3312,138.863 80.4126,138.863C 74.0601,138.863 67.9668,137.753 62.316,135.717C 60.6522,135.117 59.0268,134.438 57.4443,133.682C 39.7917,125.255 27.4949,107.414 27.0485,86.6561L 27.0359,85.4862C 27.0359,61.6489 42.6616,41.4611 64.229,34.6071C 69.3334,32.9849 74.7708,32.1096 80.4126,32.1096L 80.8921,32.1117 Z "/>
			<g>
				<path fill="#FFFFFF" fill-opacity="1" stroke-width="0.2" stroke-linejoin="round" d="M 80.9862,34.5038L 80.751,38.7361L 83.5725,39.7941L 86.6291,41.3225L 89.8033,41.6752L 92.8599,42.4981L 94.3882,42.9683L 96.5043,44.3791L 96.5043,46.1425L 96.6219,48.3762L 97.3273,50.3748L 100.384,52.1382L 102.618,53.549L 103.793,53.549L 103.911,54.9597L 104.028,57.1934L 103.088,58.6041L 102.03,60.25L 101.795,61.1905L 103.088,62.8364L 104.734,64.012L 105.909,64.2471L 107.673,63.1891L 109.554,60.8378L 111.317,59.7797L 112.846,60.1325L 115.079,60.8378L 117.195,62.3661L 118.136,62.9246L 118.136,64.2765L 117.842,66.569L 116.784,66.6278L 115.314,65.746L 112.669,65.5109L 109.554,66.3927L 108.554,67.0393L 106.791,68.0385L 104.44,68.5676L 102.206,68.5676L 99.4434,69.1553L 97.0334,70.3898L 95.8577,72.6235L 94.2707,75.2098L 93.3889,76.6206L 93.3595,79.736L 93.242,82.2048L 94.6527,84.0858L 96.0635,85.6141L 97.4742,87.8478L 98.4147,88.6707L 99.0319,89.2291L 99.6197,89.817L 100.884,90.4342L 102,90.3754L 103.088,89.4349L 104.499,88.4356L 105.145,87.4951L 105.998,86.7603L 107.349,86.7603L 108.172,87.7008L 108.907,88.6707L 110.039,89.4792L 110.568,90.2434L 111.156,91.5953L 111.097,93.1824L 111.097,94.5932L 111.273,96.239L 111.861,97.2971L 112.801,98.8254L 113.037,101.177L 113.448,103.822L 113.477,105.438L 113.654,108.172L 113.654,110.111L 115.065,111.698L 116.916,112.845L 118.768,113.197L 120.355,113.903L 121.413,115.402C 121.413,115.402 123,116.46 123.441,116.46C 123.518,116.46 123.669,116.47 123.869,116.488C 130.114,107.748 133.789,97.0465 133.789,85.4861C 133.789,56.1669 110.151,32.3691 80.8924,32.1116L 80.9862,34.5038 Z "/>
				<path fill="#B5A5FE" fill-opacity="1" stroke-width="0.2" stroke-linejoin="round" d="M 31.9626,86.2313L 27.4952,86.584L 27.0488,86.656C 27.4952,107.414 39.792,125.255 57.4446,133.682L 57.3561,130.67L 57.5912,128.906L 58.4141,125.967L 58.4141,122.793L 58.6492,119.149L 58.5317,116.21L 57.2385,114.446L 56.5331,112.683L 54.417,111.037L 52.7711,109.391L 50.7726,107.04L 50.655,104.453L 49.9496,101.514L 49.8321,98.4578L 50.8901,96.6944L 51.4779,94.8134L 51.3604,91.8743L 49.7145,91.2865L 48.6564,90.4635L 45.9525,89.1704L 42.6608,86.8191L 41.25,86.1137L 36.43,86.4664L 31.9626,86.2313 Z "/>
				<path fill="#FFFFFF" fill-opacity="1" stroke-width="0.2" stroke-linejoin="round" d="M 62.0582,134.608L 63.9392,132.609L 66.7606,129.905L 69.1118,128.612L 71.5807,125.908L 74.4021,123.322L 76.1656,120.5L 77.8115,118.031L 78.9871,117.091L 79.4573,115.092L 80.2803,112.859L 81.1032,110.507L 82.514,108.509L 84.7476,107.098L 84.7476,102.631L 82.8666,101.22L 81.1032,100.867L 78.9871,99.8093L 76.9885,99.2215L 72.7563,98.5161L 70.6402,96.1649L 69.347,94.9892L 67.3484,92.5204L 65.1147,89.934L 63.1162,87.9355L 60.5298,86.5247L 57.1205,86.2896L 55.0044,87.7004L 53.476,88.2882L 51.0072,87.9355L 48.5095,86.0256L 45.688,83.3804L 44.4536,81.7052L 41.3676,80.9998L 39.9568,80.2062L 39.3396,76.6793L 40.1332,75.445L 42.3375,73.417L 43.7482,72.888L 45.7762,73.946L 47.5396,74.5632L 49.2149,73.8579L 49.5676,72.4471L 50.1848,70.331L 51.5073,67.4213L 51.331,64.8643L 51.2428,63.6299L 54.3288,60.7203L 56.7976,58.1633L 58.1202,57.8988L 58.5611,58.9568L 60.1482,58.9568L 61.8234,57.5461L 62.7639,55.4299L 63.5869,53.4314L 63.1166,51.5504L 63.1166,43.7913L 64.9976,42.4981L 67.1137,41.7927L 67.8191,41.0873L 68.7596,40.1469L 68.6421,38.8537L 66.4084,36.2673L 64.2292,34.607C 42.6619,41.461 27.0362,61.6488 27.0362,85.4861C 27.0362,85.8771 27.0404,86.267 27.0488,86.656L 27.4952,86.584L 31.9626,86.2313L 36.43,86.4664L 41.25,86.1137L 42.6608,86.8191L 45.9525,89.1704L 48.6564,90.4635L 49.7145,91.2865L 51.3604,91.8743L 51.4779,94.8134L 50.8901,96.6944L 49.8321,98.4578L 49.9496,101.514L 50.655,104.453L 50.7726,107.04L 52.7711,109.391L 54.417,111.037L 56.5331,112.683L 57.2385,114.446L 58.5317,116.21L 58.6492,119.149L 58.4141,122.793L 58.4141,125.967L 57.5912,128.906L 57.3561,130.67L 57.4446,133.682C 59.027,134.438 60.6525,135.117 62.3162,135.717L 62.0582,134.608 Z "/>
				<path fill="#B5A5FE" fill-opacity="1" stroke-width="0.2" stroke-linejoin="round" d="M 80.8924,32.1116C 80.7327,32.1102 80.5728,32.1095 80.4128,32.1095C 74.771,32.1095 69.3337,32.9848 64.2292,34.607L 66.4084,36.2673L 68.6421,38.8537L 68.7596,40.1469L 67.8191,41.0873L 67.1137,41.7927L 64.9976,42.4981L 63.1166,43.7913L 63.1166,51.5504L 63.5869,53.4314L 62.7639,55.4299L 61.8234,57.5461L 60.1482,58.9568L 58.5611,58.9568L 58.1202,57.8988L 56.7976,58.1633L 54.3288,60.7203L 51.2428,63.6299L 51.331,64.8643L 51.5073,67.4213L 50.1848,70.331L 49.5676,72.4471L 49.2149,73.8579L 47.5396,74.5632L 45.7762,73.946L 43.7482,72.888L 42.3375,73.417L 40.1332,75.445L 39.3396,76.6793L 39.9568,80.2062L 41.3676,80.9998L 44.4536,81.7052L 45.688,83.3804L 48.5095,86.0256L 51.0072,87.9355L 53.476,88.2882L 55.0044,87.7004L 57.1205,86.2896L 60.5298,86.5247L 63.1162,87.9355L 65.1147,89.934L 67.3484,92.5204L 69.347,94.9892L 70.6402,96.1649L 72.7563,98.5161L 76.9885,99.2215L 78.9871,99.8093L 81.1032,100.867L 82.8666,101.22L 84.7476,102.631L 84.7476,107.098L 82.514,108.509L 81.1032,110.507L 80.2803,112.859L 79.4573,115.092L 78.9871,117.091L 77.8115,118.031L 76.1656,120.5L 74.4021,123.322L 71.5807,125.908L 69.1118,128.612L 66.7606,129.905L 63.9392,132.609L 62.0582,134.608L 62.3162,135.717C 67.967,137.753 74.0603,138.863 80.4128,138.863C 98.3315,138.863 114.188,130.033 123.869,116.488C 123.669,116.47 123.518,116.46 123.441,116.46C 123,116.46 121.413,115.402 121.413,115.402L 120.355,113.903L 118.768,113.197L 116.916,112.845L 115.065,111.698L 113.654,110.111L 113.654,108.172L 113.477,105.438L 113.448,103.822L 113.037,101.177L 112.801,98.8254L 111.861,97.2971L 111.273,96.239L 111.097,94.5932L 111.097,93.1824L 111.156,91.5953L 110.568,90.2434L 110.039,89.4792L 108.907,88.6707L 108.172,87.7008L 107.349,86.7603L 105.998,86.7603L 105.145,87.4951L 104.499,88.4356L 103.088,89.4349L 102,90.3754L 100.884,90.4342L 99.6197,89.817L 99.0319,89.2291L 98.4147,88.6707L 97.4742,87.8478L 96.0635,85.6141L 94.6527,84.0858L 93.242,82.2048L 93.3595,79.736L 93.3889,76.6206L 94.2707,75.2098L 95.8577,72.6235L 97.0334,70.3898L 99.4434,69.1553L 102.206,68.5676L 104.44,68.5676L 106.791,68.0385L 108.554,67.0393L 109.554,66.3927L 112.669,65.5109L 115.314,65.746L 116.784,66.6278L 117.842,66.569L 118.136,64.2765L 118.136,62.9246L 117.195,62.3661L 115.079,60.8378L 112.846,60.1325L 111.317,59.7797L 109.554,60.8378L 107.673,63.1891L 105.909,64.2471L 104.734,64.012L 103.088,62.8364L 101.795,61.1905L 102.03,60.25L 103.088,58.6041L 104.028,57.1934L 103.911,54.9597L 103.793,53.549L 102.618,53.549L 100.384,52.1382L 97.3273,50.3748L 96.6219,48.3762L 96.5043,46.1425L 96.5043,44.3791L 94.3882,42.9683L 92.8599,42.4981L 89.8033,41.6752L 86.6291,41.3225L 83.5725,39.7941L 80.751,38.7361L 80.9862,34.5038L 80.8924,32.1116 Z "/>
			</g>
		</g>
		<g>
			<g>
				<path fill="#FFFFFF" fill-opacity="1" stroke-linejoin="round" d="M 219.068,135.793C 224.213,135.793 228.787,134.893 232.789,133.093C 236.792,131.293 240.204,128.759 243.025,125.491C 245.847,122.222 247.991,118.364 249.46,113.914C 250.928,109.465 251.662,104.585 251.662,99.2741C 251.662,93.9632 250.928,89.0607 249.46,84.5668C 247.991,80.0729 245.847,76.211 243.025,72.981C 240.204,69.751 236.792,67.2168 232.789,65.3784C 228.787,63.54 224.213,62.6207 219.068,62.6207L 200.55,62.6207L 200.55,135.793L 219.068,135.793 Z M 192.967,142.534L 192.967,55.8799L 219.796,55.8799C 225.848,55.8799 231.302,56.9428 236.16,59.0684C 241.018,61.1941 245.164,64.1783 248.598,68.0211C 252.032,71.8639 254.688,76.4408 256.564,81.7518C 258.441,87.0627 259.379,92.9035 259.379,99.2741C 259.379,105.645 258.441,111.486 256.564,116.797C 254.688,122.107 252.032,126.662 248.598,130.46C 245.164,134.258 241.018,137.22 236.16,139.346C 231.302,141.471 225.848,142.534 219.796,142.534L 192.967,142.534 Z "/>
				<path fill="#FFFFFF" fill-opacity="1" stroke-linejoin="round" d="M 322.881,137.996C 319.856,139.872 316.648,141.302 313.258,142.285C 309.869,143.268 306.253,143.76 302.41,143.76C 297.673,143.76 293.444,142.962 289.723,141.366C 286.001,139.77 282.873,137.542 280.339,134.683C 277.805,131.823 275.865,128.35 274.518,124.265C 273.171,120.18 272.497,115.648 272.497,110.668C 272.497,106.251 273.03,102.083 274.096,98.1634C 275.162,94.244 276.777,90.8129 278.941,87.8702C 281.105,84.9275 283.841,82.5975 287.147,80.8804C 290.454,79.1633 294.354,78.3047 298.848,78.3047C 302.857,78.3047 306.435,79.0197 309.582,80.4495C 312.729,81.8794 315.384,83.8423 317.548,86.3382C 319.712,88.8341 321.346,91.8183 322.45,95.2909C 323.555,98.7634 324.107,102.542 324.107,106.628C 324.107,107.764 324.065,108.907 323.982,110.056C 323.899,111.205 323.775,112.226 323.609,113.12L 279.736,113.12C 280.145,120.716 282.309,126.659 286.228,130.948C 290.147,135.238 295.624,137.383 302.659,137.383C 305.761,137.383 308.784,136.933 311.726,136.033C 314.669,135.133 317.57,133.866 320.43,132.232L 322.881,137.996 Z M 317.117,107.241C 317.028,100.295 315.473,94.7994 312.454,90.7523C 309.435,86.7052 304.944,84.6817 298.982,84.6817C 295.79,84.6817 293.029,85.2754 290.699,86.4627C 288.37,87.65 286.41,89.265 284.82,91.3077C 283.231,93.3504 282.028,95.7409 281.211,98.4794C 280.394,101.218 279.857,104.138 279.602,107.241L 317.117,107.241 Z "/>
				<path fill="#FFFFFF" fill-opacity="1" stroke-linejoin="round" d="M 362.943,142.534L 355.226,142.534L 331.461,79.5303L 339.178,79.5303L 359.037,134.319L 379.374,79.5303L 386.613,79.5303L 362.943,142.534 Z "/>
				<path fill="#FFFFFF" fill-opacity="1" stroke-linejoin="round" d="M 444.217,137.996C 441.191,139.872 437.983,141.302 434.594,142.285C 431.204,143.268 427.588,143.76 423.745,143.76C 419.009,143.76 414.78,142.962 411.058,141.366C 407.337,139.77 404.209,137.542 401.675,134.683C 399.14,131.823 397.2,128.35 395.853,124.265C 394.506,120.18 393.833,115.648 393.833,110.668C 393.833,106.251 394.366,102.083 395.432,98.1634C 396.498,94.244 398.113,90.8129 400.277,87.8702C 402.441,84.9275 405.176,82.5975 408.482,80.8804C 411.789,79.1633 415.689,78.3047 420.183,78.3047C 424.192,78.3047 427.77,79.0197 430.917,80.4495C 434.064,81.8794 436.719,83.8423 438.883,86.3382C 441.047,88.8341 442.681,91.8183 443.786,95.2909C 444.89,98.7634 445.442,102.542 445.442,106.628C 445.442,107.764 445.401,108.907 445.318,110.056C 445.235,111.205 445.11,112.226 444.944,113.12L 401.071,113.12C 401.48,120.716 403.644,126.659 407.563,130.948C 411.483,135.238 416.96,137.383 423.994,137.383C 427.096,137.383 430.119,136.933 433.062,136.033C 436.004,135.133 438.906,133.866 441.765,132.232L 444.217,137.996 Z M 438.452,107.241C 438.363,100.295 436.809,94.7994 433.789,90.7523C 430.77,86.7052 426.279,84.6817 420.317,84.6817C 417.126,84.6817 414.365,85.2754 412.035,86.4627C 409.705,87.65 407.745,89.265 406.156,91.3077C 404.566,93.3504 403.363,95.7409 402.546,98.4794C 401.729,101.218 401.193,104.138 400.937,107.241L 438.452,107.241 Z "/>
				<path fill="#FFFFFF" fill-opacity="1" stroke-linejoin="round" d="M 469.571,142.534L 462.467,142.534L 462.467,50.8626L 469.571,50.2498L 469.571,142.534 Z "/>
				<path fill="#FFFFFF" fill-opacity="1" stroke-linejoin="round" d="M 523.881,135.43C 526.575,134.115 528.819,132.273 530.612,129.905C 532.406,127.537 533.775,124.76 534.72,121.574C 535.665,118.389 536.137,114.875 536.137,111.032C 536.137,107.279 535.665,103.787 534.72,100.557C 533.775,97.3272 532.406,94.5281 530.612,92.1599C 528.819,89.7916 526.572,87.9532 523.872,86.6446C 521.172,85.336 518.066,84.6817 514.555,84.6817C 511.044,84.6817 507.942,85.336 505.248,86.6446C 502.554,87.9532 500.307,89.7916 498.507,92.1599C 496.707,94.5281 495.338,97.3272 494.4,100.557C 493.461,103.787 492.992,107.279 492.992,111.032C 492.992,114.875 493.461,118.389 494.4,121.574C 495.338,124.76 496.707,127.537 498.507,129.905C 500.307,132.273 502.554,134.111 505.248,135.42C 507.942,136.729 511.044,137.383 514.555,137.383C 518.066,137.383 521.175,136.732 523.881,135.43 Z M 535.754,134.683C 533.303,137.542 530.303,139.77 526.754,141.366C 523.205,142.962 519.138,143.76 514.555,143.76C 509.985,143.76 505.922,142.962 502.366,141.366C 498.81,139.77 495.807,137.523 493.356,134.625C 490.905,131.727 489.025,128.277 487.716,124.275C 486.408,120.272 485.753,115.858 485.753,111.032C 485.753,106.219 486.408,101.808 487.716,97.7996C 489.025,93.7908 490.905,90.3374 493.356,87.4393C 495.807,84.5413 498.81,82.2943 502.366,80.6985C 505.922,79.1026 509.985,78.3047 514.555,78.3047C 519.138,78.3047 523.205,79.1026 526.754,80.6985C 530.303,82.2943 533.303,84.5413 535.754,87.4393C 538.206,90.3374 540.085,93.7908 541.394,97.7996C 542.703,101.808 543.357,106.219 543.357,111.032C 543.357,115.858 542.703,120.272 541.394,124.275C 540.085,128.277 538.206,131.746 535.754,134.683 Z "/>
				<path fill="#FFFFFF" fill-opacity="1" stroke-linejoin="round" d="M 567.256,170.972L 560.152,170.972L 560.152,79.7793L 566.395,79.1665L 567.141,87.267C 570.32,84.6498 573.729,82.5018 577.368,80.823C 581.006,79.1441 584.868,78.3047 588.953,78.3047C 592.962,78.3047 596.499,79.1633 599.563,80.8804C 602.627,82.5975 605.218,84.9083 607.338,87.8128C 609.457,90.7172 611.069,94.0876 612.173,97.9241C 613.277,101.76 613.829,105.804 613.829,110.056C 613.829,114.626 613.217,118.954 611.991,123.039C 610.765,127.125 608.969,130.7 606.6,133.764C 604.232,136.828 601.353,139.26 597.964,141.06C 594.574,142.86 590.671,143.76 586.253,143.76C 582.5,143.76 579.008,143.147 575.778,141.921C 572.548,140.696 569.708,139.145 567.256,137.268L 567.256,170.972 Z M 567.256,130.642C 569.797,132.519 572.637,134.111 575.778,135.42C 578.919,136.729 582.168,137.383 585.526,137.383C 589.036,137.383 592.12,136.626 594.775,135.114C 597.431,133.601 599.636,131.58 601.391,129.053C 603.147,126.525 604.455,123.604 605.317,120.291C 606.179,116.978 606.61,113.528 606.61,109.941C 606.61,106.506 606.201,103.277 605.384,100.251C 604.567,97.2251 603.361,94.5473 601.765,92.2173C 600.169,89.8874 598.206,88.049 595.876,86.702C 593.546,85.3552 590.83,84.6817 587.728,84.6817C 584.051,84.6817 580.435,85.5211 576.879,87.2C 573.324,88.8788 570.116,90.8991 567.256,93.261L 567.256,130.642 Z "/>
				<path fill="#FFFFFF" fill-opacity="1" stroke-linejoin="round" d="M 675.857,137.996C 672.831,139.872 669.623,141.302 666.234,142.285C 662.844,143.268 659.228,143.76 655.385,143.76C 650.649,143.76 646.42,142.962 642.698,141.366C 638.977,139.77 635.849,137.542 633.315,134.683C 630.781,131.823 628.84,128.35 627.493,124.265C 626.146,120.18 625.473,115.648 625.473,110.668C 625.473,106.251 626.006,102.083 627.072,98.1634C 628.138,94.244 629.753,90.8129 631.917,87.8702C 634.081,84.9275 636.816,82.5975 640.123,80.8804C 643.429,79.1633 647.329,78.3047 651.823,78.3047C 655.832,78.3047 659.41,79.0197 662.557,80.4495C 665.704,81.8794 668.359,83.8423 670.523,86.3382C 672.687,88.8341 674.322,91.8183 675.426,95.2909C 676.53,98.7634 677.082,102.542 677.082,106.628C 677.082,107.764 677.041,108.907 676.958,110.056C 676.875,111.205 676.75,112.226 676.584,113.12L 632.711,113.12C 633.12,120.716 635.284,126.659 639.203,130.948C 643.123,135.238 648.6,137.383 655.634,137.383C 658.737,137.383 661.759,136.933 664.702,136.033C 667.645,135.133 670.546,133.866 673.406,132.232L 675.857,137.996 Z M 670.093,107.241C 670.003,100.295 668.449,94.7994 665.43,90.7523C 662.41,86.7052 657.919,84.6817 651.957,84.6817C 648.766,84.6817 646.005,85.2754 643.675,86.4627C 641.345,87.65 639.385,89.265 637.796,91.3077C 636.206,93.3504 635.003,95.7409 634.186,98.4794C 633.369,101.218 632.833,104.138 632.577,107.241L 670.093,107.241 Z "/>
				<path fill="#FFFFFF" fill-opacity="1" stroke-linejoin="round" d="M 700.848,142.534L 693.743,142.534L 693.743,79.7793L 699.986,79.1665L 700.848,88.7224C 703.707,85.4541 706.669,82.9008 709.733,81.0623C 712.797,79.2239 715.964,78.3047 719.232,78.3047C 720.215,78.3047 721.421,78.4069 722.851,78.6111C 724.281,78.8154 725.488,79.0835 726.471,79.4154L 724.747,86.2712C 722.628,85.6201 720.547,85.2945 718.504,85.2945C 715.236,85.2945 712.149,86.1531 709.245,87.8702C 706.341,89.5874 703.541,91.9971 700.848,95.0994L 700.848,142.534 Z "/>
				<path fill="#FFFFFF" fill-opacity="1" stroke-linejoin="round" d="M 834.573,142.534L 826.971,142.534L 826.971,102.453L 779.038,102.453L 779.038,142.534L 771.454,142.534L 771.454,55.8799L 779.038,55.8799L 779.038,95.7122L 826.971,95.7122L 826.971,55.8799L 834.573,55.8799L 834.573,142.534 Z "/>
				<path fill="#FFFFFF" fill-opacity="1" stroke-linejoin="round" d="M 896.83,142.534C 896.588,141.641 896.383,140.581 896.218,139.355C 896.052,138.13 895.886,136.859 895.72,135.545C 892.617,137.83 889.209,139.77 885.493,141.366C 881.778,142.962 877.999,143.76 874.157,143.76C 870.799,143.76 867.917,143.128 865.51,141.864C 863.104,140.6 861.103,138.883 859.507,136.713C 857.911,134.542 856.727,131.967 855.954,128.986C 855.182,126.005 854.796,122.797 854.796,119.363L 854.796,79.7793L 861.9,79.1665L 861.9,118.75C 861.9,121.29 862.124,123.684 862.571,125.931C 863.018,128.178 863.774,130.16 864.84,131.877C 865.906,133.594 867.317,134.941 869.072,135.918C 870.828,136.895 873.014,137.383 875.631,137.383C 878.899,137.383 882.27,136.626 885.742,135.114C 889.215,133.601 892.458,131.746 895.471,129.55L 895.471,79.7793L 902.595,79.1665L 902.595,127.578C 902.595,129.953 902.655,132.445 902.776,135.056C 902.898,137.667 903.284,140.16 903.935,142.534L 896.83,142.534 Z "/>
				<path fill="#FFFFFF" fill-opacity="1" stroke-linejoin="round" d="M 929.309,142.534L 923.296,142.534L 923.296,50.8626L 930.4,50.2498L 930.4,87.267C 933.516,84.6498 936.889,82.5018 940.521,80.823C 944.154,79.1441 948.012,78.3047 952.098,78.3047C 956.106,78.3047 959.643,79.1633 962.707,80.8804C 965.771,82.5975 968.366,84.9083 970.491,87.8128C 972.617,90.7172 974.229,94.0876 975.327,97.9241C 976.425,101.76 976.974,105.804 976.974,110.056C 976.974,114.626 976.361,118.954 975.135,123.039C 973.91,127.125 972.113,130.7 969.744,133.764C 967.376,136.828 964.478,139.26 961.05,141.06C 957.622,142.86 953.7,143.76 949.283,143.76C 945.529,143.76 941.996,143.106 938.683,141.797C 935.37,140.488 932.533,138.896 930.171,137.019L 929.309,142.534 Z M 930.4,130.642C 932.941,132.519 935.763,134.111 938.865,135.42C 941.967,136.729 945.235,137.383 948.67,137.383C 952.181,137.383 955.245,136.626 957.862,135.114C 960.479,133.601 962.665,131.58 964.421,129.053C 966.176,126.525 967.504,123.604 968.404,120.291C 969.304,116.978 969.754,113.528 969.754,109.941C 969.754,106.506 969.345,103.277 968.528,100.251C 967.711,97.2251 966.505,94.5473 964.909,92.2173C 963.313,89.8874 961.35,88.049 959.02,86.702C 956.69,85.3552 953.974,84.6817 950.872,84.6817C 947.195,84.6817 943.579,85.5211 940.023,87.2C 936.468,88.8788 933.26,90.8991 930.4,93.261L 930.4,130.642 Z "/>
			</g>
			<g>
				<path fill="#FFFFFF" fill-opacity="1" stroke-width="0.2" stroke-linejoin="round" d="M 294.773,27.5123L 294.534,13.7181L 298.887,13.7181L 298.887,31.1146L 292.628,31.1146L 288.286,16.8392L 288.188,16.8392L 288.432,31.1146L 284.112,31.1146L 284.112,13.7181L 290.635,13.7181L 294.678,27.5123L 294.773,27.5123 Z "/>
				<path fill="#FFFFFF" fill-opacity="1" stroke-width="0.2" stroke-linejoin="round" d="M 215.68,15.3397L 213.275,31.2946L 208.526,31.2946L 211.781,13.7181L 219.604,13.7181L 222.843,31.2946L 218.124,31.2946L 215.779,15.3397L 215.68,15.3397 Z "/>
				<path fill="#FFFFFF" fill-opacity="1" stroke-width="0.2" stroke-linejoin="round" d="M 236.169,27.157L 238.339,13.7177L 245.507,13.7177L 245.896,31.2943L 241.498,31.2943L 241.385,15.4888L 241.289,15.493L 238.354,31.2943L 233.896,31.2943L 230.956,15.4888L 230.859,15.4888L 230.748,31.2943L 226.354,31.2943L 226.743,13.7177L 233.911,13.7177L 236.073,27.157L 236.169,27.157 Z "/>
				<path fill="#FFFFFF" fill-opacity="1" stroke-width="0.2" stroke-linejoin="round" d="M 201.129,26.3323C 201.299,26.7567 201.242,27.3042 201.162,27.6359C 201.019,28.2099 200.624,28.8079 199.45,28.8079C 198.353,28.8079 197.683,28.1792 197.683,27.2221L 197.679,25.5152L 192.967,25.5152L 192.967,26.8757C 192.967,30.7949 196.05,31.9732 199.352,31.9732C 202.535,31.9732 205.147,30.8939 205.568,27.9623C 205.783,26.4408 205.625,25.4457 205.549,25.075C 204.805,21.3917 198.138,20.3019 197.638,18.238C 197.554,17.8779 197.573,17.5209 197.619,17.3187C 197.746,16.7553 198.126,16.1394 199.225,16.1394C 200.258,16.1394 200.859,16.7743 200.859,17.7304L 200.859,18.814L 205.245,18.814L 205.245,17.5861C 205.245,13.7554 201.808,13.1563 199.317,13.1563C 196.193,13.1563 193.644,14.1924 193.173,17.0607C 193.045,17.8357 193.028,18.5391 193.215,19.4268C 193.977,23.0185 200.223,24.0589 201.129,26.3323 Z "/>
				<path fill="#FFFFFF" fill-opacity="1" stroke-width="0.2" stroke-linejoin="round" d="M 258.276,26.2974C 258.44,26.7186 258.39,27.2587 258.309,27.5894C 258.166,28.1685 257.773,28.7466 256.613,28.7466C 255.522,28.7466 254.863,28.1306 254.863,27.1787L 254.86,25.4887L 250.191,25.4887L 250.189,26.8323C 250.189,30.7168 253.246,31.8782 256.517,31.8782C 259.665,31.8782 262.254,30.8147 262.666,27.9095C 262.88,26.4069 262.723,25.4202 262.648,25.0474C 261.912,21.4052 255.31,20.3248 254.82,18.282C 254.736,17.9292 254.759,17.5754 254.799,17.3785C 254.923,16.8173 255.299,16.2066 256.389,16.2066C 257.409,16.2066 258.006,16.8352 258.006,17.7755L 258.006,18.8527L 262.347,18.8527L 262.347,17.6386C 262.347,13.8479 258.941,13.2561 256.483,13.2561C 253.388,13.2561 250.86,14.269 250.4,17.1152C 250.269,17.885 250.251,18.5821 250.438,19.4592C 251.193,23.0184 257.377,24.0492 258.276,26.2974 Z "/>
				<path fill="#FFFFFF" fill-opacity="1" stroke-width="0.2" stroke-linejoin="round" d="M 273.026,28.6521C 274.249,28.6521 274.629,27.8234 274.715,27.3854C 274.754,27.1958 274.759,26.94 274.758,26.7126L 274.758,13.7144L 279.214,13.7144L 279.214,26.3114C 279.218,26.6367 279.184,27.2991 279.165,27.4728C 278.86,30.7508 276.261,31.8101 273.026,31.8101C 269.797,31.8101 267.2,30.7508 266.898,27.4728C 266.881,27.2991 266.847,26.6367 266.856,26.3114L 266.856,13.7144L 271.298,13.7144L 271.298,26.7126C 271.294,26.94 271.302,27.1958 271.34,27.3854C 271.428,27.8234 271.808,28.6521 273.026,28.6521 Z "/>
				<path fill="#FFFFFF" fill-opacity="1" stroke-width="0.2" stroke-linejoin="round" d="M 309.7,28.4728C 310.969,28.4728 311.414,27.6714 311.496,27.2018C 311.53,27.0028 311.543,26.7564 311.536,26.5331L 311.536,23.9849L 309.737,23.9849L 309.737,21.4146L 315.956,21.4146L 315.956,26.1298C 315.954,26.4594 315.95,26.7037 315.902,27.2902C 315.608,30.4892 312.829,31.6338 309.717,31.6338C 306.602,31.6338 303.824,30.4892 303.536,27.2902C 303.485,26.7037 303.477,26.4594 303.475,26.1298L 303.477,18.7347C 303.477,18.4188 303.513,17.867 303.549,17.5848C 303.94,14.2879 306.602,13.2402 309.719,13.2402C 312.834,13.2402 315.566,14.2795 315.891,17.5848C 315.942,18.1334 315.922,18.7347 315.925,18.7347L 315.925,19.3201L 311.496,19.3201L 311.496,18.3324C 311.496,18.3324 311.492,17.9165 311.438,17.6712C 311.359,17.2847 311.027,16.3918 309.682,16.3918C 308.406,16.3918 308.029,17.2373 307.932,17.6712C 307.881,17.8944 307.86,18.2071 307.86,18.4946L 307.86,26.5331C 307.858,26.7564 307.869,27.0028 307.9,27.2018C 307.984,27.6714 308.428,28.4728 309.7,28.4728 Z "/>
				<rect x="326.341" y="2.05611" fill="#FFFFFF" fill-opacity="1" stroke-width="0.2" stroke-linejoin="round" width="7.55206" height="40.5381"/>
				<path fill="#FFFFFF" fill-opacity="1" stroke-width="0.2" stroke-linejoin="round" d="M 338.941,10.1076L 346.383,10.1076L 346.383,14.5459C 347.455,13.1897 348.815,12.1031 350.465,11.2827C 352.11,10.4624 353.99,10.0507 356.1,10.0507C 360.137,10.0507 363.296,11.2512 365.568,13.6509C 367.846,16.0486 368.985,19.3897 368.985,23.6796L 368.985,42.5945L 361.379,42.5945L 361.379,24.5263C 361.379,22.0654 360.764,20.1226 359.544,18.6916C 358.323,17.2638 356.489,16.5498 354.049,16.5498C 351.898,16.5498 350.094,17.2912 348.629,18.7737C 347.17,20.2585 346.438,22.3919 346.438,25.1781L 346.438,42.5945L 338.941,42.5945L 338.941,10.1076 Z "/>
				<path fill="#FFFFFF" fill-opacity="1" stroke-width="0.2" stroke-linejoin="round" d="M 370.761,10.1076L 376.314,10.1076L 376.314,5.16594L 383.866,-4.57764e-005L 383.866,10.1076L 390.474,10.1076L 390.474,16.8278L 383.866,16.8278L 383.866,28.9899C 383.866,30.3977 383.939,31.536 384.088,32.4037C 384.237,33.2735 384.545,33.94 385.005,34.4033C 385.467,34.8666 386.136,35.172 387.003,35.3204C 387.875,35.4678 389.032,35.5426 390.474,35.5426L 390.474,42.5945L 389.421,42.5945C 386.903,42.5945 384.803,42.3734 383.116,41.928C 381.431,41.4826 380.093,40.7349 379.089,39.6799C 378.091,38.6247 377.377,37.2348 376.953,35.5152C 376.528,33.7937 376.314,31.635 376.314,29.0435L 376.314,16.8278L 370.761,16.8278L 370.761,10.1076 Z "/>
				<path fill="#FFFFFF" fill-opacity="1" stroke-width="0.2" stroke-linejoin="round" d="M 408.804,16.6606C 406.549,16.6606 404.592,17.1608 402.948,18.1569C 401.298,19.1552 400.14,20.4703 399.477,22.1014L 417.915,22.1014C 417.359,20.3197 416.284,18.9656 414.693,18.0432C 413.102,17.1218 411.136,16.6606 408.804,16.6606 Z M 409.085,42.6516C 406.531,42.6516 404.194,42.2304 402.083,41.3923C 399.977,40.554 398.17,39.4042 396.67,37.9395C 395.174,36.478 394.008,34.7563 393.172,32.7746C 392.34,30.7949 391.925,28.6805 391.925,26.4313C 391.925,24.1495 392.359,22.0077 393.231,20.007C 394.098,18.0095 395.291,16.2794 396.81,14.8168C 398.328,13.3521 400.113,12.1938 402.169,11.3366C 404.226,10.4806 406.436,10.0509 408.804,10.0509C 411.213,10.0509 413.441,10.4427 415.496,11.224C 417.554,12.0043 419.32,13.0972 420.803,14.503C 422.281,15.9088 423.437,17.5672 424.273,19.4763C 425.105,21.3854 425.521,23.4671 425.521,25.7237L 425.521,28.3793L 399.087,28.3793C 399.608,30.6749 400.732,32.526 402.472,33.9307C 404.212,35.3385 406.417,36.042 409.085,36.042C 411.195,36.042 413.025,35.5249 414.579,34.4867C 416.134,33.4495 417.3,32.0628 418.078,30.3232L 424.241,33.877C 422.837,36.5053 420.865,38.6239 418.331,40.236C 415.791,41.845 412.713,42.6516 409.085,42.6516 Z "/>
				<path fill="#FFFFFF" fill-opacity="1" stroke-width="0.2" stroke-linejoin="round" d="M 428.851,10.1076L 436.294,10.1076L 436.294,14.9388C 437.813,11.7187 440.588,10.1076 444.624,10.1076C 445.809,10.1076 446.874,10.2393 447.819,10.4962C 448.758,10.7562 449.604,11.089 450.345,11.4954L 447.511,18.6042C 446.955,18.2357 446.336,17.9282 445.65,17.6892C 444.967,17.4469 444.086,17.327 443.015,17.327C 440.827,17.327 439.174,17.9461 438.043,19.1875C 436.914,20.4279 436.349,22.455 436.349,25.2675L 436.349,42.5945L 428.851,42.5945L 428.851,10.1076 Z "/>
				<path fill="#FFFFFF" fill-opacity="1" stroke-width="0.2" stroke-linejoin="round" d="M 452.785,10.1076L 460.229,10.1076L 460.229,14.5459C 461.3,13.1897 462.66,12.1031 464.309,11.2827C 465.955,10.4624 467.835,10.0507 469.945,10.0507C 473.981,10.0507 477.14,11.2512 479.413,13.6509C 481.691,16.0486 482.829,19.3897 482.829,23.6796L 482.829,42.5945L 475.225,42.5945L 475.225,24.5263C 475.225,22.0654 474.61,20.1226 473.388,18.6916C 472.169,17.2638 470.333,16.5498 467.894,16.5498C 465.742,16.5498 463.94,17.2912 462.475,18.7737C 461.014,20.2585 460.283,22.3919 460.283,25.1781L 460.283,42.5945L 452.785,42.5945L 452.785,10.1076 Z "/>
				<path fill="#FFFFFF" fill-opacity="1" stroke-width="0.2" stroke-linejoin="round" d="M 502.986,16.6606C 500.73,16.6606 498.774,17.1608 497.129,18.1569C 495.479,19.1552 494.322,20.4703 493.658,22.1014L 512.096,22.1014C 511.541,20.3197 510.466,18.9656 508.875,18.0432C 507.284,17.1218 505.318,16.6606 502.986,16.6606 Z M 503.267,42.6516C 500.713,42.6516 498.376,42.2304 496.265,41.3923C 494.159,40.554 492.351,39.4042 490.852,37.9395C 489.356,36.478 488.189,34.7563 487.353,32.7746C 486.522,30.7949 486.106,28.6805 486.106,26.4313C 486.106,24.1495 486.54,22.0077 487.413,20.007C 488.28,18.0095 489.474,16.2794 490.991,14.8168C 492.51,13.3521 494.295,12.1938 496.352,11.3366C 498.407,10.4806 500.617,10.0509 502.986,10.0509C 505.395,10.0509 507.622,10.4427 509.678,11.224C 511.736,12.0043 513.502,13.0972 514.984,14.503C 516.463,15.9088 517.619,17.5672 518.455,19.4763C 519.286,21.3854 519.703,23.4671 519.703,25.7237L 519.703,28.3793L 493.269,28.3793C 493.79,30.6749 494.914,32.526 496.654,33.9307C 498.395,35.3385 500.599,36.042 503.267,36.042C 505.377,36.042 507.207,35.5249 508.761,34.4867C 510.317,33.4495 511.481,32.0628 512.259,30.3232L 518.424,33.877C 517.018,36.5053 515.048,38.6239 512.513,40.236C 509.973,41.845 506.895,42.6516 503.267,42.6516 Z "/>
				<path fill="#FFFFFF" fill-opacity="1" stroke-width="0.2" stroke-linejoin="round" d="M 520.475,10.1076L 526.029,10.1076L 526.029,5.16594L 533.581,-4.57764e-005L 533.581,10.1076L 540.189,10.1076L 540.189,16.8278L 533.581,16.8278L 533.581,28.9899C 533.581,30.3977 533.654,31.536 533.803,32.4037C 533.952,33.2735 534.26,33.94 534.72,34.4033C 535.181,34.8666 535.85,35.172 536.717,35.3204C 537.59,35.4678 538.748,35.5426 540.189,35.5426L 540.189,42.5945L 539.136,42.5945C 536.618,42.5945 534.517,42.3734 532.831,41.928C 531.145,41.4826 529.808,40.7349 528.804,39.6799C 527.806,38.6247 527.091,37.2348 526.667,35.5152C 526.242,33.7937 526.029,31.635 526.029,29.0435L 526.029,16.8278L 520.475,16.8278L 520.475,10.1076 Z "/>
			</g>
		</g>
	</g>
</svg>
