<?xml version="1.0" encoding="utf-8"?>
<!DOCTYPE svg PUBLIC "-//W3C//DTD SVG 1.1//EN" "http://www.w3.org/Graphics/SVG/1.1/DTD/svg11.dtd">
<svg xmlns="http://www.w3.org/2000/svg" xmlns:xlink="http://www.w3.org/1999/xlink" version="1.1" baseProfile="full" width="400" height="75" viewBox="0 0 400.00 75.00" enable-background="new 0 0 400.00 75.00" xml:space="preserve">
	<g>
		<path fill="#987FFF" fill-opacity="1" stroke-width="0.2" stroke-linejoin="round" d="M 24.5456,10.3596C 27.9849,10.1931 31.4242,10.0265 34.7023,10.0265C 37.9805,10.0265 41.0976,10.1931 44.2146,10.3596C 54.0489,10.3596 62.5207,18.8314 62.5207,28.6656C 62.6872,31.8791 62.8537,35.0926 62.8537,38.3707C 62.8537,41.6489 62.6872,44.9917 62.5207,48.3345C 62.5207,58.1687 54.0489,66.6405 44.2146,66.6405C 41.1392,66.807 38.0638,66.9735 34.7856,66.9735C 31.5074,66.9735 28.0265,66.807 24.5456,66.6405C 14.7114,66.6405 6.23975,58.1687 6.23975,48.3345C 6.07323,44.8252 5.90665,41.3159 5.90665,38.0377C 5.90665,34.7595 6.07323,31.7125 6.23975,28.6655C 6.23975,18.8313 14.7114,10.3596 24.5456,10.3596 Z "/>
		<path fill="#B5A5FE" fill-opacity="1" stroke-width="0.2" stroke-linejoin="round" d="M 34.5524,19.5998C 44.9126,19.6909 53.2829,28.1176 53.2829,38.4993C 53.2829,42.5927 51.9816,46.3823 49.77,49.4767C 46.3422,54.2731 40.7275,57.3996 34.3826,57.3996C 32.1332,57.3996 29.9757,57.0066 27.9747,56.2857C 27.3856,56.0734 26.81,55.8327 26.2497,55.5652C 19.999,52.581 15.6448,46.2639 15.4868,38.9136L 15.4823,38.4993C 15.4823,30.0587 21.0152,22.9103 28.6521,20.4834C 30.4596,19.9089 32.3849,19.599 34.3826,19.599L 34.5524,19.5998 Z "/>
		<g>
			<path fill="#FFFFFF" fill-opacity="1" stroke-width="0.2" stroke-linejoin="round" d="M 34.5857,20.4468L 34.5024,21.9455L 35.5015,22.3201L 36.5838,22.8613L 37.7078,22.9862L 38.7901,23.2776L 39.3313,23.4441L 40.0806,23.9436L 40.0806,24.568L 40.1222,25.359L 40.372,26.0666L 41.4543,26.6911L 42.2452,27.1906L 42.6615,27.1906L 42.7032,27.6901L 42.7448,28.4811L 42.4118,28.9806L 42.0371,29.5634L 41.9538,29.8964L 42.4118,30.4792L 42.9945,30.8955L 43.4108,30.9788L 44.0352,30.6041L 44.7013,29.7715L 45.3257,29.3969L 45.8669,29.5218L 46.6578,29.7715L 47.4071,30.3127L 47.7401,30.5104L 47.7401,30.9892L 47.6361,31.8009L 47.2614,31.8217L 46.7411,31.5095L 45.8044,31.4263L 44.7013,31.7385L 44.3475,31.9674L 43.723,32.3213L 42.8905,32.5086L 42.0995,32.5086L 41.1213,32.7167L 40.2679,33.1538L 39.8516,33.9448L 39.2897,34.8606L 38.9774,35.3601L 38.967,36.4632L 38.9254,37.3374L 39.4249,38.0035L 39.9245,38.5447L 40.424,39.3356L 40.757,39.627L 40.9756,39.8247L 41.1837,40.0329L 41.6312,40.2514L 42.0267,40.2306L 42.4118,39.8976L 42.9113,39.5437L 43.1402,39.2107L 43.442,38.9505L 43.9208,38.9505L 44.2122,39.2836L 44.4723,39.627L 44.873,39.9133L 45.0604,40.1838L 45.2685,40.6626L 45.2477,41.2245L 45.2477,41.7241L 45.3101,42.3069L 45.5183,42.6815L 45.8513,43.2227L 45.9346,44.0552L 46.0802,44.9919L 46.0907,45.5643L 46.1531,46.5321L 46.1531,47.219L 46.6526,47.781L 47.3083,48.1868L 47.9639,48.3117L 48.5259,48.5615L 48.9005,49.0922C 48.9005,49.0922 49.4625,49.4669 49.6186,49.4669C 49.6458,49.4669 49.6993,49.4707 49.7701,49.4767C 51.9817,46.3823 53.283,42.5928 53.283,38.4993C 53.283,28.1176 44.9126,19.6909 34.5525,19.5998L 34.5857,20.4468 Z "/>
			<path fill="#B5A5FE" fill-opacity="1" stroke-width="0.2" stroke-linejoin="round" d="M 17.2268,38.7632L 15.6449,38.8881L 15.4868,38.9136C 15.6449,46.2639 19.9991,52.581 26.2498,55.5652L 26.2184,54.4986L 26.3017,53.8742L 26.5931,52.8335L 26.5931,51.7095L 26.6764,50.4191L 26.6347,49.3783L 26.1768,48.7539L 25.927,48.1295L 25.1777,47.5467L 24.5949,46.9639L 23.8873,46.1314L 23.8456,45.2155L 23.5959,44.1748L 23.5543,43.0925L 23.9289,42.4681L 24.137,41.802L 24.0954,40.7613L 23.5126,40.5532L 23.138,40.2618L 22.1805,39.8039L 21.0149,38.9713L 20.5154,38.7216L 18.8087,38.8465L 17.2268,38.7632 Z "/>
			<path fill="#FFFFFF" fill-opacity="1" stroke-width="0.2" stroke-linejoin="round" d="M 27.8834,55.893L 28.5495,55.1853L 29.5485,54.2279L 30.3811,53.7699L 31.2553,52.8125L 32.2543,51.8967L 32.8788,50.8976L 33.4616,50.0234L 33.8778,49.6904L 34.0444,48.9827L 34.3358,48.1918L 34.6271,47.3592L 35.1267,46.6516L 35.9176,46.152L 35.9176,44.5701L 35.2516,44.0706L 34.6271,43.9457L 33.8778,43.5711L 33.1702,43.3629L 31.6716,43.1132L 30.9223,42.2806L 30.4643,41.8643L 29.7567,40.9901L 28.9657,40.0743L 28.2581,39.3666L 27.3422,38.8671L 26.135,38.7838L 25.3857,39.2834L 24.8446,39.4915L 23.9704,39.3666L 23.0859,38.6903L 22.0869,37.7537L 21.6498,37.1605L 20.557,36.9107L 20.0575,36.6298L 19.8389,35.3809L 20.1199,34.9438L 20.9005,34.2257L 21.4,34.0384L 22.1181,34.4131L 22.7425,34.6316L 23.3357,34.3818L 23.4606,33.8823L 23.6791,33.133L 24.1474,32.1027L 24.085,31.1973L 24.0538,30.7602L 25.1465,29.7299L 26.0207,28.8245L 26.489,28.7308L 26.6451,29.1055L 27.2071,29.1055L 27.8003,28.606L 28.1333,27.8566L 28.4247,27.149L 28.2582,26.4829L 28.2582,23.7355L 28.9243,23.2776L 29.6736,23.0278L 29.9233,22.778L 30.2564,22.445L 30.2147,21.9871L 29.4238,21.0713L 28.6522,20.4834C 21.0153,22.9103 15.4824,30.0587 15.4824,38.4993C 15.4824,38.6378 15.4839,38.7759 15.4868,38.9136L 15.6449,38.8881L 17.2268,38.7632L 18.8087,38.8465L 20.5154,38.7216L 21.0149,38.9713L 22.1805,39.8039L 23.138,40.2618L 23.5126,40.5532L 24.0954,40.7613L 24.137,41.802L 23.9289,42.4681L 23.5543,43.0925L 23.5959,44.1748L 23.8456,45.2155L 23.8873,46.1314L 24.5949,46.9639L 25.1777,47.5467L 25.927,48.1295L 26.1768,48.7539L 26.6347,49.3783L 26.6764,50.4191L 26.5931,51.7095L 26.5931,52.8335L 26.3017,53.8742L 26.2184,54.4986L 26.2498,55.5652C 26.8101,55.8327 27.3857,56.0734 27.9748,56.2857L 27.8834,55.893 Z "/>
			<path fill="#B5A5FE" fill-opacity="1" stroke-width="0.2" stroke-linejoin="round" d="M 34.5525,19.5998C 34.4959,19.5993 34.4393,19.599 34.3827,19.599C 32.385,19.599 30.4596,19.909 28.6522,20.4834L 29.4238,21.0713L 30.2147,21.9871L 30.2564,22.445L 29.9233,22.778L 29.6736,23.0278L 28.9243,23.2776L 28.2582,23.7355L 28.2582,26.4829L 28.4247,27.149L 28.1333,27.8566L 27.8003,28.606L 27.2071,29.1055L 26.6451,29.1055L 26.489,28.7308L 26.0207,28.8245L 25.1465,29.7299L 24.0538,30.7602L 24.085,31.1973L 24.1474,32.1027L 23.6791,33.133L 23.4606,33.8823L 23.3357,34.3818L 22.7425,34.6316L 22.1181,34.4131L 21.4,34.0384L 20.9005,34.2257L 20.1199,34.9438L 19.8389,35.3809L 20.0575,36.6298L 20.557,36.9107L 21.6498,37.1605L 22.0869,37.7537L 23.0859,38.6903L 23.9704,39.3666L 24.8446,39.4915L 25.3857,39.2834L 26.135,38.7838L 27.3422,38.8671L 28.2581,39.3666L 28.9657,40.0743L 29.7567,40.9901L 30.4643,41.8643L 30.9223,42.2806L 31.6716,43.1132L 33.1702,43.3629L 33.8778,43.5711L 34.6271,43.9457L 35.2516,44.0706L 35.9176,44.5701L 35.9176,46.152L 35.1267,46.6516L 34.6271,47.3592L 34.3358,48.1918L 34.0444,48.9827L 33.8778,49.6904L 33.4616,50.0234L 32.8788,50.8976L 32.2543,51.8967L 31.2553,52.8125L 30.3811,53.7699L 29.5485,54.2279L 28.5495,55.1853L 27.8834,55.893L 27.9748,56.2857C 29.9757,57.0067 32.1333,57.3996 34.3827,57.3996C 40.7276,57.3996 46.3422,54.2731 49.7701,49.4767C 49.6993,49.4707 49.6458,49.4669 49.6186,49.4669C 49.4625,49.4669 48.9005,49.0922 48.9005,49.0922L 48.5259,48.5615L 47.9639,48.3117L 47.3083,48.1868L 46.6526,47.781L 46.1531,47.219L 46.1531,46.5321L 46.0907,45.5643L 46.0802,44.9919L 45.9346,44.0552L 45.8513,43.2227L 45.5183,42.6815L 45.3101,42.3069L 45.2477,41.7241L 45.2477,41.2245L 45.2685,40.6626L 45.0604,40.1838L 44.873,39.9133L 44.4723,39.627L 44.2122,39.2836L 43.9208,38.9505L 43.442,38.9505L 43.1402,39.2107L 42.9113,39.5437L 42.4118,39.8976L 42.0267,40.2306L 41.6312,40.2514L 41.1837,40.0329L 40.9756,39.8247L 40.757,39.627L 40.424,39.3356L 39.9245,38.5447L 39.4249,38.0035L 38.9254,37.3374L 38.967,36.4632L 38.9774,35.3601L 39.2897,34.8606L 39.8516,33.9448L 40.2679,33.1538L 41.1213,32.7167L 42.0995,32.5086L 42.8905,32.5086L 43.723,32.3213L 44.3475,31.9674L 44.7013,31.7385L 45.8044,31.4263L 46.7411,31.5095L 47.2614,31.8217L 47.6361,31.8009L 47.7401,30.9892L 47.7401,30.5104L 47.4071,30.3127L 46.6578,29.7715L 45.8669,29.5218L 45.3257,29.3969L 44.7013,29.7715L 44.0352,30.6041L 43.4108,30.9788L 42.9945,30.8955L 42.4118,30.4792L 41.9538,29.8964L 42.0371,29.5634L 42.4118,28.9806L 42.7448,28.4811L 42.7032,27.6901L 42.6615,27.1906L 42.2452,27.1906L 41.4543,26.6911L 40.372,26.0666L 40.1222,25.359L 40.0806,24.568L 40.0806,23.9436L 39.3313,23.4441L 38.7901,23.2776L 37.7078,22.9862L 36.5838,22.8613L 35.5015,22.3201L 34.5024,21.9455L 34.5857,20.4468L 34.5525,19.5998 Z "/>
		</g>
	</g>
	<g>
		<g>
			<path fill="#231F20" fill-opacity="1" stroke-width="0.2" stroke-linejoin="round" d="M 98.9325,14.2731L 98.8696,10.6439L 100.015,10.6439L 100.015,15.2209L 98.3681,15.2209L 97.2259,11.4651L 97.2001,11.4651L 97.2641,15.2209L 96.1277,15.2209L 96.1277,10.6439L 97.8437,10.6439L 98.9075,14.2731L 98.9325,14.2731 Z "/>
			<path fill="#231F20" fill-opacity="1" stroke-width="0.2" stroke-linejoin="round" d="M 78.1231,11.0706L 77.4904,15.2683L 76.2409,15.2683L 77.0975,10.6439L 79.1557,10.6439L 80.0078,15.2683L 78.7661,15.2683L 78.1492,11.0706L 78.1231,11.0706 Z "/>
			<path fill="#231F20" fill-opacity="1" stroke-width="0.2" stroke-linejoin="round" d="M 83.5139,14.1797L 84.0849,10.6438L 85.9707,10.6438L 86.073,15.2682L 84.916,15.2682L 84.8861,11.1098L 84.8609,11.1109L 84.0888,15.2682L 82.9158,15.2682L 82.1423,11.1098L 82.1168,11.1098L 82.0877,15.2682L 80.9316,15.2682L 81.0339,10.6438L 82.9197,10.6438L 83.4887,14.1797L 83.5139,14.1797 Z "/>
			<path fill="#231F20" fill-opacity="1" stroke-width="0.2" stroke-linejoin="round" d="M 74.2948,13.9627C 74.3396,14.0743 74.3247,14.2184 74.3036,14.3057C 74.2659,14.4567 74.1621,14.614 73.8532,14.614C 73.5645,14.614 73.3883,14.4486 73.3883,14.1968L 73.3872,13.7477L 72.1474,13.7477L 72.1474,14.1056C 72.1474,15.1368 72.9586,15.4468 73.8274,15.4468C 74.6649,15.4468 75.3519,15.1628 75.4628,14.3915C 75.5193,13.9912 75.4777,13.7294 75.4578,13.6319C 75.2619,12.6628 73.508,12.3761 73.3764,11.8331C 73.3542,11.7383 73.3592,11.6444 73.3714,11.5912C 73.4049,11.443 73.5049,11.2809 73.7939,11.2809C 74.0656,11.2809 74.2238,11.448 74.2238,11.6995L 74.2238,11.9846L 75.3777,11.9846L 75.3777,11.6616C 75.3777,10.6537 74.4734,10.4961 73.8182,10.4961C 72.9963,10.4961 72.3255,10.7687 72.2017,11.5233C 72.1679,11.7272 72.1635,11.9123 72.2128,12.1459C 72.4131,13.0908 74.0565,13.3646 74.2948,13.9627 Z "/>
			<path fill="#231F20" fill-opacity="1" stroke-width="0.2" stroke-linejoin="round" d="M 89.3302,13.9535C 89.3734,14.0643 89.3601,14.2064 89.3388,14.2934C 89.3014,14.4458 89.1977,14.5979 88.8927,14.5979C 88.6057,14.5979 88.4323,14.4358 88.4323,14.1854L 88.4314,13.7407L 87.203,13.7407L 87.2025,14.0942C 87.2025,15.1162 88.0067,15.4218 88.8675,15.4218C 89.6956,15.4218 90.3768,15.142 90.4851,14.3776C 90.5414,13.9823 90.5001,13.7227 90.4804,13.6246C 90.2868,12.6664 88.5497,12.3821 88.4209,11.8447C 88.3988,11.7518 88.4048,11.6588 88.4154,11.6069C 88.4481,11.4593 88.547,11.2986 88.8337,11.2986C 89.1022,11.2986 89.2592,11.464 89.2592,11.7114L 89.2592,11.9948L 90.4012,11.9948L 90.4012,11.6754C 90.4012,10.678 89.5053,10.5223 88.8584,10.5223C 88.0441,10.5223 87.379,10.7888 87.2579,11.5377C 87.2235,11.7402 87.2188,11.9236 87.2682,12.1544C 87.4668,13.0908 89.0936,13.362 89.3302,13.9535 Z "/>
			<path fill="#231F20" fill-opacity="1" stroke-width="0.2" stroke-linejoin="round" d="M 93.2109,14.573C 93.5326,14.573 93.6326,14.355 93.6553,14.2397C 93.6656,14.1899 93.6669,14.1226 93.6667,14.0627L 93.6667,10.6429L 94.8388,10.6429L 94.8388,13.9572C 94.8399,14.0428 94.8311,14.217 94.8261,14.2627C 94.7457,15.1252 94.062,15.4039 93.2109,15.4039C 92.3612,15.4039 91.6781,15.1252 91.5985,14.2627C 91.5941,14.217 91.5853,14.0428 91.5875,13.9572L 91.5875,10.6429L 92.7563,10.6429L 92.7563,14.0627C 92.7552,14.1226 92.7574,14.1899 92.7674,14.2397C 92.7904,14.355 92.8904,14.573 93.2109,14.573 Z "/>
			<path fill="#231F20" fill-opacity="1" stroke-width="0.2" stroke-linejoin="round" d="M 102.86,14.5258C 103.194,14.5258 103.311,14.315 103.332,14.1914C 103.341,14.1391 103.345,14.0743 103.343,14.0155L 103.343,13.3451L 102.869,13.3451L 102.869,12.6688L 104.506,12.6688L 104.506,13.9094C 104.505,13.9961 104.504,14.0604 104.492,14.2147C 104.414,15.0564 103.683,15.3575 102.864,15.3575C 102.045,15.3575 101.314,15.0564 101.238,14.2147C 101.225,14.0604 101.222,13.9961 101.222,13.9094L 101.222,11.9637C 101.222,11.8806 101.232,11.7355 101.242,11.6612C 101.344,10.7938 102.045,10.5182 102.865,10.5182C 103.684,10.5182 104.403,10.7916 104.489,11.6612C 104.502,11.8056 104.497,11.9637 104.498,11.9637L 104.498,12.1178L 103.332,12.1178L 103.332,11.8579C 103.332,11.8579 103.331,11.7485 103.317,11.6839C 103.296,11.5823 103.209,11.3473 102.855,11.3473C 102.519,11.3473 102.42,11.5698 102.395,11.6839C 102.381,11.7427 102.376,11.825 102.376,11.9006L 102.376,14.0155C 102.375,14.0743 102.378,14.1391 102.386,14.1914C 102.408,14.315 102.525,14.5258 102.86,14.5258 Z "/>
			<rect x="107.238" y="7.57565" fill="#231F20" fill-opacity="1" stroke-width="0.2" stroke-linejoin="round" width="1.98694" height="10.6655"/>
			<path fill="#231F20" fill-opacity="1" stroke-width="0.2" stroke-linejoin="round" d="M 110.553,9.69398L 112.511,9.69398L 112.511,10.8617C 112.793,10.5049 113.151,10.219 113.585,10.0032C 114.018,9.78735 114.513,9.67902 115.068,9.67902C 116.13,9.67902 116.961,9.99485 117.559,10.6262C 118.158,11.257 118.458,12.1361 118.458,13.2648L 118.458,18.2413L 116.457,18.2413L 116.457,13.4875C 116.457,12.8401 116.295,12.3289 115.974,11.9524C 115.653,11.5768 115.17,11.3889 114.528,11.3889C 113.962,11.3889 113.487,11.584 113.102,11.974C 112.718,12.3647 112.526,12.926 112.526,13.659L 112.526,18.2413L 110.553,18.2413L 110.553,9.69398 Z "/>
			<path fill="#231F20" fill-opacity="1" stroke-width="0.2" stroke-linejoin="round" d="M 118.925,9.69398L 120.386,9.69398L 120.386,8.39384L 122.373,7.03467L 122.373,9.69398L 124.111,9.69398L 124.111,11.4621L 122.373,11.4621L 122.373,14.6619C 122.373,15.0323 122.392,15.3318 122.431,15.5601C 122.47,15.7889 122.551,15.9643 122.672,16.0862C 122.794,16.2081 122.97,16.2884 123.198,16.3275C 123.428,16.3662 123.732,16.3859 124.111,16.3859L 124.111,18.2413L 123.834,18.2413C 123.172,18.2413 122.619,18.1831 122.175,18.0659C 121.732,17.9487 121.38,17.752 121.116,17.4744C 120.853,17.1968 120.666,16.8311 120.554,16.3787C 120.442,15.9258 120.386,15.3578 120.386,14.676L 120.386,11.4621L 118.925,11.4621L 118.925,9.69398 Z "/>
			<path fill="#231F20" fill-opacity="1" stroke-width="0.2" stroke-linejoin="round" d="M 128.934,11.4181C 128.341,11.4181 127.826,11.5497 127.393,11.8117C 126.959,12.0744 126.655,12.4204 126.48,12.8495L 131.331,12.8495C 131.185,12.3808 130.902,12.0245 130.483,11.7818C 130.065,11.5394 129.547,11.4181 128.934,11.4181 Z M 129.008,18.2563C 128.336,18.2563 127.721,18.1454 127.166,17.9249C 126.612,17.7044 126.136,17.4019 125.741,17.0165C 125.348,16.632 125.041,16.179 124.821,15.6576C 124.602,15.1368 124.493,14.5805 124.493,13.9887C 124.493,13.3884 124.607,12.8249 124.837,12.2985C 125.065,11.773 125.379,11.3178 125.778,10.933C 126.178,10.5476 126.647,10.2429 127.188,10.0173C 127.729,9.79211 128.311,9.67907 128.934,9.67907C 129.568,9.67907 130.154,9.78214 130.695,9.9877C 131.236,10.193 131.701,10.4806 132.091,10.8504C 132.48,11.2203 132.784,11.6566 133.004,12.1589C 133.223,12.6612 133.332,13.2089 133.332,13.8026L 133.332,14.5013L 126.378,14.5013C 126.514,15.1052 126.81,15.5923 127.268,15.9618C 127.726,16.3322 128.306,16.5173 129.008,16.5173C 129.563,16.5173 130.044,16.3813 130.453,16.1081C 130.863,15.8352 131.169,15.4704 131.374,15.0127L 132.995,15.9477C 132.626,16.6392 132.107,17.1966 131.44,17.6207C 130.772,18.0441 129.962,18.2563 129.008,18.2563 Z "/>
			<path fill="#231F20" fill-opacity="1" stroke-width="0.2" stroke-linejoin="round" d="M 134.208,9.69398L 136.167,9.69398L 136.167,10.9651C 136.566,10.1179 137.296,9.69398 138.358,9.69398C 138.67,9.69398 138.95,9.72861 139.199,9.79622C 139.446,9.86463 139.668,9.95219 139.863,10.0591L 139.118,11.9294C 138.972,11.8325 138.809,11.7516 138.628,11.6887C 138.449,11.625 138.217,11.5934 137.935,11.5934C 137.359,11.5934 136.924,11.7563 136.627,12.0829C 136.33,12.4093 136.181,12.9426 136.181,13.6825L 136.181,18.2413L 134.208,18.2413L 134.208,9.69398 Z "/>
			<path fill="#231F20" fill-opacity="1" stroke-width="0.2" stroke-linejoin="round" d="M 140.505,9.69398L 142.464,9.69398L 142.464,10.8617C 142.746,10.5049 143.103,10.219 143.537,10.0032C 143.97,9.78735 144.465,9.67902 145.02,9.67902C 146.082,9.67902 146.913,9.99485 147.511,10.6262C 148.11,11.257 148.41,12.1361 148.41,13.2648L 148.41,18.2413L 146.409,18.2413L 146.409,13.4875C 146.409,12.8401 146.247,12.3289 145.926,11.9524C 145.605,11.5768 145.122,11.3889 144.48,11.3889C 143.914,11.3889 143.44,11.584 143.055,11.974C 142.67,12.3647 142.478,12.926 142.478,13.659L 142.478,18.2413L 140.505,18.2413L 140.505,9.69398 Z "/>
			<path fill="#231F20" fill-opacity="1" stroke-width="0.2" stroke-linejoin="round" d="M 153.713,11.4181C 153.12,11.4181 152.605,11.5497 152.172,11.8117C 151.738,12.0744 151.434,12.4204 151.259,12.8495L 156.11,12.8495C 155.964,12.3808 155.681,12.0245 155.263,11.7818C 154.844,11.5394 154.327,11.4181 153.713,11.4181 Z M 153.787,18.2563C 153.115,18.2563 152.5,18.1454 151.945,17.9249C 151.391,17.7044 150.915,17.4019 150.521,17.0165C 150.127,16.632 149.82,16.179 149.6,15.6576C 149.381,15.1368 149.272,14.5805 149.272,13.9887C 149.272,13.3884 149.386,12.8249 149.616,12.2985C 149.844,11.773 150.158,11.3178 150.557,10.933C 150.957,10.5476 151.427,10.2429 151.968,10.0173C 152.508,9.79211 153.09,9.67907 153.713,9.67907C 154.347,9.67907 154.933,9.78214 155.474,9.9877C 156.015,10.193 156.48,10.4806 156.87,10.8504C 157.259,11.2203 157.563,11.6566 157.783,12.1589C 158.002,12.6612 158.111,13.2089 158.111,13.8026L 158.111,14.5013L 151.156,14.5013C 151.294,15.1052 151.59,15.5923 152.047,15.9618C 152.505,16.3322 153.085,16.5173 153.787,16.5173C 154.342,16.5173 154.824,16.3813 155.233,16.1081C 155.642,15.8352 155.948,15.4704 156.153,15.0127L 157.775,15.9477C 157.405,16.6392 156.887,17.1966 156.22,17.6207C 155.551,18.0441 154.742,18.2563 153.787,18.2563 Z "/>
			<path fill="#231F20" fill-opacity="1" stroke-width="0.2" stroke-linejoin="round" d="M 158.314,9.69398L 159.776,9.69398L 159.776,8.39384L 161.763,7.03467L 161.763,9.69398L 163.501,9.69398L 163.501,11.4621L 161.763,11.4621L 161.763,14.6619C 161.763,15.0323 161.782,15.3318 161.821,15.5601C 161.86,15.7889 161.941,15.9643 162.062,16.0862C 162.184,16.2081 162.36,16.2884 162.588,16.3275C 162.818,16.3662 163.122,16.3859 163.501,16.3859L 163.501,18.2413L 163.224,18.2413C 162.562,18.2413 162.009,18.1831 161.565,18.0659C 161.122,17.9487 160.77,17.752 160.506,17.4744C 160.243,17.1968 160.055,16.8311 159.943,16.3787C 159.832,15.9258 159.776,15.3578 159.776,14.676L 159.776,11.4621L 158.314,11.4621L 158.314,9.69398 Z "/>
		</g>
		<g>
			<path fill="#231F20" fill-opacity="1" stroke-linejoin="round" d="M 82.8627,55.5236C 84.9749,55.5236 86.8525,55.1541 88.4955,54.4152C 90.1386,53.6762 91.5393,52.6358 92.6975,51.2941C 93.8558,49.9524 94.7363,48.3683 95.339,46.5418C 95.9417,44.7153 96.2431,42.7119 96.2431,40.5316C 96.2431,38.3513 95.9417,36.3388 95.339,34.4939C 94.7363,32.6491 93.8558,31.0637 92.6975,29.7377C 91.5393,28.4117 90.1386,27.3714 88.4955,26.6166C 86.8525,25.8619 84.9749,25.4846 82.8627,25.4846L 75.2606,25.4846L 75.2606,55.5236L 82.8627,55.5236 Z M 72.1474,58.2909L 72.1474,22.7173L 83.1615,22.7173C 85.6457,22.7173 87.8849,23.1536 89.8792,24.0263C 91.8734,24.8989 93.5754,26.124 94.9853,27.7015C 96.3951,29.2791 97.4852,31.158 98.2557,33.3383C 99.0261,35.5186 99.4113,37.9163 99.4113,40.5316C 99.4113,43.1469 99.0261,45.5447 98.2557,47.725C 97.4852,49.9052 96.3951,51.775 94.9853,53.3342C 93.5754,54.8934 91.8734,56.1093 89.8792,56.982C 87.8849,57.8546 85.6457,58.2909 83.1615,58.2909L 72.1474,58.2909 Z "/>
			<path fill="#231F20" fill-opacity="1" stroke-linejoin="round" d="M 125.48,56.4277C 124.238,57.1981 122.921,57.7851 121.53,58.1887C 120.138,58.5923 118.654,58.794 117.076,58.794C 115.132,58.794 113.396,58.4665 111.868,57.8113C 110.34,57.1562 109.056,56.2417 108.016,55.0677C 106.975,53.8937 106.179,52.4681 105.626,50.791C 105.073,49.1138 104.796,47.2533 104.796,45.2093C 104.796,43.3959 105.015,41.6847 105.453,40.0757C 105.891,38.4667 106.554,37.0581 107.442,35.8501C 108.33,34.642 109.453,33.6855 110.811,32.9806C 112.168,32.2757 113.769,31.9232 115.614,31.9232C 117.26,31.9232 118.729,32.2167 120.02,32.8037C 121.312,33.3907 122.402,34.1965 123.291,35.2211C 124.179,36.2458 124.85,37.4709 125.303,38.8964C 125.757,40.322 125.983,41.8733 125.983,43.5505C 125.983,44.0169 125.966,44.486 125.932,44.9577C 125.898,45.4294 125.847,45.8487 125.779,46.2155L 107.768,46.2155C 107.936,49.334 108.824,51.7737 110.433,53.5347C 112.042,55.2956 114.291,56.1761 117.178,56.1761C 118.452,56.1761 119.693,55.9914 120.901,55.6219C 122.109,55.2524 123.3,54.7322 124.474,54.0614L 125.48,56.4277 Z M 123.114,43.802C 123.077,40.9509 122.439,38.6946 121.2,37.0332C 119.96,35.3718 118.117,34.5411 115.669,34.5411C 114.359,34.5411 113.225,34.7848 112.269,35.2722C 111.312,35.7597 110.508,36.4226 109.855,37.2612C 109.203,38.0998 108.709,39.0812 108.374,40.2054C 108.038,41.3296 107.818,42.5285 107.713,43.802L 123.114,43.802 Z "/>
			<path fill="#231F20" fill-opacity="1" stroke-linejoin="round" d="M 141.927,58.2909L 138.758,58.2909L 129.002,32.4263L 132.17,32.4263L 140.323,54.9183L 148.672,32.4263L 151.644,32.4263L 141.927,58.2909 Z "/>
			<path fill="#231F20" fill-opacity="1" stroke-linejoin="round" d="M 175.291,56.4277C 174.049,57.1981 172.732,57.7851 171.341,58.1887C 169.949,58.5923 168.465,58.794 166.887,58.794C 164.943,58.794 163.207,58.4665 161.679,57.8113C 160.151,57.1562 158.867,56.2417 157.827,55.0677C 156.786,53.8937 155.99,52.4681 155.437,50.791C 154.884,49.1138 154.607,47.2533 154.607,45.2093C 154.607,43.3959 154.826,41.6847 155.264,40.0757C 155.701,38.4667 156.364,37.0581 157.253,35.8501C 158.141,34.642 159.264,33.6855 160.621,32.9806C 161.979,32.2757 163.58,31.9232 165.425,31.9232C 167.071,31.9232 168.539,32.2167 169.831,32.8037C 171.123,33.3907 172.213,34.1965 173.102,35.2211C 173.99,36.2458 174.661,37.4709 175.114,38.8964C 175.568,40.322 175.794,41.8733 175.794,43.5505C 175.794,44.0169 175.777,44.486 175.743,44.9577C 175.709,45.4294 175.658,45.8487 175.59,46.2155L 157.579,46.2155C 157.747,49.334 158.635,51.7737 160.244,53.5347C 161.853,55.2956 164.102,56.1761 166.989,56.1761C 168.263,56.1761 169.504,55.9914 170.712,55.6219C 171.92,55.2524 173.111,54.7322 174.285,54.0614L 175.291,56.4277 Z M 172.925,43.802C 172.888,40.9509 172.25,38.6946 171.011,37.0332C 169.771,35.3718 167.927,34.5411 165.48,34.5411C 164.17,34.5411 163.036,34.7848 162.08,35.2722C 161.123,35.7597 160.319,36.4226 159.666,37.2612C 159.014,38.0998 158.52,39.0812 158.184,40.2054C 157.849,41.3296 157.629,42.5285 157.524,43.802L 172.925,43.802 Z "/>
			<path fill="#231F20" fill-opacity="1" stroke-linejoin="round" d="M 185.7,58.2909L 182.783,58.2909L 182.783,20.6576L 185.7,20.406L 185.7,58.2909 Z "/>
			<path fill="#231F20" fill-opacity="1" stroke-linejoin="round" d="M 207.995,55.3743C 209.101,54.8344 210.022,54.0784 210.759,53.1062C 211.495,52.134 212.057,50.9941 212.445,49.6864C 212.833,48.3788 213.027,46.9362 213.027,45.3586C 213.027,43.8178 212.833,42.3843 212.445,41.0583C 212.057,39.7324 211.495,38.5833 210.759,37.611C 210.022,36.6388 209.1,35.8841 207.991,35.3469C 206.883,34.8097 205.608,34.5411 204.167,34.5411C 202.725,34.5411 201.452,34.8097 200.346,35.3469C 199.24,35.8841 198.318,36.6388 197.579,37.611C 196.84,38.5833 196.278,39.7324 195.892,41.0583C 195.507,42.3843 195.315,43.8178 195.315,45.3586C 195.315,46.9362 195.507,48.3788 195.892,49.6864C 196.278,50.9941 196.84,52.134 197.579,53.1062C 198.318,54.0784 199.24,54.8331 200.346,55.3703C 201.452,55.9075 202.725,56.1761 204.167,56.1761C 205.608,56.1761 206.884,55.9089 207.995,55.3743 Z M 212.869,55.0677C 211.863,56.2417 210.632,57.1562 209.175,57.8113C 207.718,58.4665 206.048,58.794 204.167,58.794C 202.29,58.794 200.622,58.4665 199.163,57.8113C 197.703,57.1562 196.47,56.2338 195.464,55.0441C 194.458,53.8544 193.686,52.438 193.149,50.7949C 192.612,49.1518 192.343,47.3397 192.343,45.3586C 192.343,43.3828 192.612,41.572 193.149,39.9263C 193.686,38.2806 194.458,36.8629 195.464,35.6732C 196.47,34.4835 197.703,33.561 199.163,32.9059C 200.622,32.2508 202.29,31.9232 204.167,31.9232C 206.048,31.9232 207.718,32.2508 209.175,32.9059C 210.632,33.561 211.863,34.4835 212.869,35.6732C 213.876,36.8629 214.647,38.2806 215.185,39.9263C 215.722,41.572 215.99,43.3828 215.99,45.3586C 215.99,47.3397 215.722,49.1518 215.185,50.7949C 214.647,52.438 213.876,53.8622 212.869,55.0677 Z "/>
			<path fill="#231F20" fill-opacity="1" stroke-linejoin="round" d="M 225.802,69.9653L 222.885,69.9653L 222.885,32.5285L 225.448,32.277L 225.755,35.6024C 227.06,34.528 228.459,33.6462 229.953,32.957C 231.446,32.2678 233.032,31.9232 234.709,31.9232C 236.355,31.9232 237.806,32.2757 239.064,32.9806C 240.322,33.6855 241.386,34.6341 242.256,35.8265C 243.126,37.0188 243.788,38.4025 244.241,39.9774C 244.694,41.5523 244.921,43.2124 244.921,44.9577C 244.921,46.834 244.669,48.6107 244.166,50.2878C 243.663,51.965 242.926,53.4325 241.953,54.6903C 240.981,55.9482 239.799,56.9466 238.408,57.6856C 237.016,58.4246 235.414,58.794 233.6,58.794C 232.06,58.794 230.626,58.5425 229.3,58.0393C 227.974,57.5362 226.808,56.8994 225.802,56.129L 225.802,69.9653 Z M 225.802,53.4089C 226.845,54.1793 228.011,54.8331 229.3,55.3703C 230.589,55.9075 231.923,56.1761 233.302,56.1761C 234.743,56.1761 236.009,55.8656 237.099,55.2445C 238.189,54.6235 239.094,53.7941 239.815,52.7564C 240.536,51.7186 241.073,50.5197 241.427,49.1597C 241.78,47.7996 241.957,46.3832 241.957,44.9105C 241.957,43.5007 241.79,42.1747 241.454,40.9326C 241.119,39.6904 240.623,38.5911 239.968,37.6346C 239.313,36.6781 238.507,35.9234 237.551,35.3705C 236.594,34.8176 235.479,34.5411 234.206,34.5411C 232.696,34.5411 231.212,34.8857 229.752,35.5749C 228.293,36.2641 226.976,37.0935 225.802,38.0631L 225.802,53.4089 Z "/>
			<path fill="#231F20" fill-opacity="1" stroke-linejoin="round" d="M 270.385,56.4277C 269.143,57.1981 267.826,57.7851 266.434,58.1887C 265.043,58.5923 263.558,58.794 261.981,58.794C 260.036,58.794 258.3,58.4665 256.772,57.8113C 255.245,57.1562 253.961,56.2417 252.92,55.0677C 251.88,53.8937 251.083,52.4681 250.53,50.791C 249.977,49.1138 249.701,47.2533 249.701,45.2093C 249.701,43.3959 249.92,41.6847 250.357,40.0757C 250.795,38.4667 251.458,37.0581 252.346,35.8501C 253.235,34.642 254.358,33.6855 255.715,32.9806C 257.072,32.2757 258.674,31.9232 260.518,31.9232C 262.164,31.9232 263.633,32.2167 264.925,32.8037C 266.217,33.3907 267.307,34.1965 268.195,35.2211C 269.084,36.2458 269.754,37.4709 270.208,38.8964C 270.661,40.322 270.888,41.8733 270.888,43.5505C 270.888,44.0169 270.871,44.486 270.837,44.9577C 270.803,45.4294 270.752,45.8487 270.683,46.2155L 252.673,46.2155C 252.84,49.334 253.729,51.7737 255.338,53.5347C 256.947,55.2956 259.195,56.1761 262.083,56.1761C 263.356,56.1761 264.597,55.9914 265.805,55.6219C 267.013,55.2524 268.204,54.7322 269.378,54.0614L 270.385,56.4277 Z M 268.018,43.802C 267.982,40.9509 267.344,38.6946 266.104,37.0332C 264.865,35.3718 263.021,34.5411 260.573,34.5411C 259.263,34.5411 258.13,34.7848 257.173,35.2722C 256.217,35.7597 255.412,36.4226 254.76,37.2612C 254.107,38.0998 253.613,39.0812 253.278,40.2054C 252.942,41.3296 252.722,42.5285 252.618,43.802L 268.018,43.802 Z "/>
			<path fill="#231F20" fill-opacity="1" stroke-linejoin="round" d="M 280.644,58.2909L 277.727,58.2909L 277.727,32.5285L 280.29,32.277L 280.644,36.1999C 281.818,34.8582 283.034,33.81 284.292,33.0553C 285.55,32.3006 286.849,31.9232 288.191,31.9232C 288.595,31.9232 289.09,31.9651 289.677,32.049C 290.264,32.1329 290.759,32.2429 291.163,32.3792L 290.455,35.1936C 289.585,34.9263 288.731,34.7927 287.892,34.7927C 286.551,34.7927 285.284,35.1451 284.091,35.8501C 282.899,36.555 281.75,37.5442 280.644,38.8178L 280.644,58.2909 Z "/>
			<path fill="#231F20" fill-opacity="1" stroke-linejoin="round" d="M 335.541,58.2909L 332.42,58.2909L 332.42,41.8366L 312.743,41.8366L 312.743,58.2909L 309.63,58.2909L 309.63,22.7173L 312.743,22.7173L 312.743,39.0694L 332.42,39.0694L 332.42,22.7173L 335.541,22.7173L 335.541,58.2909 Z "/>
			<path fill="#231F20" fill-opacity="1" stroke-linejoin="round" d="M 361.099,58.2909C 361,57.924 360.916,57.489 360.848,56.9859C 360.78,56.4827 360.711,55.9613 360.643,55.4214C 359.37,56.3596 357.97,57.1562 356.445,57.8113C 354.92,58.4665 353.369,58.794 351.791,58.794C 350.413,58.794 349.23,58.5346 348.242,58.0157C 347.254,57.4969 346.432,56.792 345.777,55.901C 345.122,55.01 344.636,53.9526 344.319,52.7288C 344.002,51.5051 343.843,50.1882 343.843,48.7784L 343.843,32.5285L 346.76,32.277L 346.76,48.5268C 346.76,49.5698 346.852,50.5525 347.035,51.4749C 347.218,52.3973 347.529,53.211 347.967,53.9159C 348.404,54.6209 348.983,55.1738 349.704,55.5747C 350.425,55.9757 351.322,56.1761 352.397,56.1761C 353.738,56.1761 355.122,55.8656 356.547,55.2445C 357.973,54.6235 359.304,53.8622 360.541,52.9608L 360.541,32.5285L 363.466,32.277L 363.466,52.151C 363.466,53.1259 363.491,54.1492 363.54,55.221C 363.59,56.2928 363.749,57.3161 364.016,58.2909L 361.099,58.2909 Z "/>
			<path fill="#231F20" fill-opacity="1" stroke-linejoin="round" d="M 374.432,58.2909L 371.964,58.2909L 371.964,20.6576L 374.881,20.406L 374.881,35.6024C 376.159,34.528 377.544,33.6462 379.035,32.957C 380.527,32.2678 382.111,31.9232 383.788,31.9232C 385.433,31.9232 386.885,32.2757 388.143,32.9806C 389.401,33.6855 390.466,34.6341 391.339,35.8265C 392.211,37.0188 392.873,38.4025 393.324,39.9774C 393.775,41.5523 394,43.2124 394,44.9577C 394,46.834 393.748,48.6107 393.245,50.2878C 392.742,51.965 392.004,53.4325 391.032,54.6903C 390.06,55.9482 388.87,56.9466 387.463,57.6856C 386.056,58.4246 384.446,58.794 382.632,58.794C 381.091,58.794 379.641,58.5254 378.281,57.9882C 376.921,57.451 375.756,56.7972 374.786,56.0268L 374.432,58.2909 Z M 374.881,53.4089C 375.924,54.1793 377.082,54.8331 378.355,55.3703C 379.629,55.9075 380.971,56.1761 382.381,56.1761C 383.822,56.1761 385.08,55.8656 386.154,55.2445C 387.229,54.6235 388.126,53.7941 388.847,52.7564C 389.567,51.7186 390.112,50.5197 390.482,49.1597C 390.851,47.7996 391.036,46.3832 391.036,44.9105C 391.036,43.5007 390.868,42.1747 390.533,40.9326C 390.198,39.6904 389.702,38.5911 389.047,37.6346C 388.392,36.6781 387.586,35.9234 386.63,35.3705C 385.673,34.8176 384.558,34.5411 383.285,34.5411C 381.775,34.5411 380.291,34.8857 378.831,35.5749C 377.371,36.2641 376.055,37.0935 374.881,38.0631L 374.881,53.4089 Z "/>
		</g>
	</g>
</svg>
