<?xml version="1.0" encoding="utf-8"?>
<!DOCTYPE svg PUBLIC "-//W3C//DTD SVG 1.1//EN" "http://www.w3.org/Graphics/SVG/1.1/DTD/svg11.dtd">
<svg xmlns="http://www.w3.org/2000/svg" xmlns:xlink="http://www.w3.org/1999/xlink" version="1.1" baseProfile="full" width="600" height="100" viewBox="0 0 600.00 100.00" enable-background="new 0 0 600.00 100.00" xml:space="preserve">
	<g>
		<path fill="#231F20" fill-opacity="1" stroke-width="0.2" stroke-linejoin="round" d="M 251.65,60.0742L 251.315,40.7122L 257.425,40.7122L 257.425,65.1305L 248.639,65.1305L 242.545,45.0931L 242.408,45.0931L 242.749,65.1305L 236.687,65.1305L 236.687,40.7122L 245.841,40.7122L 251.517,60.0742L 251.65,60.0742 Z "/>
		<path fill="#231F20" fill-opacity="1" stroke-width="0.2" stroke-linejoin="round" d="M 140.632,42.9884L 137.256,65.3832L 130.59,65.3832L 135.161,40.7122L 146.141,40.7122L 150.687,65.3832L 144.063,65.3832L 140.771,42.9884L 140.632,42.9884 Z "/>
		<path fill="#231F20" fill-opacity="1" stroke-width="0.2" stroke-linejoin="round" d="M 169.392,59.5756L 172.438,40.7116L 182.499,40.7116L 183.045,65.3827L 176.872,65.3827L 176.713,43.1977L 176.578,43.2035L 172.459,65.3827L 166.201,65.3827L 162.074,43.1977L 161.938,43.1977L 161.783,65.3827L 155.616,65.3827L 156.161,40.7116L 166.222,40.7116L 169.258,59.5756L 169.392,59.5756 Z "/>
		<path fill="#231F20" fill-opacity="1" stroke-width="0.2" stroke-linejoin="round" d="M 120.208,58.418C 120.447,59.0136 120.367,59.7821 120.255,60.2477C 120.054,61.0533 119.5,61.8928 117.852,61.8928C 116.312,61.8928 115.372,61.0104 115.372,59.6668L 115.366,57.271L 108.752,57.271L 108.752,59.1806C 108.752,64.6818 113.079,66.3357 117.714,66.3357C 122.182,66.3357 125.848,64.8207 126.439,60.7059C 126.741,58.5702 126.519,57.1735 126.412,56.6532C 125.367,51.4831 116.01,49.9534 115.308,47.0564C 115.19,46.551 115.216,46.05 115.282,45.7662C 115.46,44.9754 115.994,44.1108 117.535,44.1108C 118.985,44.1108 119.829,45.002 119.829,46.3441L 119.829,47.8649L 125.985,47.8649L 125.985,46.1415C 125.985,40.7645 121.161,39.9236 117.666,39.9236C 113.28,39.9236 109.702,41.3779 109.041,45.4041C 108.861,46.4918 108.837,47.4792 109.1,48.7252C 110.169,53.7666 118.937,55.2269 120.208,58.418 Z "/>
		<path fill="#231F20" fill-opacity="1" stroke-width="0.2" stroke-linejoin="round" d="M 200.422,58.3689C 200.652,58.96 200.581,59.7183 200.468,60.1824C 200.268,60.9953 199.715,61.8067 198.088,61.8067C 196.557,61.8067 195.631,60.9421 195.631,59.606L 195.627,57.2338L 189.073,57.2338L 189.071,59.1197C 189.071,64.5722 193.361,66.2024 197.953,66.2024C 202.371,66.2024 206.006,64.7095 206.584,60.6317C 206.884,58.5226 206.663,57.1377 206.558,56.6145C 205.525,51.502 196.258,49.9856 195.571,47.1182C 195.453,46.6231 195.485,46.1265 195.541,45.8501C 195.716,45.0623 196.243,44.2051 197.773,44.2051C 199.205,44.2051 200.043,45.0874 200.043,46.4073L 200.043,47.9193L 206.136,47.9193L 206.136,46.2151C 206.136,40.8943 201.356,40.0637 197.905,40.0637C 193.561,40.0637 190.012,41.4855 189.366,45.4805C 189.183,46.561 189.158,47.5394 189.421,48.7706C 190.481,53.7663 199.159,55.2133 200.422,58.3689 Z "/>
		<path fill="#231F20" fill-opacity="1" stroke-width="0.2" stroke-linejoin="round" d="M 221.126,61.6741C 222.842,61.6741 223.375,60.511 223.496,59.8961C 223.551,59.63 223.558,59.2709 223.557,58.9517L 223.557,40.707L 229.81,40.707L 229.81,58.3886C 229.816,58.8452 229.769,59.7749 229.742,60.0188C 229.314,64.6199 225.666,66.1067 221.126,66.1067C 216.593,66.1067 212.948,64.6199 212.524,60.0188C 212.5,59.7749 212.453,58.8452 212.464,58.3886L 212.464,40.707L 218.7,40.707L 218.7,58.9517C 218.694,59.2709 218.706,59.63 218.759,59.8961C 218.882,60.511 219.416,61.6741 221.126,61.6741 Z "/>
		<path fill="#231F20" fill-opacity="1" stroke-width="0.2" stroke-linejoin="round" d="M 272.602,61.4224C 274.383,61.4224 275.008,60.2975 275.124,59.6383C 275.171,59.359 275.189,59.0132 275.18,58.6998L 275.18,55.123L 272.654,55.123L 272.654,51.5152L 281.383,51.5152L 281.383,58.1337C 281.38,58.5963 281.376,58.9392 281.308,59.7625C 280.895,64.2527 276.995,65.8593 272.626,65.8593C 268.254,65.8593 264.355,64.2527 263.95,59.7625C 263.879,58.9392 263.867,58.5963 263.864,58.1337L 263.867,47.7536C 263.867,47.3102 263.919,46.5357 263.969,46.1396C 264.517,41.512 268.254,40.0414 272.629,40.0414C 277.001,40.0414 280.836,41.5002 281.293,46.1396C 281.364,46.9097 281.336,47.7536 281.34,47.7536L 281.34,48.5754L 275.124,48.5754L 275.124,47.1891C 275.124,47.1891 275.118,46.6052 275.042,46.2609C 274.931,45.7184 274.464,44.465 272.577,44.465C 270.786,44.465 270.256,45.6519 270.12,46.2609C 270.05,46.5742 270.02,47.0131 270.02,47.4167L 270.02,58.6998C 270.017,59.0132 270.032,59.359 270.076,59.6383C 270.194,60.2975 270.817,61.4224 272.602,61.4224 Z "/>
		<rect x="295.96" y="24.343" fill="#231F20" fill-opacity="1" stroke-width="0.2" stroke-linejoin="round" width="10.6003" height="56.9006"/>
		<path fill="#231F20" fill-opacity="1" stroke-width="0.2" stroke-linejoin="round" d="M 313.646,35.6444L 324.092,35.6444L 324.092,41.8742C 325.597,39.9706 327.505,38.4453 329.821,37.2938C 332.13,36.1425 334.77,35.5646 337.732,35.5646C 343.397,35.5646 347.831,37.2495 351.02,40.6179C 354.217,43.9833 355.817,48.6731 355.817,54.6945L 355.817,81.2441L 345.141,81.2441L 345.141,55.8829C 345.141,52.4288 344.278,49.7018 342.565,47.6931C 340.852,45.689 338.277,44.6869 334.852,44.6869C 331.833,44.6869 329.301,45.7275 327.245,47.8084C 325.197,49.8925 324.169,52.887 324.169,56.7978L 324.169,81.2441L 313.646,81.2441L 313.646,35.6444 Z "/>
		<path fill="#231F20" fill-opacity="1" stroke-width="0.2" stroke-linejoin="round" d="M 358.31,35.6444L 366.105,35.6444L 366.105,28.7081L 376.705,21.4569L 376.705,35.6444L 385.979,35.6444L 385.979,45.0771L 376.705,45.0771L 376.705,62.1482C 376.705,64.1243 376.807,65.722 377.015,66.9399C 377.225,68.1607 377.657,69.0963 378.303,69.7467C 378.952,70.397 379.89,70.8256 381.108,71.034C 382.332,71.2409 383.956,71.3458 385.979,71.3458L 385.979,81.2441L 384.501,81.2441C 380.967,81.2441 378.019,80.9337 375.651,80.3085C 373.286,79.6834 371.408,78.634 369.999,77.153C 368.598,75.672 367.596,73.7211 367,71.3074C 366.405,68.8909 366.105,65.8609 366.105,62.2235L 366.105,45.0771L 358.31,45.0771L 358.31,35.6444 Z "/>
		<path fill="#231F20" fill-opacity="1" stroke-width="0.2" stroke-linejoin="round" d="M 411.709,44.8424C 408.543,44.8424 405.797,45.5444 403.488,46.9426C 401.172,48.3438 399.547,50.1898 398.616,52.4793L 424.496,52.4793C 423.716,49.9785 422.207,48.0777 419.974,46.783C 417.74,45.4897 414.981,44.8424 411.709,44.8424 Z M 412.102,81.3242C 408.518,81.3242 405.238,80.733 402.274,79.5565C 399.318,78.38 396.782,76.7661 394.676,74.7102C 392.577,72.6587 390.939,70.2421 389.766,67.4604C 388.598,64.6818 388.016,61.7139 388.016,58.5569C 388.016,55.354 388.625,52.3478 389.849,49.5395C 391.067,46.7357 392.741,44.3074 394.873,42.2543C 397.004,40.1984 399.509,38.5726 402.396,37.3695C 405.282,36.1679 408.385,35.5648 411.709,35.5648C 415.089,35.5648 418.216,36.1147 421.101,37.2114C 423.989,38.3066 426.468,39.8407 428.551,41.8139C 430.624,43.7871 432.247,46.1149 433.421,48.7946C 434.588,51.4743 435.172,54.3963 435.172,57.5637L 435.172,61.2912L 398.069,61.2912C 398.8,64.5132 400.378,67.1117 402.82,69.0833C 405.263,71.0594 408.358,72.0468 412.102,72.0468C 415.064,72.0468 417.633,71.321 419.814,69.8637C 421.997,68.4078 423.633,66.4613 424.725,64.0196L 433.376,69.0079C 431.405,72.6971 428.638,75.6708 425.08,77.9337C 421.515,80.1921 417.195,81.3242 412.102,81.3242 Z "/>
		<path fill="#231F20" fill-opacity="1" stroke-width="0.2" stroke-linejoin="round" d="M 439.847,35.6444L 450.294,35.6444L 450.294,42.4256C 452.427,37.9057 456.321,35.6444 461.986,35.6444C 463.649,35.6444 465.145,35.8292 466.471,36.1898C 467.789,36.5548 468.976,37.0219 470.016,37.5924L 466.039,47.5705C 465.259,47.0532 464.39,46.6216 463.426,46.2861C 462.468,45.9461 461.231,45.7777 459.728,45.7777C 456.657,45.7777 454.336,46.6467 452.749,48.3893C 451.164,50.1304 450.371,52.9756 450.371,56.9234L 450.371,81.2441L 439.847,81.2441L 439.847,35.6444 Z "/>
		<path fill="#231F20" fill-opacity="1" stroke-width="0.2" stroke-linejoin="round" d="M 473.442,35.6444L 483.89,35.6444L 483.89,41.8742C 485.393,39.9706 487.303,38.4453 489.617,37.2938C 491.927,36.1425 494.566,35.5646 497.527,35.5646C 503.193,35.5646 507.627,37.2495 510.818,40.6179C 514.015,43.9833 515.612,48.6731 515.612,54.6945L 515.612,81.2441L 504.938,81.2441L 504.938,55.8829C 504.938,52.4288 504.075,49.7018 502.361,47.6931C 500.649,45.689 498.073,44.6869 494.648,44.6869C 491.629,44.6869 489.098,45.7275 487.042,47.8084C 484.992,49.8925 483.965,52.887 483.965,56.7978L 483.965,81.2441L 473.442,81.2441L 473.442,35.6444 Z "/>
		<path fill="#231F20" fill-opacity="1" stroke-width="0.2" stroke-linejoin="round" d="M 543.904,44.8424C 540.739,44.8424 537.992,45.5444 535.684,46.9426C 533.368,48.3438 531.743,50.1898 530.812,52.4793L 556.692,52.4793C 555.913,49.9785 554.404,48.0777 552.171,46.783C 549.938,45.4897 547.178,44.8424 543.904,44.8424 Z M 544.299,81.3242C 540.715,81.3242 537.434,80.733 534.472,79.5565C 531.516,78.38 528.978,76.7661 526.873,74.7102C 524.773,72.6587 523.135,70.2421 521.962,67.4604C 520.796,64.6818 520.212,61.7139 520.212,58.5569C 520.212,55.354 520.821,52.3478 522.046,49.5395C 523.263,46.7357 524.939,44.3074 527.068,42.2543C 529.201,40.1984 531.706,38.5726 534.593,37.3695C 537.478,36.1679 540.581,35.5648 543.904,35.5648C 547.286,35.5648 550.412,36.1147 553.299,37.2114C 556.187,38.3066 558.665,39.8407 560.747,41.8139C 562.822,43.7871 564.445,46.1149 565.618,48.7946C 566.784,51.4743 567.37,54.3963 567.37,57.5637L 567.37,61.2912L 530.265,61.2912C 530.997,64.5132 532.576,67.1117 535.017,69.0833C 537.46,71.0594 540.555,72.0468 544.299,72.0468C 547.261,72.0468 549.83,71.321 552.011,69.8637C 554.194,68.4078 555.829,66.4613 556.921,64.0196L 565.574,69.0079C 563.601,72.6971 560.835,75.6708 557.278,77.9337C 553.713,80.1921 549.392,81.3242 544.299,81.3242 Z "/>
		<path fill="#231F20" fill-opacity="1" stroke-width="0.2" stroke-linejoin="round" d="M 568.453,35.6444L 576.248,35.6444L 576.248,28.7081L 586.849,21.4569L 586.849,35.6444L 596.125,35.6444L 596.125,45.0771L 586.849,45.0771L 586.849,62.1482C 586.849,64.1243 586.952,65.722 587.161,66.9399C 587.37,68.1607 587.802,69.0963 588.448,69.7467C 589.095,70.397 590.034,70.8256 591.252,71.034C 592.477,71.2409 594.101,71.3458 596.125,71.3458L 596.125,81.2441L 594.647,81.2441C 591.113,81.2441 588.163,80.9337 585.796,80.3085C 583.43,79.6834 581.553,78.634 580.144,77.153C 578.743,75.672 577.74,73.7211 577.144,71.3074C 576.548,68.8909 576.248,65.8609 576.248,62.2235L 576.248,45.0771L 568.453,45.0771L 568.453,35.6444 Z "/>
	</g>
	<g>
		<path fill="#987FFF" fill-opacity="1" stroke-width="0.2" stroke-linejoin="round" d="M 34.8581,6.91687C 40.2936,6.65372 45.7292,6.39054 50.91,6.39054C 56.0909,6.39054 61.0172,6.65372 65.9434,6.91687C 81.4857,6.91687 94.8746,20.3058 94.8746,35.848C 95.1378,40.9266 95.4009,46.0053 95.4009,51.1862C 95.4009,56.367 95.1378,61.6501 94.8746,66.9332C 94.8746,82.4753 81.4857,95.8642 65.9434,95.8642C 61.083,96.1274 56.2226,96.3905 51.0417,96.3905C 45.8608,96.3905 40.3595,96.1274 34.8581,95.8642C 19.316,95.8642 5.92727,82.4753 5.92727,66.9332C 5.66409,61.3869 5.40082,55.8408 5.40082,50.6599C 5.40082,45.479 5.66409,40.6635 5.92727,35.8479C 5.92727,20.3058 19.316,6.91687 34.8581,6.91687 Z "/>
		<filter id="Filter_DropShadow1_" filterUnits="userSpaceOnUse">
			<feGaussianBlur in="SourceAlpha" stdDeviation="19" result="blur"/>
			<feOffset dx="-6.54581e-015" dy="35.6337" in="blur" result="offsetBlurredAlpha"/>
			<feMerge>
				<feMergeNode in="offsetBlurredAlpha"/>
				<feMergeNode in="SourceGraphic"/>
			</feMerge>
		</filter>
		<path fill="#B5A5FE" fill-opacity="1" stroke-width="0.2" stroke-linejoin="round" filter="url(#Filter_DropShadow1_)" d="M 50.6693,21.5215C 67.0426,21.6655 80.2711,34.9831 80.2711,51.3905C 80.2711,57.8598 78.2145,63.8488 74.7194,68.7393C 69.3019,76.3196 60.4285,81.2607 50.4009,81.2607C 46.846,81.2607 43.4361,80.6397 40.2739,79.5003C 39.3428,79.1648 38.4332,78.7843 37.5476,78.3616C 27.669,73.6454 20.7875,63.6618 20.5377,52.0452L 20.5307,51.3905C 20.5307,38.0508 29.275,26.7535 41.3444,22.9179C 44.2009,22.0101 47.2437,21.5203 50.4009,21.5203L 50.6693,21.5215 Z "/>
		<g>
			<path fill="#FFFFFF" fill-opacity="1" stroke-width="0.2" stroke-linejoin="round" d="M 50.722,22.8601L 50.5904,25.2285L 52.1694,25.8206L 53.8799,26.6759L 55.6562,26.8732L 57.3667,27.3338L 58.222,27.5969L 59.4062,28.3864L 59.4062,29.3732L 59.472,30.6232L 59.8667,31.7417L 61.5773,32.7285L 62.8273,33.518L 63.4852,33.518L 63.5509,34.3074L 63.6167,35.5574L 63.0904,36.3469L 62.4983,37.268L 62.3667,37.7943L 63.0904,38.7153L 64.0115,39.3732L 64.6694,39.5048L 65.6562,38.9127L 66.7088,37.5969L 67.6957,37.0048L 68.5509,37.2022L 69.8009,37.5969L 70.9851,38.4522L 71.5115,38.7647L 71.5115,39.5213L 71.347,40.8042L 70.7549,40.837L 69.9325,40.3436L 68.4523,40.212L 66.7088,40.7055L 66.1496,41.0673L 65.1628,41.6265L 63.847,41.9226L 62.597,41.9226L 61.0509,42.2515L 59.7023,42.9423L 59.0444,44.1923L 58.1562,45.6397L 57.6628,46.4291L 57.6463,48.1726L 57.5806,49.5541L 58.37,50.6068L 59.1595,51.462L 59.949,52.712L 60.4753,53.1726L 60.8207,53.4851L 61.1496,53.814L 61.8569,54.1594L 62.4819,54.1265L 63.0904,53.6002L 63.8799,53.041L 64.2417,52.5147L 64.7187,52.1035L 65.4753,52.1035L 65.9358,52.6298L 66.347,53.1726L 66.9802,53.625L 67.2763,54.0526L 67.6052,54.8092L 67.5724,55.6974L 67.5724,56.4868L 67.671,57.4079L 68,58L 68.5263,58.8553L 68.6579,60.171L 68.8881,61.6513L 68.9046,62.5559L 69.0033,64.0855L 69.0033,65.171L 69.7927,66.0592L 70.8289,66.7006L 71.8651,66.898L 72.7533,67.2928L 73.3454,68.1316C 73.3454,68.1316 74.2336,68.7236 74.4802,68.7237C 74.5231,68.7237 74.6078,68.7296 74.7197,68.7392C 78.2148,63.8487 80.2714,57.8597 80.2714,51.3904C 80.2714,34.983 67.0429,21.6654 50.6695,21.5214L 50.722,22.8601 Z "/>
			<path fill="#B5A5FE" fill-opacity="1" stroke-width="0.2" stroke-linejoin="round" d="M 23.2878,51.8074L 20.7878,52.0048L 20.538,52.0451C 20.7878,63.6617 27.6693,73.6453 37.5479,78.3615L 37.4983,76.6758L 37.6299,75.689L 38.0904,74.0443L 38.0904,72.2679L 38.222,70.2285L 38.1562,68.5837L 37.4325,67.5969L 37.0378,66.6101L 35.8536,65.689L 34.9325,64.768L 33.8141,63.4522L 33.7483,62.0048L 33.3536,60.3601L 33.2878,58.6495L 33.8799,57.6627L 34.2089,56.6101L 34.1431,54.9653L 33.222,54.6364L 32.6299,54.1759L 31.1168,53.4522L 29.2747,52.1364L 28.4852,51.7416L 25.7878,51.939L 23.2878,51.8074 Z "/>
			<path fill="#FFFFFF" fill-opacity="1" stroke-width="0.2" stroke-linejoin="round" d="M 40.1297,78.8795L 41.1823,77.7611L 42.7612,76.2479L 44.077,75.5243L 45.4586,74.0111L 47.0375,72.5637L 48.0244,70.9848L 48.9454,69.6032L 49.6033,69.0769L 49.8665,67.9585L 50.327,66.7085L 50.7875,65.3927L 51.577,64.2743L 52.827,63.4848L 52.827,60.9848L 51.7744,60.1953L 50.7875,59.998L 49.6033,59.4059L 48.4849,59.0769L 46.1165,58.6822L 44.9323,57.3664L 44.2086,56.7085L 43.0902,55.3269L 41.8402,53.8795L 40.7218,52.7611L 39.2744,51.9716L 37.3665,51.8401L 36.1823,52.6295L 35.327,52.9585L 33.9454,52.7611L 32.5477,51.6923L 30.9687,50.212L 30.2779,49.2745L 28.551,48.8798L 27.7615,48.4357L 27.4161,46.462L 27.8602,45.7713L 29.0937,44.6364L 29.8832,44.3403L 31.0181,44.9324L 32.0049,45.2778L 32.9424,44.8831L 33.1398,44.0936L 33.4852,42.9094L 34.2253,41.2811L 34.1266,39.8502L 34.0773,39.1594L 35.8043,37.5311L 37.1858,36.1002L 37.926,35.9522L 38.1727,36.5443L 39.0608,36.5443L 39.9983,35.7548L 40.5246,34.5706L 40.9852,33.4522L 40.722,32.3996L 40.722,28.0574L 41.7746,27.3338L 42.9589,26.939L 43.3536,26.5443L 43.8799,26.018L 43.8141,25.2943L 42.5641,23.8469L 41.3446,22.9178C 29.2753,26.7534 20.531,38.0507 20.531,51.3904C 20.531,51.6092 20.5333,51.8274 20.538,52.0451L 20.7878,52.0048L 23.2878,51.8074L 25.7878,51.939L 28.4852,51.7416L 29.2747,52.1364L 31.1168,53.4522L 32.6299,54.1759L 33.222,54.6364L 34.1431,54.9653L 34.2089,56.6101L 33.8799,57.6627L 33.2878,58.6495L 33.3536,60.3601L 33.7483,62.0048L 33.8141,63.4522L 34.9325,64.768L 35.8536,65.689L 37.0378,66.6101L 37.4325,67.5969L 38.1562,68.5837L 38.222,70.2285L 38.0904,72.2679L 38.0904,74.0443L 37.6299,75.689L 37.4983,76.6758L 37.5479,78.3615C 38.4334,78.7842 39.343,79.1647 40.2741,79.5002L 40.1297,78.8795 Z "/>
			<path fill="#B5A5FE" fill-opacity="1" stroke-width="0.2" stroke-linejoin="round" d="M 50.6695,21.5214C 50.5802,21.5206 50.4907,21.5202 50.4012,21.5202C 47.244,21.5202 44.2012,22.01 41.3446,22.9178L 42.5641,23.8469L 43.8141,25.2943L 43.8799,26.018L 43.3536,26.5443L 42.9589,26.939L 41.7746,27.3338L 40.722,28.0574L 40.722,32.3996L 40.9852,33.4522L 40.5246,34.5706L 39.9983,35.7548L 39.0608,36.5443L 38.1727,36.5443L 37.926,35.9522L 37.1858,36.1002L 35.8043,37.5311L 34.0773,39.1594L 34.1266,39.8502L 34.2253,41.2811L 33.4852,42.9094L 33.1398,44.0936L 32.9424,44.8831L 32.0049,45.2778L 31.0181,44.9324L 29.8832,44.3403L 29.0937,44.6364L 27.8602,45.7713L 27.4161,46.462L 27.7615,48.4357L 28.551,48.8798L 30.2779,49.2745L 30.9687,50.212L 32.5477,51.6923L 33.9454,52.7611L 35.327,52.9585L 36.1823,52.6295L 37.3665,51.8401L 39.2744,51.9716L 40.7218,52.7611L 41.8402,53.8795L 43.0902,55.3269L 44.2086,56.7085L 44.9323,57.3664L 46.1165,58.6822L 48.4849,59.0769L 49.6033,59.4059L 50.7875,59.998L 51.7744,60.1953L 52.827,60.9848L 52.827,63.4848L 51.577,64.2743L 50.7875,65.3927L 50.327,66.7085L 49.8665,67.9585L 49.6033,69.0769L 48.9454,69.6032L 48.0244,70.9848L 47.0375,72.5637L 45.4586,74.0111L 44.077,75.5243L 42.7612,76.2479L 41.1823,77.7611L 40.1297,78.8795L 40.2741,79.5002C 43.4364,80.6396 46.8462,81.2606 50.4012,81.2606C 60.4287,81.2606 69.3022,76.3195 74.7197,68.7392C 74.6078,68.7296 74.5231,68.7237 74.4802,68.7237C 74.2336,68.7236 73.3454,68.1316 73.3454,68.1316L 72.7533,67.2928L 71.8651,66.898L 70.8289,66.7006L 69.7927,66.0592L 69.0033,65.171L 69.0033,64.0855L 68.9046,62.5559L 68.8881,61.6513L 68.6579,60.171L 68.5263,58.8553L 68,58L 67.671,57.4079L 67.5724,56.4868L 67.5724,55.6974L 67.6052,54.8092L 67.2763,54.0526L 66.9802,53.625L 66.347,53.1726L 65.9358,52.6298L 65.4753,52.1035L 64.7187,52.1035L 64.2417,52.5147L 63.8799,53.041L 63.0904,53.6002L 62.4819,54.1265L 61.8569,54.1594L 61.1496,53.814L 60.8207,53.4851L 60.4753,53.1726L 59.949,52.712L 59.1595,51.462L 58.37,50.6068L 57.5806,49.5541L 57.6463,48.1726L 57.6628,46.4291L 58.1562,45.6397L 59.0444,44.1923L 59.7023,42.9423L 61.0509,42.2515L 62.597,41.9226L 63.847,41.9226L 65.1628,41.6265L 66.1496,41.0673L 66.7088,40.7055L 68.4523,40.212L 69.9325,40.3436L 70.7549,40.837L 71.347,40.8042L 71.5115,39.5213L 71.5115,38.7647L 70.9851,38.4522L 69.8009,37.5969L 68.5509,37.2022L 67.6957,37.0048L 66.7088,37.5969L 65.6562,38.9127L 64.6694,39.5048L 64.0115,39.3732L 63.0904,38.7153L 62.3667,37.7943L 62.4983,37.268L 63.0904,36.3469L 63.6167,35.5574L 63.5509,34.3074L 63.4852,33.518L 62.8273,33.518L 61.5773,32.7285L 59.8667,31.7417L 59.472,30.6232L 59.4062,29.3732L 59.4062,28.3864L 58.222,27.5969L 57.3667,27.3338L 55.6562,26.8732L 53.8799,26.6759L 52.1694,25.8206L 50.5904,25.2285L 50.722,22.8601L 50.6695,21.5214 Z "/>
		</g>
	</g>
</svg>
