<?xml version="1.0" encoding="utf-8"?>
<!DOCTYPE svg PUBLIC "-//W3C//DTD SVG 1.1//EN" "http://www.w3.org/Graphics/SVG/1.1/DTD/svg11.dtd">
<svg xmlns="http://www.w3.org/2000/svg" xmlns:xlink="http://www.w3.org/1999/xlink" version="1.1" baseProfile="full" width="564.524" height="193.191" viewBox="0 0 564.52 193.19" enable-background="new 0 0 564.52 193.19" xml:space="preserve">
	<g>
		<g>
			<g>
				<path fill="#FFFFFF" fill-opacity="1" stroke-width="0.2" stroke-linejoin="round" d="M 395.898,28.3785L 395.532,7.22638L 402.207,7.22638L 402.207,33.9021L 392.611,33.9021L 385.951,12.013L 385.802,12.013L 386.175,33.9021L 379.553,33.9021L 379.553,7.22638L 389.553,7.22638L 395.753,28.3785L 395.898,28.3785 Z "/>
				<path fill="#FFFFFF" fill-opacity="1" stroke-width="0.2" stroke-linejoin="round" d="M 274.623,9.71411L 270.934,34.1787L 263.652,34.1787L 268.645,7.22812L 280.642,7.22812L 285.608,34.1787L 278.369,34.1787L 274.773,9.71411L 274.623,9.71411 Z "/>
				<path fill="#FFFFFF" fill-opacity="1" stroke-width="0.2" stroke-linejoin="round" d="M 306.04,27.8343L 309.371,7.22711L 320.358,7.22711L 320.956,34.1777L 314.21,34.1777L 314.036,9.94168L 313.891,9.94836L 309.389,34.1777L 302.555,34.1777L 298.048,9.94168L 297.898,9.94168L 297.727,34.1777L 290.99,34.1777L 291.586,7.22711L 302.577,7.22711L 305.893,27.8343L 306.04,27.8343 Z "/>
				<path fill="#FFFFFF" fill-opacity="1" stroke-width="0.2" stroke-linejoin="round" d="M 252.308,26.5694C 252.573,27.2203 252.486,28.0601 252.362,28.5686C 252.141,29.448 251.535,30.3655 249.738,30.3655C 248.055,30.3655 247.027,29.4016 247.027,27.9342L 247.022,25.3173L 239.794,25.3173L 239.794,27.4025C 239.794,33.4115 244.526,35.2201 249.586,35.2201C 254.47,35.2201 258.473,33.5638 259.117,29.0688C 259.447,26.7367 259.204,25.2096 259.091,24.6399C 257.948,18.9937 247.722,17.3225 246.959,14.1574C 246.83,13.6059 246.859,13.0577 246.927,12.7496C 247.123,11.8833 247.707,10.9392 249.392,10.9392C 250.974,10.9392 251.896,11.9131 251.896,13.3789L 251.896,15.0419L 258.624,15.0419L 258.624,13.157C 258.624,7.28394 253.35,6.36633 249.534,6.36633C 244.743,6.36633 240.832,7.95465 240.112,12.3537C 239.918,13.5413 239.89,14.6195 240.18,15.9809C 241.346,21.488 250.92,23.0846 252.308,26.5694 Z "/>
				<path fill="#FFFFFF" fill-opacity="1" stroke-width="0.2" stroke-linejoin="round" d="M 339.937,26.5161C 340.188,27.162 340.112,27.9901 339.988,28.497C 339.771,29.3847 339.165,30.2725 337.386,30.2725C 335.713,30.2725 334.705,29.3267 334.705,27.8676L 334.701,25.2755L 327.543,25.2755L 327.538,27.336C 327.538,33.2919 332.225,35.074 337.242,35.074C 342.068,35.074 346.037,33.4426 346.669,28.9889C 346.997,26.6833 346.755,25.1712 346.643,24.5998C 345.513,19.0149 335.387,17.357 334.64,14.225C 334.507,13.6851 334.544,13.1418 334.605,12.8403C 334.797,11.9791 335.374,11.0433 337.043,11.0433C 338.608,11.0433 339.523,12.0073 339.523,13.4482L 339.523,15.0995L 346.182,15.0995L 346.182,13.2394C 346.182,7.42606 340.958,6.52008 337.189,6.52008C 332.442,6.52008 328.566,8.0719 327.859,12.4379C 327.662,13.6171 327.632,14.6854 327.919,16.0303C 329.078,21.4877 338.559,23.0694 339.937,26.5161 Z "/>
				<path fill="#FFFFFF" fill-opacity="1" stroke-width="0.2" stroke-linejoin="round" d="M 362.557,30.127C 364.428,30.127 365.01,28.855 365.144,28.1843C 365.202,27.8927 365.212,27.5019 365.208,27.1541L 365.208,7.22266L 372.042,7.22266L 372.042,26.5379C 372.047,27.0364 371.996,28.0518 371.968,28.3185C 371.497,33.3435 367.514,34.9682 362.557,34.9682C 357.603,34.9682 353.621,33.3435 353.156,28.3185C 353.134,28.0518 353.08,27.0364 353.091,26.5379L 353.091,7.22266L 359.905,7.22266L 359.905,27.1541C 359.9,27.5019 359.913,27.8927 359.97,28.1843C 360.105,28.855 360.687,30.127 362.557,30.127 Z "/>
				<path fill="#FFFFFF" fill-opacity="1" stroke-width="0.2" stroke-linejoin="round" d="M 418.785,29.8521C 420.733,29.8521 421.416,28.6231 421.541,27.9044C 421.593,27.598 421.613,27.2203 421.603,26.8775L 421.603,22.9704L 418.843,22.9704L 418.843,19.0285L 428.38,19.0285L 428.38,26.2597C 428.377,26.7649 428.37,27.1391 428.296,28.0385C 427.847,32.9427 423.584,34.6983 418.812,34.6983C 414.035,34.6983 409.777,32.9427 409.335,28.0385C 409.257,27.1391 409.244,26.7649 409.24,26.2597L 409.244,14.921C 409.244,14.4356 409.302,13.5893 409.358,13.157C 409.956,8.1004 414.035,6.49551 418.815,6.49551C 423.59,6.49551 427.782,8.08716 428.279,13.157C 428.357,13.9967 428.329,14.921 428.332,14.921L 428.332,15.8169L 421.541,15.8169L 421.541,14.3031C 421.541,14.3031 421.535,13.6638 421.454,13.2895C 421.331,12.6966 420.821,11.3268 418.759,11.3268C 416.804,11.3268 416.225,12.6237 416.076,13.2895C 415.998,13.6307 415.966,14.111 415.966,14.5516L 415.966,26.8775C 415.963,27.2203 415.98,27.598 416.028,27.9044C 416.157,28.6231 416.836,29.8521 418.785,29.8521 Z "/>
				<rect x="231.595" y="53.7959" fill="#FFFFFF" fill-opacity="1" stroke-width="0.2" stroke-linejoin="round" width="11.7578" height="63.1118"/>
				<path fill="#FFFFFF" fill-opacity="1" stroke-width="0.2" stroke-linejoin="round" d="M 251.212,66.3302L 262.799,66.3302L 262.799,73.2401C 264.467,71.1285 266.585,69.4358 269.154,68.1588C 271.715,66.8818 274.641,66.2425 277.927,66.2425C 284.211,66.2425 289.129,68.1107 292.666,71.8473C 296.214,75.5788 297.986,80.7828 297.986,87.4592L 297.986,116.907L 286.146,116.907L 286.146,88.7793C 286.146,84.9483 285.188,81.9223 283.289,79.6947C 281.389,77.4719 278.532,76.3606 274.732,76.3606C 271.383,76.3606 268.576,77.5133 266.295,79.8222C 264.023,82.1343 262.885,85.4535 262.885,89.7929L 262.885,116.907L 251.212,116.907L 251.212,66.3302 Z "/>
				<path fill="#FFFFFF" fill-opacity="1" stroke-width="0.2" stroke-linejoin="round" d="M 300.751,66.3302L 309.398,66.3302L 309.398,58.6369L 321.154,50.5958L 321.154,66.3302L 331.441,66.3302L 331.441,76.7929L 321.154,76.7929L 321.154,95.7273C 321.154,97.9185 321.269,99.6907 321.499,101.042C 321.732,102.397 322.211,103.434 322.928,104.156C 323.645,104.876 324.687,105.352 326.039,105.584C 327.397,105.812 329.197,105.928 331.441,105.928L 331.441,116.907L 329.802,116.907C 325.883,116.907 322.612,116.563 319.987,115.871C 317.363,115.177 315.28,114.012 313.718,112.369C 312.164,110.726 311.053,108.563 310.39,105.887C 309.73,103.205 309.398,99.8464 309.398,95.81L 309.398,76.7929L 300.751,76.7929L 300.751,66.3302 Z "/>
				<path fill="#FFFFFF" fill-opacity="1" stroke-width="0.2" stroke-linejoin="round" d="M 359.98,76.5324C 356.469,76.5324 353.421,77.3108 350.861,78.861C 348.292,80.4162 346.491,82.4634 345.456,85.0041L 374.163,85.0041C 373.298,82.2282 371.624,80.1215 369.147,78.6855C 366.67,77.2511 363.609,76.5324 359.98,76.5324 Z M 360.416,116.996C 356.439,116.996 352.803,116.342 349.517,115.037C 346.238,113.73 343.424,111.94 341.089,109.661C 338.758,107.385 336.945,104.704 335.643,101.618C 334.348,98.5374 333.7,95.2448 333.7,91.7451C 333.7,88.1908 334.376,84.855 335.732,81.743C 337.086,78.6325 338.942,75.9378 341.307,73.662C 343.669,71.383 346.45,69.5777 349.652,68.2444C 352.852,66.9111 356.292,66.2436 359.98,66.2436C 363.73,66.2436 367.198,66.8515 370.4,68.0688C 373.601,69.2829 376.352,70.9839 378.659,73.1734C 380.96,75.3614 382.762,77.9435 384.064,80.9148C 385.357,83.8878 386.005,87.1291 386.005,90.6436L 386.005,94.776L 344.852,94.776C 345.66,98.3503 347.412,101.232 350.122,103.42C 352.832,105.611 356.265,106.706 360.416,106.706C 363.702,106.706 366.55,105.899 368.972,104.285C 371.392,102.671 373.207,100.512 374.418,97.802L 384.014,103.336C 381.824,107.427 378.759,110.728 374.81,113.235C 370.857,115.739 366.065,116.996 360.416,116.996 Z "/>
				<path fill="#FFFFFF" fill-opacity="1" stroke-width="0.2" stroke-linejoin="round" d="M 391.19,66.3302L 402.779,66.3302L 402.779,73.853C 405.142,68.8395 409.462,66.3302 415.746,66.3302C 417.588,66.3302 419.249,66.5357 420.72,66.9365C 422.184,67.3405 423.499,67.8573 424.653,68.49L 420.241,79.5572C 419.376,78.9841 418.412,78.507 417.342,78.1327C 416.279,77.7568 414.908,77.5713 413.24,77.5713C 409.836,77.5713 407.259,78.5352 405.502,80.4665C 403.741,82.3976 402.863,85.5528 402.863,89.932L 402.863,116.907L 391.19,116.907L 391.19,66.3302 Z "/>
				<path fill="#FFFFFF" fill-opacity="1" stroke-width="0.2" stroke-linejoin="round" d="M 428.453,66.3302L 440.04,66.3302L 440.04,73.2401C 441.708,71.1285 443.825,69.4358 446.393,68.1588C 448.954,66.8818 451.882,66.2425 455.168,66.2425C 461.45,66.2425 466.37,68.1107 469.907,71.8473C 473.453,75.5788 475.226,80.7828 475.226,87.4592L 475.226,116.907L 463.385,116.907L 463.385,88.7793C 463.385,84.9483 462.429,81.9223 460.528,79.6947C 458.63,77.4719 455.773,76.3606 451.973,76.3606C 448.624,76.3606 445.815,77.5133 443.536,79.8222C 441.264,82.1343 440.124,85.4535 440.124,89.7929L 440.124,116.907L 428.453,116.907L 428.453,66.3302 Z "/>
				<path fill="#FFFFFF" fill-opacity="1" stroke-width="0.2" stroke-linejoin="round" d="M 506.606,76.5324C 503.096,76.5324 500.049,77.3108 497.488,78.861C 494.919,80.4162 493.117,82.4634 492.084,85.0041L 520.79,85.0041C 519.926,82.2282 518.251,80.1215 515.773,78.6855C 513.297,77.2511 510.236,76.5324 506.606,76.5324 Z M 507.043,116.996C 503.067,116.996 499.429,116.342 496.145,115.037C 492.866,113.73 490.052,111.94 487.716,109.661C 485.386,107.385 483.571,104.704 482.271,101.618C 480.974,98.5374 480.328,95.2448 480.328,91.7451C 480.328,88.1908 481.004,84.855 482.36,81.743C 483.711,78.6325 485.57,75.9378 487.933,73.662C 490.297,71.383 493.076,69.5777 496.279,68.2444C 499.479,66.9111 502.919,66.2436 506.606,66.2436C 510.357,66.2436 513.824,66.8515 517.027,68.0688C 520.229,69.2829 522.98,70.9839 525.287,73.1734C 527.587,75.3614 529.39,77.9435 530.69,80.9148C 531.985,83.8878 532.632,87.1291 532.632,90.6436L 532.632,94.776L 491.479,94.776C 492.287,98.3503 494.04,101.232 496.75,103.42C 499.459,105.611 502.893,106.706 507.043,106.706C 510.328,106.706 513.178,105.899 515.599,104.285C 518.019,102.671 519.833,100.512 521.044,97.802L 530.642,103.336C 528.452,107.427 525.385,110.728 521.438,113.235C 517.483,115.739 512.693,116.996 507.043,116.996 Z "/>
				<path fill="#FFFFFF" fill-opacity="1" stroke-width="0.2" stroke-linejoin="round" d="M 533.836,66.3302L 542.483,66.3302L 542.483,58.6369L 554.239,50.5958L 554.239,66.3302L 564.524,66.3302L 564.524,76.7929L 554.239,76.7929L 554.239,95.7273C 554.239,97.9185 554.352,99.6907 554.583,101.042C 554.815,102.397 555.294,103.434 556.013,104.156C 556.73,104.876 557.77,105.352 559.123,105.584C 560.48,105.812 562.282,105.928 564.524,105.928L 564.524,116.907L 562.886,116.907C 558.968,116.907 555.695,116.563 553.071,115.871C 550.446,115.177 548.363,114.012 546.802,112.369C 545.247,110.726 544.136,108.563 543.473,105.887C 542.812,103.205 542.483,99.8464 542.483,95.81L 542.483,76.7929L 533.836,76.7929L 533.836,66.3302 Z "/>
			</g>
			<g>
				<path fill="#FFFFFF" fill-opacity="1" stroke-width="0.2" stroke-linejoin="round" d="M 242.507,172.117C 244.658,172.117 246.57,171.741 248.243,170.988C 249.917,170.236 251.343,169.176 252.523,167.81C 253.702,166.443 254.599,164.83 255.213,162.97C 255.827,161.11 256.134,159.07 256.134,156.849C 256.134,154.629 255.827,152.579 255.213,150.701C 254.599,148.822 253.702,147.207 252.523,145.857C 251.343,144.507 249.917,143.447 248.243,142.678C 246.57,141.91 244.658,141.526 242.507,141.526L 234.765,141.526L 234.765,172.117L 242.507,172.117 Z M 231.595,174.935L 231.595,138.707L 242.811,138.707C 245.341,138.707 247.622,139.152 249.653,140.04C 251.683,140.929 253.417,142.177 254.853,143.783C 256.288,145.39 257.398,147.303 258.183,149.524C 258.968,151.744 259.36,154.186 259.36,156.849C 259.36,159.513 258.968,161.955 258.183,164.175C 257.398,166.395 256.288,168.299 254.853,169.887C 253.417,171.475 251.683,172.713 249.653,173.602C 247.622,174.491 245.341,174.935 242.811,174.935L 231.595,174.935 Z "/>
				<path fill="#FFFFFF" fill-opacity="1" stroke-width="0.2" stroke-linejoin="round" d="M 285.908,173.038C 284.643,173.822 283.302,174.42 281.885,174.831C 280.468,175.242 278.956,175.447 277.35,175.447C 275.369,175.447 273.602,175.114 272.046,174.447C 270.49,173.78 269.182,172.848 268.123,171.653C 267.063,170.457 266.252,169.005 265.689,167.297C 265.126,165.589 264.844,163.695 264.844,161.613C 264.844,159.766 265.067,158.024 265.513,156.385C 265.958,154.746 266.633,153.312 267.538,152.082C 268.443,150.851 269.586,149.877 270.969,149.159C 272.351,148.442 273.982,148.083 275.861,148.083C 277.536,148.083 279.032,148.382 280.348,148.979C 281.664,149.577 282.774,150.398 283.678,151.441C 284.583,152.485 285.266,153.732 285.728,155.184C 286.19,156.636 286.421,158.216 286.421,159.924C 286.421,160.399 286.403,160.876 286.369,161.357C 286.334,161.837 286.282,162.264 286.212,162.638L 267.87,162.638C 268.041,165.813 268.946,168.298 270.584,170.091C 272.223,171.885 274.513,172.781 277.454,172.781C 278.751,172.781 280.014,172.593 281.245,172.217C 282.475,171.841 283.688,171.311 284.883,170.628L 285.908,173.038 Z M 283.498,160.18C 283.461,157.276 282.811,154.979 281.549,153.287C 280.287,151.595 278.409,150.749 275.917,150.749C 274.582,150.749 273.428,150.997 272.454,151.493C 271.48,151.99 270.661,152.665 269.996,153.519C 269.332,154.373 268.829,155.372 268.487,156.517C 268.145,157.662 267.921,158.883 267.814,160.18L 283.498,160.18 Z "/>
				<path fill="#FFFFFF" fill-opacity="1" stroke-width="0.2" stroke-linejoin="round" d="M 302.657,174.935L 299.43,174.935L 289.495,148.595L 292.721,148.595L 301.024,171.5L 309.526,148.595L 312.553,148.595L 302.657,174.935 Z "/>
				<path fill="#FFFFFF" fill-opacity="1" stroke-width="0.2" stroke-linejoin="round" d="M 336.635,173.038C 335.37,173.822 334.029,174.42 332.612,174.831C 331.195,175.242 329.683,175.447 328.076,175.447C 326.096,175.447 324.328,175.114 322.772,174.447C 321.216,173.78 319.909,172.848 318.849,171.653C 317.79,170.457 316.979,169.005 316.416,167.297C 315.852,165.589 315.571,163.695 315.571,161.613C 315.571,159.766 315.794,158.024 316.239,156.385C 316.685,154.746 317.36,153.312 318.265,152.082C 319.17,150.851 320.313,149.877 321.696,149.159C 323.078,148.442 324.708,148.083 326.587,148.083C 328.263,148.083 329.759,148.382 331.075,148.979C 332.39,149.577 333.501,150.398 334.405,151.441C 335.31,152.485 335.993,153.732 336.455,155.184C 336.917,156.636 337.147,158.216 337.147,159.924C 337.147,160.399 337.13,160.876 337.095,161.357C 337.061,161.837 337.009,162.264 336.939,162.638L 318.597,162.638C 318.768,165.813 319.673,168.298 321.311,170.091C 322.95,171.885 325.24,172.781 328.18,172.781C 329.477,172.781 330.741,172.593 331.971,172.217C 333.202,171.841 334.415,171.311 335.61,170.628L 336.635,173.038 Z M 334.225,160.18C 334.188,157.276 333.538,154.979 332.276,153.287C 331.013,151.595 329.136,150.749 326.643,150.749C 325.309,150.749 324.155,150.997 323.181,151.493C 322.207,151.99 321.387,152.665 320.723,153.519C 320.058,154.373 319.555,155.372 319.214,156.517C 318.872,157.662 318.648,158.883 318.541,160.18L 334.225,160.18 Z "/>
				<path fill="#FFFFFF" fill-opacity="1" stroke-width="0.2" stroke-linejoin="round" d="M 347.235,174.935L 344.265,174.935L 344.265,136.61L 347.235,136.354L 347.235,174.935 Z "/>
				<path fill="#FFFFFF" fill-opacity="1" stroke-width="0.2" stroke-linejoin="round" d="M 369.94,171.965C 371.067,171.415 372.005,170.645 372.755,169.655C 373.504,168.665 374.077,167.504 374.472,166.172C 374.867,164.841 375.064,163.372 375.064,161.765C 375.064,160.196 374.867,158.736 374.472,157.386C 374.077,156.035 373.504,154.865 372.755,153.875C 372.005,152.885 371.065,152.116 369.936,151.569C 368.808,151.022 367.509,150.749 366.041,150.749C 364.574,150.749 363.277,151.022 362.15,151.569C 361.024,152.116 360.085,152.885 359.332,153.875C 358.58,154.865 358.007,156.035 357.615,157.386C 357.223,158.736 357.027,160.196 357.027,161.765C 357.027,163.372 357.223,164.841 357.615,166.172C 358.007,167.504 358.58,168.665 359.332,169.655C 360.085,170.645 361.024,171.414 362.15,171.961C 363.277,172.508 364.574,172.781 366.041,172.781C 367.509,172.781 368.809,172.509 369.94,171.965 Z M 374.904,171.653C 373.879,172.848 372.625,173.78 371.141,174.447C 369.658,175.114 367.958,175.447 366.041,175.447C 364.131,175.447 362.432,175.114 360.946,174.447C 359.459,173.78 358.203,172.84 357.179,171.629C 356.154,170.417 355.368,168.975 354.821,167.301C 354.274,165.628 354,163.783 354,161.765C 354,159.753 354.274,157.909 354.821,156.233C 355.368,154.557 356.154,153.113 357.179,151.902C 358.203,150.69 359.459,149.751 360.946,149.083C 362.432,148.416 364.131,148.083 366.041,148.083C 367.958,148.083 369.658,148.416 371.141,149.083C 372.625,149.751 373.879,150.69 374.904,151.902C 375.929,153.113 376.715,154.557 377.262,156.233C 377.809,157.909 378.083,159.753 378.083,161.765C 378.083,163.783 377.809,165.628 377.262,167.301C 376.715,168.975 375.929,170.425 374.904,171.653 Z "/>
				<path fill="#FFFFFF" fill-opacity="1" stroke-width="0.2" stroke-linejoin="round" d="M 388.074,186.824L 385.104,186.824L 385.104,148.699L 387.714,148.443L 388.026,151.829C 389.355,150.735 390.78,149.837 392.301,149.135C 393.823,148.434 395.437,148.083 397.145,148.083C 398.821,148.083 400.3,148.442 401.581,149.159C 402.862,149.877 403.945,150.843 404.831,152.058C 405.717,153.272 406.391,154.681 406.853,156.285C 407.314,157.889 407.545,159.579 407.545,161.357C 407.545,163.268 407.289,165.077 406.777,166.785C 406.264,168.493 405.513,169.987 404.523,171.268C 403.533,172.549 402.329,173.566 400.912,174.319C 399.495,175.071 397.863,175.447 396.016,175.447C 394.447,175.447 392.987,175.191 391.637,174.679C 390.287,174.167 389.099,173.518 388.074,172.733L 388.074,186.824 Z M 388.074,169.963C 389.136,170.748 390.324,171.414 391.637,171.961C 392.95,172.508 394.308,172.781 395.712,172.781C 397.18,172.781 398.469,172.465 399.579,171.833C 400.689,171.2 401.611,170.356 402.345,169.299C 403.079,168.242 403.626,167.021 403.986,165.636C 404.347,164.251 404.527,162.809 404.527,161.309C 404.527,159.873 404.356,158.523 404.014,157.258C 403.673,155.993 403.168,154.873 402.501,153.899C 401.834,152.925 401.013,152.156 400.039,151.593C 399.065,151.03 397.93,150.749 396.633,150.749C 395.096,150.749 393.584,151.1 392.097,151.801C 390.611,152.503 389.27,153.348 388.074,154.335L 388.074,169.963 Z "/>
				<path fill="#FFFFFF" fill-opacity="1" stroke-width="0.2" stroke-linejoin="round" d="M 433.477,173.038C 432.212,173.822 430.871,174.42 429.454,174.831C 428.037,175.242 426.525,175.447 424.918,175.447C 422.938,175.447 421.17,175.114 419.614,174.447C 418.058,173.78 416.751,172.848 415.691,171.653C 414.632,170.457 413.821,169.005 413.258,167.297C 412.694,165.589 412.413,163.695 412.413,161.613C 412.413,159.766 412.636,158.024 413.081,156.385C 413.527,154.746 414.202,153.312 415.107,152.082C 416.012,150.851 417.155,149.877 418.538,149.159C 419.92,148.442 421.55,148.083 423.429,148.083C 425.105,148.083 426.601,148.382 427.917,148.979C 429.232,149.577 430.343,150.398 431.247,151.441C 432.152,152.485 432.835,153.732 433.297,155.184C 433.758,156.636 433.989,158.216 433.989,159.924C 433.989,160.399 433.972,160.876 433.937,161.357C 433.903,161.837 433.851,162.264 433.781,162.638L 415.439,162.638C 415.61,165.813 416.515,168.298 418.153,170.091C 419.792,171.885 422.082,172.781 425.022,172.781C 426.319,172.781 427.583,172.593 428.813,172.217C 430.044,171.841 431.257,171.311 432.452,170.628L 433.477,173.038 Z M 431.067,160.18C 431.03,157.276 430.38,154.979 429.118,153.287C 427.855,151.595 425.978,150.749 423.485,150.749C 422.151,150.749 420.997,150.997 420.023,151.493C 419.049,151.99 418.229,152.665 417.565,153.519C 416.9,154.373 416.397,155.372 416.056,156.517C 415.714,157.662 415.49,158.883 415.383,160.18L 431.067,160.18 Z "/>
				<path fill="#FFFFFF" fill-opacity="1" stroke-width="0.2" stroke-linejoin="round" d="M 443.925,174.935L 440.955,174.935L 440.955,148.699L 443.565,148.443L 443.925,152.438C 445.121,151.072 446.359,150.004 447.64,149.236C 448.921,148.467 450.244,148.083 451.611,148.083C 452.022,148.083 452.526,148.125 453.124,148.211C 453.722,148.296 454.226,148.408 454.637,148.547L 453.917,151.413C 453.031,151.141 452.161,151.005 451.307,151.005C 449.94,151.005 448.65,151.364 447.436,152.082C 446.221,152.8 445.051,153.807 443.925,155.104L 443.925,174.935 Z "/>
				<path fill="#FFFFFF" fill-opacity="1" stroke-width="0.2" stroke-linejoin="round" d="M 499.832,174.935L 496.653,174.935L 496.653,158.178L 476.614,158.178L 476.614,174.935L 473.443,174.935L 473.443,138.707L 476.614,138.707L 476.614,155.36L 496.653,155.36L 496.653,138.707L 499.832,138.707L 499.832,174.935 Z "/>
				<path fill="#FFFFFF" fill-opacity="1" stroke-width="0.2" stroke-linejoin="round" d="M 525.859,174.935C 525.758,174.561 525.673,174.118 525.603,173.606C 525.534,173.094 525.464,172.563 525.395,172.013C 524.098,172.968 522.673,173.78 521.12,174.447C 519.567,175.114 517.987,175.447 516.38,175.447C 514.976,175.447 513.772,175.183 512.766,174.655C 511.759,174.126 510.923,173.409 510.255,172.501C 509.588,171.594 509.093,170.517 508.77,169.271C 508.447,168.025 508.286,166.683 508.286,165.248L 508.286,148.699L 511.256,148.443L 511.256,164.992C 511.256,166.054 511.35,167.054 511.536,167.994C 511.723,168.933 512.04,169.762 512.485,170.48C 512.931,171.198 513.521,171.761 514.255,172.169C 514.988,172.577 515.902,172.781 516.997,172.781C 518.363,172.781 519.772,172.465 521.224,171.833C 522.676,171.2 524.031,170.425 525.291,169.507L 525.291,148.699L 528.269,148.443L 528.269,168.682C 528.269,169.675 528.295,170.717 528.345,171.809C 528.396,172.9 528.557,173.942 528.83,174.935L 525.859,174.935 Z "/>
				<path fill="#FFFFFF" fill-opacity="1" stroke-width="0.2" stroke-linejoin="round" d="M 539.438,174.935L 536.924,174.935L 536.924,136.61L 539.894,136.354L 539.894,151.829C 541.197,150.735 542.607,149.837 544.125,149.135C 545.644,148.434 547.257,148.083 548.965,148.083C 550.641,148.083 552.12,148.442 553.401,149.159C 554.682,149.877 555.766,150.843 556.655,152.058C 557.544,153.272 558.218,154.681 558.677,156.285C 559.136,157.889 559.365,159.579 559.365,161.357C 559.365,163.268 559.109,165.077 558.597,166.785C 558.084,168.493 557.333,169.987 556.343,171.268C 555.353,172.549 554.141,173.566 552.708,174.319C 551.275,175.071 549.635,175.447 547.788,175.447C 546.219,175.447 544.742,175.174 543.357,174.627C 541.972,174.08 540.786,173.414 539.798,172.629L 539.438,174.935 Z M 539.894,169.963C 540.956,170.748 542.136,171.414 543.433,171.961C 544.73,172.508 546.096,172.781 547.532,172.781C 549,172.781 550.281,172.465 551.375,171.833C 552.469,171.2 553.383,170.356 554.117,169.299C 554.851,168.242 555.406,167.021 555.782,165.636C 556.159,164.251 556.347,162.809 556.347,161.309C 556.347,159.873 556.176,158.523 555.834,157.258C 555.493,155.993 554.988,154.873 554.321,153.899C 553.654,152.925 552.833,152.156 551.859,151.593C 550.885,151.03 549.75,150.749 548.453,150.749C 546.916,150.749 545.404,151.1 543.917,151.801C 542.431,152.503 541.09,153.348 539.894,154.335L 539.894,169.963 Z "/>
			</g>
		</g>
		<g>
			<path fill="#706CF5" fill-opacity="1" stroke-width="0.2" stroke-linejoin="round" d="M 112.194,3.05176e-005C 160.022,3.05176e-005 192.521,32.4989 192.521,80.3274L 192.521,112.863L 192.459,116.459C 190.869,162.313 158.814,193.191 112.194,193.191L 80.3275,193.191C 32.499,193.191 0,161.737 0,113.909L 0,79.2818C 0,32.8816 30.5871,1.89291 76.0844,0.0836792L 80.3275,-6.10352e-005L 112.194,3.05176e-005 Z "/>
			<path fill="#FFFFFF" fill-opacity="1" stroke-width="0.2" stroke-linejoin="round" d="M 124.162,138.859C 116.16,144.153 106.568,147.236 96.2548,147.236C 76.402,147.236 59.2175,135.811 50.9166,119.178C 46.7241,116.969 42.882,114.662 39.4494,112.302C 46.3237,137.219 69.1523,155.517 96.2549,155.517C 112.348,155.517 126.935,149.065 137.569,138.607C 133.417,138.954 128.922,139.04 124.162,138.859 Z "/>
			<path fill="#FFFFFF" fill-opacity="1" stroke-width="0.2" stroke-linejoin="round" d="M 46.707,107.106C 43.3,105.02 40.2076,102.874 37.4736,100.702C 27.3322,92.6442 22.1207,84.2207 24.0672,77.0694C 26.0082,69.9384 34.7262,65.3243 47.4933,63.5077C 58.0944,47.9151 75.9786,37.6734 96.2548,37.6734C 127.502,37.6734 153.069,61.9968 155.053,92.7428C 165.191,100.799 170.4,109.221 168.454,116.37C 166.502,123.539 157.703,128.164 144.827,129.96C 141.364,130.444 137.605,130.722 133.606,130.791C 120.57,131.014 104.972,129.005 88.6797,124.57C 72.3433,120.124 57.8441,113.929 46.707,107.106 Z M 140.143,121.876C 144.389,114.522 146.839,106 146.894,96.9106L 146.895,96.5956C 146.895,68.6277 124.223,45.9554 96.2548,45.9554C 77.6602,45.9554 61.4064,55.9773 52.6002,70.9143C 48.1674,78.4332 45.6218,87.1975 45.6146,96.5558C 56.1638,103.616 72.1064,110.577 90.5479,115.597C 109.583,120.778 127.372,122.827 140.143,121.876 Z M 150.262,120.191C 155.341,118.7 158.616,116.342 159.487,113.14C 160.375,109.881 158.673,106.116 154.915,102.182L 154.837,102.963C 154.185,109.029 152.613,114.819 150.262,120.191 Z M 42.7062,71.9775L 43.133,71.0714C 37.1418,72.5457 33.3171,75.0367 32.3641,78.5379C 31.4212,82.0023 33.4031,86.0392 37.6713,90.2415C 38.3636,83.784 40.0993,77.6387 42.7062,71.9775 Z "/>
		</g>
	</g>
</svg>
