<?xml version="1.0" encoding="utf-8"?>
<!DOCTYPE svg PUBLIC "-//W3C//DTD SVG 1.1//EN" "http://www.w3.org/Graphics/SVG/1.1/DTD/svg11.dtd">
<svg xmlns="http://www.w3.org/2000/svg" xmlns:xlink="http://www.w3.org/1999/xlink" version="1.1" baseProfile="full" width="528.838" height="180.978" viewBox="0 0 528.84 180.98" enable-background="new 0 0 528.84 180.98" xml:space="preserve">
	<g>
		<g>
			<path fill="#FFFFFF" fill-opacity="1" stroke-width="0.2" stroke-linejoin="round" d="M 370.872,26.5846L 370.529,6.76962L 376.781,6.76962L 376.781,31.7591L 367.792,31.7591L 361.553,11.2536L 361.413,11.2536L 361.762,31.7591L 355.559,31.7591L 355.559,6.76962L 364.927,6.76962L 370.735,26.5846L 370.872,26.5846 Z "/>
			<path fill="#FFFFFF" fill-opacity="1" stroke-width="0.2" stroke-linejoin="round" d="M 257.262,9.10006L 253.807,32.0182L 246.985,32.0182L 251.663,6.7712L 262.901,6.7712L 267.553,32.0182L 260.772,32.0182L 257.404,9.10006L 257.262,9.10006 Z "/>
			<path fill="#FFFFFF" fill-opacity="1" stroke-width="0.2" stroke-linejoin="round" d="M 286.693,26.0748L 289.814,6.77029L 300.107,6.77029L 300.667,32.0172L 294.347,32.0172L 294.184,9.31326L 294.048,9.31948L 289.831,32.0172L 283.429,32.0172L 279.207,9.31326L 279.066,9.31326L 278.906,32.0172L 272.594,32.0172L 273.153,6.77029L 283.449,6.77029L 286.555,26.0748L 286.693,26.0748 Z "/>
			<path fill="#FFFFFF" fill-opacity="1" stroke-width="0.2" stroke-linejoin="round" d="M 236.359,24.8899C 236.607,25.4996 236.525,26.2863 236.408,26.7626C 236.202,27.5865 235.634,28.446 233.951,28.446C 232.374,28.446 231.411,27.5431 231.411,26.1684L 231.406,23.7169L 224.635,23.7169L 224.635,25.6702C 224.635,31.2994 229.068,32.9936 233.808,32.9936C 238.383,32.9936 242.134,31.4421 242.737,27.2312C 243.046,25.0466 242.818,23.6161 242.712,23.0823C 241.642,17.7931 232.062,16.2274 231.347,13.2625C 231.226,12.7458 231.254,12.2323 231.318,11.9436C 231.501,11.1322 232.048,10.2478 233.626,10.2478C 235.108,10.2478 235.972,11.1601 235.972,12.5332L 235.972,14.091L 242.275,14.091L 242.275,12.3253C 242.275,6.82351 237.335,5.96395 233.76,5.96395C 229.271,5.96395 225.608,7.45187 224.933,11.5728C 224.751,12.6853 224.725,13.6954 224.997,14.9707C 226.089,20.1297 235.058,21.6253 236.359,24.8899 Z "/>
			<path fill="#FFFFFF" fill-opacity="1" stroke-width="0.2" stroke-linejoin="round" d="M 318.447,24.8399C 318.683,25.445 318.612,26.2207 318.495,26.6955C 318.292,27.5272 317.724,28.3588 316.058,28.3588C 314.491,28.3588 313.546,27.4729 313.546,26.1059L 313.543,23.6778L 306.837,23.6778L 306.832,25.6079C 306.832,31.1873 311.223,32.8568 315.923,32.8568C 320.444,32.8568 324.162,31.3286 324.754,27.1563C 325.062,24.9965 324.835,23.58 324.729,23.0447C 323.671,17.813 314.185,16.2597 313.485,13.3258C 313.361,12.82 313.395,12.3111 313.453,12.0286C 313.633,11.2218 314.173,10.3452 315.737,10.3452C 317.203,10.3452 318.059,11.2483 318.059,12.5981L 318.059,14.145L 324.298,14.145L 324.298,12.4025C 324.298,6.95663 319.405,6.10793 315.873,6.10793C 311.427,6.10793 307.796,7.56167 307.133,11.6517C 306.949,12.7563 306.921,13.7572 307.189,15.017C 308.275,20.1294 317.156,21.6112 318.447,24.8399 Z "/>
			<path fill="#FFFFFF" fill-opacity="1" stroke-width="0.2" stroke-linejoin="round" d="M 339.637,28.2226C 341.391,28.2226 341.935,27.031 342.061,26.4027C 342.115,26.1295 342.125,25.7633 342.121,25.4376L 342.121,6.76608L 348.523,6.76608L 348.523,24.8604C 348.528,25.3274 348.48,26.2785 348.453,26.5283C 348.013,31.2357 344.281,32.7578 339.637,32.7578C 334.997,32.7578 331.267,31.2357 330.831,26.5283C 330.811,26.2785 330.759,25.3274 330.77,24.8604L 330.77,6.76608L 337.153,6.76608L 337.153,25.4376C 337.149,25.7633 337.161,26.1295 337.214,26.4027C 337.341,27.031 337.886,28.2226 339.637,28.2226 Z "/>
			<path fill="#FFFFFF" fill-opacity="1" stroke-width="0.2" stroke-linejoin="round" d="M 392.312,27.965C 394.136,27.965 394.775,26.8137 394.893,26.1405C 394.941,25.8534 394.96,25.4996 394.951,25.1784L 394.951,21.5183L 392.366,21.5183L 392.366,17.8256L 401.3,17.8256L 401.3,24.5997C 401.297,25.073 401.29,25.4235 401.221,26.2661C 400.8,30.8603 396.806,32.5049 392.336,32.5049C 387.862,32.5049 383.873,30.8603 383.458,26.2661C 383.385,25.4235 383.373,25.073 383.37,24.5997L 383.373,13.9777C 383.373,13.5232 383.427,12.7303 383.48,12.3253C 384.04,7.5884 387.862,6.08492 392.34,6.08492C 396.813,6.08492 400.74,7.57601 401.205,12.3253C 401.278,13.1119 401.252,13.9777 401.255,13.9777L 401.255,14.8171L 394.893,14.8171L 394.893,13.399C 394.893,13.399 394.887,12.8001 394.811,12.4494C 394.696,11.894 394.218,10.6108 392.287,10.6108C 390.456,10.6108 389.913,11.8257 389.773,12.4494C 389.7,12.769 389.671,13.2191 389.671,13.6317L 389.671,25.1784C 389.668,25.4996 389.683,25.8534 389.728,26.1405C 389.849,26.8137 390.485,27.965 392.312,27.965 Z "/>
			<rect x="216.954" y="50.3952" fill="#FFFFFF" fill-opacity="1" stroke-width="0.2" stroke-linejoin="round" width="11.0145" height="59.1221"/>
			<path fill="#FFFFFF" fill-opacity="1" stroke-width="0.2" stroke-linejoin="round" d="M 235.331,62.1372L 246.186,62.1372L 246.186,68.6103C 247.748,66.6321 249.733,65.0463 252.139,63.8501C 254.538,62.6539 257.28,62.055 260.358,62.055C 266.245,62.055 270.851,63.8051 274.165,67.3054C 277.489,70.801 279.149,75.6761 279.149,81.9304L 279.149,109.517L 268.057,109.517L 268.057,83.1671C 268.057,79.5783 267.16,76.7436 265.38,74.6568C 263.601,72.5745 260.924,71.5335 257.365,71.5335C 254.228,71.5335 251.598,72.6134 249.461,74.7762C 247.333,76.9422 246.267,80.0515 246.267,84.1166L 246.267,109.517L 235.331,109.517L 235.331,62.1372 Z "/>
			<path fill="#FFFFFF" fill-opacity="1" stroke-width="0.2" stroke-linejoin="round" d="M 281.739,62.1372L 289.839,62.1372L 289.839,54.9301L 300.852,47.3974L 300.852,62.1372L 310.489,62.1372L 310.489,71.9384L 300.852,71.9384L 300.852,89.6759C 300.852,91.7285 300.959,93.3888 301.175,94.6547C 301.394,95.9239 301.842,96.8952 302.514,97.5717C 303.186,98.2467 304.162,98.6919 305.428,98.9091C 306.7,99.1233 308.387,99.2319 310.489,99.2319L 310.489,109.517L 308.953,109.517C 305.282,109.517 302.218,109.194 299.759,108.546C 297.301,107.896 295.349,106.805 293.886,105.266C 292.431,103.727 291.389,101.7 290.769,99.1931C 290.15,96.6811 289.839,93.5346 289.839,89.7534L 289.839,71.9384L 281.739,71.9384L 281.739,62.1372 Z "/>
			<path fill="#FFFFFF" fill-opacity="1" stroke-width="0.2" stroke-linejoin="round" d="M 337.224,71.6944C 333.934,71.6944 331.079,72.4235 328.681,73.8758C 326.274,75.3327 324.588,77.2505 323.618,79.6306L 350.51,79.6306C 349.7,77.0301 348.131,75.0566 345.812,73.7114C 343.49,72.3677 340.623,71.6944 337.224,71.6944 Z M 337.632,109.6C 333.906,109.6 330.501,108.988 327.422,107.765C 324.35,106.541 321.714,104.864 319.527,102.729C 317.344,100.597 315.645,98.0848 314.425,95.1943C 313.212,92.3083 312.605,89.2238 312.605,85.9454C 312.605,82.6158 313.238,79.4909 314.509,76.5756C 315.776,73.6618 317.516,71.1374 319.731,69.0055C 321.944,66.8706 324.549,65.1793 327.548,63.9303C 330.546,62.6814 333.768,62.056 337.224,62.056C 340.736,62.056 343.985,62.6255 346.985,63.7658C 349.984,64.9032 352.561,66.4966 354.722,68.5478C 356.877,70.5974 358.565,73.0163 359.785,75.7998C 360.997,78.5848 361.603,81.6212 361.603,84.9136L 361.603,88.7848L 323.052,88.7848C 323.809,92.133 325.45,94.8327 327.989,96.8823C 330.527,98.935 333.743,99.9606 337.632,99.9606C 340.71,99.9606 343.379,99.205 345.647,97.6922C 347.914,96.1811 349.614,94.1578 350.749,91.6195L 359.738,96.8032C 357.687,100.636 354.815,103.728 351.116,106.077C 347.413,108.423 342.924,109.6 337.632,109.6 Z "/>
			<path fill="#FFFFFF" fill-opacity="1" stroke-width="0.2" stroke-linejoin="round" d="M 366.461,62.1372L 377.317,62.1372L 377.317,69.1843C 379.531,64.4878 383.578,62.1372 389.464,62.1372C 391.19,62.1372 392.746,62.3296 394.123,62.7051C 395.495,63.0836 396.727,63.5677 397.808,64.1604L 393.675,74.528C 392.865,73.9911 391.962,73.5442 390.96,73.1936C 389.964,72.8414 388.679,72.6676 387.117,72.6676C 383.928,72.6676 381.514,73.5706 379.868,75.3798C 378.218,77.1888 377.396,80.1446 377.396,84.2469L 377.396,109.517L 366.461,109.517L 366.461,62.1372 Z "/>
			<path fill="#FFFFFF" fill-opacity="1" stroke-width="0.2" stroke-linejoin="round" d="M 401.368,62.1372L 412.223,62.1372L 412.223,68.6103C 413.785,66.6321 415.768,65.0463 418.174,63.8501C 420.573,62.6539 423.316,62.055 426.395,62.055C 432.28,62.055 436.888,63.8051 440.202,67.3054C 443.524,70.801 445.184,75.6761 445.184,81.9304L 445.184,109.517L 434.092,109.517L 434.092,83.1671C 434.092,79.5783 433.197,76.7436 431.415,74.6568C 429.637,72.5745 426.961,71.5335 423.402,71.5335C 420.264,71.5335 417.633,72.6134 415.498,74.7762C 413.369,76.9422 412.302,80.0515 412.302,84.1166L 412.302,109.517L 401.368,109.517L 401.368,62.1372 Z "/>
			<path fill="#FFFFFF" fill-opacity="1" stroke-width="0.2" stroke-linejoin="round" d="M 474.58,71.6944C 471.293,71.6944 468.438,72.4235 466.039,73.8758C 463.633,75.3327 461.945,77.2505 460.976,79.6306L 487.868,79.6306C 487.058,77.0301 485.49,75.0566 483.168,73.7114C 480.849,72.3677 477.982,71.6944 474.58,71.6944 Z M 474.99,109.6C 471.265,109.6 467.858,108.988 464.781,107.765C 461.709,106.541 459.073,104.864 456.885,102.729C 454.702,100.597 453.001,98.0848 451.783,95.1943C 450.569,92.3083 449.964,89.2238 449.964,85.9454C 449.964,82.6158 450.597,79.4909 451.867,76.5756C 453.133,73.6618 454.874,71.1374 457.088,69.0055C 459.302,66.8706 461.906,65.1793 464.907,63.9303C 467.904,62.6814 471.127,62.056 474.58,62.056C 478.095,62.056 481.342,62.6255 484.343,63.7658C 487.342,64.9032 489.919,66.4966 492.081,68.5478C 494.236,70.5974 495.924,73.0163 497.142,75.7998C 498.355,78.5848 498.962,81.6212 498.962,84.9136L 498.962,88.7848L 460.41,88.7848C 461.167,92.133 462.809,94.8327 465.347,96.8823C 467.885,98.935 471.102,99.9606 474.99,99.9606C 478.067,99.9606 480.737,99.205 483.005,97.6922C 485.272,96.1811 486.971,94.1578 488.105,91.6195L 497.097,96.8032C 495.046,100.636 492.172,103.728 488.475,106.077C 484.77,108.423 480.282,109.6 474.99,109.6 Z "/>
			<path fill="#FFFFFF" fill-opacity="1" stroke-width="0.2" stroke-linejoin="round" d="M 500.089,62.1372L 508.189,62.1372L 508.189,54.9301L 519.202,47.3974L 519.202,62.1372L 528.838,62.1372L 528.838,71.9384L 519.202,71.9384L 519.202,89.6759C 519.202,91.7285 519.308,93.3888 519.525,94.6547C 519.742,95.9239 520.191,96.8952 520.864,97.5717C 521.536,98.2467 522.51,98.6919 523.778,98.9091C 525.049,99.1233 526.737,99.2319 528.838,99.2319L 528.838,109.517L 527.303,109.517C 523.632,109.517 520.566,109.194 518.109,108.546C 515.649,107.896 513.698,106.805 512.236,105.266C 510.779,103.727 509.738,101.7 509.117,99.1931C 508.498,96.6811 508.189,93.5346 508.189,89.7534L 508.189,71.9384L 500.089,71.9384L 500.089,62.1372 Z "/>
		</g>
		<g>
			<path fill="#FFFFFF" fill-opacity="1" stroke-width="0.2" stroke-linejoin="round" d="M 227.177,161.237C 229.192,161.237 230.983,160.884 232.551,160.179C 234.118,159.474 235.454,158.482 236.559,157.202C 237.664,155.922 238.504,154.41 239.079,152.668C 239.654,150.925 239.942,149.014 239.942,146.934C 239.942,144.854 239.654,142.934 239.079,141.174C 238.504,139.414 237.664,137.902 236.559,136.637C 235.454,135.372 234.118,134.379 232.551,133.659C 230.983,132.939 229.192,132.579 227.177,132.579L 219.924,132.579L 219.924,161.237L 227.177,161.237 Z M 216.954,163.877L 216.954,129.939L 227.462,129.939C 229.832,129.939 231.968,130.355 233.871,131.188C 235.773,132.02 237.397,133.189 238.742,134.694C 240.087,136.199 241.127,137.992 241.862,140.072C 242.597,142.152 242.964,144.439 242.964,146.934C 242.964,149.429 242.597,151.717 241.862,153.797C 241.127,155.877 240.087,157.66 238.742,159.148C 237.397,160.635 235.773,161.795 233.871,162.628C 231.968,163.46 229.832,163.877 227.462,163.877L 216.954,163.877 Z "/>
			<path fill="#FFFFFF" fill-opacity="1" stroke-width="0.2" stroke-linejoin="round" d="M 267.834,162.099C 266.649,162.834 265.393,163.394 264.066,163.779C 262.738,164.164 261.322,164.357 259.817,164.357C 257.962,164.357 256.306,164.044 254.848,163.419C 253.391,162.794 252.166,161.922 251.173,160.802C 250.181,159.682 249.421,158.322 248.893,156.722C 248.366,155.122 248.102,153.347 248.102,151.397C 248.102,149.667 248.311,148.034 248.728,146.499C 249.146,144.964 249.778,143.62 250.626,142.468C 251.473,141.315 252.544,140.403 253.839,139.73C 255.134,139.058 256.662,138.722 258.422,138.722C 259.992,138.722 261.393,139.002 262.626,139.562C 263.858,140.122 264.898,140.89 265.746,141.868C 266.593,142.845 267.233,144.014 267.666,145.374C 268.098,146.734 268.314,148.214 268.314,149.814C 268.314,150.259 268.298,150.707 268.266,151.157C 268.233,151.607 268.184,152.007 268.119,152.357L 250.937,152.357C 251.097,155.332 251.944,157.659 253.479,159.339C 255.014,161.019 257.159,161.859 259.914,161.859C 261.129,161.859 262.313,161.683 263.466,161.33C 264.618,160.978 265.754,160.482 266.874,159.842L 267.834,162.099 Z M 265.577,150.054C 265.542,147.334 264.933,145.182 263.751,143.597C 262.568,142.012 260.809,141.219 258.474,141.219C 257.224,141.219 256.143,141.452 255.231,141.917C 254.318,142.382 253.551,143.014 252.928,143.814C 252.306,144.614 251.834,145.55 251.514,146.623C 251.194,147.695 250.984,148.839 250.884,150.054L 265.577,150.054 Z "/>
			<path fill="#FFFFFF" fill-opacity="1" stroke-width="0.2" stroke-linejoin="round" d="M 283.524,163.877L 280.502,163.877L 271.194,139.202L 274.217,139.202L 281.994,160.659L 289.959,139.202L 292.794,139.202L 283.524,163.877 Z "/>
			<path fill="#FFFFFF" fill-opacity="1" stroke-width="0.2" stroke-linejoin="round" d="M 315.354,162.099C 314.169,162.834 312.913,163.394 311.586,163.779C 310.258,164.164 308.842,164.357 307.337,164.357C 305.482,164.357 303.826,164.044 302.368,163.419C 300.911,162.794 299.686,161.922 298.693,160.802C 297.701,159.682 296.941,158.322 296.413,156.722C 295.886,155.122 295.622,153.347 295.622,151.397C 295.622,149.667 295.831,148.034 296.248,146.499C 296.666,144.964 297.298,143.62 298.146,142.468C 298.993,141.315 300.064,140.403 301.359,139.73C 302.654,139.058 304.182,138.722 305.942,138.722C 307.512,138.722 308.913,139.002 310.146,139.562C 311.378,140.122 312.418,140.89 313.266,141.868C 314.113,142.845 314.753,144.014 315.186,145.374C 315.618,146.734 315.834,148.214 315.834,149.814C 315.834,150.259 315.818,150.707 315.786,151.157C 315.753,151.607 315.704,152.007 315.639,152.357L 298.457,152.357C 298.617,155.332 299.464,157.659 300.999,159.339C 302.534,161.019 304.679,161.859 307.434,161.859C 308.649,161.859 309.833,161.683 310.986,161.33C 312.138,160.978 313.274,160.482 314.394,159.842L 315.354,162.099 Z M 313.097,150.054C 313.062,147.334 312.453,145.182 311.271,143.597C 310.088,142.012 308.329,141.219 305.994,141.219C 304.744,141.219 303.663,141.452 302.751,141.917C 301.838,142.382 301.071,143.014 300.448,143.814C 299.826,144.614 299.354,145.55 299.034,146.623C 298.714,147.695 298.504,148.839 298.404,150.054L 313.097,150.054 Z "/>
			<path fill="#FFFFFF" fill-opacity="1" stroke-width="0.2" stroke-linejoin="round" d="M 325.284,163.877L 322.502,163.877L 322.502,127.974L 325.284,127.734L 325.284,163.877 Z "/>
			<path fill="#FFFFFF" fill-opacity="1" stroke-width="0.2" stroke-linejoin="round" d="M 346.554,161.094C 347.609,160.579 348.488,159.858 349.191,158.93C 349.893,158.003 350.429,156.915 350.799,155.668C 351.169,154.42 351.354,153.044 351.354,151.539C 351.354,150.069 351.169,148.702 350.799,147.437C 350.429,146.172 349.893,145.075 349.191,144.148C 348.488,143.22 347.608,142.5 346.551,141.988C 345.493,141.475 344.277,141.219 342.902,141.219C 341.527,141.219 340.312,141.475 339.257,141.988C 338.202,142.5 337.322,143.22 336.617,144.148C 335.912,145.075 335.376,146.172 335.008,147.437C 334.641,148.702 334.457,150.069 334.457,151.539C 334.457,153.044 334.641,154.42 335.008,155.668C 335.376,156.915 335.912,158.003 336.617,158.93C 337.322,159.858 338.202,160.578 339.257,161.09C 340.312,161.603 341.527,161.859 342.902,161.859C 344.277,161.859 345.494,161.604 346.554,161.094 Z M 351.204,160.802C 350.244,161.922 349.069,162.794 347.679,163.419C 346.289,164.044 344.697,164.357 342.902,164.357C 341.112,164.357 339.521,164.044 338.128,163.419C 336.736,162.794 335.559,161.914 334.599,160.779C 333.639,159.644 332.903,158.293 332.391,156.725C 331.878,155.158 331.622,153.429 331.622,151.539C 331.622,149.654 331.878,147.927 332.391,146.357C 332.903,144.787 333.639,143.434 334.599,142.299C 335.559,141.164 336.736,140.284 338.128,139.659C 339.521,139.034 341.112,138.722 342.902,138.722C 344.697,138.722 346.289,139.034 347.679,139.659C 349.069,140.284 350.244,141.164 351.204,142.299C 352.164,143.434 352.901,144.787 353.413,146.357C 353.926,147.927 354.182,149.654 354.182,151.539C 354.182,153.429 353.926,155.158 353.413,156.725C 352.901,158.293 352.164,159.652 351.204,160.802 Z "/>
			<path fill="#FFFFFF" fill-opacity="1" stroke-width="0.2" stroke-linejoin="round" d="M 363.542,175.014L 360.759,175.014L 360.759,139.299L 363.204,139.059L 363.497,142.232C 364.742,141.207 366.077,140.365 367.502,139.708C 368.927,139.05 370.439,138.722 372.039,138.722C 373.609,138.722 374.994,139.058 376.194,139.73C 377.394,140.403 378.409,141.308 379.239,142.445C 380.069,143.583 380.701,144.903 381.133,146.405C 381.566,147.908 381.782,149.492 381.782,151.157C 381.782,152.947 381.542,154.642 381.062,156.242C 380.582,157.842 379.878,159.242 378.951,160.442C 378.023,161.642 376.896,162.594 375.568,163.299C 374.241,164.004 372.712,164.357 370.982,164.357C 369.512,164.357 368.144,164.117 366.879,163.637C 365.614,163.157 364.502,162.549 363.542,161.814L 363.542,175.014 Z M 363.542,159.219C 364.537,159.954 365.649,160.578 366.879,161.09C 368.109,161.603 369.382,161.859 370.697,161.859C 372.072,161.859 373.279,161.563 374.319,160.97C 375.359,160.378 376.223,159.587 376.911,158.597C 377.598,157.607 378.111,156.463 378.448,155.165C 378.786,153.868 378.954,152.517 378.954,151.112C 378.954,149.767 378.794,148.502 378.474,147.317C 378.154,146.132 377.682,145.083 377.057,144.17C 376.432,143.258 375.663,142.538 374.751,142.01C 373.838,141.483 372.774,141.219 371.559,141.219C 370.119,141.219 368.703,141.548 367.311,142.205C 365.918,142.863 364.662,143.654 363.542,144.579L 363.542,159.219 Z "/>
			<path fill="#FFFFFF" fill-opacity="1" stroke-width="0.2" stroke-linejoin="round" d="M 406.074,162.099C 404.889,162.834 403.633,163.394 402.306,163.779C 400.978,164.164 399.562,164.357 398.057,164.357C 396.202,164.357 394.546,164.044 393.088,163.419C 391.631,162.794 390.406,161.922 389.413,160.802C 388.421,159.682 387.661,158.322 387.133,156.722C 386.606,155.122 386.342,153.347 386.342,151.397C 386.342,149.667 386.551,148.034 386.968,146.499C 387.386,144.964 388.018,143.62 388.866,142.468C 389.713,141.315 390.784,140.403 392.079,139.73C 393.374,139.058 394.902,138.722 396.662,138.722C 398.232,138.722 399.633,139.002 400.866,139.562C 402.098,140.122 403.138,140.89 403.986,141.868C 404.833,142.845 405.473,144.014 405.906,145.374C 406.338,146.734 406.554,148.214 406.554,149.814C 406.554,150.259 406.538,150.707 406.506,151.157C 406.473,151.607 406.424,152.007 406.359,152.357L 389.177,152.357C 389.337,155.332 390.184,157.659 391.719,159.339C 393.254,161.019 395.399,161.859 398.154,161.859C 399.369,161.859 400.553,161.683 401.706,161.33C 402.858,160.978 403.994,160.482 405.114,159.842L 406.074,162.099 Z M 403.817,150.054C 403.782,147.334 403.173,145.182 401.991,143.597C 400.808,142.012 399.049,141.219 396.714,141.219C 395.464,141.219 394.383,141.452 393.471,141.917C 392.558,142.382 391.791,143.014 391.168,143.814C 390.546,144.614 390.074,145.55 389.754,146.623C 389.434,147.695 389.224,148.839 389.124,150.054L 403.817,150.054 Z "/>
			<path fill="#FFFFFF" fill-opacity="1" stroke-width="0.2" stroke-linejoin="round" d="M 415.862,163.877L 413.079,163.877L 413.079,139.299L 415.524,139.059L 415.862,142.802C 416.982,141.522 418.142,140.522 419.342,139.802C 420.542,139.082 421.782,138.722 423.062,138.722C 423.447,138.722 423.919,138.762 424.479,138.842C 425.039,138.922 425.512,139.027 425.897,139.157L 425.222,141.842C 424.392,141.587 423.577,141.459 422.777,141.459C 421.497,141.459 420.288,141.795 419.151,142.468C 418.013,143.14 416.917,144.084 415.862,145.299L 415.862,163.877 Z "/>
			<path fill="#FFFFFF" fill-opacity="1" stroke-width="0.2" stroke-linejoin="round" d="M 468.234,163.877L 465.257,163.877L 465.257,148.179L 446.484,148.179L 446.484,163.877L 443.514,163.877L 443.514,129.939L 446.484,129.939L 446.484,145.539L 465.257,145.539L 465.257,129.939L 468.234,129.939L 468.234,163.877 Z "/>
			<path fill="#FFFFFF" fill-opacity="1" stroke-width="0.2" stroke-linejoin="round" d="M 492.617,163.877C 492.522,163.527 492.442,163.112 492.377,162.632C 492.312,162.152 492.247,161.654 492.182,161.139C 490.967,162.034 489.632,162.794 488.177,163.419C 486.722,164.044 485.242,164.357 483.737,164.357C 482.422,164.357 481.293,164.109 480.351,163.614C 479.408,163.119 478.624,162.447 477.999,161.597C 477.374,160.747 476.911,159.738 476.608,158.57C 476.306,157.403 476.154,156.147 476.154,154.802L 476.154,139.299L 478.937,139.059L 478.937,154.562C 478.937,155.557 479.024,156.494 479.199,157.374C 479.374,158.254 479.671,159.03 480.088,159.703C 480.506,160.375 481.058,160.903 481.746,161.285C 482.433,161.668 483.289,161.859 484.314,161.859C 485.594,161.859 486.914,161.563 488.274,160.97C 489.634,160.378 490.904,159.652 492.084,158.792L 492.084,139.299L 494.874,139.059L 494.874,158.019C 494.874,158.949 494.898,159.925 494.946,160.948C 494.993,161.97 495.144,162.947 495.399,163.877L 492.617,163.877 Z "/>
			<path fill="#FFFFFF" fill-opacity="1" stroke-width="0.2" stroke-linejoin="round" d="M 505.337,163.877L 502.982,163.877L 502.982,127.974L 505.764,127.734L 505.764,142.232C 506.984,141.207 508.306,140.365 509.728,139.708C 511.151,139.05 512.662,138.722 514.262,138.722C 515.832,138.722 517.217,139.058 518.417,139.73C 519.617,140.403 520.633,141.308 521.466,142.445C 522.298,143.583 522.929,144.903 523.359,146.405C 523.789,147.908 524.004,149.492 524.004,151.157C 524.004,152.947 523.764,154.642 523.284,156.242C 522.804,157.842 522.101,159.242 521.173,160.442C 520.246,161.642 519.111,162.594 517.768,163.299C 516.426,164.004 514.889,164.357 513.159,164.357C 511.689,164.357 510.306,164.1 509.008,163.588C 507.711,163.075 506.599,162.452 505.674,161.717L 505.337,163.877 Z M 505.764,159.219C 506.759,159.954 507.864,160.578 509.079,161.09C 510.294,161.603 511.574,161.859 512.919,161.859C 514.294,161.859 515.494,161.563 516.519,160.97C 517.544,160.378 518.401,159.587 519.088,158.597C 519.776,157.607 520.296,156.463 520.648,155.165C 521.001,153.868 521.177,152.517 521.177,151.112C 521.177,149.767 521.017,148.502 520.697,147.317C 520.377,146.132 519.904,145.083 519.279,144.17C 518.654,143.258 517.886,142.538 516.973,142.01C 516.061,141.483 514.997,141.219 513.782,141.219C 512.342,141.219 510.926,141.548 509.533,142.205C 508.141,142.863 506.884,143.654 505.764,144.579L 505.764,159.219 Z "/>
		</g>
	</g>
	<g>
		<path fill="#706CF5" fill-opacity="1" stroke-width="0.2" stroke-linejoin="round" d="M 105.101,8.39233e-005C 149.906,8.39233e-005 180.351,30.4445 180.351,75.2495L 180.351,105.728L 180.293,109.097C 178.803,152.052 148.774,180.978 105.101,180.978L 75.2495,180.978C 30.4445,180.978 0,151.513 0,106.708L 0,74.27C 0,30.8029 28.6535,1.77328 71.2747,0.0784531L 75.2495,2.28882e-005L 105.101,8.39233e-005 Z "/>
		<path fill="#FFFFFF" fill-opacity="1" stroke-width="0.2" stroke-linejoin="round" d="M 116.313,130.081C 108.817,135.04 99.8309,137.928 90.17,137.928C 71.5722,137.928 55.4741,127.226 47.6978,111.645C 43.7704,109.575 40.1712,107.414 36.9556,105.203C 43.3953,128.545 64.7809,145.686 90.1701,145.686C 105.246,145.686 118.911,139.642 128.872,129.845C 124.983,130.17 120.772,130.251 116.313,130.081 Z "/>
		<path fill="#FFFFFF" fill-opacity="1" stroke-width="0.2" stroke-linejoin="round" d="M 43.7543,100.336C 40.5627,98.3807 37.666,96.3708 35.1047,94.3358C 25.6044,86.7877 20.7223,78.8967 22.5458,72.1975C 24.3641,65.5173 32.5309,61.1948 44.491,59.493C 54.4219,44.8862 71.1755,35.292 90.17,35.292C 119.442,35.292 143.392,58.0777 145.251,86.8801C 154.748,94.427 159.628,102.316 157.805,109.014C 155.977,115.729 147.734,120.062 135.671,121.745C 132.427,122.198 128.907,122.459 125.16,122.523C 112.948,122.732 98.3358,120.85 83.0738,116.696C 67.7701,112.53 54.1874,106.727 43.7543,100.336 Z M 131.284,114.172C 135.261,107.282 137.556,99.2992 137.608,90.7843L 137.609,90.4892C 137.609,64.2894 116.37,43.0503 90.17,43.0503C 72.7509,43.0503 57.5245,52.4387 49.2751,66.4315C 45.1225,73.4751 42.7378,81.6853 42.7311,90.452C 52.6134,97.0657 67.5482,103.587 84.8239,108.29C 102.656,113.143 119.32,115.062 131.284,114.172 Z M 140.763,112.593C 145.521,111.196 148.589,108.988 149.405,105.988C 150.236,102.935 148.643,99.4074 145.122,95.7227L 145.049,96.4544C 144.438,102.137 142.965,107.561 140.763,112.593 Z M 40.0066,67.4275L 40.4063,66.5786C 34.7939,67.9597 31.211,70.2933 30.3182,73.5732C 29.4349,76.8186 31.2916,80.6002 35.2899,84.5369C 35.9385,78.4876 37.5644,72.7308 40.0066,67.4275 Z "/>
	</g>
</svg>
