<?xml version="1.0" encoding="utf-8"?>
<!DOCTYPE svg PUBLIC "-//W3C//DTD SVG 1.1//EN" "http://www.w3.org/Graphics/SVG/1.1/DTD/svg11.dtd">
<svg xmlns="http://www.w3.org/2000/svg" xmlns:xlink="http://www.w3.org/1999/xlink" version="1.1" baseProfile="full" width="528.581" height="178.668" viewBox="0 0 528.58 178.67" enable-background="new 0 0 528.58 178.67" xml:space="preserve">
	<g>
		<path fill="#987FFF" fill-opacity="1" stroke-width="0.2" stroke-linejoin="round" d="M 58.374,1.04098C 69.1453,0.519493 79.9165,-0.00205231 90.1831,-0.00205231C 100.45,-0.00205231 110.212,0.519493 119.974,1.04098C 150.773,1.04098 177.306,27.5731 177.306,58.3722C 177.827,68.4363 178.348,78.5005 178.348,88.7671C 178.348,99.0337 177.827,109.503 177.306,119.972C 177.306,150.771 150.773,177.303 119.974,177.303C 110.342,177.825 100.711,178.346 90.4441,178.346C 80.1774,178.346 69.2758,177.825 58.374,177.303C 27.5751,177.303 1.04327,150.771 1.04327,119.972C 0.521729,108.981 0,97.9908 0,87.7241C 0,77.4575 0.521729,67.9148 1.04327,58.3721C 1.04327,27.5731 27.5751,1.04098 58.374,1.04098 Z "/>
		<path fill="#B5A5FE" fill-opacity="1" stroke-width="0.2" stroke-linejoin="round" d="M 89.7139,29.9796C 122.16,30.2652 148.375,56.6561 148.375,89.1698C 148.375,101.99 144.299,113.858 137.373,123.549C 126.637,138.571 109.053,148.362 89.1821,148.362C 82.1375,148.362 75.3802,147.132 69.1137,144.874C 67.2687,144.209 65.4661,143.455 63.7112,142.617C 44.1353,133.271 30.4985,113.487 30.0035,90.4672L 29.9896,89.1698C 29.9896,62.7353 47.3177,40.3478 71.2351,32.747C 76.8958,30.948 82.9256,29.9773 89.1821,29.9773L 89.7139,29.9796 Z "/>
		<g>
			<path fill="#FFFFFF" fill-opacity="1" stroke-width="0.2" stroke-linejoin="round" d="M 89.8182,32.6325L 89.5574,37.326L 92.6863,38.4993L 96.076,40.1941L 99.5961,40.5852L 102.986,41.4978L 104.681,42.0193L 107.027,43.5838L 107.027,45.5393L 107.158,48.0164L 107.94,50.2327L 111.33,52.1883L 113.807,53.7528L 115.11,53.7528L 115.241,55.3172L 115.371,57.7943L 114.328,59.3588L 113.155,61.184L 112.894,62.227L 114.328,64.0521L 116.153,65.3559L 117.457,65.6166L 119.413,64.4433L 121.498,61.8358L 123.454,60.6625L 125.149,61.0536L 127.626,61.8358L 129.973,63.5307L 131.016,64.1499L 131.016,65.6492L 130.69,68.1915L 129.516,68.2567L 127.887,67.2788L 124.953,67.0181L 121.498,67.9959L 120.39,68.713L 118.435,69.8211L 115.827,70.4078L 113.35,70.4078L 110.287,71.0597L 107.614,72.4286L 106.31,74.9057L 104.55,77.7738L 103.572,79.3383L 103.54,82.7931L 103.409,85.5309L 104.974,87.6169L 106.538,89.3117L 108.103,91.7888L 109.146,92.7014L 109.83,93.3207L 110.482,93.9726L 111.884,94.657L 113.122,94.5918L 114.328,93.5489L 115.893,92.4407L 116.61,91.3977L 117.555,90.5828L 119.054,90.5828L 119.967,91.6258L 120.781,92.7014L 122.036,93.598L 122.623,94.4454L 123.275,95.9447L 123.21,97.7047L 123.21,99.2691L 123.405,101.094L 124.057,102.268L 125.1,103.963L 125.361,106.57L 125.817,109.503L 125.85,111.296L 126.045,114.327L 126.045,116.478L 127.61,118.238L 129.663,119.509L 131.716,119.901L 133.477,120.683L 134.65,122.345C 134.65,122.345 136.41,123.518 136.899,123.518C 136.984,123.518 137.151,123.53 137.373,123.549C 144.299,113.858 148.375,101.99 148.375,89.1698C 148.375,56.656 122.16,30.2652 89.7142,29.9796L 89.8182,32.6325 Z "/>
			<path fill="#B5A5FE" fill-opacity="1" stroke-width="0.2" stroke-linejoin="round" d="M 35.453,89.9962L 30.4989,90.3873L 30.0038,90.4671C 30.4988,113.487 44.1356,133.271 63.7115,142.617L 63.6133,139.277L 63.8741,137.321L 64.7867,134.062L 64.7867,130.542L 65.0475,126.5L 64.9171,123.241L 63.483,121.285L 62.7007,119.33L 60.3541,117.505L 58.5289,115.679L 56.3125,113.072L 56.1821,110.204L 55.3999,106.945L 55.2695,103.555L 56.4429,101.599L 57.0947,99.5133L 56.9644,96.2541L 55.1392,95.6022L 53.9658,94.6896L 50.9673,93.2555L 47.3169,90.648L 45.7524,89.8658L 40.4072,90.2569L 35.453,89.9962 Z "/>
			<path fill="#FFFFFF" fill-opacity="1" stroke-width="0.2" stroke-linejoin="round" d="M 68.8278,143.644L 70.9138,141.427L 74.0426,138.429L 76.65,136.995L 79.3878,133.996L 82.5168,131.128L 84.4724,127.999L 86.2976,125.261L 87.6013,124.218L 88.1228,122.002L 89.0354,119.525L 89.948,116.918L 91.5125,114.701L 93.9895,113.137L 93.9895,108.183L 91.9036,106.618L 89.948,106.227L 87.6013,105.054L 85.3849,104.402L 80.6916,103.62L 78.3448,101.012L 76.9108,99.7084L 74.6945,96.9706L 72.2174,94.1024L 70.0011,91.8861L 67.1329,90.3216L 63.3521,90.0609L 61.0054,91.6253L 59.3105,92.2772L 56.5728,91.8861L 53.8029,89.768L 50.674,86.8347L 49.3051,84.9768L 45.8828,84.1946L 44.3183,83.3146L 43.6339,79.4035L 44.5139,78.0346L 46.9584,75.7857L 48.5228,75.199L 50.7717,76.3723L 52.7273,77.0568L 54.5851,76.2746L 54.9762,74.7101L 55.6606,72.3634L 57.1273,69.1367L 56.9318,66.301L 56.834,64.9322L 60.2563,61.7055L 62.9941,58.8699L 64.4608,58.5766L 64.9497,59.7499L 66.7097,59.7499L 68.5675,58.1854L 69.6105,55.8388L 70.5231,53.6224L 70.0016,51.5365L 70.0016,42.9319L 72.0875,41.4978L 74.4342,40.7156L 75.2164,39.9334L 76.2594,38.8904L 76.129,37.4563L 73.652,34.5881L 71.2354,32.7469C 47.3181,40.3477 29.9899,62.7351 29.9899,89.1698C 29.9899,89.6034 29.9945,90.0359 30.0038,90.4671L 30.4989,90.3873L 35.453,89.9962L 40.4072,90.2569L 45.7524,89.8658L 47.3169,90.648L 50.9673,93.2555L 53.9658,94.6896L 55.1392,95.6022L 56.9644,96.2541L 57.0947,99.5133L 56.4429,101.599L 55.2695,103.555L 55.3999,106.945L 56.1821,110.204L 56.3125,113.072L 58.5289,115.679L 60.3541,117.505L 62.7007,119.33L 63.483,121.285L 64.9171,123.241L 65.0475,126.5L 64.7867,130.542L 64.7867,134.062L 63.8741,137.321L 63.6133,139.277L 63.7115,142.617C 65.4664,143.455 67.2689,144.209 69.114,144.874L 68.8278,143.644 Z "/>
			<path fill="#B5A5FE" fill-opacity="1" stroke-width="0.2" stroke-linejoin="round" d="M 89.7142,29.9796C 89.5371,29.9781 89.3598,29.9773 89.1824,29.9773C 82.9258,29.9773 76.8961,30.9479 71.2354,32.7469L 73.652,34.5881L 76.129,37.4563L 76.2594,38.8904L 75.2164,39.9334L 74.4342,40.7156L 72.0875,41.4978L 70.0016,42.9319L 70.0016,51.5365L 70.5231,53.6224L 69.6105,55.8388L 68.5675,58.1854L 66.7097,59.7499L 64.9497,59.7499L 64.4608,58.5766L 62.9941,58.8699L 60.2563,61.7055L 56.834,64.9322L 56.9318,66.301L 57.1273,69.1367L 55.6606,72.3634L 54.9762,74.7101L 54.5851,76.2746L 52.7273,77.0568L 50.7717,76.3723L 48.5228,75.199L 46.9584,75.7857L 44.5139,78.0346L 43.6339,79.4035L 44.3183,83.3146L 45.8828,84.1946L 49.3051,84.9768L 50.674,86.8347L 53.8029,89.768L 56.5728,91.8861L 59.3105,92.2772L 61.0054,91.6253L 63.3521,90.0609L 67.1329,90.3216L 70.0011,91.8861L 72.2174,94.1024L 74.6945,96.9706L 76.9108,99.7084L 78.3448,101.012L 80.6916,103.62L 85.3849,104.402L 87.6013,105.054L 89.948,106.227L 91.9036,106.618L 93.9895,108.183L 93.9895,113.137L 91.5125,114.701L 89.948,116.918L 89.0354,119.525L 88.1228,122.002L 87.6013,124.218L 86.2976,125.261L 84.4724,127.999L 82.5168,131.128L 79.3878,133.996L 76.65,136.995L 74.0426,138.429L 70.9138,141.427L 68.8278,143.644L 69.114,144.874C 75.3805,147.132 82.1377,148.362 89.1824,148.362C 109.053,148.362 126.638,138.571 137.373,123.549C 137.151,123.53 136.984,123.518 136.899,123.518C 136.41,123.518 134.65,122.345 134.65,122.345L 133.477,120.683L 131.716,119.901L 129.663,119.509L 127.61,118.238L 126.045,116.478L 126.045,114.327L 125.85,111.296L 125.817,109.503L 125.361,106.57L 125.1,103.963L 124.057,102.268L 123.405,101.094L 123.21,99.2691L 123.21,97.7047L 123.275,95.9447L 122.623,94.4454L 122.036,93.598L 120.781,92.7014L 119.967,91.6258L 119.054,90.5828L 117.555,90.5828L 116.61,91.3977L 115.893,92.4407L 114.328,93.5489L 113.122,94.5918L 111.884,94.657L 110.482,93.9726L 109.83,93.3207L 109.146,92.7014L 108.103,91.7888L 106.538,89.3117L 104.974,87.6169L 103.409,85.5309L 103.54,82.7931L 103.572,79.3383L 104.55,77.7738L 106.31,74.9057L 107.614,72.4286L 110.287,71.0597L 113.35,70.4078L 115.827,70.4078L 118.435,69.8211L 120.39,68.713L 121.498,67.9959L 124.953,67.0181L 127.887,67.2788L 129.516,68.2567L 130.69,68.1915L 131.016,65.6492L 131.016,64.1499L 129.973,63.5307L 127.626,61.8358L 125.149,61.0536L 123.454,60.6625L 121.498,61.8358L 119.413,64.4433L 117.457,65.6166L 116.153,65.3559L 114.328,64.0521L 112.894,62.227L 113.155,61.184L 114.328,59.3588L 115.371,57.7943L 115.241,55.3172L 115.11,53.7528L 113.807,53.7528L 111.33,52.1883L 107.94,50.2327L 107.158,48.0164L 107.027,45.5393L 107.027,43.5838L 104.681,42.0193L 102.986,41.4978L 99.5961,40.5852L 96.076,40.1941L 92.6863,38.4993L 89.5574,37.326L 89.8182,32.6325L 89.7142,29.9796 Z "/>
		</g>
	</g>
	<rect x="231.338" y="18.2264" fill="#231F20" fill-opacity="1" stroke-width="0.2" stroke-linejoin="round" width="11.7578" height="63.1118"/>
	<path fill="#231F20" fill-opacity="1" stroke-width="0.2" stroke-linejoin="round" d="M 250.955,30.7608L 262.542,30.7608L 262.542,37.6707C 264.21,35.559 266.329,33.8662 268.897,32.5893C 271.458,31.3123 274.385,30.673 277.671,30.673C 283.955,30.673 288.872,32.5413 292.41,36.2777C 295.957,40.0093 297.73,45.2133 297.73,51.8897L 297.73,81.338L 285.889,81.338L 285.889,53.2097C 285.889,49.3788 284.932,46.3528 283.032,44.1252C 281.132,41.9024 278.275,40.7912 274.476,40.7912C 271.127,40.7912 268.319,41.9439 266.039,44.2526C 263.766,46.5648 262.629,49.884 262.629,54.2234L 262.629,81.338L 250.955,81.338L 250.955,30.7608 Z "/>
	<path fill="#231F20" fill-opacity="1" stroke-width="0.2" stroke-linejoin="round" d="M 300.494,30.7608L 309.142,30.7608L 309.142,23.0674L 320.898,15.0263L 320.898,30.7608L 331.185,30.7608L 331.185,41.2234L 320.898,41.2234L 320.898,60.1577C 320.898,62.349 321.012,64.1212 321.242,65.4727C 321.476,66.8275 321.954,67.8643 322.672,68.5864C 323.389,69.3069 324.431,69.7822 325.782,70.0142C 327.14,70.2427 328.941,70.3587 331.185,70.3587L 331.185,81.338L 329.545,81.338C 325.626,81.338 322.355,80.9934 319.73,80.3012C 317.107,79.6072 315.023,78.4429 313.461,76.7998C 311.908,75.1568 310.796,72.9938 310.134,70.3172C 309.473,67.6357 309.142,64.2769 309.142,60.2406L 309.142,41.2234L 300.494,41.2234L 300.494,30.7608 Z "/>
	<path fill="#231F20" fill-opacity="1" stroke-width="0.2" stroke-linejoin="round" d="M 359.723,40.9629C 356.212,40.9629 353.165,41.7413 350.604,43.2915C 348.035,44.8468 346.235,46.8939 345.2,49.4347L 373.906,49.4347C 373.041,46.6587 371.367,44.552 368.891,43.116C 366.413,41.6817 363.352,40.9629 359.723,40.9629 Z M 360.159,81.4269C 356.182,81.4269 352.547,80.7727 349.261,79.4676C 345.981,78.1608 343.167,76.3704 340.832,74.0913C 338.502,71.8157 336.688,69.1342 335.386,66.0486C 334.091,62.9679 333.443,59.6753 333.443,56.1756C 333.443,52.6213 334.119,49.2855 335.476,46.1735C 336.829,43.063 338.685,40.3683 341.051,38.0926C 343.412,35.8136 346.193,34.0082 349.395,32.6749C 352.595,31.3416 356.035,30.6741 359.723,30.6741C 363.473,30.6741 366.941,31.282 370.143,32.4993C 373.344,33.7134 376.095,35.4143 378.403,37.604C 380.703,39.7919 382.505,42.374 383.807,45.3454C 385.101,48.3183 385.748,51.5596 385.748,55.0741L 385.748,59.2065L 344.595,59.2065C 345.403,62.7808 347.156,65.6626 349.865,67.8505C 352.575,70.0418 356.008,71.1366 360.159,71.1366C 363.445,71.1366 366.294,70.33 368.715,68.7152C 371.135,67.102 372.95,64.9422 374.161,62.2326L 383.757,67.7661C 381.568,71.8571 378.502,75.158 374.553,77.6656C 370.6,80.1699 365.808,81.4269 360.159,81.4269 Z "/>
	<path fill="#231F20" fill-opacity="1" stroke-width="0.2" stroke-linejoin="round" d="M 390.933,30.7608L 402.522,30.7608L 402.522,38.2835C 404.886,33.27 409.205,30.7608 415.489,30.7608C 417.331,30.7608 418.992,30.9662 420.463,31.367C 421.927,31.7711 423.242,32.2879 424.396,32.9206L 419.984,43.9877C 419.12,43.4146 418.156,42.9376 417.086,42.5633C 416.022,42.1873 414.651,42.0018 412.983,42.0018C 409.58,42.0018 407.002,42.9658 405.245,44.897C 403.485,46.8281 402.607,49.9834 402.607,54.3624L 402.607,81.338L 390.933,81.338L 390.933,30.7608 Z "/>
	<path fill="#231F20" fill-opacity="1" stroke-width="0.2" stroke-linejoin="round" d="M 428.196,30.7608L 439.783,30.7608L 439.783,37.6707C 441.451,35.559 443.568,33.8662 446.137,32.5893C 448.697,31.3123 451.626,30.673 454.912,30.673C 461.194,30.673 466.113,32.5413 469.651,36.2777C 473.197,40.0093 474.969,45.2133 474.969,51.8897L 474.969,81.338L 463.128,81.338L 463.128,53.2097C 463.128,49.3788 462.173,46.3528 460.271,44.1252C 458.373,41.9024 455.516,40.7912 451.717,40.7912C 448.368,40.7912 445.559,41.9439 443.28,44.2526C 441.007,46.5648 439.868,49.884 439.868,54.2234L 439.868,81.338L 428.196,81.338L 428.196,30.7608 Z "/>
	<path fill="#231F20" fill-opacity="1" stroke-width="0.2" stroke-linejoin="round" d="M 506.349,40.9629C 502.84,40.9629 499.792,41.7413 497.232,43.2915C 494.663,44.8468 492.861,46.8939 491.827,49.4347L 520.534,49.4347C 519.669,46.6587 517.994,44.552 515.517,43.116C 513.041,41.6817 509.98,40.9629 506.349,40.9629 Z M 506.787,81.4269C 502.81,81.4269 499.173,80.7727 495.888,79.4676C 492.609,78.1608 489.795,76.3704 487.46,74.0913C 485.129,71.8157 483.314,69.1342 482.014,66.0486C 480.717,62.9679 480.071,59.6753 480.071,56.1756C 480.071,52.6213 480.747,49.2855 482.103,46.1735C 483.455,43.063 485.313,40.3683 487.677,38.0926C 490.04,35.8136 492.819,34.0082 496.023,32.6749C 499.222,31.3416 502.662,30.6741 506.349,30.6741C 510.101,30.6741 513.567,31.282 516.771,32.4993C 519.972,33.7134 522.723,35.4143 525.03,37.604C 527.331,39.7919 529.133,42.374 530.433,45.3454C 531.728,48.3183 532.376,51.5596 532.376,55.0741L 532.376,59.2065L 491.223,59.2065C 492.031,62.7808 493.783,65.6626 496.493,67.8505C 499.202,70.0418 502.636,71.1366 506.787,71.1366C 510.071,71.1366 512.921,70.33 515.343,68.7152C 517.763,67.102 519.576,64.9422 520.787,62.2326L 530.385,67.7661C 528.195,71.8571 525.128,75.158 521.181,77.6656C 517.226,80.1699 512.436,81.4269 506.787,81.4269 Z "/>
	<g>
		<path fill="#231F20" fill-opacity="1" stroke-width="0.2" stroke-linejoin="round" d="M 242.25,136.547C 244.402,136.547 246.314,136.171 247.987,135.419C 249.66,134.666 251.087,133.607 252.266,132.24C 253.446,130.874 254.342,129.261 254.956,127.4C 255.57,125.54 255.877,123.5 255.877,121.28C 255.877,119.059 255.57,117.01 254.956,115.131C 254.342,113.252 253.446,111.638 252.266,110.287C 251.087,108.937 249.66,107.878 247.987,107.109C 246.314,106.34 244.402,105.956 242.25,105.956L 234.509,105.956L 234.509,136.547L 242.25,136.547 Z M 231.338,139.366L 231.338,103.138L 242.555,103.138C 245.085,103.138 247.365,103.582 249.396,104.471C 251.427,105.36 253.16,106.607 254.596,108.214C 256.032,109.82 257.142,111.734 257.927,113.954C 258.711,116.175 259.103,118.616 259.103,121.28C 259.103,123.943 258.711,126.385 257.927,128.605C 257.142,130.826 256.032,132.73 254.596,134.318C 253.16,135.906 251.427,137.144 249.396,138.033C 247.365,138.921 245.085,139.366 242.555,139.366L 231.338,139.366 Z "/>
		<path fill="#231F20" fill-opacity="1" stroke-width="0.2" stroke-linejoin="round" d="M 285.652,137.468C 284.387,138.253 283.046,138.851 281.629,139.262C 280.211,139.672 278.7,139.878 277.093,139.878C 275.113,139.878 273.345,139.544 271.789,138.877C 270.233,138.21 268.926,137.279 267.866,136.083C 266.807,134.888 265.995,133.436 265.432,131.728C 264.869,130.02 264.588,128.125 264.588,126.043C 264.588,124.197 264.81,122.454 265.256,120.815C 265.702,119.177 266.377,117.742 267.282,116.512C 268.186,115.282 269.33,114.308 270.712,113.59C 272.095,112.872 273.725,112.513 275.604,112.513C 277.28,112.513 278.776,112.812 280.091,113.41C 281.407,114.008 282.517,114.828 283.422,115.872C 284.327,116.915 285.01,118.163 285.471,119.615C 285.933,121.066 286.164,122.646 286.164,124.354C 286.164,124.829 286.147,125.307 286.112,125.787C 286.077,126.268 286.025,126.695 285.956,127.068L 267.614,127.068C 267.785,130.244 268.689,132.729 270.328,134.522C 271.966,136.315 274.256,137.212 277.197,137.212C 278.494,137.212 279.758,137.024 280.988,136.648C 282.218,136.271 283.431,135.741 284.627,135.058L 285.652,137.468 Z M 283.242,124.61C 283.204,121.707 282.555,119.409 281.292,117.717C 280.03,116.025 278.153,115.179 275.66,115.179C 274.326,115.179 273.171,115.427 272.197,115.924C 271.223,116.42 270.404,117.095 269.739,117.949C 269.075,118.803 268.572,119.803 268.23,120.948C 267.889,122.092 267.665,123.313 267.558,124.61L 283.242,124.61 Z "/>
		<path fill="#231F20" fill-opacity="1" stroke-width="0.2" stroke-linejoin="round" d="M 302.4,139.366L 299.174,139.366L 289.238,113.025L 292.465,113.025L 300.767,135.931L 309.27,113.025L 312.296,113.025L 302.4,139.366 Z "/>
		<path fill="#231F20" fill-opacity="1" stroke-width="0.2" stroke-linejoin="round" d="M 336.378,137.468C 335.113,138.253 333.772,138.851 332.355,139.262C 330.938,139.672 329.426,139.878 327.82,139.878C 325.84,139.878 324.072,139.544 322.516,138.877C 320.96,138.21 319.652,137.279 318.593,136.083C 317.533,134.888 316.722,133.436 316.159,131.728C 315.596,130.02 315.314,128.125 315.314,126.043C 315.314,124.197 315.537,122.454 315.983,120.815C 316.428,119.177 317.104,117.742 318.008,116.512C 318.913,115.282 320.057,114.308 321.439,113.59C 322.821,112.872 324.452,112.513 326.331,112.513C 328.007,112.513 329.502,112.812 330.818,113.41C 332.134,114.008 333.244,114.828 334.149,115.872C 335.053,116.915 335.737,118.163 336.198,119.615C 336.66,121.066 336.891,122.646 336.891,124.354C 336.891,124.829 336.873,125.307 336.839,125.787C 336.804,126.268 336.752,126.695 336.683,127.068L 318.341,127.068C 318.511,130.244 319.416,132.729 321.055,134.522C 322.693,136.315 324.983,137.212 327.924,137.212C 329.221,137.212 330.485,137.024 331.715,136.648C 332.945,136.271 334.158,135.741 335.354,135.058L 336.378,137.468 Z M 333.969,124.61C 333.931,121.707 333.281,119.409 332.019,117.717C 330.757,116.025 328.879,115.179 326.387,115.179C 325.052,115.179 323.898,115.427 322.924,115.924C 321.95,116.42 321.131,117.095 320.466,117.949C 319.802,118.803 319.299,119.803 318.957,120.948C 318.615,122.092 318.391,123.313 318.285,124.61L 333.969,124.61 Z "/>
		<path fill="#231F20" fill-opacity="1" stroke-width="0.2" stroke-linejoin="round" d="M 346.978,139.366L 344.008,139.366L 344.008,101.04L 346.978,100.784L 346.978,139.366 Z "/>
		<path fill="#231F20" fill-opacity="1" stroke-width="0.2" stroke-linejoin="round" d="M 369.684,136.395C 370.81,135.846 371.748,135.076 372.498,134.086C 373.248,133.095 373.82,131.935 374.215,130.603C 374.61,129.271 374.808,127.802 374.808,126.196C 374.808,124.626 374.61,123.167 374.215,121.816C 373.82,120.466 373.248,119.296 372.498,118.306C 371.748,117.315 370.809,116.547 369.68,116C 368.551,115.453 367.253,115.179 365.785,115.179C 364.317,115.179 363.02,115.453 361.894,116C 360.768,116.547 359.828,117.315 359.076,118.306C 358.323,119.296 357.751,120.466 357.358,121.816C 356.966,123.167 356.77,124.626 356.77,126.196C 356.77,127.802 356.966,129.271 357.358,130.603C 357.751,131.935 358.323,133.095 359.076,134.086C 359.828,135.076 360.768,135.844 361.894,136.391C 363.02,136.938 364.317,137.212 365.785,137.212C 367.253,137.212 368.552,136.94 369.684,136.395 Z M 374.648,136.083C 373.623,137.279 372.369,138.21 370.885,138.877C 369.401,139.544 367.701,139.878 365.785,139.878C 363.874,139.878 362.175,139.544 360.689,138.877C 359.203,138.21 357.947,137.271 356.922,136.059C 355.897,134.848 355.111,133.405 354.564,131.732C 354.017,130.059 353.744,128.213 353.744,126.196C 353.744,124.183 354.017,122.339 354.564,120.663C 355.111,118.987 355.897,117.544 356.922,116.332C 357.947,115.12 359.203,114.181 360.689,113.514C 362.175,112.847 363.874,112.513 365.785,112.513C 367.701,112.513 369.401,112.847 370.885,113.514C 372.369,114.181 373.623,115.12 374.648,116.332C 375.672,117.544 376.458,118.987 377.005,120.663C 377.552,122.339 377.826,124.183 377.826,126.196C 377.826,128.213 377.552,130.059 377.005,131.732C 376.458,133.405 375.672,134.855 374.648,136.083 Z "/>
		<path fill="#231F20" fill-opacity="1" stroke-width="0.2" stroke-linejoin="round" d="M 387.818,151.255L 384.847,151.255L 384.847,113.13L 387.457,112.873L 387.77,116.26C 389.099,115.166 390.524,114.268 392.045,113.566C 393.566,112.864 395.181,112.513 396.889,112.513C 398.565,112.513 400.043,112.872 401.324,113.59C 402.605,114.308 403.688,115.274 404.574,116.488C 405.46,117.702 406.134,119.111 406.596,120.715C 407.058,122.319 407.289,124.01 407.289,125.787C 407.289,127.698 407.032,129.507 406.52,131.215C 406.008,132.923 405.256,134.418 404.266,135.699C 403.276,136.98 402.073,137.997 400.655,138.749C 399.238,139.502 397.606,139.878 395.76,139.878C 394.191,139.878 392.731,139.622 391.38,139.109C 390.03,138.597 388.842,137.949 387.818,137.164L 387.818,151.255 Z M 387.818,134.394C 388.88,135.178 390.067,135.844 391.38,136.391C 392.693,136.938 394.052,137.212 395.456,137.212C 396.923,137.212 398.212,136.896 399.322,136.263C 400.433,135.631 401.355,134.786 402.089,133.729C 402.822,132.673 403.37,131.452 403.73,130.066C 404.09,128.681 404.27,127.239 404.27,125.739C 404.27,124.303 404.099,122.953 403.758,121.688C 403.416,120.423 402.912,119.304 402.245,118.33C 401.578,117.355 400.757,116.587 399.783,116.024C 398.809,115.461 397.673,115.179 396.376,115.179C 394.839,115.179 393.327,115.53 391.841,116.232C 390.354,116.934 389.013,117.778 387.818,118.766L 387.818,134.394 Z "/>
		<path fill="#231F20" fill-opacity="1" stroke-width="0.2" stroke-linejoin="round" d="M 433.22,137.468C 431.955,138.253 430.614,138.851 429.197,139.262C 427.78,139.672 426.268,139.878 424.662,139.878C 422.682,139.878 420.914,139.544 419.358,138.877C 417.802,138.21 416.494,137.279 415.435,136.083C 414.375,134.888 413.564,133.436 413.001,131.728C 412.438,130.02 412.156,128.125 412.156,126.043C 412.156,124.197 412.379,122.454 412.825,120.815C 413.27,119.177 413.946,117.742 414.85,116.512C 415.755,115.282 416.899,114.308 418.281,113.59C 419.663,112.872 421.294,112.513 423.173,112.513C 424.849,112.513 426.344,112.812 427.66,113.41C 428.976,114.008 430.086,114.828 430.991,115.872C 431.895,116.915 432.578,118.163 433.04,119.615C 433.502,121.066 433.733,122.646 433.733,124.354C 433.733,124.829 433.715,125.307 433.681,125.787C 433.646,126.268 433.594,126.695 433.525,127.068L 415.183,127.068C 415.353,130.244 416.258,132.729 417.897,134.522C 419.535,136.315 421.825,137.212 424.766,137.212C 426.063,137.212 427.327,137.024 428.557,136.648C 429.787,136.271 431,135.741 432.195,135.058L 433.22,137.468 Z M 430.81,124.61C 430.773,121.707 430.123,119.409 428.861,117.717C 427.599,116.025 425.721,115.179 423.229,115.179C 421.894,115.179 420.74,115.427 419.766,115.924C 418.792,116.42 417.973,117.095 417.308,117.949C 416.644,118.803 416.141,119.803 415.799,120.948C 415.457,122.092 415.233,123.313 415.126,124.61L 430.81,124.61 Z "/>
		<path fill="#231F20" fill-opacity="1" stroke-width="0.2" stroke-linejoin="round" d="M 443.668,139.366L 440.698,139.366L 440.698,113.13L 443.308,112.873L 443.668,116.868C 444.864,115.502 446.102,114.435 447.383,113.666C 448.664,112.897 449.988,112.513 451.354,112.513C 451.765,112.513 452.27,112.556 452.867,112.641C 453.465,112.727 453.97,112.839 454.38,112.977L 453.66,115.844C 452.774,115.571 451.904,115.435 451.05,115.435C 449.684,115.435 448.393,115.794 447.179,116.512C 445.965,117.23 444.794,118.237 443.668,119.534L 443.668,139.366 Z "/>
		<path fill="#231F20" fill-opacity="1" stroke-width="0.2" stroke-linejoin="round" d="M 499.575,139.366L 496.397,139.366L 496.397,122.609L 476.357,122.609L 476.357,139.366L 473.187,139.366L 473.187,103.138L 476.357,103.138L 476.357,119.791L 496.397,119.791L 496.397,103.138L 499.575,103.138L 499.575,139.366 Z "/>
		<path fill="#231F20" fill-opacity="1" stroke-width="0.2" stroke-linejoin="round" d="M 525.603,139.366C 525.501,138.992 525.416,138.549 525.347,138.037C 525.277,137.524 525.208,136.993 525.138,136.443C 523.841,137.399 522.416,138.21 520.863,138.877C 519.31,139.544 517.73,139.878 516.124,139.878C 514.72,139.878 513.515,139.614 512.509,139.085C 511.503,138.557 510.666,137.839 509.999,136.932C 509.332,136.024 508.837,134.948 508.514,133.701C 508.191,132.455 508.029,131.114 508.029,129.678L 508.029,113.13L 511,112.873L 511,129.422C 511,130.484 511.093,131.485 511.28,132.424C 511.467,133.364 511.783,134.192 512.229,134.91C 512.674,135.628 513.264,136.191 513.998,136.599C 514.732,137.008 515.646,137.212 516.74,137.212C 518.107,137.212 519.516,136.896 520.967,136.263C 522.419,135.631 523.775,134.855 525.034,133.937L 525.034,113.13L 528.013,112.873L 528.013,133.113C 528.013,134.106 528.038,135.148 528.089,136.239C 528.139,137.331 528.301,138.373 528.573,139.366L 525.603,139.366 Z "/>
		<path fill="#231F20" fill-opacity="1" stroke-width="0.2" stroke-linejoin="round" d="M 539.181,139.366L 536.667,139.366L 536.667,101.04L 539.638,100.784L 539.638,116.26C 540.94,115.166 542.35,114.268 543.869,113.566C 545.387,112.864 547.001,112.513 548.708,112.513C 550.384,112.513 551.863,112.872 553.144,113.59C 554.425,114.308 555.51,115.274 556.398,116.488C 557.287,117.702 557.961,119.111 558.42,120.715C 558.879,122.319 559.108,124.01 559.108,125.787C 559.108,127.698 558.852,129.507 558.34,131.215C 557.827,132.923 557.076,134.418 556.086,135.699C 555.096,136.98 553.884,137.997 552.451,138.749C 551.018,139.502 549.378,139.878 547.532,139.878C 545.962,139.878 544.485,139.604 543.1,139.057C 541.715,138.51 540.529,137.844 539.541,137.06L 539.181,139.366 Z M 539.638,134.394C 540.7,135.178 541.879,135.844 543.176,136.391C 544.473,136.938 545.84,137.212 547.275,137.212C 548.743,137.212 550.024,136.896 551.118,136.263C 552.212,135.631 553.127,134.786 553.86,133.729C 554.594,132.673 555.149,131.452 555.526,130.066C 555.902,128.681 556.09,127.239 556.09,125.739C 556.09,124.303 555.919,122.953 555.578,121.688C 555.236,120.423 554.732,119.304 554.065,118.33C 553.397,117.355 552.577,116.587 551.603,116.024C 550.629,115.461 549.493,115.179 548.196,115.179C 546.659,115.179 545.147,115.53 543.661,116.232C 542.174,116.934 540.833,117.778 539.638,118.766L 539.638,134.394 Z "/>
	</g>
	<g>
		<path fill="#706CF5" fill-opacity="1" stroke-width="0.2" stroke-linejoin="round" d="M 111.937,-35.5694C 159.766,-35.5694 192.265,-3.07053 192.265,44.758L 192.265,77.2935L 192.203,80.8891C 190.613,126.743 158.557,157.621 111.937,157.621L 80.0708,157.621C 32.2423,157.621 -0.256653,126.168 -0.256653,78.3391L -0.256653,43.7123C -0.256653,-2.68797 30.3304,-33.6766 75.8278,-35.4858L 80.0708,-35.5696L 111.937,-35.5694 Z "/>
		<path fill="#FFFFFF" fill-opacity="1" stroke-width="0.2" stroke-linejoin="round" d="M 123.905,103.289C 115.904,108.583 106.311,111.666 95.9982,111.666C 76.1454,111.666 58.9608,100.242 50.6599,83.609C 46.4675,81.3993 42.6254,79.0927 39.1927,76.7327C 46.067,101.649 68.8958,119.948 95.9983,119.948C 112.092,119.948 126.678,113.496 137.312,103.037C 133.16,103.384 128.666,103.471 123.905,103.289 Z "/>
		<path fill="#FFFFFF" fill-opacity="1" stroke-width="0.2" stroke-linejoin="round" d="M 46.4503,71.537C 43.0433,69.45 39.951,67.3044 37.217,65.1322C 27.0756,57.0747 21.864,48.6512 23.8105,41.5C 25.7516,34.3689 34.4695,29.7548 47.2366,27.9381C 57.8378,12.3456 75.7219,2.1039 95.9982,2.1039C 127.246,2.1039 152.812,26.4273 154.796,57.1733C 164.934,65.2295 170.143,73.651 168.197,80.8009C 166.246,87.9693 157.447,92.5943 144.57,94.391C 141.107,94.8742 137.349,95.1529 133.35,95.2214C 120.313,95.4448 104.715,93.4352 88.4231,89.0008C 72.0867,84.554 57.5874,78.3591 46.4503,71.537 Z M 139.886,86.3067C 144.132,78.952 146.582,70.4304 146.637,61.341L 146.638,61.026C 146.638,33.0582 123.966,10.3858 95.9982,10.3858C 77.4035,10.3858 61.1497,20.4078 52.3436,35.3447C 47.9108,42.8637 45.3652,51.628 45.358,60.9864C 55.9072,68.0463 71.8498,75.008 90.2913,80.0275C 109.327,85.2088 127.116,87.2571 139.886,86.3067 Z M 150.006,84.6213C 155.085,83.1304 158.359,80.773 159.231,77.5705C 160.118,74.3115 158.417,70.546 154.659,66.6126L 154.58,67.3937C 153.928,73.4593 152.356,79.2493 150.006,84.6213 Z M 42.4496,36.408L 42.8763,35.5019C 36.8852,36.9762 33.0605,39.4672 32.1075,42.9684C 31.1646,46.4328 33.1465,50.4697 37.4147,54.672C 38.1071,48.2146 39.8427,42.0692 42.4496,36.408 Z "/>
	</g>
</svg>
