<?xml version="1.0" encoding="utf-8"?>
<!DOCTYPE svg PUBLIC "-//W3C//DTD SVG 1.1//EN" "http://www.w3.org/Graphics/SVG/1.1/DTD/svg11.dtd">
<svg xmlns="http://www.w3.org/2000/svg" xmlns:xlink="http://www.w3.org/1999/xlink" version="1.1" baseProfile="full" width="528.581" height="178.668" viewBox="0 0 528.58 178.67" enable-background="new 0 0 528.58 178.67" xml:space="preserve">
	<g>
		<path fill="#987FFF" fill-opacity="1" stroke-width="0.2" stroke-linejoin="round" d="M 58.374,1.04098C 69.1453,0.519493 79.9165,-0.00205231 90.1831,-0.00205231C 100.45,-0.00205231 110.212,0.519493 119.974,1.04098C 150.773,1.04098 177.306,27.5731 177.306,58.3722C 177.827,68.4363 178.348,78.5005 178.348,88.7671C 178.348,99.0337 177.827,109.503 177.306,119.972C 177.306,150.771 150.773,177.303 119.974,177.303C 110.342,177.825 100.711,178.346 90.4441,178.346C 80.1774,178.346 69.2758,177.825 58.374,177.303C 27.5751,177.303 1.04327,150.771 1.04327,119.972C 0.521729,108.981 0,97.9908 0,87.7241C 0,77.4575 0.521729,67.9148 1.04327,58.3721C 1.04327,27.5731 27.5751,1.04098 58.374,1.04098 Z "/>
		<path fill="#B5A5FE" fill-opacity="1" stroke-width="0.2" stroke-linejoin="round" d="M 89.7139,29.9796C 122.16,30.2652 148.375,56.6561 148.375,89.1698C 148.375,101.99 144.299,113.858 137.373,123.549C 126.637,138.571 109.053,148.362 89.1821,148.362C 82.1375,148.362 75.3802,147.132 69.1137,144.874C 67.2687,144.209 65.4661,143.455 63.7112,142.617C 44.1353,133.271 30.4985,113.487 30.0035,90.4672L 29.9896,89.1698C 29.9896,62.7353 47.3177,40.3478 71.2351,32.747C 76.8958,30.948 82.9256,29.9773 89.1821,29.9773L 89.7139,29.9796 Z "/>
		<g>
			<path fill="#FFFFFF" fill-opacity="1" stroke-width="0.2" stroke-linejoin="round" d="M 89.8182,32.6325L 89.5574,37.326L 92.6863,38.4993L 96.076,40.1941L 99.5961,40.5852L 102.986,41.4978L 104.681,42.0193L 107.027,43.5838L 107.027,45.5393L 107.158,48.0164L 107.94,50.2327L 111.33,52.1883L 113.807,53.7528L 115.11,53.7528L 115.241,55.3172L 115.371,57.7943L 114.328,59.3588L 113.155,61.184L 112.894,62.227L 114.328,64.0521L 116.153,65.3559L 117.457,65.6166L 119.413,64.4433L 121.498,61.8358L 123.454,60.6625L 125.149,61.0536L 127.626,61.8358L 129.973,63.5307L 131.016,64.1499L 131.016,65.6492L 130.69,68.1915L 129.516,68.2567L 127.887,67.2788L 124.953,67.0181L 121.498,67.9959L 120.39,68.713L 118.435,69.8211L 115.827,70.4078L 113.35,70.4078L 110.287,71.0597L 107.614,72.4286L 106.31,74.9057L 104.55,77.7738L 103.572,79.3383L 103.54,82.7931L 103.409,85.5309L 104.974,87.6169L 106.538,89.3117L 108.103,91.7888L 109.146,92.7014L 109.83,93.3207L 110.482,93.9726L 111.884,94.657L 113.122,94.5918L 114.328,93.5489L 115.893,92.4407L 116.61,91.3977L 117.555,90.5828L 119.054,90.5828L 119.967,91.6258L 120.781,92.7014L 122.036,93.598L 122.623,94.4454L 123.275,95.9447L 123.21,97.7047L 123.21,99.2691L 123.405,101.094L 124.057,102.268L 125.1,103.963L 125.361,106.57L 125.817,109.503L 125.85,111.296L 126.045,114.327L 126.045,116.478L 127.61,118.238L 129.663,119.509L 131.716,119.901L 133.477,120.683L 134.65,122.345C 134.65,122.345 136.41,123.518 136.899,123.518C 136.984,123.518 137.151,123.53 137.373,123.549C 144.299,113.858 148.375,101.99 148.375,89.1698C 148.375,56.656 122.16,30.2652 89.7142,29.9796L 89.8182,32.6325 Z "/>
			<path fill="#B5A5FE" fill-opacity="1" stroke-width="0.2" stroke-linejoin="round" d="M 35.453,89.9962L 30.4989,90.3873L 30.0038,90.4671C 30.4988,113.487 44.1356,133.271 63.7115,142.617L 63.6133,139.277L 63.8741,137.321L 64.7867,134.062L 64.7867,130.542L 65.0475,126.5L 64.9171,123.241L 63.483,121.285L 62.7007,119.33L 60.3541,117.505L 58.5289,115.679L 56.3125,113.072L 56.1821,110.204L 55.3999,106.945L 55.2695,103.555L 56.4429,101.599L 57.0947,99.5133L 56.9644,96.2541L 55.1392,95.6022L 53.9658,94.6896L 50.9673,93.2555L 47.3169,90.648L 45.7524,89.8658L 40.4072,90.2569L 35.453,89.9962 Z "/>
			<path fill="#FFFFFF" fill-opacity="1" stroke-width="0.2" stroke-linejoin="round" d="M 68.8278,143.644L 70.9138,141.427L 74.0426,138.429L 76.65,136.995L 79.3878,133.996L 82.5168,131.128L 84.4724,127.999L 86.2976,125.261L 87.6013,124.218L 88.1228,122.002L 89.0354,119.525L 89.948,116.918L 91.5125,114.701L 93.9895,113.137L 93.9895,108.183L 91.9036,106.618L 89.948,106.227L 87.6013,105.054L 85.3849,104.402L 80.6916,103.62L 78.3448,101.012L 76.9108,99.7084L 74.6945,96.9706L 72.2174,94.1024L 70.0011,91.8861L 67.1329,90.3216L 63.3521,90.0609L 61.0054,91.6253L 59.3105,92.2772L 56.5728,91.8861L 53.8029,89.768L 50.674,86.8347L 49.3051,84.9768L 45.8828,84.1946L 44.3183,83.3146L 43.6339,79.4035L 44.5139,78.0346L 46.9584,75.7857L 48.5228,75.199L 50.7717,76.3723L 52.7273,77.0568L 54.5851,76.2746L 54.9762,74.7101L 55.6606,72.3634L 57.1273,69.1367L 56.9318,66.301L 56.834,64.9322L 60.2563,61.7055L 62.9941,58.8699L 64.4608,58.5766L 64.9497,59.7499L 66.7097,59.7499L 68.5675,58.1854L 69.6105,55.8388L 70.5231,53.6224L 70.0016,51.5365L 70.0016,42.9319L 72.0875,41.4978L 74.4342,40.7156L 75.2164,39.9334L 76.2594,38.8904L 76.129,37.4563L 73.652,34.5881L 71.2354,32.7469C 47.3181,40.3477 29.9899,62.7351 29.9899,89.1698C 29.9899,89.6034 29.9945,90.0359 30.0038,90.4671L 30.4989,90.3873L 35.453,89.9962L 40.4072,90.2569L 45.7524,89.8658L 47.3169,90.648L 50.9673,93.2555L 53.9658,94.6896L 55.1392,95.6022L 56.9644,96.2541L 57.0947,99.5133L 56.4429,101.599L 55.2695,103.555L 55.3999,106.945L 56.1821,110.204L 56.3125,113.072L 58.5289,115.679L 60.3541,117.505L 62.7007,119.33L 63.483,121.285L 64.9171,123.241L 65.0475,126.5L 64.7867,130.542L 64.7867,134.062L 63.8741,137.321L 63.6133,139.277L 63.7115,142.617C 65.4664,143.455 67.2689,144.209 69.114,144.874L 68.8278,143.644 Z "/>
			<path fill="#B5A5FE" fill-opacity="1" stroke-width="0.2" stroke-linejoin="round" d="M 89.7142,29.9796C 89.5371,29.9781 89.3598,29.9773 89.1824,29.9773C 82.9258,29.9773 76.8961,30.9479 71.2354,32.7469L 73.652,34.5881L 76.129,37.4563L 76.2594,38.8904L 75.2164,39.9334L 74.4342,40.7156L 72.0875,41.4978L 70.0016,42.9319L 70.0016,51.5365L 70.5231,53.6224L 69.6105,55.8388L 68.5675,58.1854L 66.7097,59.7499L 64.9497,59.7499L 64.4608,58.5766L 62.9941,58.8699L 60.2563,61.7055L 56.834,64.9322L 56.9318,66.301L 57.1273,69.1367L 55.6606,72.3634L 54.9762,74.7101L 54.5851,76.2746L 52.7273,77.0568L 50.7717,76.3723L 48.5228,75.199L 46.9584,75.7857L 44.5139,78.0346L 43.6339,79.4035L 44.3183,83.3146L 45.8828,84.1946L 49.3051,84.9768L 50.674,86.8347L 53.8029,89.768L 56.5728,91.8861L 59.3105,92.2772L 61.0054,91.6253L 63.3521,90.0609L 67.1329,90.3216L 70.0011,91.8861L 72.2174,94.1024L 74.6945,96.9706L 76.9108,99.7084L 78.3448,101.012L 80.6916,103.62L 85.3849,104.402L 87.6013,105.054L 89.948,106.227L 91.9036,106.618L 93.9895,108.183L 93.9895,113.137L 91.5125,114.701L 89.948,116.918L 89.0354,119.525L 88.1228,122.002L 87.6013,124.218L 86.2976,125.261L 84.4724,127.999L 82.5168,131.128L 79.3878,133.996L 76.65,136.995L 74.0426,138.429L 70.9138,141.427L 68.8278,143.644L 69.114,144.874C 75.3805,147.132 82.1377,148.362 89.1824,148.362C 109.053,148.362 126.638,138.571 137.373,123.549C 137.151,123.53 136.984,123.518 136.899,123.518C 136.41,123.518 134.65,122.345 134.65,122.345L 133.477,120.683L 131.716,119.901L 129.663,119.509L 127.61,118.238L 126.045,116.478L 126.045,114.327L 125.85,111.296L 125.817,109.503L 125.361,106.57L 125.1,103.963L 124.057,102.268L 123.405,101.094L 123.21,99.2691L 123.21,97.7047L 123.275,95.9447L 122.623,94.4454L 122.036,93.598L 120.781,92.7014L 119.967,91.6258L 119.054,90.5828L 117.555,90.5828L 116.61,91.3977L 115.893,92.4407L 114.328,93.5489L 113.122,94.5918L 111.884,94.657L 110.482,93.9726L 109.83,93.3207L 109.146,92.7014L 108.103,91.7888L 106.538,89.3117L 104.974,87.6169L 103.409,85.5309L 103.54,82.7931L 103.572,79.3383L 104.55,77.7738L 106.31,74.9057L 107.614,72.4286L 110.287,71.0597L 113.35,70.4078L 115.827,70.4078L 118.435,69.8211L 120.39,68.713L 121.498,67.9959L 124.953,67.0181L 127.887,67.2788L 129.516,68.2567L 130.69,68.1915L 131.016,65.6492L 131.016,64.1499L 129.973,63.5307L 127.626,61.8358L 125.149,61.0536L 123.454,60.6625L 121.498,61.8358L 119.413,64.4433L 117.457,65.6166L 116.153,65.3559L 114.328,64.0521L 112.894,62.227L 113.155,61.184L 114.328,59.3588L 115.371,57.7943L 115.241,55.3172L 115.11,53.7528L 113.807,53.7528L 111.33,52.1883L 107.94,50.2327L 107.158,48.0164L 107.027,45.5393L 107.027,43.5838L 104.681,42.0193L 102.986,41.4978L 99.5961,40.5852L 96.076,40.1941L 92.6863,38.4993L 89.5574,37.326L 89.8182,32.6325L 89.7142,29.9796 Z "/>
		</g>
	</g>
	<g>
		<g>
			<path fill="#231F20" fill-opacity="1" stroke-width="0.2" stroke-linejoin="round" d="M 370.615,24.4169L 370.272,4.60195L 376.525,4.60195L 376.525,29.5914L 367.535,29.5914L 361.296,9.08596L 361.157,9.08596L 361.506,29.5914L 355.302,29.5914L 355.302,4.60195L 364.671,4.60195L 370.478,24.4169L 370.615,24.4169 Z "/>
			<path fill="#231F20" fill-opacity="1" stroke-width="0.2" stroke-linejoin="round" d="M 257.006,6.9324L 253.55,29.8505L 246.728,29.8505L 251.406,4.60354L 262.644,4.60354L 267.296,29.8505L 260.515,29.8505L 257.147,6.9324L 257.006,6.9324 Z "/>
			<path fill="#231F20" fill-opacity="1" stroke-width="0.2" stroke-linejoin="round" d="M 286.437,23.9071L 289.557,4.60262L 299.85,4.60262L 300.41,29.8495L 294.091,29.8495L 293.928,7.14559L 293.791,7.15182L 289.574,29.8495L 283.172,29.8495L 278.95,7.14559L 278.809,7.14559L 278.649,29.8495L 272.338,29.8495L 272.896,4.60262L 283.192,4.60262L 286.299,23.9071L 286.437,23.9071 Z "/>
			<path fill="#231F20" fill-opacity="1" stroke-width="0.2" stroke-linejoin="round" d="M 236.102,22.7222C 236.35,23.3319 236.268,24.1186 236.152,24.5949C 235.945,25.4188 235.377,26.2783 233.694,26.2783C 232.118,26.2783 231.154,25.3754 231.154,24.0007L 231.149,21.5492L 224.378,21.5492L 224.378,23.5026C 224.378,29.1317 228.811,30.826 233.551,30.826C 238.127,30.826 241.877,29.2744 242.48,25.0635C 242.789,22.8789 242.561,21.4484 242.456,20.9146C 241.385,15.6254 231.806,14.0598 231.09,11.0949C 230.969,10.5781 230.997,10.0646 231.061,9.77596C 231.244,8.9645 231.792,8.0801 233.37,8.0801C 234.851,8.0801 235.716,8.99245 235.716,10.3656L 235.716,11.9234L 242.018,11.9234L 242.018,10.1577C 242.018,4.65585 237.078,3.79629 233.503,3.79629C 229.015,3.79629 225.351,5.2842 224.676,9.40511C 224.495,10.5177 224.468,11.5277 224.74,12.803C 225.832,17.962 234.802,19.4577 236.102,22.7222 Z "/>
			<path fill="#231F20" fill-opacity="1" stroke-width="0.2" stroke-linejoin="round" d="M 318.191,22.6723C 318.426,23.2773 318.355,24.0531 318.239,24.5279C 318.036,25.3595 317.468,26.1912 315.801,26.1912C 314.234,26.1912 313.289,25.3052 313.289,23.9383L 313.286,21.5101L 306.58,21.5101L 306.576,23.4403C 306.576,29.0197 310.967,30.6891 315.666,30.6891C 320.187,30.6891 323.905,29.1609 324.498,24.9887C 324.805,22.8289 324.578,21.4124 324.473,20.877C 323.415,15.6453 313.928,14.0921 313.229,11.1581C 313.105,10.6523 313.139,10.1434 313.196,9.86098C 313.376,9.05416 313.916,8.17751 315.48,8.17751C 316.946,8.17751 317.803,9.08059 317.803,10.4304L 317.803,11.9773L 324.042,11.9773L 324.042,10.2349C 324.042,4.78896 319.148,3.94027 315.617,3.94027C 311.17,3.94027 307.539,5.394 306.877,9.48403C 306.692,10.5886 306.664,11.5895 306.932,12.8493C 308.019,17.9617 316.9,19.4435 318.191,22.6723 Z "/>
			<path fill="#231F20" fill-opacity="1" stroke-width="0.2" stroke-linejoin="round" d="M 339.381,26.055C 341.134,26.055 341.679,24.8633 341.804,24.235C 341.859,23.9619 341.868,23.5957 341.865,23.2699L 341.865,4.59841L 348.267,4.59841L 348.267,22.6927C 348.271,23.1597 348.223,24.1109 348.197,24.3606C 347.756,29.0681 344.025,30.5901 339.381,30.5901C 334.74,30.5901 331.01,29.0681 330.574,24.3606C 330.554,24.1109 330.503,23.1597 330.514,22.6927L 330.514,4.59841L 336.897,4.59841L 336.897,23.2699C 336.892,23.5957 336.904,23.9619 336.957,24.235C 337.084,24.8633 337.629,26.055 339.381,26.055 Z "/>
			<path fill="#231F20" fill-opacity="1" stroke-width="0.2" stroke-linejoin="round" d="M 392.055,25.7973C 393.88,25.7973 394.519,24.6461 394.637,23.9728C 394.685,23.6857 394.703,23.3319 394.694,23.0108L 394.694,19.3507L 392.109,19.3507L 392.109,15.658L 401.043,15.658L 401.043,22.432C 401.04,22.9053 401.034,23.2559 400.964,24.0984C 400.543,28.6926 396.55,30.3372 392.08,30.3372C 387.605,30.3372 383.616,28.6926 383.202,24.0984C 383.129,23.2559 383.116,22.9053 383.113,22.432L 383.116,11.8101C 383.116,11.3555 383.171,10.5626 383.223,10.1577C 383.784,5.42074 387.605,3.91726 392.083,3.91726C 396.556,3.91726 400.483,5.40835 400.948,10.1577C 401.021,10.9442 400.995,11.8101 400.998,11.8101L 400.998,12.6494L 394.637,12.6494L 394.637,11.2313C 394.637,11.2313 394.63,10.6324 394.554,10.2818C 394.44,9.72634 393.962,8.44314 392.03,8.44314C 390.199,8.44314 389.656,9.65804 389.517,10.2818C 389.444,10.6013 389.414,11.0514 389.414,11.4641L 389.414,23.0108C 389.411,23.3319 389.427,23.6857 389.472,23.9728C 389.593,24.6461 390.229,25.7973 392.055,25.7973 Z "/>
			<rect x="216.698" y="48.2276" fill="#231F20" fill-opacity="1" stroke-width="0.2" stroke-linejoin="round" width="11.0145" height="59.1221"/>
			<path fill="#231F20" fill-opacity="1" stroke-width="0.2" stroke-linejoin="round" d="M 235.075,59.9695L 245.929,59.9695L 245.929,66.4426C 247.492,64.4644 249.476,62.8787 251.883,61.6825C 254.281,60.4862 257.023,59.8874 260.101,59.8874C 265.988,59.8874 270.595,61.6375 273.909,65.1377C 277.232,68.6334 278.892,73.5084 278.892,79.7628L 278.892,107.349L 267.8,107.349L 267.8,80.9994C 267.8,77.4107 266.903,74.5759 265.124,72.4891C 263.344,70.4068 260.668,69.3658 257.108,69.3658C 253.971,69.3658 251.341,70.4457 249.205,72.6085C 247.076,74.7745 246.01,77.8838 246.01,81.9489L 246.01,107.349L 235.075,107.349L 235.075,59.9695 Z "/>
			<path fill="#231F20" fill-opacity="1" stroke-width="0.2" stroke-linejoin="round" d="M 281.482,59.9695L 289.583,59.9695L 289.583,52.7625L 300.596,45.2297L 300.596,59.9695L 310.233,59.9695L 310.233,69.7708L 300.596,69.7708L 300.596,87.5082C 300.596,89.5609 300.703,91.2211 300.918,92.4871C 301.137,93.7562 301.586,94.7275 302.258,95.4041C 302.929,96.079 303.905,96.5243 305.171,96.7415C 306.444,96.9556 308.13,97.0642 310.233,97.0642L 310.233,107.349L 308.696,107.349C 305.026,107.349 301.961,107.027 299.502,106.378C 297.044,105.728 295.092,104.637 293.629,103.098C 292.174,101.559 291.133,99.5327 290.512,97.0254C 289.893,94.5134 289.583,91.3669 289.583,87.5857L 289.583,69.7708L 281.482,69.7708L 281.482,59.9695 Z "/>
			<path fill="#231F20" fill-opacity="1" stroke-width="0.2" stroke-linejoin="round" d="M 336.967,69.5267C 333.678,69.5267 330.823,70.2559 328.424,71.7081C 326.018,73.1651 324.331,75.0828 323.361,77.4629L 350.253,77.4629C 349.443,74.8624 347.874,72.8889 345.555,71.5437C 343.234,70.2 340.366,69.5267 336.967,69.5267 Z M 337.375,107.433C 333.65,107.433 330.244,106.82 327.166,105.597C 324.094,104.373 321.458,102.696 319.27,100.561C 317.087,98.4291 315.388,95.9171 314.168,93.0266C 312.955,90.1406 312.348,87.0562 312.348,83.7777C 312.348,80.4481 312.981,77.3233 314.252,74.4079C 315.52,71.4941 317.259,68.9697 319.475,66.8378C 321.687,64.7029 324.292,63.0116 327.291,61.7627C 330.289,60.5137 333.512,59.8883 336.967,59.8883C 340.48,59.8883 343.729,60.4578 346.728,61.5982C 349.727,62.7355 352.304,64.3289 354.466,66.3801C 356.621,68.4297 358.309,70.8487 359.528,73.6321C 360.74,76.4171 361.347,79.4535 361.347,82.7459L 361.347,86.6171L 322.795,86.6171C 323.552,89.9654 325.194,92.6651 327.732,94.7146C 330.27,96.7674 333.487,97.7929 337.375,97.7929C 340.453,97.7929 343.122,97.0373 345.39,95.5246C 347.657,94.0134 349.358,91.9901 350.492,89.4518L 359.482,94.6355C 357.43,98.4679 354.559,101.56 350.86,103.909C 347.156,106.255 342.667,107.433 337.375,107.433 Z "/>
			<path fill="#231F20" fill-opacity="1" stroke-width="0.2" stroke-linejoin="round" d="M 366.204,59.9695L 377.06,59.9695L 377.06,67.0167C 379.274,62.3202 383.321,59.9695 389.208,59.9695C 390.933,59.9695 392.489,60.1619 393.867,60.5374C 395.238,60.9159 396.47,61.4 397.552,61.9928L 393.418,72.3603C 392.609,71.8234 391.706,71.3765 390.703,71.0259C 389.707,70.6737 388.422,70.4999 386.86,70.4999C 383.672,70.4999 381.257,71.403 379.611,73.2121C 377.962,75.0211 377.139,77.977 377.139,82.0792L 377.139,107.349L 366.204,107.349L 366.204,59.9695 Z "/>
			<path fill="#231F20" fill-opacity="1" stroke-width="0.2" stroke-linejoin="round" d="M 401.111,59.9695L 411.966,59.9695L 411.966,66.4426C 413.528,64.4644 415.511,62.8787 417.918,61.6825C 420.316,60.4862 423.06,59.8874 426.138,59.8874C 432.023,59.8874 436.631,61.6375 439.945,65.1377C 443.267,68.6334 444.927,73.5084 444.927,79.7628L 444.927,107.349L 433.835,107.349L 433.835,80.9994C 433.835,77.4107 432.94,74.5759 431.159,72.4891C 429.381,70.4068 426.704,69.3658 423.145,69.3658C 420.008,69.3658 417.376,70.4457 415.241,72.6085C 413.113,74.7745 412.045,77.8838 412.045,81.9489L 412.045,107.349L 401.111,107.349L 401.111,59.9695 Z "/>
			<path fill="#231F20" fill-opacity="1" stroke-width="0.2" stroke-linejoin="round" d="M 474.324,69.5267C 471.036,69.5267 468.181,70.2559 465.783,71.7081C 463.376,73.1651 461.688,75.0828 460.72,77.4629L 487.611,77.4629C 486.802,74.8624 485.233,72.8889 482.912,71.5437C 480.592,70.2 477.725,69.5267 474.324,69.5267 Z M 474.733,107.433C 471.008,107.433 467.601,106.82 464.524,105.597C 461.452,104.373 458.816,102.696 456.628,100.561C 454.445,98.4291 452.745,95.9171 451.527,93.0266C 450.312,90.1406 449.707,87.0562 449.707,83.7777C 449.707,80.4481 450.34,77.3233 451.611,74.4079C 452.877,71.4941 454.617,68.9697 456.832,66.8378C 459.046,64.7029 461.649,63.0116 464.65,61.7627C 467.648,60.5137 470.87,59.8883 474.324,59.8883C 477.838,59.8883 481.086,60.4578 484.086,61.5982C 487.085,62.7355 489.663,64.3289 491.824,66.3801C 493.979,68.4297 495.667,70.8487 496.885,73.6321C 498.098,76.4171 498.705,79.4535 498.705,82.7459L 498.705,86.6171L 460.153,86.6171C 460.911,89.9654 462.552,92.6651 465.091,94.7146C 467.629,96.7674 470.845,97.7929 474.733,97.7929C 477.81,97.7929 480.48,97.0373 482.749,95.5246C 485.016,94.0134 486.715,91.9901 487.849,89.4518L 496.84,94.6355C 494.789,98.4679 491.915,101.56 488.218,103.909C 484.513,106.255 480.026,107.433 474.733,107.433 Z "/>
			<path fill="#231F20" fill-opacity="1" stroke-width="0.2" stroke-linejoin="round" d="M 499.832,59.9695L 507.933,59.9695L 507.933,52.7625L 518.946,45.2297L 518.946,59.9695L 528.581,59.9695L 528.581,69.7708L 518.946,69.7708L 518.946,87.5082C 518.946,89.5609 519.051,91.2211 519.268,92.4871C 519.486,93.7562 519.934,94.7275 520.607,95.4041C 521.279,96.079 522.254,96.5243 523.521,96.7415C 524.792,96.9556 526.48,97.0642 528.581,97.0642L 528.581,107.349L 527.046,107.349C 523.375,107.349 520.31,107.027 517.852,106.378C 515.393,105.728 513.441,104.637 511.979,103.098C 510.522,101.559 509.481,99.5327 508.861,97.0254C 508.242,94.5134 507.933,91.3669 507.933,87.5857L 507.933,69.7708L 499.832,69.7708L 499.832,59.9695 Z "/>
		</g>
		<g>
			<path fill="#231F20" fill-opacity="1" stroke-width="0.2" stroke-linejoin="round" d="M 226.92,159.069C 228.935,159.069 230.727,158.716 232.294,158.011C 233.862,157.306 235.198,156.314 236.303,155.034C 237.408,153.754 238.248,152.243 238.823,150.5C 239.398,148.758 239.685,146.846 239.685,144.766C 239.685,142.686 239.398,140.766 238.823,139.006C 238.248,137.246 237.408,135.734 236.303,134.469C 235.198,133.204 233.862,132.211 232.294,131.491C 230.727,130.771 228.935,130.411 226.92,130.411L 219.668,130.411L 219.668,159.069L 226.92,159.069 Z M 216.698,161.709L 216.698,127.771L 227.205,127.771C 229.575,127.771 231.712,128.188 233.614,129.02C 235.516,129.853 237.14,131.021 238.485,132.526C 239.83,134.031 240.87,135.824 241.605,137.904C 242.34,139.984 242.708,142.271 242.708,144.766C 242.708,147.261 242.34,149.549 241.605,151.629C 240.87,153.709 239.83,155.493 238.485,156.98C 237.14,158.468 235.516,159.628 233.614,160.46C 231.712,161.293 229.575,161.709 227.205,161.709L 216.698,161.709 Z "/>
			<path fill="#231F20" fill-opacity="1" stroke-width="0.2" stroke-linejoin="round" d="M 267.578,159.931C 266.393,160.666 265.136,161.226 263.809,161.611C 262.481,161.996 261.065,162.189 259.56,162.189C 257.705,162.189 256.049,161.876 254.591,161.251C 253.134,160.626 251.909,159.754 250.916,158.634C 249.924,157.514 249.164,156.154 248.636,154.554C 248.109,152.954 247.845,151.179 247.845,149.229C 247.845,147.499 248.054,145.866 248.471,144.331C 248.889,142.796 249.521,141.453 250.369,140.3C 251.216,139.148 252.288,138.235 253.583,137.563C 254.878,136.89 256.405,136.554 258.165,136.554C 259.735,136.554 261.136,136.834 262.369,137.394C 263.602,137.954 264.641,138.723 265.489,139.7C 266.336,140.678 266.977,141.846 267.409,143.206C 267.841,144.566 268.058,146.046 268.058,147.646C 268.058,148.091 268.041,148.539 268.009,148.989C 267.977,149.439 267.928,149.839 267.863,150.189L 250.68,150.189C 250.84,153.164 251.688,155.491 253.223,157.171C 254.758,158.851 256.903,159.691 259.658,159.691C 260.873,159.691 262.057,159.515 263.209,159.163C 264.362,158.81 265.498,158.314 266.618,157.674L 267.578,159.931 Z M 265.32,147.886C 265.285,145.166 264.676,143.014 263.494,141.429C 262.311,139.844 260.553,139.051 258.218,139.051C 256.968,139.051 255.886,139.284 254.974,139.749C 254.061,140.214 253.294,140.846 252.672,141.646C 252.049,142.446 251.578,143.383 251.258,144.455C 250.938,145.528 250.728,146.671 250.628,147.886L 265.32,147.886 Z "/>
			<path fill="#231F20" fill-opacity="1" stroke-width="0.2" stroke-linejoin="round" d="M 283.268,161.709L 280.245,161.709L 270.938,137.034L 273.96,137.034L 281.738,158.491L 289.703,137.034L 292.538,137.034L 283.268,161.709 Z "/>
			<path fill="#231F20" fill-opacity="1" stroke-width="0.2" stroke-linejoin="round" d="M 315.098,159.931C 313.913,160.666 312.656,161.226 311.329,161.611C 310.001,161.996 308.585,162.189 307.08,162.189C 305.225,162.189 303.569,161.876 302.112,161.251C 300.654,160.626 299.429,159.754 298.436,158.634C 297.444,157.514 296.684,156.154 296.156,154.554C 295.629,152.954 295.365,151.179 295.365,149.229C 295.365,147.499 295.574,145.866 295.991,144.331C 296.409,142.796 297.042,141.453 297.889,140.3C 298.737,139.148 299.808,138.235 301.103,137.563C 302.398,136.89 303.925,136.554 305.685,136.554C 307.255,136.554 308.656,136.834 309.889,137.394C 311.122,137.954 312.161,138.723 313.009,139.7C 313.856,140.678 314.497,141.846 314.929,143.206C 315.362,144.566 315.578,146.046 315.578,147.646C 315.578,148.091 315.561,148.539 315.529,148.989C 315.497,149.439 315.448,149.839 315.383,150.189L 298.2,150.189C 298.36,153.164 299.208,155.491 300.743,157.171C 302.278,158.851 304.423,159.691 307.178,159.691C 308.393,159.691 309.577,159.515 310.729,159.163C 311.882,158.81 313.018,158.314 314.138,157.674L 315.098,159.931 Z M 312.84,147.886C 312.805,145.166 312.196,143.014 311.014,141.429C 309.831,139.844 308.073,139.051 305.738,139.051C 304.488,139.051 303.406,139.284 302.494,139.749C 301.581,140.214 300.814,140.846 300.192,141.646C 299.569,142.446 299.098,143.383 298.778,144.455C 298.458,145.528 298.248,146.671 298.148,147.886L 312.84,147.886 Z "/>
			<path fill="#231F20" fill-opacity="1" stroke-width="0.2" stroke-linejoin="round" d="M 325.028,161.709L 322.245,161.709L 322.245,125.806L 325.028,125.566L 325.028,161.709 Z "/>
			<path fill="#231F20" fill-opacity="1" stroke-width="0.2" stroke-linejoin="round" d="M 346.298,158.926C 347.353,158.411 348.231,157.69 348.934,156.763C 349.636,155.835 350.173,154.748 350.543,153.5C 350.913,152.253 351.098,150.876 351.098,149.371C 351.098,147.901 350.913,146.534 350.543,145.269C 350.173,144.004 349.636,142.908 348.934,141.98C 348.231,141.053 347.351,140.333 346.294,139.82C 345.236,139.308 344.02,139.051 342.645,139.051C 341.27,139.051 340.055,139.308 339,139.82C 337.945,140.333 337.065,141.053 336.36,141.98C 335.655,142.908 335.119,144.004 334.751,145.269C 334.384,146.534 334.2,147.901 334.2,149.371C 334.2,150.876 334.384,152.253 334.751,153.5C 335.119,154.748 335.655,155.835 336.36,156.763C 337.065,157.69 337.945,158.41 339,158.923C 340.055,159.435 341.27,159.691 342.645,159.691C 344.02,159.691 345.238,159.436 346.298,158.926 Z M 350.948,158.634C 349.988,159.754 348.813,160.626 347.423,161.251C 346.033,161.876 344.44,162.189 342.645,162.189C 340.855,162.189 339.264,161.876 337.871,161.251C 336.479,160.626 335.303,159.746 334.343,158.611C 333.383,157.476 332.646,156.125 332.134,154.558C 331.621,152.99 331.365,151.261 331.365,149.371C 331.365,147.486 331.621,145.759 332.134,144.189C 332.646,142.619 333.383,141.266 334.343,140.131C 335.303,138.996 336.479,138.116 337.871,137.491C 339.264,136.866 340.855,136.554 342.645,136.554C 344.44,136.554 346.033,136.866 347.423,137.491C 348.813,138.116 349.988,138.996 350.948,140.131C 351.908,141.266 352.644,142.619 353.156,144.189C 353.669,145.759 353.925,147.486 353.925,149.371C 353.925,151.261 353.669,152.99 353.156,154.558C 352.644,156.125 351.908,157.484 350.948,158.634 Z "/>
			<path fill="#231F20" fill-opacity="1" stroke-width="0.2" stroke-linejoin="round" d="M 363.285,172.846L 360.503,172.846L 360.503,137.131L 362.948,136.891L 363.24,140.064C 364.485,139.039 365.82,138.198 367.245,137.54C 368.67,136.883 370.183,136.554 371.783,136.554C 373.353,136.554 374.738,136.89 375.938,137.563C 377.138,138.235 378.153,139.14 378.983,140.278C 379.813,141.415 380.444,142.735 380.876,144.238C 381.309,145.74 381.525,147.324 381.525,148.989C 381.525,150.779 381.285,152.474 380.805,154.074C 380.325,155.674 379.622,157.074 378.694,158.274C 377.767,159.474 376.639,160.426 375.312,161.131C 373.984,161.836 372.455,162.189 370.725,162.189C 369.255,162.189 367.888,161.949 366.623,161.469C 365.358,160.989 364.245,160.381 363.285,159.646L 363.285,172.846 Z M 363.285,157.051C 364.28,157.786 365.393,158.41 366.623,158.923C 367.853,159.435 369.125,159.691 370.44,159.691C 371.815,159.691 373.023,159.395 374.063,158.803C 375.103,158.21 375.966,157.419 376.654,156.429C 377.341,155.439 377.854,154.295 378.192,152.998C 378.529,151.7 378.698,150.349 378.698,148.944C 378.698,147.599 378.538,146.334 378.218,145.149C 377.898,143.964 377.425,142.915 376.8,142.003C 376.175,141.09 375.406,140.37 374.494,139.843C 373.582,139.315 372.518,139.051 371.303,139.051C 369.863,139.051 368.447,139.38 367.054,140.038C 365.662,140.695 364.405,141.486 363.285,142.411L 363.285,157.051 Z "/>
			<path fill="#231F20" fill-opacity="1" stroke-width="0.2" stroke-linejoin="round" d="M 405.818,159.931C 404.633,160.666 403.376,161.226 402.049,161.611C 400.721,161.996 399.305,162.189 397.8,162.189C 395.945,162.189 394.289,161.876 392.831,161.251C 391.374,160.626 390.149,159.754 389.156,158.634C 388.164,157.514 387.404,156.154 386.876,154.554C 386.349,152.954 386.085,151.179 386.085,149.229C 386.085,147.499 386.294,145.866 386.711,144.331C 387.129,142.796 387.761,141.453 388.609,140.3C 389.456,139.148 390.528,138.235 391.823,137.563C 393.118,136.89 394.645,136.554 396.405,136.554C 397.975,136.554 399.376,136.834 400.609,137.394C 401.841,137.954 402.881,138.723 403.729,139.7C 404.576,140.678 405.216,141.846 405.649,143.206C 406.081,144.566 406.298,146.046 406.298,147.646C 406.298,148.091 406.281,148.539 406.249,148.989C 406.216,149.439 406.168,149.839 406.103,150.189L 388.92,150.189C 389.08,153.164 389.928,155.491 391.463,157.171C 392.998,158.851 395.143,159.691 397.898,159.691C 399.113,159.691 400.297,159.515 401.449,159.163C 402.602,158.81 403.738,158.314 404.858,157.674L 405.818,159.931 Z M 403.56,147.886C 403.525,145.166 402.916,143.014 401.734,141.429C 400.551,139.844 398.793,139.051 396.458,139.051C 395.208,139.051 394.126,139.284 393.214,139.749C 392.301,140.214 391.534,140.846 390.911,141.646C 390.289,142.446 389.818,143.383 389.498,144.455C 389.178,145.528 388.968,146.671 388.868,147.886L 403.56,147.886 Z "/>
			<path fill="#231F20" fill-opacity="1" stroke-width="0.2" stroke-linejoin="round" d="M 415.605,161.709L 412.823,161.709L 412.823,137.131L 415.268,136.891L 415.605,140.634C 416.725,139.354 417.885,138.354 419.085,137.634C 420.285,136.914 421.525,136.554 422.805,136.554C 423.19,136.554 423.663,136.594 424.223,136.674C 424.783,136.754 425.255,136.859 425.64,136.989L 424.965,139.674C 424.135,139.419 423.32,139.291 422.52,139.291C 421.24,139.291 420.031,139.628 418.894,140.3C 417.757,140.973 416.66,141.916 415.605,143.131L 415.605,161.709 Z "/>
			<path fill="#231F20" fill-opacity="1" stroke-width="0.2" stroke-linejoin="round" d="M 467.978,161.709L 465,161.709L 465,146.011L 446.228,146.011L 446.228,161.709L 443.258,161.709L 443.258,127.771L 446.228,127.771L 446.228,143.371L 465,143.371L 465,127.771L 467.978,127.771L 467.978,161.709 Z "/>
			<path fill="#231F20" fill-opacity="1" stroke-width="0.2" stroke-linejoin="round" d="M 492.36,161.709C 492.265,161.359 492.185,160.944 492.12,160.464C 492.055,159.984 491.99,159.486 491.925,158.971C 490.71,159.866 489.375,160.626 487.92,161.251C 486.465,161.876 484.985,162.189 483.48,162.189C 482.165,162.189 481.036,161.941 480.094,161.446C 479.151,160.951 478.368,160.279 477.743,159.429C 477.118,158.579 476.654,157.57 476.352,156.403C 476.049,155.235 475.898,153.979 475.898,152.634L 475.898,137.131L 478.68,136.891L 478.68,152.394C 478.68,153.389 478.768,154.326 478.943,155.206C 479.118,156.086 479.414,156.863 479.831,157.535C 480.249,158.208 480.802,158.735 481.489,159.118C 482.177,159.5 483.033,159.691 484.058,159.691C 485.338,159.691 486.658,159.395 488.018,158.803C 489.378,158.21 490.648,157.484 491.828,156.624L 491.828,137.131L 494.618,136.891L 494.618,155.851C 494.618,156.781 494.641,157.758 494.689,158.78C 494.737,159.803 494.888,160.779 495.143,161.709L 492.36,161.709 Z "/>
			<path fill="#231F20" fill-opacity="1" stroke-width="0.2" stroke-linejoin="round" d="M 505.08,161.709L 502.725,161.709L 502.725,125.806L 505.508,125.566L 505.508,140.064C 506.728,139.039 508.049,138.198 509.471,137.54C 510.894,136.883 512.405,136.554 514.005,136.554C 515.575,136.554 516.96,136.89 518.16,137.563C 519.36,138.235 520.377,139.14 521.209,140.278C 522.042,141.415 522.673,142.735 523.103,144.238C 523.533,145.74 523.748,147.324 523.748,148.989C 523.748,150.779 523.508,152.474 523.028,154.074C 522.548,155.674 521.844,157.074 520.917,158.274C 519.989,159.474 518.854,160.426 517.512,161.131C 516.169,161.836 514.633,162.189 512.903,162.189C 511.433,162.189 510.049,161.933 508.752,161.42C 507.454,160.908 506.343,160.284 505.418,159.549L 505.08,161.709 Z M 505.508,157.051C 506.503,157.786 507.608,158.41 508.823,158.923C 510.038,159.435 511.318,159.691 512.663,159.691C 514.038,159.691 515.238,159.395 516.263,158.803C 517.288,158.21 518.144,157.419 518.831,156.429C 519.519,155.439 520.039,154.295 520.392,152.998C 520.744,151.7 520.92,150.349 520.92,148.944C 520.92,147.599 520.76,146.334 520.44,145.149C 520.12,143.964 519.648,142.915 519.023,142.003C 518.398,141.09 517.629,140.37 516.716,139.843C 515.804,139.315 514.74,139.051 513.525,139.051C 512.085,139.051 510.669,139.38 509.276,140.038C 507.884,140.695 506.628,141.486 505.508,142.411L 505.508,157.051 Z "/>
		</g>
	</g>
	<g>
		<path fill="#706CF5" fill-opacity="1" stroke-width="0.2" stroke-linejoin="round" d="M 104.845,-2.16758C 149.65,-2.16758 180.094,28.2769 180.094,73.0819L 180.094,103.561L 180.036,106.929C 178.547,149.885 148.518,178.81 104.845,178.81L 74.9928,178.81C 30.1879,178.81 -0.256653,149.345 -0.256653,104.54L -0.256653,72.1024C -0.256653,28.6353 28.3969,-0.394386 71.0181,-2.08921L 74.9928,-2.16764L 104.845,-2.16758 Z "/>
		<path fill="#FFFFFF" fill-opacity="1" stroke-width="0.2" stroke-linejoin="round" d="M 116.056,127.913C 108.561,132.873 99.5742,135.76 89.9134,135.76C 71.3156,135.76 55.2174,125.058 47.4412,109.477C 43.5138,107.407 39.9146,105.246 36.699,103.035C 43.1387,126.377 64.5242,143.519 89.9135,143.519C 104.99,143.519 118.654,137.474 128.616,127.677C 124.726,128.002 120.516,128.083 116.056,127.913 Z "/>
		<path fill="#FFFFFF" fill-opacity="1" stroke-width="0.2" stroke-linejoin="round" d="M 43.4977,98.1681C 40.3061,96.213 37.4093,94.2031 34.8481,92.1682C 25.3478,84.62 20.4656,76.729 22.2891,70.0299C 24.1074,63.3496 32.2743,59.0272 44.2343,57.3253C 54.1653,42.7185 70.9189,33.1243 89.9134,33.1243C 119.185,33.1243 143.136,55.9101 144.995,84.7124C 154.491,92.2593 159.371,100.149 157.548,106.846C 155.72,113.562 147.477,117.894 135.415,119.577C 132.171,120.03 128.65,120.291 124.904,120.355C 112.691,120.565 98.0791,118.682 82.8171,114.528C 67.5134,110.362 53.9308,104.559 43.4977,98.1681 Z M 131.027,112.004C 135.004,105.114 137.3,97.1315 137.351,88.6167L 137.352,88.3216C 137.352,62.1217 116.113,40.8827 89.9133,40.8827C 72.4942,40.8827 57.2679,50.2711 49.0184,64.2638C 44.8658,71.3074 42.4811,79.5177 42.4744,88.2844C 52.3568,94.898 67.2916,101.42 84.5672,106.122C 102.399,110.976 119.064,112.894 131.027,112.004 Z M 140.507,110.425C 145.265,109.029 148.332,106.82 149.149,103.82C 149.98,100.767 148.386,97.2398 144.866,93.555L 144.792,94.2867C 144.181,99.9689 142.709,105.393 140.507,110.425 Z M 39.7499,65.2598L 40.1497,64.411C 34.5372,65.7921 30.9543,68.1256 30.0616,71.4055C 29.1782,74.6509 31.0349,78.4325 35.0332,82.3693C 35.6819,76.32 37.3077,70.5631 39.7499,65.2598 Z "/>
	</g>
</svg>
