<?xml version="1.0" encoding="utf-8"?>
<!DOCTYPE svg PUBLIC "-//W3C//DTD SVG 1.1//EN" "http://www.w3.org/Graphics/SVG/1.1/DTD/svg11.dtd">
<svg xmlns="http://www.w3.org/2000/svg" xmlns:xlink="http://www.w3.org/1999/xlink" version="1.1" baseProfile="full" width="528.581" height="178.668" viewBox="0 0 528.58 178.67" enable-background="new 0 0 528.58 178.67" xml:space="preserve">
	<g>
		<path fill="#987FFF" fill-opacity="1" stroke-width="0.2" stroke-linejoin="round" d="M 58.374,1.04098C 69.1453,0.519493 79.9165,-0.00205231 90.1831,-0.00205231C 100.45,-0.00205231 110.212,0.519493 119.974,1.04098C 150.773,1.04098 177.306,27.5731 177.306,58.3722C 177.827,68.4363 178.348,78.5005 178.348,88.7671C 178.348,99.0337 177.827,109.503 177.306,119.972C 177.306,150.771 150.773,177.303 119.974,177.303C 110.342,177.825 100.711,178.346 90.4441,178.346C 80.1774,178.346 69.2758,177.825 58.374,177.303C 27.5751,177.303 1.04327,150.771 1.04327,119.972C 0.521729,108.981 0,97.9908 0,87.7241C 0,77.4575 0.521729,67.9148 1.04327,58.3721C 1.04327,27.5731 27.5751,1.04098 58.374,1.04098 Z "/>
		<path fill="#B5A5FE" fill-opacity="1" stroke-width="0.2" stroke-linejoin="round" d="M 89.7139,29.9796C 122.16,30.2652 148.375,56.6561 148.375,89.1698C 148.375,101.99 144.299,113.858 137.373,123.549C 126.637,138.571 109.053,148.362 89.1821,148.362C 82.1375,148.362 75.3802,147.132 69.1137,144.874C 67.2687,144.209 65.4661,143.455 63.7112,142.617C 44.1353,133.271 30.4985,113.487 30.0035,90.4672L 29.9896,89.1698C 29.9896,62.7353 47.3177,40.3478 71.2351,32.747C 76.8958,30.948 82.9256,29.9773 89.1821,29.9773L 89.7139,29.9796 Z "/>
		<g>
			<path fill="#FFFFFF" fill-opacity="1" stroke-width="0.2" stroke-linejoin="round" d="M 89.8182,32.6325L 89.5574,37.326L 92.6863,38.4993L 96.076,40.1941L 99.5961,40.5852L 102.986,41.4978L 104.681,42.0193L 107.027,43.5838L 107.027,45.5393L 107.158,48.0164L 107.94,50.2327L 111.33,52.1883L 113.807,53.7528L 115.11,53.7528L 115.241,55.3172L 115.371,57.7943L 114.328,59.3588L 113.155,61.184L 112.894,62.227L 114.328,64.0521L 116.153,65.3559L 117.457,65.6166L 119.413,64.4433L 121.498,61.8358L 123.454,60.6625L 125.149,61.0536L 127.626,61.8358L 129.973,63.5307L 131.016,64.1499L 131.016,65.6492L 130.69,68.1915L 129.516,68.2567L 127.887,67.2788L 124.953,67.0181L 121.498,67.9959L 120.39,68.713L 118.435,69.8211L 115.827,70.4078L 113.35,70.4078L 110.287,71.0597L 107.614,72.4286L 106.31,74.9057L 104.55,77.7738L 103.572,79.3383L 103.54,82.7931L 103.409,85.5309L 104.974,87.6169L 106.538,89.3117L 108.103,91.7888L 109.146,92.7014L 109.83,93.3207L 110.482,93.9726L 111.884,94.657L 113.122,94.5918L 114.328,93.5489L 115.893,92.4407L 116.61,91.3977L 117.555,90.5828L 119.054,90.5828L 119.967,91.6258L 120.781,92.7014L 122.036,93.598L 122.623,94.4454L 123.275,95.9447L 123.21,97.7047L 123.21,99.2691L 123.405,101.094L 124.057,102.268L 125.1,103.963L 125.361,106.57L 125.817,109.503L 125.85,111.296L 126.045,114.327L 126.045,116.478L 127.61,118.238L 129.663,119.509L 131.716,119.901L 133.477,120.683L 134.65,122.345C 134.65,122.345 136.41,123.518 136.899,123.518C 136.984,123.518 137.151,123.53 137.373,123.549C 144.299,113.858 148.375,101.99 148.375,89.1698C 148.375,56.656 122.16,30.2652 89.7142,29.9796L 89.8182,32.6325 Z "/>
			<path fill="#B5A5FE" fill-opacity="1" stroke-width="0.2" stroke-linejoin="round" d="M 35.453,89.9962L 30.4989,90.3873L 30.0038,90.4671C 30.4988,113.487 44.1356,133.271 63.7115,142.617L 63.6133,139.277L 63.8741,137.321L 64.7867,134.062L 64.7867,130.542L 65.0475,126.5L 64.9171,123.241L 63.483,121.285L 62.7007,119.33L 60.3541,117.505L 58.5289,115.679L 56.3125,113.072L 56.1821,110.204L 55.3999,106.945L 55.2695,103.555L 56.4429,101.599L 57.0947,99.5133L 56.9644,96.2541L 55.1392,95.6022L 53.9658,94.6896L 50.9673,93.2555L 47.3169,90.648L 45.7524,89.8658L 40.4072,90.2569L 35.453,89.9962 Z "/>
			<path fill="#FFFFFF" fill-opacity="1" stroke-width="0.2" stroke-linejoin="round" d="M 68.8278,143.644L 70.9138,141.427L 74.0426,138.429L 76.65,136.995L 79.3878,133.996L 82.5168,131.128L 84.4724,127.999L 86.2976,125.261L 87.6013,124.218L 88.1228,122.002L 89.0354,119.525L 89.948,116.918L 91.5125,114.701L 93.9895,113.137L 93.9895,108.183L 91.9036,106.618L 89.948,106.227L 87.6013,105.054L 85.3849,104.402L 80.6916,103.62L 78.3448,101.012L 76.9108,99.7084L 74.6945,96.9706L 72.2174,94.1024L 70.0011,91.8861L 67.1329,90.3216L 63.3521,90.0609L 61.0054,91.6253L 59.3105,92.2772L 56.5728,91.8861L 53.8029,89.768L 50.674,86.8347L 49.3051,84.9768L 45.8828,84.1946L 44.3183,83.3146L 43.6339,79.4035L 44.5139,78.0346L 46.9584,75.7857L 48.5228,75.199L 50.7717,76.3723L 52.7273,77.0568L 54.5851,76.2746L 54.9762,74.7101L 55.6606,72.3634L 57.1273,69.1367L 56.9318,66.301L 56.834,64.9322L 60.2563,61.7055L 62.9941,58.8699L 64.4608,58.5766L 64.9497,59.7499L 66.7097,59.7499L 68.5675,58.1854L 69.6105,55.8388L 70.5231,53.6224L 70.0016,51.5365L 70.0016,42.9319L 72.0875,41.4978L 74.4342,40.7156L 75.2164,39.9334L 76.2594,38.8904L 76.129,37.4563L 73.652,34.5881L 71.2354,32.7469C 47.3181,40.3477 29.9899,62.7351 29.9899,89.1698C 29.9899,89.6034 29.9945,90.0359 30.0038,90.4671L 30.4989,90.3873L 35.453,89.9962L 40.4072,90.2569L 45.7524,89.8658L 47.3169,90.648L 50.9673,93.2555L 53.9658,94.6896L 55.1392,95.6022L 56.9644,96.2541L 57.0947,99.5133L 56.4429,101.599L 55.2695,103.555L 55.3999,106.945L 56.1821,110.204L 56.3125,113.072L 58.5289,115.679L 60.3541,117.505L 62.7007,119.33L 63.483,121.285L 64.9171,123.241L 65.0475,126.5L 64.7867,130.542L 64.7867,134.062L 63.8741,137.321L 63.6133,139.277L 63.7115,142.617C 65.4664,143.455 67.2689,144.209 69.114,144.874L 68.8278,143.644 Z "/>
			<path fill="#B5A5FE" fill-opacity="1" stroke-width="0.2" stroke-linejoin="round" d="M 89.7142,29.9796C 89.5371,29.9781 89.3598,29.9773 89.1824,29.9773C 82.9258,29.9773 76.8961,30.9479 71.2354,32.7469L 73.652,34.5881L 76.129,37.4563L 76.2594,38.8904L 75.2164,39.9334L 74.4342,40.7156L 72.0875,41.4978L 70.0016,42.9319L 70.0016,51.5365L 70.5231,53.6224L 69.6105,55.8388L 68.5675,58.1854L 66.7097,59.7499L 64.9497,59.7499L 64.4608,58.5766L 62.9941,58.8699L 60.2563,61.7055L 56.834,64.9322L 56.9318,66.301L 57.1273,69.1367L 55.6606,72.3634L 54.9762,74.7101L 54.5851,76.2746L 52.7273,77.0568L 50.7717,76.3723L 48.5228,75.199L 46.9584,75.7857L 44.5139,78.0346L 43.6339,79.4035L 44.3183,83.3146L 45.8828,84.1946L 49.3051,84.9768L 50.674,86.8347L 53.8029,89.768L 56.5728,91.8861L 59.3105,92.2772L 61.0054,91.6253L 63.3521,90.0609L 67.1329,90.3216L 70.0011,91.8861L 72.2174,94.1024L 74.6945,96.9706L 76.9108,99.7084L 78.3448,101.012L 80.6916,103.62L 85.3849,104.402L 87.6013,105.054L 89.948,106.227L 91.9036,106.618L 93.9895,108.183L 93.9895,113.137L 91.5125,114.701L 89.948,116.918L 89.0354,119.525L 88.1228,122.002L 87.6013,124.218L 86.2976,125.261L 84.4724,127.999L 82.5168,131.128L 79.3878,133.996L 76.65,136.995L 74.0426,138.429L 70.9138,141.427L 68.8278,143.644L 69.114,144.874C 75.3805,147.132 82.1377,148.362 89.1824,148.362C 109.053,148.362 126.638,138.571 137.373,123.549C 137.151,123.53 136.984,123.518 136.899,123.518C 136.41,123.518 134.65,122.345 134.65,122.345L 133.477,120.683L 131.716,119.901L 129.663,119.509L 127.61,118.238L 126.045,116.478L 126.045,114.327L 125.85,111.296L 125.817,109.503L 125.361,106.57L 125.1,103.963L 124.057,102.268L 123.405,101.094L 123.21,99.2691L 123.21,97.7047L 123.275,95.9447L 122.623,94.4454L 122.036,93.598L 120.781,92.7014L 119.967,91.6258L 119.054,90.5828L 117.555,90.5828L 116.61,91.3977L 115.893,92.4407L 114.328,93.5489L 113.122,94.5918L 111.884,94.657L 110.482,93.9726L 109.83,93.3207L 109.146,92.7014L 108.103,91.7888L 106.538,89.3117L 104.974,87.6169L 103.409,85.5309L 103.54,82.7931L 103.572,79.3383L 104.55,77.7738L 106.31,74.9057L 107.614,72.4286L 110.287,71.0597L 113.35,70.4078L 115.827,70.4078L 118.435,69.8211L 120.39,68.713L 121.498,67.9959L 124.953,67.0181L 127.887,67.2788L 129.516,68.2567L 130.69,68.1915L 131.016,65.6492L 131.016,64.1499L 129.973,63.5307L 127.626,61.8358L 125.149,61.0536L 123.454,60.6625L 121.498,61.8358L 119.413,64.4433L 117.457,65.6166L 116.153,65.3559L 114.328,64.0521L 112.894,62.227L 113.155,61.184L 114.328,59.3588L 115.371,57.7943L 115.241,55.3172L 115.11,53.7528L 113.807,53.7528L 111.33,52.1883L 107.94,50.2327L 107.158,48.0164L 107.027,45.5393L 107.027,43.5838L 104.681,42.0193L 102.986,41.4978L 99.5961,40.5852L 96.076,40.1941L 92.6863,38.4993L 89.5574,37.326L 89.8182,32.6325L 89.7142,29.9796 Z "/>
		</g>
	</g>
	<g>
		<g>
			<path fill="#231F20" fill-opacity="1" stroke-width="0.2" stroke-linejoin="round" d="M 370.615,25.2677L 370.272,5.45278L 376.525,5.45278L 376.525,30.4422L 367.535,30.4422L 361.296,9.93679L 361.157,9.93679L 361.506,30.4422L 355.302,30.4422L 355.302,5.45278L 364.671,5.45278L 370.478,25.2677L 370.615,25.2677 Z "/>
			<path fill="#231F20" fill-opacity="1" stroke-width="0.2" stroke-linejoin="round" d="M 257.006,7.78323L 253.55,30.7013L 246.728,30.7013L 251.406,5.45437L 262.644,5.45437L 267.296,30.7013L 260.515,30.7013L 257.147,7.78323L 257.006,7.78323 Z "/>
			<path fill="#231F20" fill-opacity="1" stroke-width="0.2" stroke-linejoin="round" d="M 286.437,24.758L 289.557,5.45339L 299.85,5.45339L 300.41,30.7003L 294.091,30.7003L 293.928,7.99636L 293.791,8.00265L 289.574,30.7003L 283.172,30.7003L 278.95,7.99636L 278.809,7.99636L 278.649,30.7003L 272.338,30.7003L 272.896,5.45339L 283.192,5.45339L 286.299,24.758L 286.437,24.758 Z "/>
			<path fill="#231F20" fill-opacity="1" stroke-width="0.2" stroke-linejoin="round" d="M 236.102,23.573C 236.35,24.1828 236.268,24.9694 236.152,25.4458C 235.945,26.2697 235.377,27.1291 233.694,27.1291C 232.118,27.1291 231.154,26.2262 231.154,24.8515L 231.149,22.4L 224.378,22.4L 224.378,24.3534C 224.378,29.9826 228.811,31.6768 233.551,31.6768C 238.127,31.6768 241.877,30.1253 242.48,25.9143C 242.789,23.7297 242.561,22.2992 242.456,21.7654C 241.385,16.4762 231.806,14.9106 231.09,11.9456C 230.969,11.429 230.997,10.9154 231.061,10.6267C 231.244,9.81533 231.792,8.93093 233.37,8.93093C 234.851,8.93093 235.716,9.84322 235.716,11.2163L 235.716,12.7742L 242.018,12.7742L 242.018,11.0085C 242.018,5.50661 237.078,4.64706 233.503,4.64706C 229.015,4.64706 225.351,6.13497 224.676,10.2559C 224.495,11.3684 224.468,12.3786 224.74,13.6538C 225.832,18.8128 234.802,20.3085 236.102,23.573 Z "/>
			<path fill="#231F20" fill-opacity="1" stroke-width="0.2" stroke-linejoin="round" d="M 318.191,23.5231C 318.426,24.1281 318.355,24.9039 318.239,25.3787C 318.036,26.2104 317.468,27.042 315.801,27.042C 314.234,27.042 313.289,26.156 313.289,24.7891L 313.286,22.3609L 306.58,22.3609L 306.576,24.291C 306.576,29.8705 310.967,31.5399 315.666,31.5399C 320.187,31.5399 323.905,30.0117 324.498,25.8395C 324.805,23.6797 324.578,22.2632 324.473,21.7278C 323.415,16.4961 313.928,14.9429 313.229,12.0089C 313.105,11.5031 313.139,10.9942 313.196,10.7118C 313.376,9.90499 313.916,9.02834 315.48,9.02834C 316.946,9.02834 317.803,9.93142 317.803,11.2813L 317.803,12.8281L 324.042,12.8281L 324.042,11.0857C 324.042,5.63979 319.148,4.7911 315.617,4.7911C 311.17,4.7911 307.539,6.24483 306.877,10.3348C 306.692,11.4395 306.664,12.4403 306.932,13.7002C 308.019,18.8125 316.9,20.2943 318.191,23.5231 Z "/>
			<path fill="#231F20" fill-opacity="1" stroke-width="0.2" stroke-linejoin="round" d="M 339.381,26.9057C 341.134,26.9057 341.679,25.7141 341.804,25.0858C 341.859,24.8126 341.868,24.4465 341.865,24.1208L 341.865,5.44924L 348.267,5.44924L 348.267,23.5435C 348.271,24.0105 348.223,24.9616 348.197,25.2114C 347.756,29.9189 344.025,31.4409 339.381,31.4409C 334.74,31.4409 331.01,29.9189 330.574,25.2114C 330.554,24.9616 330.503,24.0105 330.514,23.5435L 330.514,5.44924L 336.897,5.44924L 336.897,24.1208C 336.892,24.4465 336.904,24.8126 336.957,25.0858C 337.084,25.7141 337.629,26.9057 339.381,26.9057 Z "/>
			<path fill="#231F20" fill-opacity="1" stroke-width="0.2" stroke-linejoin="round" d="M 392.055,26.6482C 393.88,26.6482 394.519,25.4968 394.637,24.8236C 394.685,24.5365 394.703,24.1828 394.694,23.8616L 394.694,20.2014L 392.109,20.2014L 392.109,16.5088L 401.043,16.5088L 401.043,23.2828C 401.04,23.7561 401.034,24.1067 400.964,24.9492C 400.543,29.5434 396.55,31.1881 392.08,31.1881C 387.605,31.1881 383.616,29.5434 383.202,24.9492C 383.129,24.1067 383.116,23.7561 383.113,23.2828L 383.116,12.6609C 383.116,12.2063 383.171,11.4135 383.223,11.0085C 383.784,6.27151 387.605,4.76809 392.083,4.76809C 396.556,4.76809 400.483,6.25912 400.948,11.0085C 401.021,11.7951 400.995,12.6609 400.998,12.6609L 400.998,13.5003L 394.637,13.5003L 394.637,12.0821C 394.637,12.0821 394.63,11.4832 394.554,11.1326C 394.44,10.5772 393.962,9.29397 392.03,9.29397C 390.199,9.29397 389.656,10.5089 389.517,11.1326C 389.444,11.4522 389.414,11.9022 389.414,12.3149L 389.414,23.8616C 389.411,24.1828 389.427,24.5365 389.472,24.8236C 389.593,25.4968 390.229,26.6482 392.055,26.6482 Z "/>
			<rect x="216.698" y="49.0783" fill="#231F20" fill-opacity="1" stroke-width="0.2" stroke-linejoin="round" width="11.0145" height="59.1221"/>
			<path fill="#231F20" fill-opacity="1" stroke-width="0.2" stroke-linejoin="round" d="M 235.075,60.8203L 245.929,60.8203L 245.929,67.2934C 247.492,65.3152 249.476,63.7295 251.883,62.5332C 254.281,61.337 257.023,60.7381 260.101,60.7381C 265.988,60.7381 270.595,62.4883 273.909,65.9885C 277.232,69.4842 278.892,74.3593 278.892,80.6136L 278.892,108.2L 267.8,108.2L 267.8,81.8502C 267.8,78.2614 266.903,75.4267 265.124,73.3399C 263.344,71.2577 260.668,70.2166 257.108,70.2166C 253.971,70.2166 251.341,71.2965 249.205,73.4593C 247.076,75.6253 246.01,78.7346 246.01,82.7997L 246.01,108.2L 235.075,108.2L 235.075,60.8203 Z "/>
			<path fill="#231F20" fill-opacity="1" stroke-width="0.2" stroke-linejoin="round" d="M 281.482,60.8203L 289.583,60.8203L 289.583,53.6133L 300.596,46.0805L 300.596,60.8203L 310.233,60.8203L 310.233,70.6215L 300.596,70.6215L 300.596,88.359C 300.596,90.4117 300.703,92.0719 300.918,93.3379C 301.137,94.6071 301.586,95.5783 302.258,96.2548C 302.929,96.9298 303.905,97.375 305.171,97.5923C 306.444,97.8064 308.13,97.9151 310.233,97.9151L 310.233,108.2L 308.696,108.2C 305.026,108.2 301.961,107.878 299.502,107.229C 297.044,106.579 295.092,105.488 293.629,103.949C 292.174,102.41 291.133,100.384 290.512,97.8762C 289.893,95.3642 289.583,92.2177 289.583,88.4365L 289.583,70.6215L 281.482,70.6215L 281.482,60.8203 Z "/>
			<path fill="#231F20" fill-opacity="1" stroke-width="0.2" stroke-linejoin="round" d="M 336.967,70.3775C 333.678,70.3775 330.823,71.1067 328.424,72.5589C 326.018,74.0159 324.331,75.9336 323.361,78.3137L 350.253,78.3137C 349.443,75.7133 347.874,73.7398 345.555,72.3946C 343.234,71.0508 340.366,70.3775 336.967,70.3775 Z M 337.375,108.284C 333.65,108.284 330.244,107.671 327.166,106.448C 324.094,105.224 321.458,103.547 319.27,101.412C 317.087,99.2799 315.388,96.768 314.168,93.8774C 312.955,90.9915 312.348,87.907 312.348,84.6286C 312.348,81.299 312.981,78.174 314.252,75.2587C 315.52,72.3449 317.259,69.8205 319.475,67.6886C 321.687,65.5537 324.292,63.8624 327.291,62.6135C 330.289,61.3645 333.512,60.7392 336.967,60.7392C 340.48,60.7392 343.729,61.3086 346.728,62.449C 349.727,63.5863 352.304,65.1797 354.466,67.2309C 356.621,69.2805 358.309,71.6994 359.528,74.4829C 360.74,77.268 361.347,80.3043 361.347,83.5967L 361.347,87.4679L 322.795,87.4679C 323.552,90.8162 325.194,93.5159 327.732,95.5655C 330.27,97.6182 333.487,98.6438 337.375,98.6438C 340.453,98.6438 343.122,97.8881 345.39,96.3754C 347.657,94.8642 349.358,92.841 350.492,90.3026L 359.482,95.4864C 357.43,99.3187 354.559,102.411 350.86,104.76C 347.156,107.106 342.667,108.284 337.375,108.284 Z "/>
			<path fill="#231F20" fill-opacity="1" stroke-width="0.2" stroke-linejoin="round" d="M 366.204,60.8203L 377.06,60.8203L 377.06,67.8675C 379.274,63.171 383.321,60.8203 389.208,60.8203C 390.933,60.8203 392.489,61.0128 393.867,61.3882C 395.238,61.7667 396.47,62.2509 397.552,62.8436L 393.418,73.2111C 392.609,72.6743 391.706,72.2274 390.703,71.8767C 389.707,71.5245 388.422,71.3507 386.86,71.3507C 383.672,71.3507 381.257,72.2538 379.611,74.063C 377.962,75.872 377.139,78.8278 377.139,82.9301L 377.139,108.2L 366.204,108.2L 366.204,60.8203 Z "/>
			<path fill="#231F20" fill-opacity="1" stroke-width="0.2" stroke-linejoin="round" d="M 401.111,60.8203L 411.966,60.8203L 411.966,67.2934C 413.528,65.3152 415.511,63.7295 417.918,62.5332C 420.316,61.337 423.06,60.7381 426.138,60.7381C 432.023,60.7381 436.631,62.4883 439.945,65.9885C 443.267,69.4842 444.927,74.3593 444.927,80.6136L 444.927,108.2L 433.835,108.2L 433.835,81.8502C 433.835,78.2614 432.94,75.4267 431.159,73.3399C 429.381,71.2577 426.704,70.2166 423.145,70.2166C 420.008,70.2166 417.376,71.2965 415.241,73.4593C 413.113,75.6253 412.045,78.7346 412.045,82.7997L 412.045,108.2L 401.111,108.2L 401.111,60.8203 Z "/>
			<path fill="#231F20" fill-opacity="1" stroke-width="0.2" stroke-linejoin="round" d="M 474.324,70.3775C 471.036,70.3775 468.181,71.1067 465.783,72.5589C 463.376,74.0159 461.688,75.9336 460.72,78.3137L 487.611,78.3137C 486.802,75.7133 485.233,73.7398 482.912,72.3946C 480.592,71.0508 477.725,70.3775 474.324,70.3775 Z M 474.733,108.284C 471.008,108.284 467.601,107.671 464.524,106.448C 461.452,105.224 458.816,103.547 456.628,101.412C 454.445,99.2799 452.745,96.768 451.527,93.8774C 450.312,90.9915 449.707,87.907 449.707,84.6286C 449.707,81.299 450.34,78.174 451.611,75.2587C 452.877,72.3449 454.617,69.8205 456.832,67.6886C 459.046,65.5537 461.649,63.8624 464.65,62.6135C 467.648,61.3645 470.87,60.7392 474.324,60.7392C 477.838,60.7392 481.086,61.3086 484.086,62.449C 487.085,63.5863 489.663,65.1797 491.824,67.2309C 493.979,69.2805 495.667,71.6994 496.885,74.4829C 498.098,77.268 498.705,80.3043 498.705,83.5967L 498.705,87.4679L 460.153,87.4679C 460.911,90.8162 462.552,93.5159 465.091,95.5655C 467.629,97.6182 470.845,98.6438 474.733,98.6438C 477.81,98.6438 480.48,97.8881 482.749,96.3754C 485.016,94.8642 486.715,92.841 487.849,90.3026L 496.84,95.4864C 494.789,99.3187 491.915,102.411 488.218,104.76C 484.513,107.106 480.026,108.284 474.733,108.284 Z "/>
			<path fill="#231F20" fill-opacity="1" stroke-width="0.2" stroke-linejoin="round" d="M 499.832,60.8203L 507.933,60.8203L 507.933,53.6133L 518.946,46.0805L 518.946,60.8203L 528.581,60.8203L 528.581,70.6215L 518.946,70.6215L 518.946,88.359C 518.946,90.4117 519.051,92.0719 519.268,93.3379C 519.486,94.6071 519.934,95.5783 520.607,96.2548C 521.279,96.9298 522.254,97.375 523.521,97.5923C 524.792,97.8064 526.48,97.9151 528.581,97.9151L 528.581,108.2L 527.046,108.2C 523.375,108.2 520.31,107.878 517.852,107.229C 515.393,106.579 513.441,105.488 511.979,103.949C 510.522,102.41 509.481,100.384 508.861,97.8762C 508.242,95.3642 507.933,92.2177 507.933,88.4365L 507.933,70.6215L 499.832,70.6215L 499.832,60.8203 Z "/>
		</g>
		<g>
			<path fill="#231F20" fill-opacity="1" stroke-width="0.2" stroke-linejoin="round" d="M 226.92,159.92C 228.935,159.92 230.727,159.567 232.294,158.862C 233.862,158.157 235.198,157.165 236.303,155.885C 237.408,154.605 238.248,153.093 238.823,151.351C 239.398,149.608 239.685,147.697 239.685,145.617C 239.685,143.537 239.398,141.617 238.823,139.857C 238.248,138.097 237.408,136.585 236.303,135.32C 235.198,134.055 233.862,133.062 232.294,132.342C 230.727,131.622 228.935,131.262 226.92,131.262L 219.668,131.262L 219.668,159.92L 226.92,159.92 Z M 216.698,162.56L 216.698,128.622L 227.205,128.622C 229.575,128.622 231.712,129.038 233.614,129.871C 235.516,130.703 237.14,131.872 238.485,133.377C 239.83,134.882 240.87,136.675 241.605,138.755C 242.34,140.835 242.708,143.122 242.708,145.617C 242.708,148.112 242.34,150.4 241.605,152.48C 240.87,154.56 239.83,156.343 238.485,157.831C 237.14,159.318 235.516,160.478 233.614,161.311C 231.712,162.143 229.575,162.56 227.205,162.56L 216.698,162.56 Z "/>
			<path fill="#231F20" fill-opacity="1" stroke-width="0.2" stroke-linejoin="round" d="M 267.578,160.782C 266.393,161.517 265.136,162.077 263.809,162.462C 262.481,162.847 261.065,163.04 259.56,163.04C 257.705,163.04 256.049,162.727 254.591,162.102C 253.134,161.477 251.909,160.605 250.916,159.485C 249.924,158.365 249.164,157.005 248.636,155.405C 248.109,153.805 247.845,152.03 247.845,150.08C 247.845,148.35 248.054,146.717 248.471,145.182C 248.889,143.647 249.521,142.303 250.369,141.151C 251.216,139.998 252.288,139.086 253.583,138.413C 254.878,137.741 256.405,137.405 258.165,137.405C 259.735,137.405 261.136,137.685 262.369,138.245C 263.602,138.805 264.641,139.573 265.489,140.551C 266.336,141.528 266.977,142.697 267.409,144.057C 267.841,145.417 268.058,146.897 268.058,148.497C 268.058,148.942 268.041,149.39 268.009,149.84C 267.977,150.29 267.928,150.69 267.863,151.04L 250.68,151.04C 250.84,154.015 251.688,156.342 253.223,158.022C 254.758,159.702 256.903,160.542 259.658,160.542C 260.873,160.542 262.057,160.366 263.209,160.013C 264.362,159.661 265.498,159.165 266.618,158.525L 267.578,160.782 Z M 265.32,148.737C 265.285,146.017 264.676,143.865 263.494,142.28C 262.311,140.695 260.553,139.902 258.218,139.902C 256.968,139.902 255.886,140.135 254.974,140.6C 254.061,141.065 253.294,141.697 252.672,142.497C 252.049,143.297 251.578,144.233 251.258,145.306C 250.938,146.378 250.728,147.522 250.628,148.737L 265.32,148.737 Z "/>
			<path fill="#231F20" fill-opacity="1" stroke-width="0.2" stroke-linejoin="round" d="M 283.268,162.56L 280.245,162.56L 270.938,137.885L 273.96,137.885L 281.738,159.342L 289.703,137.885L 292.538,137.885L 283.268,162.56 Z "/>
			<path fill="#231F20" fill-opacity="1" stroke-width="0.2" stroke-linejoin="round" d="M 315.098,160.782C 313.913,161.517 312.656,162.077 311.329,162.462C 310.001,162.847 308.585,163.04 307.08,163.04C 305.225,163.04 303.569,162.727 302.112,162.102C 300.654,161.477 299.429,160.605 298.436,159.485C 297.444,158.365 296.684,157.005 296.156,155.405C 295.629,153.805 295.365,152.03 295.365,150.08C 295.365,148.35 295.574,146.717 295.991,145.182C 296.409,143.647 297.042,142.303 297.889,141.151C 298.737,139.998 299.808,139.086 301.103,138.413C 302.398,137.741 303.925,137.405 305.685,137.405C 307.255,137.405 308.656,137.685 309.889,138.245C 311.122,138.805 312.161,139.573 313.009,140.551C 313.856,141.528 314.497,142.697 314.929,144.057C 315.362,145.417 315.578,146.897 315.578,148.497C 315.578,148.942 315.561,149.39 315.529,149.84C 315.497,150.29 315.448,150.69 315.383,151.04L 298.2,151.04C 298.36,154.015 299.208,156.342 300.743,158.022C 302.278,159.702 304.423,160.542 307.178,160.542C 308.393,160.542 309.577,160.366 310.729,160.013C 311.882,159.661 313.018,159.165 314.138,158.525L 315.098,160.782 Z M 312.84,148.737C 312.805,146.017 312.196,143.865 311.014,142.28C 309.831,140.695 308.073,139.902 305.738,139.902C 304.488,139.902 303.406,140.135 302.494,140.6C 301.581,141.065 300.814,141.697 300.192,142.497C 299.569,143.297 299.098,144.233 298.778,145.306C 298.458,146.378 298.248,147.522 298.148,148.737L 312.84,148.737 Z "/>
			<path fill="#231F20" fill-opacity="1" stroke-width="0.2" stroke-linejoin="round" d="M 325.028,162.56L 322.245,162.56L 322.245,126.657L 325.028,126.417L 325.028,162.56 Z "/>
			<path fill="#231F20" fill-opacity="1" stroke-width="0.2" stroke-linejoin="round" d="M 346.298,159.777C 347.353,159.262 348.231,158.541 348.934,157.613C 349.636,156.686 350.173,155.598 350.543,154.351C 350.913,153.103 351.098,151.727 351.098,150.222C 351.098,148.752 350.913,147.385 350.543,146.12C 350.173,144.855 349.636,143.758 348.934,142.831C 348.231,141.903 347.351,141.183 346.294,140.671C 345.236,140.158 344.02,139.902 342.645,139.902C 341.27,139.902 340.055,140.158 339,140.671C 337.945,141.183 337.065,141.903 336.36,142.831C 335.655,143.758 335.119,144.855 334.751,146.12C 334.384,147.385 334.2,148.752 334.2,150.222C 334.2,151.727 334.384,153.103 334.751,154.351C 335.119,155.598 335.655,156.686 336.36,157.613C 337.065,158.541 337.945,159.261 339,159.773C 340.055,160.286 341.27,160.542 342.645,160.542C 344.02,160.542 345.238,160.287 346.298,159.777 Z M 350.948,159.485C 349.988,160.605 348.813,161.477 347.423,162.102C 346.033,162.727 344.44,163.04 342.645,163.04C 340.855,163.04 339.264,162.727 337.871,162.102C 336.479,161.477 335.303,160.597 334.343,159.462C 333.383,158.327 332.646,156.976 332.134,155.408C 331.621,153.841 331.365,152.112 331.365,150.222C 331.365,148.337 331.621,146.61 332.134,145.04C 332.646,143.47 333.383,142.117 334.343,140.982C 335.303,139.847 336.479,138.967 337.871,138.342C 339.264,137.717 340.855,137.405 342.645,137.405C 344.44,137.405 346.033,137.717 347.423,138.342C 348.813,138.967 349.988,139.847 350.948,140.982C 351.908,142.117 352.644,143.47 353.156,145.04C 353.669,146.61 353.925,148.337 353.925,150.222C 353.925,152.112 353.669,153.841 353.156,155.408C 352.644,156.976 351.908,158.335 350.948,159.485 Z "/>
			<path fill="#231F20" fill-opacity="1" stroke-width="0.2" stroke-linejoin="round" d="M 363.285,173.697L 360.503,173.697L 360.503,137.982L 362.948,137.742L 363.24,140.915C 364.485,139.89 365.82,139.048 367.245,138.391C 368.67,137.733 370.183,137.405 371.783,137.405C 373.353,137.405 374.738,137.741 375.938,138.413C 377.138,139.086 378.153,139.991 378.983,141.128C 379.813,142.266 380.444,143.586 380.876,145.088C 381.309,146.591 381.525,148.175 381.525,149.84C 381.525,151.63 381.285,153.325 380.805,154.925C 380.325,156.525 379.622,157.925 378.694,159.125C 377.767,160.325 376.639,161.277 375.312,161.982C 373.984,162.687 372.455,163.04 370.725,163.04C 369.255,163.04 367.888,162.8 366.623,162.32C 365.358,161.84 364.245,161.232 363.285,160.497L 363.285,173.697 Z M 363.285,157.902C 364.28,158.637 365.393,159.261 366.623,159.773C 367.853,160.286 369.125,160.542 370.44,160.542C 371.815,160.542 373.023,160.246 374.063,159.653C 375.103,159.061 375.966,158.27 376.654,157.28C 377.341,156.29 377.854,155.146 378.192,153.848C 378.529,152.551 378.698,151.2 378.698,149.795C 378.698,148.45 378.538,147.185 378.218,146C 377.898,144.815 377.425,143.766 376.8,142.853C 376.175,141.941 375.406,141.221 374.494,140.693C 373.582,140.166 372.518,139.902 371.303,139.902C 369.863,139.902 368.447,140.231 367.054,140.888C 365.662,141.546 364.405,142.337 363.285,143.262L 363.285,157.902 Z "/>
			<path fill="#231F20" fill-opacity="1" stroke-width="0.2" stroke-linejoin="round" d="M 405.818,160.782C 404.633,161.517 403.376,162.077 402.049,162.462C 400.721,162.847 399.305,163.04 397.8,163.04C 395.945,163.04 394.289,162.727 392.831,162.102C 391.374,161.477 390.149,160.605 389.156,159.485C 388.164,158.365 387.404,157.005 386.876,155.405C 386.349,153.805 386.085,152.03 386.085,150.08C 386.085,148.35 386.294,146.717 386.711,145.182C 387.129,143.647 387.761,142.303 388.609,141.151C 389.456,139.998 390.528,139.086 391.823,138.413C 393.118,137.741 394.645,137.405 396.405,137.405C 397.975,137.405 399.376,137.685 400.609,138.245C 401.841,138.805 402.881,139.573 403.729,140.551C 404.576,141.528 405.216,142.697 405.649,144.057C 406.081,145.417 406.298,146.897 406.298,148.497C 406.298,148.942 406.281,149.39 406.249,149.84C 406.216,150.29 406.168,150.69 406.103,151.04L 388.92,151.04C 389.08,154.015 389.928,156.342 391.463,158.022C 392.998,159.702 395.143,160.542 397.898,160.542C 399.113,160.542 400.297,160.366 401.449,160.013C 402.602,159.661 403.738,159.165 404.858,158.525L 405.818,160.782 Z M 403.56,148.737C 403.525,146.017 402.916,143.865 401.734,142.28C 400.551,140.695 398.793,139.902 396.458,139.902C 395.208,139.902 394.126,140.135 393.214,140.6C 392.301,141.065 391.534,141.697 390.911,142.497C 390.289,143.297 389.818,144.233 389.498,145.306C 389.178,146.378 388.968,147.522 388.868,148.737L 403.56,148.737 Z "/>
			<path fill="#231F20" fill-opacity="1" stroke-width="0.2" stroke-linejoin="round" d="M 415.605,162.56L 412.823,162.56L 412.823,137.982L 415.268,137.742L 415.605,141.485C 416.725,140.205 417.885,139.205 419.085,138.485C 420.285,137.765 421.525,137.405 422.805,137.405C 423.19,137.405 423.663,137.445 424.223,137.525C 424.783,137.605 425.255,137.71 425.64,137.84L 424.965,140.525C 424.135,140.27 423.32,140.142 422.52,140.142C 421.24,140.142 420.031,140.478 418.894,141.151C 417.757,141.823 416.66,142.767 415.605,143.982L 415.605,162.56 Z "/>
			<path fill="#231F20" fill-opacity="1" stroke-width="0.2" stroke-linejoin="round" d="M 467.978,162.56L 465,162.56L 465,146.862L 446.228,146.862L 446.228,162.56L 443.258,162.56L 443.258,128.622L 446.228,128.622L 446.228,144.222L 465,144.222L 465,128.622L 467.978,128.622L 467.978,162.56 Z "/>
			<path fill="#231F20" fill-opacity="1" stroke-width="0.2" stroke-linejoin="round" d="M 492.36,162.56C 492.265,162.21 492.185,161.795 492.12,161.315C 492.055,160.835 491.99,160.337 491.925,159.822C 490.71,160.717 489.375,161.477 487.92,162.102C 486.465,162.727 484.985,163.04 483.48,163.04C 482.165,163.04 481.036,162.792 480.094,162.297C 479.151,161.802 478.368,161.13 477.743,160.28C 477.118,159.43 476.654,158.421 476.352,157.253C 476.049,156.086 475.898,154.83 475.898,153.485L 475.898,137.982L 478.68,137.742L 478.68,153.245C 478.68,154.24 478.768,155.177 478.943,156.057C 479.118,156.937 479.414,157.713 479.831,158.386C 480.249,159.058 480.802,159.586 481.489,159.968C 482.177,160.351 483.033,160.542 484.058,160.542C 485.338,160.542 486.658,160.246 488.018,159.653C 489.378,159.061 490.648,158.335 491.828,157.475L 491.828,137.982L 494.618,137.742L 494.618,156.702C 494.618,157.632 494.641,158.608 494.689,159.631C 494.737,160.653 494.888,161.63 495.143,162.56L 492.36,162.56 Z "/>
			<path fill="#231F20" fill-opacity="1" stroke-width="0.2" stroke-linejoin="round" d="M 505.08,162.56L 502.725,162.56L 502.725,126.657L 505.508,126.417L 505.508,140.915C 506.728,139.89 508.049,139.048 509.471,138.391C 510.894,137.733 512.405,137.405 514.005,137.405C 515.575,137.405 516.96,137.741 518.16,138.413C 519.36,139.086 520.377,139.991 521.209,141.128C 522.042,142.266 522.673,143.586 523.103,145.088C 523.533,146.591 523.748,148.175 523.748,149.84C 523.748,151.63 523.508,153.325 523.028,154.925C 522.548,156.525 521.844,157.925 520.917,159.125C 519.989,160.325 518.854,161.277 517.512,161.982C 516.169,162.687 514.633,163.04 512.903,163.04C 511.433,163.04 510.049,162.783 508.752,162.271C 507.454,161.758 506.343,161.135 505.418,160.4L 505.08,162.56 Z M 505.508,157.902C 506.503,158.637 507.608,159.261 508.823,159.773C 510.038,160.286 511.318,160.542 512.663,160.542C 514.038,160.542 515.238,160.246 516.263,159.653C 517.288,159.061 518.144,158.27 518.831,157.28C 519.519,156.29 520.039,155.146 520.392,153.848C 520.744,152.551 520.92,151.2 520.92,149.795C 520.92,148.45 520.76,147.185 520.44,146C 520.12,144.815 519.648,143.766 519.023,142.853C 518.398,141.941 517.629,141.221 516.716,140.693C 515.804,140.166 514.74,139.902 513.525,139.902C 512.085,139.902 510.669,140.231 509.276,140.888C 507.884,141.546 506.628,142.337 505.508,143.262L 505.508,157.902 Z "/>
		</g>
	</g>
</svg>
