<?xml version="1.0" encoding="utf-8"?>
<!DOCTYPE svg PUBLIC "-//W3C//DTD SVG 1.1//EN" "http://www.w3.org/Graphics/SVG/1.1/DTD/svg11.dtd">
<svg xmlns="http://www.w3.org/2000/svg" xmlns:xlink="http://www.w3.org/1999/xlink" version="1.1" baseProfile="full" width="528.581" height="178.668" viewBox="0 0 528.58 178.67" enable-background="new 0 0 528.58 178.67" xml:space="preserve">
	<g>
		<path fill="#987FFF" fill-opacity="1" stroke-width="0.2" stroke-linejoin="round" d="M 58.374,1.04295C 69.1453,0.521461 79.9165,-8.39233e-005 90.1831,-8.39233e-005C 100.45,-8.39233e-005 110.212,0.521461 119.974,1.04295C 150.773,1.04295 177.306,27.5751 177.306,58.3742C 177.827,68.4383 178.348,78.5024 178.348,88.7691C 178.348,99.0357 177.827,109.505 177.306,119.974C 177.306,150.773 150.773,177.305 119.974,177.305C 110.342,177.827 100.711,178.348 90.4441,178.348C 80.1774,178.348 69.2758,177.827 58.374,177.305C 27.5751,177.305 1.04327,150.773 1.04327,119.974C 0.521729,108.983 0,97.9928 0,87.7261C 0,77.4594 0.521729,67.9168 1.04327,58.3741C 1.04327,27.5751 27.5751,1.04295 58.374,1.04295 Z "/>
		<path fill="#B5A5FE" fill-opacity="1" stroke-width="0.2" stroke-linejoin="round" d="M 89.7139,29.9816C 122.16,30.2671 148.375,56.6581 148.375,89.1718C 148.375,101.992 144.299,113.86 137.373,123.551C 126.637,138.573 109.053,148.364 89.1821,148.364C 82.1375,148.364 75.3802,147.134 69.1137,144.876C 67.2687,144.211 65.4661,143.457 63.7112,142.619C 44.1353,133.273 30.4985,113.489 30.0035,90.4692L 29.9896,89.1718C 29.9896,62.7372 47.3177,40.3498 71.2351,32.7489C 76.8958,30.95 82.9256,29.9793 89.1821,29.9793L 89.7139,29.9816 Z "/>
		<g>
			<path fill="#FFFFFF" fill-opacity="1" stroke-width="0.2" stroke-linejoin="round" d="M 89.8182,32.6344L 89.5574,37.3279L 92.6863,38.5013L 96.076,40.1961L 99.5961,40.5872L 102.986,41.4998L 104.681,42.0213L 107.027,43.5857L 107.027,45.5413L 107.158,48.0183L 107.94,50.2347L 111.33,52.1903L 113.807,53.7547L 115.11,53.7547L 115.241,55.3192L 115.371,57.7963L 114.328,59.3608L 113.155,61.186L 112.894,62.2289L 114.328,64.0541L 116.153,65.3578L 117.457,65.6186L 119.413,64.4452L 121.498,61.8378L 123.454,60.6645L 125.149,61.0556L 127.626,61.8378L 129.973,63.5326L 131.016,64.1519L 131.016,65.6512L 130.69,68.1935L 129.516,68.2586L 127.887,67.2808L 124.953,67.0201L 121.498,67.9979L 120.39,68.7149L 118.435,69.8231L 115.827,70.4098L 113.35,70.4098L 110.287,71.0616L 107.614,72.4305L 106.31,74.9076L 104.55,77.7758L 103.572,79.3402L 103.54,82.7951L 103.409,85.5329L 104.974,87.6189L 106.538,89.3137L 108.103,91.7908L 109.146,92.7034L 109.83,93.3227L 110.482,93.9745L 111.884,94.659L 113.122,94.5938L 114.328,93.5508L 115.893,92.4427L 116.61,91.3996L 117.555,90.5848L 119.054,90.5848L 119.967,91.6278L 120.781,92.7034L 122.036,93.6L 122.623,94.4474L 123.275,95.9466L 123.21,97.7066L 123.21,99.2711L 123.405,101.096L 124.057,102.27L 125.1,103.965L 125.361,106.572L 125.817,109.505L 125.85,111.298L 126.045,114.329L 126.045,116.48L 127.61,118.24L 129.663,119.511L 131.716,119.903L 133.477,120.685L 134.65,122.347C 134.65,122.347 136.41,123.52 136.899,123.52C 136.984,123.52 137.151,123.532 137.373,123.551C 144.299,113.86 148.375,101.992 148.375,89.1717C 148.375,56.658 122.16,30.2671 89.7142,29.9816L 89.8182,32.6344 Z "/>
			<path fill="#B5A5FE" fill-opacity="1" stroke-width="0.2" stroke-linejoin="round" d="M 35.453,89.9981L 30.4989,90.3893L 30.0038,90.4691C 30.4988,113.489 44.1356,133.273 63.7115,142.619L 63.6133,139.279L 63.8741,137.323L 64.7867,134.064L 64.7867,130.544L 65.0475,126.502L 64.9171,123.243L 63.483,121.287L 62.7007,119.332L 60.3541,117.507L 58.5289,115.681L 56.3125,113.074L 56.1821,110.206L 55.3999,106.947L 55.2695,103.557L 56.4429,101.601L 57.0947,99.5153L 56.9644,96.256L 55.1392,95.6042L 53.9658,94.6916L 50.9673,93.2575L 47.3169,90.65L 45.7524,89.8678L 40.4072,90.2589L 35.453,89.9981 Z "/>
			<path fill="#FFFFFF" fill-opacity="1" stroke-width="0.2" stroke-linejoin="round" d="M 68.8278,143.646L 70.9138,141.429L 74.0426,138.431L 76.65,136.997L 79.3878,133.998L 82.5168,131.13L 84.4724,128.001L 86.2976,125.263L 87.6013,124.22L 88.1228,122.004L 89.0354,119.527L 89.948,116.919L 91.5125,114.703L 93.9895,113.139L 93.9895,108.185L 91.9036,106.62L 89.948,106.229L 87.6013,105.056L 85.3849,104.404L 80.6916,103.621L 78.3448,101.014L 76.9108,99.7104L 74.6945,96.9726L 72.2174,94.1043L 70.0011,91.888L 67.1329,90.3236L 63.3521,90.0628L 61.0054,91.6273L 59.3105,92.2792L 56.5728,91.888L 53.8029,89.77L 50.674,86.8366L 49.3051,84.9788L 45.8828,84.1966L 44.3183,83.3166L 43.6339,79.4054L 44.5139,78.0365L 46.9584,75.7876L 48.5228,75.201L 50.7717,76.3743L 52.7273,77.0588L 54.5851,76.2765L 54.9762,74.7121L 55.6606,72.3653L 57.1273,69.1386L 56.9318,66.303L 56.834,64.9341L 60.2563,61.7074L 62.9941,58.8719L 64.4608,58.5785L 64.9497,59.7519L 66.7097,59.7519L 68.5675,58.1874L 69.6105,55.8407L 70.5231,53.6244L 70.0016,51.5384L 70.0016,42.9339L 72.0875,41.4998L 74.4342,40.7176L 75.2164,39.9353L 76.2594,38.8924L 76.129,37.4583L 73.652,34.5901L 71.2354,32.7489C 47.3181,40.3496 29.9899,62.7371 29.9899,89.1717C 29.9899,89.6053 29.9945,90.0378 30.0038,90.4691L 30.4989,90.3893L 35.453,89.9981L 40.4072,90.2589L 45.7524,89.8678L 47.3169,90.65L 50.9673,93.2575L 53.9658,94.6916L 55.1392,95.6042L 56.9644,96.256L 57.0947,99.5153L 56.4429,101.601L 55.2695,103.557L 55.3999,106.947L 56.1821,110.206L 56.3125,113.074L 58.5289,115.681L 60.3541,117.507L 62.7007,119.332L 63.483,121.287L 64.9171,123.243L 65.0475,126.502L 64.7867,130.544L 64.7867,134.064L 63.8741,137.323L 63.6133,139.279L 63.7115,142.619C 65.4664,143.457 67.2689,144.211 69.114,144.876L 68.8278,143.646 Z "/>
			<path fill="#B5A5FE" fill-opacity="1" stroke-width="0.2" stroke-linejoin="round" d="M 89.7142,29.9816C 89.5371,29.98 89.3598,29.9792 89.1824,29.9792C 82.9258,29.9792 76.8961,30.9499 71.2354,32.7489L 73.652,34.5901L 76.129,37.4583L 76.2594,38.8924L 75.2164,39.9353L 74.4342,40.7176L 72.0875,41.4998L 70.0016,42.9339L 70.0016,51.5384L 70.5231,53.6244L 69.6105,55.8407L 68.5675,58.1874L 66.7097,59.7519L 64.9497,59.7519L 64.4608,58.5785L 62.9941,58.8719L 60.2563,61.7074L 56.834,64.9341L 56.9318,66.303L 57.1273,69.1386L 55.6606,72.3653L 54.9762,74.7121L 54.5851,76.2765L 52.7273,77.0588L 50.7717,76.3743L 48.5228,75.201L 46.9584,75.7876L 44.5139,78.0365L 43.6339,79.4054L 44.3183,83.3166L 45.8828,84.1966L 49.3051,84.9788L 50.674,86.8366L 53.8029,89.77L 56.5728,91.888L 59.3105,92.2792L 61.0054,91.6273L 63.3521,90.0628L 67.1329,90.3236L 70.0011,91.888L 72.2174,94.1043L 74.6945,96.9726L 76.9108,99.7104L 78.3448,101.014L 80.6916,103.621L 85.3849,104.404L 87.6013,105.056L 89.948,106.229L 91.9036,106.62L 93.9895,108.185L 93.9895,113.139L 91.5125,114.703L 89.948,116.919L 89.0354,119.527L 88.1228,122.004L 87.6013,124.22L 86.2976,125.263L 84.4724,128.001L 82.5168,131.13L 79.3878,133.998L 76.65,136.997L 74.0426,138.431L 70.9138,141.429L 68.8278,143.646L 69.114,144.876C 75.3805,147.134 82.1377,148.364 89.1824,148.364C 109.053,148.364 126.638,138.573 137.373,123.551C 137.151,123.532 136.984,123.52 136.899,123.52C 136.41,123.52 134.65,122.347 134.65,122.347L 133.477,120.685L 131.716,119.903L 129.663,119.511L 127.61,118.24L 126.045,116.48L 126.045,114.329L 125.85,111.298L 125.817,109.505L 125.361,106.572L 125.1,103.965L 124.057,102.27L 123.405,101.096L 123.21,99.2711L 123.21,97.7066L 123.275,95.9466L 122.623,94.4474L 122.036,93.6L 120.781,92.7034L 119.967,91.6278L 119.054,90.5848L 117.555,90.5848L 116.61,91.3996L 115.893,92.4427L 114.328,93.5508L 113.122,94.5938L 111.884,94.659L 110.482,93.9745L 109.83,93.3227L 109.146,92.7034L 108.103,91.7908L 106.538,89.3137L 104.974,87.6189L 103.409,85.5329L 103.54,82.7951L 103.572,79.3402L 104.55,77.7758L 106.31,74.9076L 107.614,72.4305L 110.287,71.0616L 113.35,70.4098L 115.827,70.4098L 118.435,69.8231L 120.39,68.7149L 121.498,67.9979L 124.953,67.0201L 127.887,67.2808L 129.516,68.2586L 130.69,68.1935L 131.016,65.6512L 131.016,64.1519L 129.973,63.5326L 127.626,61.8378L 125.149,61.0556L 123.454,60.6645L 121.498,61.8378L 119.413,64.4452L 117.457,65.6186L 116.153,65.3578L 114.328,64.0541L 112.894,62.2289L 113.155,61.186L 114.328,59.3608L 115.371,57.7963L 115.241,55.3192L 115.11,53.7547L 113.807,53.7547L 111.33,52.1903L 107.94,50.2347L 107.158,48.0183L 107.027,45.5413L 107.027,43.5857L 104.681,42.0213L 102.986,41.4998L 99.5961,40.5872L 96.076,40.1961L 92.6863,38.5013L 89.5574,37.3279L 89.8182,32.6344L 89.7142,29.9816 Z "/>
		</g>
	</g>
	<g>
		<g>
			<path fill="#FFFFFF" fill-opacity="1" stroke-width="0.2" stroke-linejoin="round" d="M 370.615,25.2697L 370.272,5.45475L 376.525,5.45475L 376.525,30.4441L 367.535,30.4441L 361.296,9.93876L 361.157,9.93876L 361.506,30.4441L 355.302,30.4441L 355.302,5.45475L 364.671,5.45475L 370.478,25.2697L 370.615,25.2697 Z "/>
			<path fill="#FFFFFF" fill-opacity="1" stroke-width="0.2" stroke-linejoin="round" d="M 257.006,7.78519L 253.55,30.7033L 246.728,30.7033L 251.406,5.45634L 262.644,5.45634L 267.296,30.7033L 260.515,30.7033L 257.147,7.78519L 257.006,7.78519 Z "/>
			<path fill="#FFFFFF" fill-opacity="1" stroke-width="0.2" stroke-linejoin="round" d="M 286.437,24.7599L 289.557,5.45536L 299.85,5.45536L 300.41,30.7023L 294.091,30.7023L 293.928,7.99833L 293.791,8.00462L 289.574,30.7023L 283.172,30.7023L 278.95,7.99833L 278.809,7.99833L 278.649,30.7023L 272.338,30.7023L 272.896,5.45536L 283.192,5.45536L 286.299,24.7599L 286.437,24.7599 Z "/>
			<path fill="#FFFFFF" fill-opacity="1" stroke-width="0.2" stroke-linejoin="round" d="M 236.102,23.5749C 236.35,24.1847 236.268,24.9714 236.152,25.4477C 235.945,26.2716 235.377,27.1311 233.694,27.1311C 232.118,27.1311 231.154,26.2281 231.154,24.8535L 231.149,22.402L 224.378,22.402L 224.378,24.3554C 224.378,29.9845 228.811,31.6787 233.551,31.6787C 238.127,31.6787 241.877,30.1272 242.48,25.9163C 242.789,23.7317 242.561,22.3011 242.456,21.7674C 241.385,16.4782 231.806,14.9126 231.09,11.9476C 230.969,11.4309 230.997,10.9174 231.061,10.6287C 231.244,9.8173 231.792,8.9329 233.37,8.9329C 234.851,8.9329 235.716,9.84519 235.716,11.2183L 235.716,12.7762L 242.018,12.7762L 242.018,11.0105C 242.018,5.50858 237.078,4.64902 233.503,4.64902C 229.015,4.64902 225.351,6.13694 224.676,10.2579C 224.495,11.3704 224.468,12.3805 224.74,13.6558C 225.832,18.8147 234.802,20.3105 236.102,23.5749 Z "/>
			<path fill="#FFFFFF" fill-opacity="1" stroke-width="0.2" stroke-linejoin="round" d="M 318.191,23.5251C 318.426,24.13 318.355,24.9059 318.239,25.3807C 318.036,26.2123 317.468,27.044 315.801,27.044C 314.234,27.044 313.289,26.158 313.289,24.7911L 313.286,22.3629L 306.58,22.3629L 306.576,24.293C 306.576,29.8725 310.967,31.5419 315.666,31.5419C 320.187,31.5419 323.905,30.0136 324.498,25.8415C 324.805,23.6817 324.578,22.2652 324.473,21.7298C 323.415,16.498 313.928,14.9449 313.229,12.0109C 313.105,11.5051 313.139,10.9962 313.196,10.7138C 313.376,9.90696 313.916,9.03031 315.48,9.03031C 316.946,9.03031 317.803,9.93339 317.803,11.2832L 317.803,12.8301L 324.042,12.8301L 324.042,11.0877C 324.042,5.64176 319.148,4.79307 315.617,4.79307C 311.17,4.79307 307.539,6.2468 306.877,10.3368C 306.692,11.4414 306.664,12.4422 306.932,13.7021C 308.019,18.8145 316.9,20.2962 318.191,23.5251 Z "/>
			<path fill="#FFFFFF" fill-opacity="1" stroke-width="0.2" stroke-linejoin="round" d="M 339.381,26.9077C 341.134,26.9077 341.679,25.7161 341.804,25.0878C 341.859,24.8146 341.868,24.4485 341.865,24.1227L 341.865,5.45121L 348.267,5.45121L 348.267,23.5454C 348.271,24.0125 348.223,24.9636 348.197,25.2134C 347.756,29.9209 344.025,31.4429 339.381,31.4429C 334.74,31.4429 331.01,29.9209 330.574,25.2134C 330.554,24.9636 330.503,24.0125 330.514,23.5454L 330.514,5.45121L 336.897,5.45121L 336.897,24.1227C 336.892,24.4485 336.904,24.8146 336.957,25.0878C 337.084,25.7161 337.629,26.9077 339.381,26.9077 Z "/>
			<path fill="#FFFFFF" fill-opacity="1" stroke-width="0.2" stroke-linejoin="round" d="M 392.055,26.6501C 393.88,26.6501 394.519,25.4988 394.637,24.8255C 394.685,24.5385 394.703,24.1847 394.694,23.8636L 394.694,20.2034L 392.109,20.2034L 392.109,16.5107L 401.043,16.5107L 401.043,23.2848C 401.04,23.7581 401.034,24.1087 400.964,24.9512C 400.543,29.5454 396.55,31.19 392.08,31.19C 387.605,31.19 383.616,29.5454 383.202,24.9512C 383.129,24.1087 383.116,23.7581 383.113,23.2848L 383.116,12.6629C 383.116,12.2082 383.171,11.4154 383.223,11.0105C 383.784,6.27348 387.605,4.77006 392.083,4.77006C 396.556,4.77006 400.483,6.26109 400.948,11.0105C 401.021,11.797 400.995,12.6629 400.998,12.6629L 400.998,13.5022L 394.637,13.5022L 394.637,12.0841C 394.637,12.0841 394.63,11.4852 394.554,11.1346C 394.44,10.5791 393.962,9.29594 392.03,9.29594C 390.199,9.29594 389.656,10.5108 389.517,11.1346C 389.444,11.4541 389.414,11.9042 389.414,12.3169L 389.414,23.8636C 389.411,24.1847 389.427,24.5385 389.472,24.8255C 389.593,25.4988 390.229,26.6501 392.055,26.6501 Z "/>
			<rect x="216.698" y="49.0803" fill="#FFFFFF" fill-opacity="1" stroke-width="0.2" stroke-linejoin="round" width="11.0145" height="59.1221"/>
			<path fill="#FFFFFF" fill-opacity="1" stroke-width="0.2" stroke-linejoin="round" d="M 235.075,60.8223L 245.929,60.8223L 245.929,67.2954C 247.492,65.3172 249.476,63.7315 251.883,62.5352C 254.281,61.339 257.023,60.7401 260.101,60.7401C 265.988,60.7401 270.595,62.4903 273.909,65.9905C 277.232,69.4862 278.892,74.3612 278.892,80.6156L 278.892,108.202L 267.8,108.202L 267.8,81.8521C 267.8,78.2634 266.903,75.4287 265.124,73.3418C 263.344,71.2596 260.668,70.2186 257.108,70.2186C 253.971,70.2186 251.341,71.2984 249.205,73.4613C 247.076,75.6272 246.01,78.7366 246.01,82.8017L 246.01,108.202L 235.075,108.202L 235.075,60.8223 Z "/>
			<path fill="#FFFFFF" fill-opacity="1" stroke-width="0.2" stroke-linejoin="round" d="M 281.482,60.8223L 289.583,60.8223L 289.583,53.6153L 300.596,46.0825L 300.596,60.8223L 310.233,60.8223L 310.233,70.6235L 300.596,70.6235L 300.596,88.3609C 300.596,90.4137 300.703,92.0738 300.918,93.3399C 301.137,94.609 301.586,95.5803 302.258,96.2568C 302.929,96.9317 303.905,97.377 305.171,97.5943C 306.444,97.8084 308.13,97.917 310.233,97.917L 310.233,108.202L 308.696,108.202C 305.026,108.202 301.961,107.879 299.502,107.231C 297.044,106.581 295.092,105.49 293.629,103.951C 292.174,102.412 291.133,100.386 290.512,97.8782C 289.893,95.3662 289.583,92.2196 289.583,88.4385L 289.583,70.6235L 281.482,70.6235L 281.482,60.8223 Z "/>
			<path fill="#FFFFFF" fill-opacity="1" stroke-width="0.2" stroke-linejoin="round" d="M 336.967,70.3795C 333.678,70.3795 330.823,71.1087 328.424,72.5609C 326.018,74.0179 324.331,75.9356 323.361,78.3157L 350.253,78.3157C 349.443,75.7152 347.874,73.7417 345.555,72.3965C 343.234,71.0528 340.366,70.3795 336.967,70.3795 Z M 337.375,108.286C 333.65,108.286 330.244,107.673 327.166,106.45C 324.094,105.226 321.458,103.549 319.27,101.414C 317.087,99.2819 315.388,96.7699 314.168,93.8794C 312.955,90.9934 312.348,87.909 312.348,84.6305C 312.348,81.3009 312.981,78.176 314.252,75.2607C 315.52,72.3468 317.259,69.8224 319.475,67.6906C 321.687,65.5557 324.292,63.8644 327.291,62.6155C 330.289,61.3664 333.512,60.7411 336.967,60.7411C 340.48,60.7411 343.729,61.3106 346.728,62.451C 349.727,63.5883 352.304,65.1817 354.466,67.2329C 356.621,69.2825 358.309,71.7014 359.528,74.4849C 360.74,77.2699 361.347,80.3063 361.347,83.5987L 361.347,87.4698L 322.795,87.4698C 323.552,90.8182 325.194,93.5179 327.732,95.5674C 330.27,97.6202 333.487,98.6457 337.375,98.6457C 340.453,98.6457 343.122,97.8901 345.39,96.3774C 347.657,94.8661 349.358,92.8429 350.492,90.3046L 359.482,95.4883C 357.43,99.3207 354.559,102.413 350.86,104.762C 347.156,107.108 342.667,108.286 337.375,108.286 Z "/>
			<path fill="#FFFFFF" fill-opacity="1" stroke-width="0.2" stroke-linejoin="round" d="M 366.204,60.8223L 377.06,60.8223L 377.06,67.8695C 379.274,63.173 383.321,60.8223 389.208,60.8223C 390.933,60.8223 392.489,61.0147 393.867,61.3902C 395.238,61.7687 396.47,62.2528 397.552,62.8456L 393.418,73.2131C 392.609,72.6762 391.706,72.2293 390.703,71.8787C 389.707,71.5265 388.422,71.3527 386.86,71.3527C 383.672,71.3527 381.257,72.2558 379.611,74.0649C 377.962,75.8739 377.139,78.8298 377.139,82.932L 377.139,108.202L 366.204,108.202L 366.204,60.8223 Z "/>
			<path fill="#FFFFFF" fill-opacity="1" stroke-width="0.2" stroke-linejoin="round" d="M 401.111,60.8223L 411.966,60.8223L 411.966,67.2954C 413.528,65.3172 415.511,63.7315 417.918,62.5352C 420.316,61.339 423.06,60.7401 426.138,60.7401C 432.023,60.7401 436.631,62.4903 439.945,65.9905C 443.267,69.4862 444.927,74.3612 444.927,80.6156L 444.927,108.202L 433.835,108.202L 433.835,81.8521C 433.835,78.2634 432.94,75.4287 431.159,73.3418C 429.381,71.2596 426.704,70.2186 423.145,70.2186C 420.008,70.2186 417.376,71.2984 415.241,73.4613C 413.113,75.6272 412.045,78.7366 412.045,82.8017L 412.045,108.202L 401.111,108.202L 401.111,60.8223 Z "/>
			<path fill="#FFFFFF" fill-opacity="1" stroke-width="0.2" stroke-linejoin="round" d="M 474.324,70.3795C 471.036,70.3795 468.181,71.1087 465.783,72.5609C 463.376,74.0179 461.688,75.9356 460.72,78.3157L 487.611,78.3157C 486.802,75.7152 485.233,73.7417 482.912,72.3965C 480.592,71.0528 477.725,70.3795 474.324,70.3795 Z M 474.733,108.286C 471.008,108.286 467.601,107.673 464.524,106.45C 461.452,105.226 458.816,103.549 456.628,101.414C 454.445,99.2819 452.745,96.7699 451.527,93.8794C 450.312,90.9934 449.707,87.909 449.707,84.6305C 449.707,81.3009 450.34,78.176 451.611,75.2607C 452.877,72.3468 454.617,69.8224 456.832,67.6906C 459.046,65.5557 461.649,63.8644 464.65,62.6155C 467.648,61.3664 470.87,60.7411 474.324,60.7411C 477.838,60.7411 481.086,61.3106 484.086,62.451C 487.085,63.5883 489.663,65.1817 491.824,67.2329C 493.979,69.2825 495.667,71.7014 496.885,74.4849C 498.098,77.2699 498.705,80.3063 498.705,83.5987L 498.705,87.4698L 460.153,87.4698C 460.911,90.8182 462.552,93.5179 465.091,95.5674C 467.629,97.6202 470.845,98.6457 474.733,98.6457C 477.81,98.6457 480.48,97.8901 482.749,96.3774C 485.016,94.8661 486.715,92.8429 487.849,90.3046L 496.84,95.4883C 494.789,99.3207 491.915,102.413 488.218,104.762C 484.513,107.108 480.026,108.286 474.733,108.286 Z "/>
			<path fill="#FFFFFF" fill-opacity="1" stroke-width="0.2" stroke-linejoin="round" d="M 499.832,60.8223L 507.933,60.8223L 507.933,53.6153L 518.946,46.0825L 518.946,60.8223L 528.581,60.8223L 528.581,70.6235L 518.946,70.6235L 518.946,88.3609C 518.946,90.4137 519.051,92.0738 519.268,93.3399C 519.486,94.609 519.934,95.5803 520.607,96.2568C 521.279,96.9317 522.254,97.377 523.521,97.5943C 524.792,97.8084 526.48,97.917 528.581,97.917L 528.581,108.202L 527.046,108.202C 523.375,108.202 520.31,107.879 517.852,107.231C 515.393,106.581 513.441,105.49 511.979,103.951C 510.522,102.412 509.481,100.386 508.861,97.8782C 508.242,95.3662 507.933,92.2196 507.933,88.4385L 507.933,70.6235L 499.832,70.6235L 499.832,60.8223 Z "/>
		</g>
		<g>
			<path fill="#FFFFFF" fill-opacity="1" stroke-width="0.2" stroke-linejoin="round" d="M 226.92,159.922C 228.935,159.922 230.727,159.569 232.294,158.864C 233.862,158.159 235.198,157.167 236.303,155.887C 237.408,154.607 238.248,153.095 238.823,151.353C 239.398,149.61 239.685,147.699 239.685,145.619C 239.685,143.539 239.398,141.619 238.823,139.859C 238.248,138.099 237.408,136.587 236.303,135.322C 235.198,134.057 233.862,133.064 232.294,132.344C 230.727,131.624 228.935,131.264 226.92,131.264L 219.668,131.264L 219.668,159.922L 226.92,159.922 Z M 216.698,162.562L 216.698,128.624L 227.205,128.624C 229.575,128.624 231.712,129.04 233.614,129.873C 235.516,130.705 237.14,131.874 238.485,133.379C 239.83,134.884 240.87,136.677 241.605,138.757C 242.34,140.837 242.708,143.124 242.708,145.619C 242.708,148.114 242.34,150.402 241.605,152.482C 240.87,154.562 239.83,156.345 238.485,157.833C 237.14,159.32 235.516,160.48 233.614,161.313C 231.712,162.145 229.575,162.562 227.205,162.562L 216.698,162.562 Z "/>
			<path fill="#FFFFFF" fill-opacity="1" stroke-width="0.2" stroke-linejoin="round" d="M 267.578,160.784C 266.393,161.519 265.136,162.079 263.809,162.464C 262.481,162.849 261.065,163.042 259.56,163.042C 257.705,163.042 256.049,162.729 254.591,162.104C 253.134,161.479 251.909,160.607 250.916,159.487C 249.924,158.367 249.164,157.007 248.636,155.407C 248.109,153.807 247.845,152.032 247.845,150.082C 247.845,148.352 248.054,146.719 248.471,145.184C 248.889,143.649 249.521,142.305 250.369,141.153C 251.216,140 252.288,139.088 253.583,138.415C 254.878,137.743 256.405,137.407 258.165,137.407C 259.735,137.407 261.136,137.687 262.369,138.247C 263.602,138.807 264.641,139.575 265.489,140.553C 266.336,141.53 266.977,142.699 267.409,144.059C 267.841,145.419 268.058,146.899 268.058,148.499C 268.058,148.944 268.041,149.392 268.009,149.842C 267.977,150.292 267.928,150.692 267.863,151.042L 250.68,151.042C 250.84,154.017 251.688,156.344 253.223,158.024C 254.758,159.704 256.903,160.544 259.658,160.544C 260.873,160.544 262.057,160.368 263.209,160.015C 264.362,159.663 265.498,159.167 266.618,158.527L 267.578,160.784 Z M 265.32,148.739C 265.285,146.019 264.676,143.867 263.494,142.282C 262.311,140.697 260.553,139.904 258.218,139.904C 256.968,139.904 255.886,140.137 254.974,140.602C 254.061,141.067 253.294,141.699 252.672,142.499C 252.049,143.299 251.578,144.235 251.258,145.308C 250.938,146.38 250.728,147.524 250.628,148.739L 265.32,148.739 Z "/>
			<path fill="#FFFFFF" fill-opacity="1" stroke-width="0.640055" stroke-linejoin="round" d="M 283.268,162.562L 280.245,162.562L 270.938,137.887L 273.96,137.887L 281.738,159.344L 289.703,137.887L 292.538,137.887L 283.268,162.562 Z "/>
			<path fill="#FFFFFF" fill-opacity="1" stroke-width="0.640055" stroke-linejoin="round" d="M 315.098,160.784C 313.913,161.519 312.656,162.079 311.329,162.464C 310.001,162.849 308.585,163.042 307.08,163.042C 305.225,163.042 303.569,162.729 302.112,162.104C 300.654,161.479 299.429,160.607 298.436,159.487C 297.444,158.367 296.684,157.007 296.156,155.407C 295.629,153.807 295.365,152.032 295.365,150.082C 295.365,148.352 295.574,146.719 295.991,145.184C 296.409,143.649 297.042,142.305 297.889,141.153C 298.737,140 299.808,139.088 301.103,138.415C 302.398,137.743 303.925,137.407 305.685,137.407C 307.255,137.407 308.656,137.687 309.889,138.247C 311.122,138.807 312.161,139.575 313.009,140.553C 313.856,141.53 314.497,142.699 314.929,144.059C 315.362,145.419 315.578,146.899 315.578,148.499C 315.578,148.944 315.561,149.392 315.529,149.842C 315.497,150.292 315.448,150.692 315.383,151.042L 298.2,151.042C 298.36,154.017 299.208,156.344 300.743,158.024C 302.278,159.704 304.423,160.544 307.178,160.544C 308.393,160.544 309.577,160.368 310.729,160.015C 311.882,159.663 313.018,159.167 314.138,158.527L 315.098,160.784 Z M 312.84,148.739C 312.805,146.019 312.196,143.867 311.014,142.282C 309.831,140.697 308.073,139.904 305.738,139.904C 304.488,139.904 303.406,140.137 302.494,140.602C 301.581,141.067 300.814,141.699 300.192,142.499C 299.569,143.299 299.098,144.235 298.778,145.308C 298.458,146.38 298.248,147.524 298.148,148.739L 312.84,148.739 Z "/>
			<path fill="#FFFFFF" fill-opacity="1" stroke-width="0.640055" stroke-linejoin="round" d="M 325.028,162.562L 322.245,162.562L 322.245,126.659L 325.028,126.419L 325.028,162.562 Z "/>
			<path fill="#FFFFFF" fill-opacity="1" stroke-width="0.640055" stroke-linejoin="round" d="M 346.298,159.779C 347.353,159.264 348.231,158.543 348.934,157.615C 349.636,156.688 350.173,155.6 350.543,154.353C 350.913,153.105 351.098,151.729 351.098,150.224C 351.098,148.754 350.913,147.387 350.543,146.122C 350.173,144.857 349.636,143.76 348.934,142.833C 348.231,141.905 347.351,141.185 346.294,140.673C 345.236,140.16 344.02,139.904 342.645,139.904C 341.27,139.904 340.055,140.16 339,140.673C 337.945,141.185 337.065,141.905 336.36,142.833C 335.655,143.76 335.119,144.857 334.751,146.122C 334.384,147.387 334.2,148.754 334.2,150.224C 334.2,151.729 334.384,153.105 334.751,154.353C 335.119,155.6 335.655,156.688 336.36,157.615C 337.065,158.543 337.945,159.263 339,159.775C 340.055,160.288 341.27,160.544 342.645,160.544C 344.02,160.544 345.238,160.289 346.298,159.779 Z M 350.948,159.487C 349.988,160.607 348.813,161.479 347.423,162.104C 346.033,162.729 344.44,163.042 342.645,163.042C 340.855,163.042 339.264,162.729 337.871,162.104C 336.479,161.479 335.303,160.599 334.343,159.464C 333.383,158.329 332.646,156.978 332.134,155.41C 331.621,153.843 331.365,152.114 331.365,150.224C 331.365,148.339 331.621,146.612 332.134,145.042C 332.646,143.472 333.383,142.119 334.343,140.984C 335.303,139.849 336.479,138.969 337.871,138.344C 339.264,137.719 340.855,137.407 342.645,137.407C 344.44,137.407 346.033,137.719 347.423,138.344C 348.813,138.969 349.988,139.849 350.948,140.984C 351.908,142.119 352.644,143.472 353.156,145.042C 353.669,146.612 353.925,148.339 353.925,150.224C 353.925,152.114 353.669,153.843 353.156,155.41C 352.644,156.978 351.908,158.337 350.948,159.487 Z "/>
			<path fill="#FFFFFF" fill-opacity="1" stroke-width="0.640055" stroke-linejoin="round" d="M 363.285,173.699L 360.503,173.699L 360.503,137.984L 362.948,137.744L 363.24,140.917C 364.485,139.892 365.82,139.05 367.245,138.393C 368.67,137.735 370.183,137.407 371.783,137.407C 373.353,137.407 374.738,137.743 375.938,138.415C 377.138,139.088 378.153,139.993 378.983,141.13C 379.813,142.268 380.444,143.588 380.876,145.09C 381.309,146.593 381.525,148.177 381.525,149.842C 381.525,151.632 381.285,153.327 380.805,154.927C 380.325,156.527 379.621,157.927 378.694,159.127C 377.766,160.327 376.639,161.279 375.311,161.984C 373.984,162.689 372.455,163.042 370.725,163.042C 369.255,163.042 367.888,162.802 366.623,162.322C 365.358,161.842 364.245,161.234 363.285,160.499L 363.285,173.699 Z M 363.285,157.904C 364.28,158.639 365.393,159.263 366.623,159.775C 367.853,160.288 369.125,160.544 370.44,160.544C 371.815,160.544 373.023,160.248 374.063,159.655C 375.103,159.063 375.966,158.272 376.654,157.282C 377.341,156.292 377.854,155.148 378.191,153.85C 378.529,152.553 378.698,151.202 378.698,149.797C 378.698,148.452 378.538,147.187 378.218,146.002C 377.898,144.817 377.425,143.768 376.8,142.855C 376.175,141.943 375.406,141.223 374.494,140.695C 373.581,140.168 372.518,139.904 371.303,139.904C 369.863,139.904 368.446,140.233 367.054,140.89C 365.661,141.548 364.405,142.339 363.285,143.264L 363.285,157.904 Z "/>
			<path fill="#FFFFFF" fill-opacity="1" stroke-width="0.640055" stroke-linejoin="round" d="M 405.818,160.784C 404.633,161.519 403.376,162.079 402.049,162.464C 400.721,162.849 399.305,163.042 397.8,163.042C 395.945,163.042 394.289,162.729 392.831,162.104C 391.374,161.479 390.149,160.607 389.156,159.487C 388.164,158.367 387.404,157.007 386.876,155.407C 386.349,153.807 386.085,152.032 386.085,150.082C 386.085,148.352 386.294,146.719 386.711,145.184C 387.129,143.649 387.761,142.305 388.609,141.153C 389.456,140 390.528,139.088 391.823,138.415C 393.118,137.743 394.645,137.407 396.405,137.407C 397.975,137.407 399.376,137.687 400.609,138.247C 401.841,138.807 402.881,139.575 403.729,140.553C 404.576,141.53 405.216,142.699 405.649,144.059C 406.081,145.419 406.298,146.899 406.298,148.499C 406.298,148.944 406.281,149.392 406.249,149.842C 406.216,150.292 406.168,150.692 406.103,151.042L 388.92,151.042C 389.08,154.017 389.928,156.344 391.463,158.024C 392.998,159.704 395.143,160.544 397.898,160.544C 399.113,160.544 400.297,160.368 401.449,160.015C 402.602,159.663 403.738,159.167 404.858,158.527L 405.818,160.784 Z M 403.56,148.739C 403.525,146.019 402.916,143.867 401.734,142.282C 400.551,140.697 398.793,139.904 396.458,139.904C 395.208,139.904 394.126,140.137 393.214,140.602C 392.301,141.067 391.534,141.699 390.911,142.499C 390.289,143.299 389.818,144.235 389.498,145.308C 389.178,146.38 388.968,147.524 388.868,148.739L 403.56,148.739 Z "/>
			<path fill="#FFFFFF" fill-opacity="1" stroke-width="0.640055" stroke-linejoin="round" d="M 415.605,162.562L 412.823,162.562L 412.823,137.984L 415.268,137.744L 415.605,141.487C 416.725,140.207 417.885,139.207 419.085,138.487C 420.285,137.767 421.525,137.407 422.805,137.407C 423.19,137.407 423.663,137.447 424.223,137.527C 424.783,137.607 425.255,137.712 425.64,137.842L 424.965,140.527C 424.135,140.272 423.32,140.144 422.52,140.144C 421.24,140.144 420.031,140.48 418.894,141.153C 417.756,141.825 416.66,142.769 415.605,143.984L 415.605,162.562 Z "/>
			<path fill="#FFFFFF" fill-opacity="1" stroke-width="0.640055" stroke-linejoin="round" d="M 467.978,162.562L 465,162.562L 465,146.864L 446.228,146.864L 446.228,162.562L 443.258,162.562L 443.258,128.624L 446.228,128.624L 446.228,144.224L 465,144.224L 465,128.624L 467.978,128.624L 467.978,162.562 Z "/>
			<path fill="#FFFFFF" fill-opacity="1" stroke-width="0.640055" stroke-linejoin="round" d="M 492.36,162.562C 492.265,162.212 492.185,161.797 492.12,161.317C 492.055,160.837 491.99,160.339 491.925,159.824C 490.71,160.719 489.375,161.479 487.92,162.104C 486.465,162.729 484.985,163.042 483.48,163.042C 482.165,163.042 481.036,162.794 480.094,162.299C 479.151,161.804 478.368,161.132 477.743,160.282C 477.118,159.432 476.654,158.423 476.351,157.255C 476.049,156.088 475.898,154.832 475.898,153.487L 475.898,137.984L 478.68,137.744L 478.68,153.247C 478.68,154.242 478.768,155.179 478.943,156.059C 479.118,156.939 479.414,157.715 479.831,158.388C 480.249,159.06 480.801,159.588 481.489,159.97C 482.176,160.353 483.033,160.544 484.058,160.544C 485.338,160.544 486.658,160.248 488.018,159.655C 489.378,159.063 490.648,158.337 491.828,157.477L 491.828,137.984L 494.618,137.744L 494.618,156.704C 494.618,157.634 494.641,158.61 494.689,159.633C 494.736,160.655 494.888,161.632 495.143,162.562L 492.36,162.562 Z "/>
			<path fill="#FFFFFF" fill-opacity="1" stroke-width="0.640055" stroke-linejoin="round" d="M 505.08,162.562L 502.725,162.562L 502.725,126.659L 505.508,126.419L 505.508,140.917C 506.728,139.892 508.049,139.05 509.471,138.393C 510.894,137.735 512.405,137.407 514.005,137.407C 515.575,137.407 516.96,137.743 518.16,138.415C 519.36,139.088 520.376,139.993 521.209,141.13C 522.041,142.268 522.673,143.588 523.103,145.09C 523.533,146.593 523.748,148.177 523.748,149.842C 523.748,151.632 523.508,153.327 523.028,154.927C 522.548,156.527 521.844,157.927 520.916,159.127C 519.989,160.327 518.854,161.279 517.511,161.984C 516.169,162.689 514.633,163.042 512.903,163.042C 511.433,163.042 510.049,162.785 508.751,162.273C 507.454,161.76 506.343,161.137 505.418,160.402L 505.08,162.562 Z M 505.508,157.904C 506.503,158.639 507.608,159.263 508.823,159.775C 510.038,160.288 511.318,160.544 512.663,160.544C 514.038,160.544 515.238,160.248 516.263,159.655C 517.288,159.063 518.144,158.272 518.831,157.282C 519.519,156.292 520.039,155.148 520.391,153.85C 520.744,152.553 520.92,151.202 520.92,149.797C 520.92,148.452 520.76,147.187 520.44,146.002C 520.12,144.817 519.648,143.768 519.023,142.855C 518.398,141.943 517.629,141.223 516.716,140.695C 515.804,140.168 514.74,139.904 513.525,139.904C 512.085,139.904 510.669,140.233 509.276,140.89C 507.884,141.548 506.628,142.339 505.508,143.264L 505.508,157.904 Z "/>
		</g>
	</g>
</svg>
