<?xml version="1.0" encoding="utf-8"?>
<!DOCTYPE svg PUBLIC "-//W3C//DTD SVG 1.1//EN" "http://www.w3.org/Graphics/SVG/1.1/DTD/svg11.dtd">
<svg xmlns="http://www.w3.org/2000/svg" xmlns:xlink="http://www.w3.org/1999/xlink" version="1.1" baseProfile="full" width="11.7961" height="9.4161" viewBox="0 0 11.80 9.42" enable-background="new 0 0 11.80 9.42" xml:space="preserve">
	<path fill="#3D3D3D" fill-opacity="1" stroke-width="0.2" stroke-linejoin="round" d="M 1.49597,3.66517C 1.49597,3.66517 -0.296021,2.50462 0.762085,0.422404C 0.762085,0.422404 2.4176,2.79478 5.77985,2.98252C 5.77985,2.98252 5.28497,1.42936 6.88922,0.337077C 6.88922,0.337077 8.37408,-0.704 9.92725,0.763773C 9.92725,0.763773 11.0024,0.482157 11.4632,0.149333C 11.4632,0.149333 11.4205,0.729624 10.4051,1.49766C 10.4051,1.49766 11.0707,1.42509 11.796,1.10939C 11.796,1.10939 11.5187,1.64698 10.5885,2.36808C 10.5885,2.36808 10.5868,2.39384 10.5823,2.44224C 10.6131,3.11097 10.5897,5.97447 8.14832,8.04136C 7.47034,8.68812 6.6062,9.19544 5.50543,9.41606C 2.70532,10.294 0,8.54148 0,8.54148C 0,8.54148 1.9115,8.86573 3.51587,7.53453C 3.51587,7.53453 2.03101,7.56864 1.263,5.8278C 1.263,5.8278 1.96271,5.94728 2.35529,5.77659C 2.35529,5.77659 0.512024,5.41819 0.409668,3.37013C 0.409668,3.37013 0.892822,3.70423 1.49597,3.66517 Z "/>
</svg>
