<?xml version="1.0" encoding="utf-8"?>
<!DOCTYPE svg PUBLIC "-//W3C//DTD SVG 1.1//EN" "http://www.w3.org/Graphics/SVG/1.1/DTD/svg11.dtd">
<svg xmlns="http://www.w3.org/2000/svg" xmlns:xlink="http://www.w3.org/1999/xlink" version="1.1" baseProfile="full" width="26.3882" height="21.5869" viewBox="0 0 26.39 21.59" enable-background="new 0 0 26.39 21.59" xml:space="preserve">
	<path fill="#FFFFFF" fill-opacity="1" stroke-width="0.2" stroke-linejoin="round" d="M 3.34668,8.19913C 3.34668,8.19913 -0.662231,5.60291 1.70496,0.944977C 1.70496,0.944977 5.40845,6.25198 12.9298,6.67194C 12.9298,6.67194 11.8226,3.19757 15.4115,0.754059C 15.4115,0.754059 18.7332,-1.57489 22.2075,1.70856C 22.2075,1.70856 24.6129,1.07861 25.6437,0.334106C 25.6437,0.334106 25.5482,1.6322 23.2765,3.35028C 23.2765,3.35028 24.7655,3.18802 26.3882,2.48172C 26.3882,2.48172 25.7678,3.68436 23.687,5.29749C 23.687,5.29749 23.6832,5.3551 23.6731,5.46341C 23.7418,6.95929 23.6896,13.3651 18.2281,17.9888C 16.7115,19.4357 14.7783,20.5705 12.3159,21.0641C 6.05182,23.028 0,19.1076 0,19.1076C 0,19.1076 4.27612,19.833 7.86505,16.855C 7.86505,16.855 4.54346,16.9313 2.82532,13.037C 2.82532,13.037 4.39069,13.3043 5.2688,12.9225C 5.2688,12.9225 1.14539,12.1207 0.916321,7.53909C 0.916321,7.53909 1.99731,8.28644 3.34668,8.19913 Z "/>
</svg>
