<?xml version="1.0" encoding="utf-8"?>
<!DOCTYPE svg PUBLIC "-//W3C//DTD SVG 1.1//EN" "http://www.w3.org/Graphics/SVG/1.1/DTD/svg11.dtd">
<svg xmlns="http://www.w3.org/2000/svg" xmlns:xlink="http://www.w3.org/1999/xlink" version="1.1" baseProfile="full" width="235.404" height="235.404" viewBox="0 0 235.40 235.40" enable-background="new 0 0 235.40 235.40" xml:space="preserve">
	<rect x="1.99997" y="2" fill="none" stroke-width="4" stroke-linejoin="round" stroke="#151213" stroke-opacity="1" width="231.404" height="231.404"/>
	<g>
		<path fill="none" stroke-width="3" stroke-linejoin="round" stroke="#151213" stroke-opacity="1" d="M 95.6295,54.5446C 103.348,54.1709 111.067,53.7971 118.425,53.7971C 125.782,53.7971 132.778,54.1709 139.774,54.5446C 161.845,54.5446 180.859,73.5583 180.859,95.6298C 181.233,102.842 181.607,110.054 181.607,117.412C 181.607,124.769 181.233,132.271 180.859,139.774C 180.859,161.845 161.845,180.859 139.774,180.859C 132.871,181.233 125.969,181.606 118.612,181.606C 111.254,181.606 103.442,181.233 95.6295,180.859C 73.5581,180.859 54.5446,161.845 54.5446,139.774C 54.1709,131.898 53.797,124.022 53.797,116.664C 53.797,109.307 54.1709,102.468 54.5446,95.6296C 54.5446,73.5582 73.5581,54.5446 95.6295,54.5446 Z "/>
		<g>
			<path fill="none" stroke-width="3" stroke-linejoin="round" stroke="#151213" stroke-opacity="1" d="M 118.163,77.184L 117.976,80.5474L 120.219,81.3883L 122.648,82.6028L 125.17,82.8832L 127.599,83.5371L 128.814,83.9109L 130.496,85.032L 130.496,86.4333L 130.589,88.2085L 131.15,89.7969L 133.579,91.1982L 135.354,92.3193L 136.288,92.3193L 136.382,93.4406L 136.475,95.2157L 135.728,96.3368L 134.887,97.6448L 134.7,98.3922L 135.728,99.7002L 137.036,100.635L 137.97,100.821L 139.371,99.9805L 140.866,98.1119L 142.268,97.2711L 143.482,97.5514L 145.257,98.1119L 146.939,99.3265L 147.687,99.7703L 147.687,100.845L 147.453,102.667L 146.612,102.713L 145.444,102.013L 143.342,101.826L 140.866,102.526L 140.072,103.04L 138.671,103.834L 136.802,104.255L 135.027,104.255L 132.831,104.722L 130.916,105.703L 129.982,107.478L 128.721,109.534L 128.02,110.655L 127.997,113.131L 127.903,115.093L 129.024,116.587L 130.145,117.802L 131.267,119.577L 132.014,120.231L 132.504,120.675L 132.972,121.142L 133.976,121.633L 134.864,121.586L 135.728,120.838L 136.849,120.044L 137.363,119.297L 138.04,118.713L 139.115,118.713L 139.768,119.46L 140.352,120.231L 141.252,120.874L 141.672,121.481L 142.139,122.555L 142.093,123.817L 142.093,124.938L 142.233,126.246L 142.7,127.087L 143.447,128.301L 143.634,130.17L 143.961,132.272L 143.984,133.557L 144.125,135.729L 144.125,137.27L 145.246,138.531L 146.717,139.443L 148.189,139.723L 149.45,140.283L 150.291,141.475C 150.291,141.475 151.552,142.315 151.903,142.315C 151.963,142.315 152.084,142.324 152.243,142.337C 157.206,135.392 160.127,126.887 160.127,117.7C 160.127,94.3999 141.341,75.4875 118.089,75.283L 118.163,77.184 Z "/>
			<path fill="none" stroke-width="3" stroke-linejoin="round" stroke="#151213" stroke-opacity="1" d="M 79.2036,118.292L 75.6534,118.573L 75.2986,118.63C 75.6533,135.127 85.4258,149.305 99.4545,156.002L 99.3842,153.608L 99.571,152.207L 100.225,149.871L 100.225,147.349L 100.412,144.452L 100.318,142.117L 99.2907,140.715L 98.7302,139.314L 97.0484,138.006L 95.7404,136.698L 94.1522,134.829L 94.0587,132.774L 93.4982,130.438L 93.4047,128.009L 94.2455,126.608L 94.7127,125.113L 94.6193,122.777L 93.3113,122.31L 92.4705,121.656L 90.3216,120.628L 87.7056,118.76L 86.5845,118.199L 82.7539,118.479L 79.2036,118.292 Z "/>
			<path fill="none" stroke-width="3" stroke-linejoin="round" stroke="#151213" stroke-opacity="1" d="M 103.121,156.738L 104.616,155.15L 106.858,153.001L 108.727,151.973L 110.689,149.824L 112.931,147.769L 114.332,145.526L 115.64,143.564L 116.575,142.817L 116.948,141.229L 117.602,139.454L 118.256,137.585L 119.377,135.997L 121.153,134.876L 121.153,131.325L 119.658,130.204L 118.256,129.924L 116.575,129.083L 114.986,128.616L 111.623,128.055L 109.941,126.187L 108.913,125.252L 107.325,123.291L 105.55,121.235L 103.962,119.647L 101.906,118.526L 99.1969,118.339L 97.5152,119.46L 96.3006,119.927L 94.3387,119.647L 92.3536,118.129L 90.1114,116.027L 89.1304,114.696L 86.6779,114.135L 85.5568,113.504L 85.0662,110.701L 85.6969,109.72L 87.4487,108.109L 88.5698,107.688L 90.1815,108.529L 91.5829,109.02L 92.9142,108.459L 93.1945,107.338L 93.685,105.656L 94.7361,103.344L 94.5959,101.312L 94.5259,100.331L 96.9783,98.0186L 98.9404,95.9865L 99.9914,95.7762L 100.342,96.6171L 101.603,96.6171L 102.934,95.496L 103.682,93.8142L 104.336,92.226L 103.962,90.7312L 103.962,84.5648L 105.457,83.5371L 107.139,82.9766L 107.699,82.416L 108.447,81.6686L 108.353,80.6409L 106.578,78.5854L 104.846,77.266C 87.7065,82.7129 75.2886,98.7563 75.2886,117.7C 75.2886,118.011 75.2919,118.321 75.2986,118.63L 75.6534,118.573L 79.2036,118.292L 82.7539,118.479L 86.5845,118.199L 87.7056,118.76L 90.3216,120.628L 92.4705,121.656L 93.3113,122.31L 94.6193,122.777L 94.7127,125.113L 94.2455,126.608L 93.4047,128.009L 93.4982,130.438L 94.0587,132.774L 94.1522,134.829L 95.7404,136.698L 97.0484,138.006L 98.7302,139.314L 99.2907,140.715L 100.318,142.117L 100.412,144.452L 100.225,147.349L 100.225,149.871L 99.571,152.207L 99.3842,153.608L 99.4545,156.002C 100.712,156.603 102.004,157.143 103.326,157.619L 103.121,156.738 Z "/>
			<path fill="none" stroke-width="3" stroke-linejoin="round" stroke="#151213" stroke-opacity="1" d="M 118.089,75.283C 117.962,75.2817 117.835,75.2813 117.708,75.2813C 113.224,75.2813 108.903,75.9768 104.846,77.266L 106.578,78.5854L 108.353,80.6409L 108.447,81.6686L 107.699,82.416L 107.139,82.9766L 105.457,83.5371L 103.962,84.5648L 103.962,90.7312L 104.336,92.226L 103.682,93.8142L 102.934,95.496L 101.603,96.6171L 100.342,96.6171L 99.9914,95.7762L 98.9404,95.9865L 96.9783,98.0186L 94.5259,100.331L 94.5959,101.312L 94.7361,103.344L 93.685,105.656L 93.1945,107.338L 92.9142,108.459L 91.5829,109.02L 90.1815,108.529L 88.5698,107.688L 87.4487,108.109L 85.6969,109.72L 85.0662,110.701L 85.5568,113.504L 86.6779,114.135L 89.1304,114.696L 90.1114,116.027L 92.3536,118.129L 94.3387,119.647L 96.3006,119.927L 97.5152,119.46L 99.1969,118.339L 101.906,118.526L 103.962,119.647L 105.55,121.235L 107.325,123.291L 108.913,125.252L 109.941,126.187L 111.623,128.055L 114.986,128.616L 116.575,129.083L 118.256,129.924L 119.658,130.204L 121.153,131.325L 121.153,134.876L 119.377,135.997L 118.256,137.585L 117.602,139.454L 116.948,141.229L 116.575,142.817L 115.64,143.564L 114.332,145.526L 112.931,147.769L 110.689,149.824L 108.727,151.973L 106.858,153.001L 104.616,155.15L 103.121,156.738L 103.326,157.619C 107.817,159.237 112.659,160.119 117.708,160.119C 131.948,160.119 144.549,153.102 152.243,142.337C 152.084,142.324 151.963,142.315 151.903,142.315C 151.552,142.315 150.291,141.475 150.291,141.475L 149.45,140.283L 148.189,139.723L 146.717,139.443L 145.246,138.531L 144.125,137.27L 144.125,135.729L 143.984,133.557L 143.961,132.272L 143.634,130.17L 143.447,128.301L 142.7,127.087L 142.233,126.246L 142.093,124.938L 142.093,123.817L 142.139,122.555L 141.672,121.481L 141.252,120.874L 140.352,120.231L 139.768,119.46L 139.115,118.713L 138.04,118.713L 137.363,119.297L 136.849,120.044L 135.728,120.838L 134.864,121.586L 133.976,121.633L 132.972,121.142L 132.504,120.675L 132.014,120.231L 131.267,119.577L 130.145,117.802L 129.024,116.587L 127.903,115.093L 127.997,113.131L 128.02,110.655L 128.721,109.534L 129.982,107.478L 130.916,105.703L 132.831,104.722L 135.027,104.255L 136.802,104.255L 138.671,103.834L 140.072,103.04L 140.866,102.526L 143.342,101.826L 145.444,102.013L 146.612,102.713L 147.453,102.667L 147.687,100.845L 147.687,99.7703L 146.939,99.3265L 145.257,98.1119L 143.482,97.5514L 142.268,97.2711L 140.866,98.1119L 139.371,99.9805L 137.97,100.821L 137.036,100.635L 135.728,99.7002L 134.7,98.3922L 134.887,97.6448L 135.728,96.3368L 136.475,95.2157L 136.382,93.4406L 136.288,92.3193L 135.354,92.3193L 133.579,91.1982L 131.15,89.7969L 130.589,88.2085L 130.496,86.4333L 130.496,85.032L 128.814,83.9109L 127.599,83.5371L 125.17,82.8832L 122.648,82.6028L 120.219,81.3883L 117.976,80.5474L 118.163,77.184L 118.089,75.283 Z "/>
		</g>
	</g>
	<g>
		<path fill="#000000" fill-opacity="1" stroke-linejoin="round" d="M 173.917,214.411C 174.687,215.075 175.541,215.598 176.479,215.981C 177.418,216.365 178.43,216.556 179.517,216.556C 180.287,216.556 181.002,216.45 181.662,216.236C 182.322,216.023 182.892,215.708 183.372,215.291C 183.852,214.875 184.231,214.352 184.509,213.724C 184.788,213.096 184.927,212.355 184.927,211.501C 184.927,210.605 184.778,209.836 184.479,209.196C 184.181,208.556 183.786,208.028 183.294,207.611C 182.803,207.195 182.243,206.885 181.614,206.684C 180.986,206.482 180.33,206.381 179.647,206.381C 178.9,206.381 178.132,206.493 177.342,206.716C 176.552,206.94 175.795,207.265 175.072,207.691L 174.112,206.956L 174.527,196.106L 185.502,196.106L 185.502,197.836L 176.317,197.836L 176.032,205.706C 176.628,205.386 177.268,205.136 177.949,204.956C 178.631,204.776 179.335,204.686 180.062,204.686C 180.958,204.686 181.818,204.83 182.639,205.116C 183.461,205.403 184.186,205.835 184.814,206.411C 185.443,206.988 185.943,207.698 186.317,208.541C 186.69,209.385 186.877,210.36 186.877,211.466C 186.877,212.533 186.701,213.488 186.349,214.331C 185.998,215.175 185.497,215.895 184.847,216.491C 184.197,217.088 183.423,217.541 182.527,217.851C 181.63,218.161 180.638,218.316 179.552,218.316C 177.075,218.316 174.888,217.485 172.992,215.821L 173.917,214.411 Z "/>
		<path fill="#000000" fill-opacity="1" stroke-linejoin="round" d="M 193.632,217.931C 193.375,218.188 193.022,218.316 192.572,218.316C 192.125,218.316 191.773,218.183 191.517,217.916C 191.26,217.65 191.132,217.303 191.132,216.876C 191.132,216.45 191.26,216.103 191.517,215.836C 191.773,215.57 192.125,215.436 192.572,215.436C 193.022,215.436 193.374,215.57 193.629,215.836C 193.884,216.103 194.012,216.45 194.012,216.876C 194.012,217.303 193.885,217.655 193.632,217.931 Z "/>
		<path fill="#000000" fill-opacity="1" stroke-linejoin="round" d="M 209.792,217.996L 207.932,217.996L 207.932,212.746L 197.277,212.746L 197.152,211.501L 207.677,196.106L 209.792,196.106L 209.792,211.051L 212.412,211.051L 212.412,212.746L 209.792,212.746L 209.792,217.996 Z M 207.932,211.051L 207.932,198.571L 199.422,211.051L 207.932,211.051 Z "/>
	</g>
</svg>
