<?xml version="1.0" encoding="utf-8"?>
<!DOCTYPE svg PUBLIC "-//W3C//DTD SVG 1.1//EN" "http://www.w3.org/Graphics/SVG/1.1/DTD/svg11.dtd">
<svg xmlns="http://www.w3.org/2000/svg" xmlns:xlink="http://www.w3.org/1999/xlink" version="1.1" baseProfile="full" width="235.404" height="235.404" viewBox="0 0 235.40 235.40" enable-background="new 0 0 235.40 235.40" xml:space="preserve">
	<path fill="none" stroke-width="3" stroke-linejoin="round" stroke="#151213" stroke-opacity="1" d="M 154.241,117.702L 81.1623,75.5095L 81.1622,159.894L 154.241,117.702 Z "/>
	<g>
		<path fill="#151213" fill-opacity="1" stroke-linejoin="round" d="M 152.94,197.248C 153.73,197.931 154.647,198.459 155.692,198.833C 156.737,199.206 157.803,199.393 158.89,199.393C 159.66,199.393 160.381,199.297 161.052,199.105C 161.724,198.914 162.305,198.625 162.795,198.24C 163.285,197.855 163.674,197.386 163.962,196.833C 164.251,196.279 164.395,195.649 164.395,194.943C 164.395,194.239 164.256,193.605 163.98,193.04C 163.703,192.475 163.319,191.99 162.827,191.585C 162.336,191.18 161.738,190.865 161.035,190.64C 160.331,190.415 159.563,190.303 158.73,190.303L 156.845,190.303L 156.845,188.608L 158.315,188.608C 159.915,188.608 161.163,188.214 162.06,187.425C 162.956,186.637 163.405,185.623 163.405,184.383C 163.405,183.766 163.287,183.207 163.052,182.705C 162.817,182.204 162.502,181.782 162.107,181.44C 161.712,181.099 161.243,180.837 160.7,180.655C 160.156,180.474 159.575,180.383 158.955,180.383C 158.038,180.383 157.126,180.569 156.22,180.943C 155.313,181.316 154.455,181.844 153.645,182.528L 152.685,181.153C 153.581,180.343 154.573,179.719 155.66,179.28C 156.746,178.842 157.866,178.623 159.02,178.623C 159.98,178.623 160.849,178.773 161.627,179.073C 162.406,179.373 163.072,179.779 163.627,180.29C 164.182,180.802 164.609,181.404 164.907,182.098C 165.206,182.791 165.355,183.533 165.355,184.323C 165.355,185.003 165.243,185.62 165.02,186.175C 164.796,186.73 164.503,187.216 164.14,187.633C 163.776,188.049 163.371,188.402 162.922,188.69C 162.474,188.979 162.016,189.196 161.55,189.343C 162.123,189.493 162.698,189.723 163.275,190.033C 163.851,190.343 164.364,190.732 164.812,191.2C 165.261,191.669 165.629,192.223 165.917,192.863C 166.206,193.503 166.35,194.229 166.35,195.043C 166.35,195.936 166.173,196.756 165.82,197.503C 165.466,198.249 164.97,198.895 164.33,199.44C 163.69,199.985 162.911,200.407 161.995,200.705C 161.078,201.004 160.043,201.153 158.89,201.153C 157.633,201.153 156.412,200.95 155.227,200.545C 154.042,200.14 152.96,199.499 151.98,198.623L 152.94,197.248 Z "/>
		<path fill="#151213" fill-opacity="1" stroke-linejoin="round" d="M 182.86,181.663C 181.41,180.809 179.991,180.383 178.605,180.383C 177.515,180.383 176.591,180.639 175.835,181.153C 175.078,181.666 174.46,182.359 173.98,183.233C 173.5,184.106 173.148,185.135 172.925,186.32C 172.701,187.505 172.578,188.779 172.555,190.143C 173.195,189.439 174.011,188.8 175.002,188.225C 175.994,187.65 177.183,187.363 178.57,187.363C 179.553,187.363 180.439,187.533 181.227,187.873C 182.016,188.213 182.687,188.687 183.242,189.295C 183.797,189.904 184.224,190.624 184.522,191.455C 184.82,192.287 184.97,193.194 184.97,194.178C 184.97,195.221 184.8,196.175 184.46,197.04C 184.12,197.905 183.651,198.642 183.052,199.25C 182.454,199.859 181.734,200.328 180.892,200.658C 180.051,200.988 179.138,201.153 178.155,201.153C 176.855,201.153 175.73,200.87 174.78,200.305C 173.83,199.74 173.046,198.967 172.427,197.985C 171.809,197.004 171.351,195.846 171.052,194.513C 170.754,193.179 170.605,191.744 170.605,190.208C 170.605,188.844 170.738,187.469 171.005,186.083C 171.271,184.696 171.714,183.453 172.332,182.353C 172.951,181.253 173.766,180.356 174.78,179.663C 175.793,178.969 177.046,178.623 178.54,178.623C 180.246,178.623 181.921,179.114 183.565,180.098L 182.86,181.663 Z M 175.085,189.888C 174.125,190.401 173.303,191.094 172.62,191.968C 172.813,194.251 173.379,196.059 174.317,197.393C 175.256,198.726 176.566,199.393 178.25,199.393C 178.956,199.393 179.596,199.264 180.17,199.008C 180.77,198.751 181.277,198.389 181.692,197.92C 182.107,197.452 182.432,196.903 182.667,196.273C 182.902,195.643 183.02,194.944 183.02,194.178C 183.02,192.684 182.598,191.469 181.755,190.53C 180.911,189.592 179.723,189.123 178.19,189.123C 177.08,189.123 176.045,189.378 175.085,189.888 Z "/>
		<path fill="#151213" fill-opacity="1" stroke-linejoin="round" d="M 198.25,198.623C 198.976,198.113 199.558,197.42 199.995,196.545C 200.431,195.67 200.746,194.657 200.94,193.505C 201.133,192.354 201.23,191.148 201.23,189.888C 201.23,188.631 201.133,187.426 200.94,186.273C 200.746,185.119 200.431,184.106 199.995,183.233C 199.558,182.359 198.982,181.666 198.267,181.153C 197.552,180.639 196.673,180.383 195.63,180.383C 194.583,180.383 193.702,180.639 192.987,181.153C 192.272,181.666 191.696,182.359 191.26,183.233C 190.823,184.106 190.509,185.119 190.317,186.273C 190.126,187.426 190.03,188.631 190.03,189.888C 190.03,191.148 190.126,192.354 190.317,193.505C 190.509,194.657 190.823,195.67 191.26,196.545C 191.696,197.42 192.272,198.114 192.987,198.625C 193.702,199.137 194.583,199.393 195.63,199.393C 196.673,199.393 197.546,199.136 198.25,198.623 Z M 201.42,197.763C 200.823,198.786 200.05,199.607 199.1,200.225C 198.15,200.844 196.993,201.153 195.63,201.153C 194.263,201.153 193.105,200.844 192.155,200.225C 191.205,199.607 190.426,198.78 189.82,197.745C 189.213,196.71 188.771,195.515 188.492,194.16C 188.214,192.805 188.075,191.381 188.075,189.888C 188.075,188.394 188.214,186.97 188.492,185.615C 188.771,184.26 189.213,183.066 189.82,182.033C 190.426,180.999 191.205,180.173 192.155,179.553C 193.105,178.933 194.263,178.623 195.63,178.623C 196.993,178.623 198.15,178.933 199.1,179.553C 200.05,180.173 200.829,180.999 201.437,182.033C 202.046,183.066 202.488,184.26 202.765,185.615C 203.041,186.97 203.18,188.394 203.18,189.888C 203.18,191.381 203.041,192.805 202.765,194.16C 202.488,195.515 202.04,196.716 201.42,197.763 Z "/>
		<path fill="#151213" fill-opacity="1" stroke-linejoin="round" d="M 212.3,185.183C 212.833,184.673 213.1,183.969 213.1,183.073C 213.1,182.176 212.833,181.472 212.3,180.96C 211.766,180.449 211.051,180.193 210.155,180.193C 209.258,180.193 208.543,180.449 208.01,180.96C 207.476,181.472 207.21,182.176 207.21,183.073C 207.21,183.969 207.476,184.674 208.01,185.185C 208.543,185.697 209.258,185.953 210.155,185.953C 211.051,185.953 211.766,185.696 212.3,185.183 Z M 214.83,183.073C 214.83,184.479 214.397,185.573 213.532,186.353C 212.667,187.133 211.541,187.523 210.155,187.523C 208.768,187.523 207.643,187.133 206.78,186.353C 205.916,185.573 205.485,184.479 205.485,183.073C 205.485,181.666 205.916,180.573 206.78,179.793C 207.643,179.013 208.768,178.623 210.155,178.623C 211.541,178.623 212.667,179.013 213.532,179.793C 214.397,180.573 214.83,181.666 214.83,183.073 Z "/>
	</g>
	<rect x="2" y="2" fill="none" stroke-width="4" stroke-linejoin="round" stroke="#151213" stroke-opacity="1" width="231.404" height="231.404"/>
</svg>
