<?xml version="1.0" encoding="utf-8"?>
<!DOCTYPE svg PUBLIC "-//W3C//DTD SVG 1.1//EN" "http://www.w3.org/Graphics/SVG/1.1/DTD/svg11.dtd">
<svg xmlns="http://www.w3.org/2000/svg" xmlns:xlink="http://www.w3.org/1999/xlink" version="1.1" baseProfile="full" width="235.404" height="235.404" viewBox="0 0 235.40 235.40" enable-background="new 0 0 235.40 235.40" xml:space="preserve">
	<rect x="1.99988" y="2" fill="none" stroke-width="4" stroke-linejoin="round" stroke="#151213" stroke-opacity="1" width="231.404" height="231.404"/>
	<g>
		<g>
			<path fill="none" stroke-width="3" stroke-linejoin="round" stroke="#151213" stroke-opacity="1" d="M 150.645,80.8195C 155.153,80.6012 159.661,80.3829 163.957,80.3829C 168.254,80.3829 172.339,80.6012 176.425,80.8195C 189.314,80.8195 200.417,91.923 200.417,104.812C 200.636,109.024 200.854,113.236 200.854,117.532C 200.854,121.829 200.636,126.21 200.417,130.591C 200.417,143.481 189.314,154.584 176.425,154.584C 172.394,154.802 168.363,155.021 164.066,155.021C 159.77,155.021 155.208,154.802 150.645,154.584C 137.756,154.584 126.653,143.481 126.653,130.591C 126.434,125.992 126.216,121.392 126.216,117.096C 126.216,112.799 126.434,108.806 126.653,104.812C 126.653,91.923 137.756,80.8195 150.645,80.8195 Z "/>
			<g>
				<path fill="none" stroke-width="3" stroke-linejoin="round" stroke="#151213" stroke-opacity="1" d="M 163.805,94.0404L 163.695,96.0045L 165.005,96.4956L 166.423,97.2048L 167.896,97.3685L 169.315,97.7505L 170.024,97.9686L 171.006,98.6234L 171.006,99.4418L 171.061,100.478L 171.388,101.406L 172.807,102.224L 173.844,102.879L 174.389,102.879L 174.444,103.534L 174.498,104.57L 174.062,105.225L 173.571,105.989L 173.462,106.425L 174.062,107.189L 174.826,107.735L 175.371,107.844L 176.19,107.353L 177.063,106.262L 177.881,105.771L 178.59,105.934L 179.627,106.262L 180.609,106.971L 181.045,107.23L 181.045,107.858L 180.909,108.922L 180.418,108.949L 179.736,108.54L 178.508,108.431L 177.063,108.84L 176.599,109.14L 175.78,109.604L 174.689,109.849L 173.653,109.849L 172.37,110.122L 171.252,110.695L 170.706,111.731L 169.97,112.932L 169.561,113.587L 169.547,115.032L 169.492,116.178L 170.147,117.051L 170.802,117.76L 171.457,118.797L 171.893,119.179L 172.179,119.438L 172.452,119.711L 173.039,119.997L 173.557,119.97L 174.062,119.534L 174.717,119.07L 175.017,118.633L 175.412,118.292L 176.04,118.292L 176.422,118.729L 176.762,119.179L 177.288,119.554L 177.533,119.909L 177.806,120.536L 177.779,121.273L 177.779,121.927L 177.861,122.691L 178.133,123.182L 178.57,123.892L 178.679,124.983L 178.87,126.21L 178.884,126.961L 178.965,128.229L 178.965,129.129L 179.62,129.866L 180.479,130.398L 181.339,130.562L 182.075,130.889L 182.566,131.585C 182.566,131.585 183.303,132.076 183.508,132.076C 183.543,132.076 183.613,132.081 183.706,132.089C 186.605,128.033 188.31,123.066 188.31,117.701C 188.31,104.094 177.34,93.0497 163.761,92.9302L 163.805,94.0404 Z "/>
				<path fill="none" stroke-width="3" stroke-linejoin="round" stroke="#151213" stroke-opacity="1" d="M 141.053,118.047L 138.98,118.21L 138.772,118.244C 138.98,127.878 144.687,136.157 152.879,140.068L 152.838,138.67L 152.947,137.852L 153.329,136.488L 153.329,135.015L 153.438,133.324L 153.384,131.96L 152.783,131.141L 152.456,130.323L 151.474,129.559L 150.71,128.795L 149.783,127.704L 149.728,126.504L 149.401,125.14L 149.346,123.721L 149.837,122.903L 150.11,122.03L 150.055,120.666L 149.292,120.393L 148.801,120.011L 147.546,119.411L 146.018,118.32L 145.363,117.992L 143.126,118.156L 141.053,118.047 Z "/>
				<path fill="none" stroke-width="3" stroke-linejoin="round" stroke="#151213" stroke-opacity="1" d="M 155.02,140.498L 155.893,139.57L 157.203,138.316L 158.294,137.715L 159.439,136.461L 160.749,135.26L 161.567,133.951L 162.331,132.805L 162.877,132.369L 163.095,131.441L 163.477,130.404L 163.859,129.313L 164.514,128.386L 165.55,127.731L 165.55,125.658L 164.677,125.003L 163.859,124.839L 162.877,124.348L 161.949,124.075L 159.985,123.748L 159.003,122.657L 158.403,122.111L 157.475,120.965L 156.439,119.765L 155.511,118.838L 154.311,118.183L 152.729,118.074L 151.747,118.729L 151.037,119.001L 149.891,118.838L 148.732,117.951L 147.423,116.724L 146.85,115.946L 145.418,115.619L 144.763,115.251L 144.477,113.614L 144.845,113.041L 145.868,112.1L 146.523,111.854L 147.464,112.345L 148.282,112.632L 149.06,112.304L 149.223,111.65L 149.51,110.668L 150.124,109.317L 150.042,108.13L 150.001,107.558L 151.433,106.207L 152.579,105.021L 153.193,104.898L 153.397,105.389L 154.134,105.389L 154.911,104.734L 155.348,103.752L 155.73,102.825L 155.511,101.952L 155.511,98.3506L 156.384,97.7505L 157.366,97.4231L 157.694,97.0957L 158.13,96.6593L 158.076,96.0591L 157.039,94.8588L 156.028,94.0883C 146.018,97.2692 138.767,106.638 138.767,117.701C 138.767,117.882 138.769,118.063 138.772,118.244L 138.98,118.21L 141.053,118.047L 143.126,118.156L 145.363,117.992L 146.018,118.32L 147.546,119.411L 148.801,120.011L 149.292,120.393L 150.055,120.666L 150.11,122.03L 149.837,122.903L 149.346,123.721L 149.401,125.14L 149.728,126.504L 149.783,127.704L 150.71,128.795L 151.474,129.559L 152.456,130.323L 152.783,131.141L 153.384,131.96L 153.438,133.324L 153.329,135.015L 153.329,136.488L 152.947,137.852L 152.838,138.67L 152.879,140.068C 153.613,140.419 154.368,140.734 155.14,141.013L 155.02,140.498 Z "/>
				<path fill="none" stroke-width="3" stroke-linejoin="round" stroke="#151213" stroke-opacity="1" d="M 163.761,92.9302C 163.687,92.9296 163.613,92.9292 163.538,92.9292C 160.92,92.9292 158.397,93.3353 156.028,94.0883L 157.039,94.8588L 158.076,96.0591L 158.13,96.6593L 157.694,97.0957L 157.366,97.4231L 156.384,97.7505L 155.511,98.3506L 155.511,101.952L 155.73,102.825L 155.348,103.752L 154.911,104.734L 154.134,105.389L 153.397,105.389L 153.193,104.898L 152.579,105.021L 151.433,106.207L 150.001,107.558L 150.042,108.13L 150.124,109.317L 149.51,110.668L 149.223,111.65L 149.06,112.304L 148.282,112.632L 147.464,112.345L 146.523,111.854L 145.868,112.1L 144.845,113.041L 144.477,113.614L 144.763,115.251L 145.418,115.619L 146.85,115.946L 147.423,116.724L 148.732,117.951L 149.891,118.838L 151.037,119.001L 151.747,118.729L 152.729,118.074L 154.311,118.183L 155.511,118.838L 156.439,119.765L 157.475,120.965L 158.403,122.111L 159.003,122.657L 159.985,123.748L 161.949,124.075L 162.877,124.348L 163.859,124.839L 164.677,125.003L 165.55,125.658L 165.55,127.731L 164.514,128.386L 163.859,129.313L 163.477,130.404L 163.095,131.441L 162.877,132.369L 162.331,132.805L 161.567,133.951L 160.749,135.26L 159.439,136.461L 158.294,137.715L 157.203,138.316L 155.893,139.57L 155.02,140.498L 155.14,141.013C 157.762,141.958 160.59,142.473 163.538,142.473C 171.854,142.473 179.213,138.375 183.706,132.089C 183.613,132.081 183.543,132.076 183.508,132.076C 183.303,132.076 182.566,131.585 182.566,131.585L 182.075,130.889L 181.339,130.562L 180.479,130.398L 179.62,129.866L 178.965,129.129L 178.965,128.229L 178.884,126.961L 178.87,126.21L 178.679,124.983L 178.57,123.892L 178.133,123.182L 177.861,122.691L 177.779,121.927L 177.779,121.273L 177.806,120.536L 177.533,119.909L 177.288,119.554L 176.762,119.179L 176.422,118.729L 176.04,118.292L 175.412,118.292L 175.017,118.633L 174.717,119.07L 174.062,119.534L 173.557,119.97L 173.039,119.997L 172.452,119.711L 172.179,119.438L 171.893,119.179L 171.457,118.797L 170.802,117.76L 170.147,117.051L 169.492,116.178L 169.547,115.032L 169.561,113.587L 169.97,112.932L 170.706,111.731L 171.252,110.695L 172.37,110.122L 173.653,109.849L 174.689,109.849L 175.78,109.604L 176.599,109.14L 177.063,108.84L 178.508,108.431L 179.736,108.54L 180.418,108.949L 180.909,108.922L 181.045,107.858L 181.045,107.23L 180.609,106.971L 179.627,106.262L 178.59,105.934L 177.881,105.771L 177.063,106.262L 176.19,107.353L 175.371,107.844L 174.826,107.735L 174.062,107.189L 173.462,106.425L 173.571,105.989L 174.062,105.225L 174.498,104.57L 174.444,103.534L 174.389,102.879L 173.844,102.879L 172.807,102.224L 171.388,101.406L 171.061,100.478L 171.006,99.4418L 171.006,98.6234L 170.024,97.9686L 169.315,97.7505L 167.896,97.3685L 166.423,97.2048L 165.005,96.4956L 163.695,96.0045L 163.805,94.0404L 163.761,92.9302 Z "/>
			</g>
		</g>
		<g>
			<g>
				<path fill="none" stroke-width="3" stroke-linejoin="round" stroke="#151213" stroke-opacity="1" d="M 39.0239,105.304L 39.0239,105.304C 41.4951,105.304 43.4985,107.307 43.4985,109.778L 43.4985,128.671C 43.4985,131.142 41.4951,133.145 39.0239,133.145L 39.0239,133.145C 36.5527,133.145 34.5494,131.142 34.5494,128.671L 34.5494,109.778C 34.5494,107.307 36.5527,105.304 39.0239,105.304 Z "/>
				<path fill="none" stroke-width="3" stroke-linejoin="round" stroke="#151213" stroke-opacity="1" d="M 92.1379,105.304L 92.1379,105.304C 94.6091,105.304 96.6125,107.307 96.6125,109.778L 96.6125,128.671C 96.6125,131.142 94.6091,133.145 92.1379,133.145L 92.1379,133.145C 89.6667,133.145 87.6635,131.142 87.6635,128.671L 87.6635,109.778C 87.6635,107.307 89.6667,105.304 92.1379,105.304 Z "/>
				<path fill="none" stroke-width="3" stroke-linejoin="round" stroke="#151213" stroke-opacity="1" d="M 62.4738,150.546C 62.4738,153.017 60.4705,155.021 57.9993,155.021C 55.5281,155.021 53.5247,153.017 53.5247,150.546L 53.5247,140.106L 50.0999,140.106C 47.4734,140.106 45.339,137.999 45.2947,135.383L 45.2939,135.383L 45.2939,135.3L 45.2939,113.839L 45.2939,106.188L 86.0615,106.188L 86.0615,113.778L 86.0619,113.839L 86.0619,135.3L 86.0615,135.36L 86.0615,135.383C 86.0168,137.999 83.8824,140.106 81.2559,140.106L 77.5544,140.106L 77.5544,150.546C 77.5544,153.017 75.5513,155.021 73.08,155.021C 70.6088,155.021 68.6055,153.017 68.6055,150.546L 68.6055,140.106L 62.4738,140.106L 62.4738,150.546 Z "/>
				<path fill="none" stroke-width="3" stroke-linejoin="round" stroke="#151213" stroke-opacity="1" d="M 86.1504,104.55L 45.1812,104.634C 45.5389,97.058 49.6454,91.2245 55.5984,88.1787L 52.458,82.3701C 52.2913,82.0615 52.4061,81.676 52.7148,81.5092C 53.0234,81.3424 53.4089,81.4573 53.5757,81.7659L 56.7488,87.6349C 59.4445,86.4615 62.4689,85.8314 65.6638,85.8314C 68.8926,85.8314 71.9469,86.4606 74.6641,87.6373L 77.8291,81.7664C 77.9956,81.4575 78.3809,81.3422 78.6897,81.5087C 78.9985,81.6752 79.1139,82.0604 78.9474,82.3693L 75.8154,88.1791C 81.7433,91.1986 85.8199,96.9698 86.1504,104.55 Z M 56.3005,93.6481C 55.2709,93.6481 54.4362,94.4828 54.4362,95.5125C 54.4362,96.5421 55.2709,97.3768 56.3005,97.3768C 57.3302,97.3768 58.1649,96.5421 58.1649,95.5125C 58.1649,94.4828 57.3302,93.6481 56.3005,93.6481 Z M 74.9443,93.6481C 73.9147,93.6481 73.08,94.4828 73.08,95.5126C 73.08,96.5421 73.9147,97.3768 74.9443,97.3768C 75.974,97.3768 76.8087,96.5421 76.8087,95.5126C 76.8087,94.4828 75.974,93.6481 74.9443,93.6481 Z "/>
			</g>
			<path fill="#151213" fill-opacity="1" stroke-width="3" stroke-linejoin="round" stroke="#151213" stroke-opacity="1" d="M 56.1287,94.8019C 56.6327,94.8019 57.0414,95.2106 57.0414,95.7146C 57.0414,96.2186 56.6328,96.6273 56.1287,96.6273C 55.6246,96.6273 55.2161,96.2186 55.2161,95.7146C 55.2161,95.2106 55.6248,94.8019 56.1287,94.8019 Z "/>
			<path fill="#151213" fill-opacity="1" stroke-width="3" stroke-linejoin="round" stroke="#151213" stroke-opacity="1" d="M 75.4164,94.5519C 76.0032,94.5519 76.4789,95.0277 76.4789,95.6144C 76.4789,96.2013 76.0032,96.6769 75.4164,96.6769C 74.8296,96.6769 74.3539,96.2013 74.3539,95.6144C 74.3539,95.0277 74.8296,94.5519 75.4164,94.5519 Z "/>
		</g>
	</g>
</svg>
