<?xml version="1.0" encoding="utf-8"?>
<!DOCTYPE svg PUBLIC "-//W3C//DTD SVG 1.1//EN" "http://www.w3.org/Graphics/SVG/1.1/DTD/svg11.dtd">
<svg xmlns="http://www.w3.org/2000/svg" xmlns:xlink="http://www.w3.org/1999/xlink" version="1.1" baseProfile="full" width="235.404" height="235.404" viewBox="0 0 235.40 235.40" enable-background="new 0 0 235.40 235.40" xml:space="preserve">
	<rect x="2" y="1.99988" fill="none" stroke-width="4" stroke-linejoin="round" stroke="#151213" stroke-opacity="1" width="231.404" height="231.404"/>
	<g>
		<path fill="none" stroke-width="3" stroke-linejoin="round" stroke="#151213" stroke-opacity="1" d="M 126.062,77.2346L 198.214,77.235C 198.277,76.5918 198.309,75.9396 198.309,75.2799C 198.309,64.3129 189.418,55.4224 178.451,55.4224C 177.433,55.4224 176.432,55.4991 175.454,55.6471C 171.607,44.9873 161.401,37.3676 149.415,37.3676C 137.852,37.3676 127.946,44.4585 123.807,54.5291C 121.595,53.6029 119.167,53.0913 116.62,53.0913C 108.495,53.0913 101.586,58.2948 99.0432,65.5508"/>
		<path fill="none" stroke-width="3" stroke-linejoin="round" stroke="#151213" stroke-opacity="1" d="M 143.5,90.4403C 143.5,83.3483 137.751,77.599 130.659,77.599C 129.208,77.599 127.813,77.8396 126.513,78.283C 123.634,70.0732 115.815,64.1864 106.622,64.1864C 103.621,64.1864 100.766,64.814 98.1815,65.9449C 93.9288,55.588 83.7427,48.2946 71.8531,48.2946C 56.1409,48.2946 43.4034,61.0319 43.4034,76.7441C 43.4034,81.7094 44.6754,86.3773 46.9112,90.4403L 143.5,90.4403 Z "/>
	</g>
	<g>
		<path fill="#151213" fill-opacity="1" fill-rule="evenodd" stroke-width="3" stroke-linejoin="round" d="M 92.6075,152.9C 101.29,152.9 108.328,159.938 108.328,168.62C 108.328,177.303 101.29,184.341 92.6075,184.341C 83.9253,184.341 76.8868,177.303 76.8868,168.62C 76.8868,159.938 83.9253,152.9 92.6075,152.9 Z M 92.6075,149.905C 102.943,149.905 111.323,158.284 111.323,168.62C 111.323,178.956 102.943,187.335 92.6075,187.335C 82.2715,187.335 73.8925,178.956 73.8925,168.62C 73.8925,158.284 82.2715,149.905 92.6075,149.905 Z "/>
		<path fill="#151213" fill-opacity="1" fill-rule="evenodd" stroke-width="3" stroke-linejoin="round" d="M 147.63,152.65C 156.312,152.65 163.35,159.689 163.35,168.371C 163.35,177.053 156.312,184.091 147.63,184.091C 138.947,184.091 131.909,177.053 131.909,168.371C 131.909,159.689 138.947,152.65 147.63,152.65 Z M 147.63,149.656C 157.966,149.656 166.345,158.035 166.345,168.371C 166.345,178.707 157.966,187.086 147.63,187.086C 137.294,187.086 128.915,178.707 128.915,168.371C 128.915,158.035 137.294,149.656 147.63,149.656 Z "/>
		<line fill="none" stroke-width="3" stroke-linejoin="round" stroke="#FFFFFF" stroke-opacity="1" x1="94.397" y1="207.638" x2="146.019" y2="207.638"/>
		<path fill="none" stroke-width="3" stroke-linejoin="round" stroke="#151213" stroke-opacity="1" d="M 50.701,131.672C 44.4327,133.943 40.2661,137.754 39.3043,144.887C 38.0566,154.141 37.8903,157.26 37.9597,156.809C 37.2111,164.378 35.6307,185.339 38.9578,191.827C 42.2849,198.315 49.8541,205.635 60.0018,207.548C 70.1495,209.461 82.543,212.538 91.1102,209.294C 99.6776,206.05 105.75,200.145 109.409,192.243C 113.069,184.341 114.76,179.932 114.594,178.768C 114.428,177.604 114.092,176.897 112.723,176.897C 111.354,176.897 109.61,178.071 107.361,182.26C 105.112,186.448 102.395,191.605 99.0676,192.88C 95.7405,194.156 87.9495,196.014 74.8906,192.021C 61.8317,188.029 59.17,186.989 57.1737,185.824C 55.1775,184.66 52.0583,183.87 51.9335,174.97C 51.8087,166.07 52.7653,154.744 52.7653,154.744C 52.7653,154.744 52.5157,153.246 57.2569,151.832C 61.998,150.418 73.5227,145.885 121.11,145.885C 168.697,145.885 174.454,148.408 178.863,150.155C 183.271,151.902 186.931,152.151 187.097,160.136C 187.264,168.121 187.097,181.097 186.598,182.345C 186.099,183.592 184.852,186.587 169.38,190.746C 153.909,194.905 142.265,197.234 136.858,189.332C 131.451,181.43 130.426,176.689 128.554,176.481C 126.683,176.273 124.271,176.522 126.807,182.594C 129.344,188.666 133.628,200.796 143.568,206.203C 153.507,211.609 153.66,212.164 173.9,208.504C 194.14,204.844 202.125,195.584 202.624,185.769C 203.123,175.954 202.665,144.915 198.299,139.882C 193.932,134.85 187.943,129.36 162.99,127.309C 138.036,125.257 97.2792,125.257 77.3165,127.42C 66.8964,128.549 57.5457,129.192 50.701,131.672"/>
	</g>
</svg>
