<?xml version="1.0" encoding="utf-8"?>
<!DOCTYPE svg PUBLIC "-//W3C//DTD SVG 1.1//EN" "http://www.w3.org/Graphics/SVG/1.1/DTD/svg11.dtd">
<svg xmlns="http://www.w3.org/2000/svg" xmlns:xlink="http://www.w3.org/1999/xlink" version="1.1" baseProfile="full" width="22.8489" height="22.9144" viewBox="0 0 22.85 22.91" enable-background="new 0 0 22.85 22.91" xml:space="preserve">
	<g>
		<path fill="none" stroke-width="2" stroke-linejoin="round" stroke="#FFFFFF" stroke-opacity="1" d="M 6.72186,1.00004L 16.127,1.00004C 19.2871,1.00004 21.8489,3.56181 21.8489,6.7219L 21.8489,16.1925C 21.8489,19.3527 19.2871,21.9145 16.127,21.9145L 6.72186,21.9145C 3.56177,21.9145 1,19.3527 1,16.1925L 1,6.7219C 1,3.56181 3.56177,1.00004 6.72186,1.00004 Z "/>
		<path fill="none" stroke-width="2" stroke-linejoin="round" stroke="#FFFFFF" stroke-opacity="1" d="M 11.3916,6.52464L 11.3917,6.52464C 14.1159,6.52464 16.3243,8.73307 16.3243,11.4573L 16.3243,11.4573C 16.3243,14.1815 14.1159,16.3899 11.3917,16.3899L 11.3916,16.3899C 8.66742,16.3899 6.45898,14.1815 6.45898,11.4573L 6.45898,11.4573C 6.45898,8.73307 8.66742,6.52464 11.3916,6.52464 Z "/>
		<path fill="#FFFFFF" fill-opacity="1" stroke-width="0.2" stroke-linejoin="round" d="M 17.6177,3.87199L 17.6177,3.87199C 18.3926,3.87199 19.0208,4.50016 19.0208,5.27506L 19.0208,5.27506C 19.0208,6.04996 18.3926,6.67814 17.6177,6.67814L 17.6177,6.67814C 16.8428,6.67814 16.2146,6.04996 16.2146,5.27506L 16.2146,5.27506C 16.2146,4.50016 16.8428,3.87199 17.6177,3.87199 Z "/>
	</g>
</svg>
